<svg xmlns="http://www.w3.org/2000/svg" xmlns:xlink="http://www.w3.org/1999/xlink" viewBox="0 0 108.87 122.45"><defs><style>.cls-1{fill:#3c3c3b;}.cls-2{fill:url(#Dégradé_sans_nom_17);}.cls-3{fill:#fff;}.cls-4{fill:#1f9ab7;}</style><linearGradient id="Dégradé_sans_nom_17" x1="27.59" y1="107.81" x2="81.6" y2="14.27" gradientUnits="userSpaceOnUse"><stop offset="0" stop-color="#ae285e"/><stop offset="0.22" stop-color="#b42c57"/><stop offset="0.52" stop-color="#c43645"/><stop offset="0.88" stop-color="#de4727"/><stop offset="1" stop-color="#e94e1b"/></linearGradient></defs><g id="Calque_2" data-name="Calque 2"><g id="Calque_1-2" data-name="Calque 1"><path class="cls-1" d="M47.07,33.29l-.7.19A28.51,28.51,0,0,0,61.18,88.53l.7-.19a28.51,28.51,0,0,0-14.81-55Zm14.23,53-.66.18a26.42,26.42,0,1,1,.66-.18Z"/><path class="cls-1" d="M88.06,55.67,88,54.92l5.74-1.84a.46.46,0,0,0,.28-.17l-1.85-6.33a.49.49,0,0,0-.26,0L86,48.08l-.29-.69a34.53,34.53,0,0,0-5.09-8.34l-.48-.57,4-4.53c.13-.14.17-.25.16-.29l-4.89-4.54c0,.05-.07.1-.16.2l-4.28,4.29-.61-.45a35.13,35.13,0,0,0-7.24-4l-.7-.28L67.74,23a.51.51,0,0,0,0-.33L61.27,21c.06,0,0,.12-.05.26L59.51,27l-.74-.1A33.61,33.61,0,0,0,49,27l-.74.11-1.82-5.67a.46.46,0,0,0-.17-.28L39.88,23c.06,0,0,.11.08.24L41.42,29l-.69.3a33.9,33.9,0,0,0-8.42,5.09l-.58.48L27.32,31a.54.54,0,0,0-.29-.16l-4.54,4.89c.05,0,.1.07.2.17l4.16,4.15-.44.61A34.58,34.58,0,0,0,22.33,48l-.28.69-5.68-1.31a.47.47,0,0,0-.33,0l-1.67,6.46c0-.05.11,0,.25,0l5.58,1.66-.1.75a34.23,34.23,0,0,0,.1,9.85l.12.74L14.8,68.67a.46.46,0,0,0-.28.17l1.87,6.41c0-.06.09,0,.23-.09h0l5.64-1.42.29.69a34.38,34.38,0,0,0,5.16,8.46l.48.57L24.39,87.8c-.13.14-.17.26-.16.29l4.89,4.54s.07-.09.16-.2l4.12-4.12.6.44a34.59,34.59,0,0,0,7.37,4.06l.69.28-1.3,5.66a.5.5,0,0,0,0,.34l6.46,1.66c-.06,0,0-.11.05-.25l1.67-5.6.74.09a34,34,0,0,0,9.82-.14l.75-.12L62,100.32a.54.54,0,0,0,.17.29l6.4-1.88c-.06,0,0-.1-.08-.24l-1.46-5.74.69-.3a34.36,34.36,0,0,0,8.38-5.15l.58-.48,4.45,3.92c.14.13.26.16.29.15L86,86c-.07,0-.1-.07-.2-.17l-4.24-4.22L82,81a34.64,34.64,0,0,0,4-7.28l.28-.7,5.84,1.35a.71.71,0,0,0,.34,0l1.66-6.46s-.11,0-.25,0l-5.78-1.73.1-.74A34.06,34.06,0,0,0,88.06,55.67ZM62.12,89.18l-.72.19A29.38,29.38,0,0,1,46.13,32.63l.73-.19A29.38,29.38,0,0,1,62.12,89.18Z"/><path class="cls-2" d="M55.54,122a1.42,1.42,0,0,1-1.08-.52l-.18-.22L3.6,93.8a1.37,1.37,0,0,1-1.05-.62,1.38,1.38,0,0,1,.1-1.63L.57,33.21l0-.07a1.39,1.39,0,0,1,1.08-1.85l1.11-.19,48.62-30A1.38,1.38,0,0,1,52.52.5h.22a1.49,1.49,0,0,1,.66.16l53.26,28.08a1.41,1.41,0,0,1,.75,1.21l1,60a1.41,1.41,0,0,1-.68,1.23l-51,30.57a1.26,1.26,0,0,1-.66.18l-.25,0a.86.86,0,0,1-.24,0Zm0-3.7L83.83,79.71l-58.06,1.6Zm5-2,43.44-26.07-17-9.84Zm-10.71-.69L22.7,82,6.62,92.25ZM5.39,89.7,21.25,79.56,3.62,40Zm100.14-1.81-.84-52.35L88.23,77.89ZM25.66,78.51l58.05-1.6L52.82,27Zm-2.43-1.4L50.1,26.18,3.92,33.76Zm62.91-1.59,17.25-44.35-48-5.34ZM10.05,29.91l41.07-6.74V4.55ZM99,27.86,53.92,4.11V22.85Z"/><path class="cls-3" d="M52.74,1a.87.87,0,0,1,.42.1l53.27,28.08a.9.9,0,0,1,.48.78l1,60a.9.9,0,0,1-.44.79l-51,30.57a.71.71,0,0,1-.4.11.9.9,0,0,1-.28,0,.79.79,0,0,1-.22.06h0a.91.91,0,0,1-.69-.34l-.24-.29L3.74,93.31h0a.87.87,0,0,1-.75-.4.88.88,0,0,1,.18-1.16L1.07,33.28a.75.75,0,0,1,0-.16l0-.08a.9.9,0,0,1,.67-1.26l1.2-.2L51.76,1.45A.9.9,0,0,1,52.52,1a.5.5,0,0,1,.13,0,.32.32,0,0,1,.09,0m.68,22.31h.12l48,5.34L53.42,3.28v20M7.63,30.81l44-7.22V3.66l-44,27.15M86.24,76.63l17.85-45.89L54.41,25.22,86.24,76.63m-63,1.62L51,25.52,3.6,33.3l-.34.21L23.19,78.25m1.63.78,59.77-1.65L52.78,26l-28,53m81.23,9.74L105.15,33,87.6,78.11l18.45,10.66M4.93,90.59l17-10.84L3,37.42l1.9,53.17m50.59,28.48L84.84,79.18,24.75,80.84l30.77,38.23M58.58,118l46.29-27.78L86.72,79.68,58.58,118m-6.89-.78L22.81,81.3l-17.18,11,46.06,24.9M52.74,0h-.22a1.88,1.88,0,0,0-1.46.7L2.6,30.63l-1,.16a1.9,1.9,0,0,0-1.36,1,1.93,1.93,0,0,0-.15,1.45.31.31,0,0,0,0,.1L2.15,91.4a1.87,1.87,0,0,0,1.3,2.89L54,121.6l.11.14a1.93,1.93,0,0,0,1.47.71h.07a1.57,1.57,0,0,0,.24,0h.22a1.79,1.79,0,0,0,.92-.25L108,91.6a1.89,1.89,0,0,0,.92-1.66l-1-60a1.92,1.92,0,0,0-1-1.66L53.63.22A2,2,0,0,0,52.74,0Zm1.68,22.4V4.94l42,22.13-42-4.67ZM12.46,29,50.62,5.45V22.74L12.46,29ZM86,74.4l-29.7-48,46.34,5.15L86,74.4ZM4.64,34.15l44.55-7.32L23.27,76,4.64,34.15ZM26.5,78,52.85,28l30,48.4L26.5,78Zm62.35-.31L104.23,38.1,105,87,88.85,77.67Zm-83,11.14L4.21,42.53,20.62,79.37,5.86,88.81Zm20.93-7,56-1.54L55.48,117.43,26.79,81.78Zm35.54,32.76L87,81l15.91,9.2L62.33,114.54ZM7.6,92.21l15-9.58,25.2,31.31L7.6,92.21Z"/><path class="cls-4" d="M54.86,48l3.33,6.75a.85.85,0,0,0,.62.45l7.45,1.08a.82.82,0,0,1,.46,1.4l-5.39,5.26a.83.83,0,0,0-.24.73l1.27,7.41a.82.82,0,0,1-1.19.87l-6.66-3.5a.81.81,0,0,0-.77,0l-6.66,3.5a.83.83,0,0,1-1.2-.87l1.28-7.41a.85.85,0,0,0-.24-.73l-5.39-5.26a.82.82,0,0,1,.46-1.4l7.44-1.08a.83.83,0,0,0,.62-.45L53.38,48A.82.82,0,0,1,54.86,48Z"/></g></g></svg>