<svg width="109" height="123" viewBox="0 0 109 123" fill="none" xmlns="http://www.w3.org/2000/svg">
<path d="M47.0574 33.29L46.3574 33.48C39.1985 35.5686 33.1429 40.379 29.489 46.8798C25.8351 53.3806 24.8737 61.0544 26.8111 68.2557C28.7484 75.457 33.4302 81.6125 39.8527 85.4025C46.2751 89.1925 53.9269 90.3153 61.1674 88.53L61.8674 88.34C68.8527 86.1081 74.7094 81.2703 78.2203 74.8322C81.7312 68.3941 82.6263 60.8507 80.7195 53.7697C78.8128 46.6887 74.2509 40.6147 67.9819 36.81C61.7129 33.0053 54.219 31.7626 47.0574 33.34V33.29ZM61.2874 86.29L60.6274 86.47C53.8727 88.2186 46.7005 87.2241 40.6763 83.7037C34.6521 80.1833 30.2652 74.4228 28.4729 67.6795C26.6806 60.9362 27.6286 53.7577 31.11 47.7109C34.5913 41.6641 40.3233 37.2399 47.0549 35.404C53.7864 33.5681 60.9709 34.4697 67.0401 37.9118C73.1094 41.3539 77.5705 47.0571 79.45 53.7767C81.3294 60.4962 80.4744 67.6863 77.0716 73.7777C73.6688 79.8691 67.9946 84.3671 61.2874 86.29V86.29Z" fill="#8E8E8E"/>
<path d="M88.0474 55.67L87.9874 54.92L93.7274 53.08C93.8384 53.0596 93.9381 52.9991 94.0074 52.91L92.1574 46.58C92.0723 46.5566 91.9825 46.5566 91.8974 46.58L85.9874 48.08L85.6974 47.39C84.4046 44.3828 82.6908 41.5747 80.6074 39.05L80.1274 38.48L84.1274 33.95C84.2574 33.81 84.2974 33.7 84.2874 33.66L79.3974 29.12C79.3974 29.17 79.3274 29.22 79.2374 29.32L74.9574 33.61L74.3474 33.16C72.1 31.5462 69.6698 30.2036 67.1074 29.16L66.4074 28.88L67.7274 23C67.764 22.893 67.764 22.777 67.7274 22.67L61.2574 21C61.3174 21 61.2574 21.12 61.2074 21.26L59.4974 27L58.7574 26.9C55.5133 26.4573 52.2218 26.491 48.9874 27L48.2474 27.11L46.4274 21.44C46.407 21.329 46.3465 21.2293 46.2574 21.16L39.8674 23C39.9274 23 39.8674 23.11 39.9474 23.24L41.4074 29L40.7174 29.3C37.6782 30.5782 34.8416 32.2929 32.2974 34.39L31.7174 34.87L27.3074 31C27.2299 30.9176 27.1285 30.8616 27.0174 30.84L22.4774 35.73C22.5274 35.73 22.5774 35.8 22.6774 35.9L26.8374 40.05L26.3974 40.66C24.7443 42.9318 23.3742 45.3967 22.3174 48L22.0374 48.69L16.3574 47.38C16.251 47.3401 16.1338 47.3401 16.0274 47.38L14.3574 53.84C14.3574 53.79 14.4674 53.84 14.6074 53.84L20.1874 55.5L20.0874 56.25C19.6457 59.521 19.6794 62.8387 20.1874 66.1L20.3074 66.84L14.7874 68.67C14.6764 68.6904 14.5767 68.7509 14.5074 68.84L16.3774 75.25C16.3774 75.19 16.4674 75.25 16.6074 75.16L22.2474 73.74L22.5374 74.43C23.8398 77.4844 25.5779 80.334 27.6974 82.89L28.1774 83.46L24.3774 87.8C24.2474 87.94 24.2074 88.06 24.2174 88.09L29.1074 92.63C29.1074 92.63 29.1774 92.54 29.2674 92.43L33.3874 88.31L33.9874 88.75C36.2697 90.3982 38.7447 91.7616 41.3574 92.81L42.0474 93.09L40.7474 98.75C40.7077 98.8599 40.7077 98.9801 40.7474 99.09L47.2074 100.75C47.1474 100.75 47.2074 100.64 47.2574 100.5L48.9274 94.9L49.6674 94.99C52.9303 95.4188 56.2381 95.3717 59.4874 94.85L60.2374 94.73L61.9874 100.32C62.0118 100.432 62.0713 100.534 62.1574 100.61L68.5574 98.73C68.4974 98.73 68.5574 98.63 68.4774 98.49L67.0174 92.75L67.7074 92.45C70.7333 91.1441 73.5555 89.4097 76.0874 87.3L76.6674 86.82L81.1174 90.74C81.2574 90.87 81.3774 90.9 81.4074 90.89L85.9874 86C85.9174 86 85.8874 85.93 85.7874 85.83L81.5474 81.61L81.9874 81C83.6079 78.7426 84.9509 76.2983 85.9874 73.72L86.2674 73.02L92.1074 74.37C92.2191 74.3975 92.3357 74.3975 92.4474 74.37L94.1074 67.91C94.1074 67.91 93.9974 67.91 93.8574 67.91L88.0774 66.18L88.1774 65.44C88.6039 62.194 88.5601 58.9035 88.0474 55.67ZM62.1074 89.18L61.3874 89.37C53.8815 91.3394 45.9012 90.2593 39.1889 86.3654C32.4765 82.4716 27.5773 76.0804 25.5606 68.587C23.544 61.0937 24.5738 53.1068 28.4252 46.37C32.2767 39.6333 38.6369 34.6938 46.1174 32.63L46.8474 32.44C54.3387 30.5159 62.2866 31.6234 68.9664 35.5223C75.6463 39.4212 80.5193 45.7968 82.5281 53.2659C84.5368 60.7349 83.5193 68.6948 79.6963 75.4184C75.8733 82.142 69.5532 87.0868 62.1074 89.18Z" fill="#3C3C3B"/>
<path d="M55.5274 122C55.3204 121.997 55.1164 121.949 54.9299 121.86C54.7433 121.77 54.5786 121.64 54.4474 121.48L54.2674 121.26L3.58741 93.8C3.3764 93.7847 3.1718 93.7208 2.98963 93.6133C2.80746 93.5057 2.65268 93.3574 2.53741 93.18C2.37845 92.933 2.30244 92.6418 2.32042 92.3486C2.33841 92.0555 2.44945 91.7757 2.63741 91.55L0.55741 33.21V33.14C0.48699 32.9479 0.45986 32.7426 0.477955 32.5387C0.496051 32.3349 0.558926 32.1376 0.662092 31.9609C0.765258 31.7841 0.90617 31.6324 1.07477 31.5164C1.24336 31.4005 1.43548 31.3231 1.63741 31.29L2.74741 31.1L51.3674 1.1C51.4943 0.914809 51.6644 0.763368 51.8631 0.658813C52.0618 0.554257 52.2829 0.499744 52.5074 0.500001H52.7274C52.9568 0.501819 53.1827 0.556574 53.3874 0.660001L106.647 28.74C106.869 28.857 107.055 29.0308 107.186 29.2434C107.318 29.456 107.391 29.6999 107.397 29.95L108.397 89.95C108.402 90.1966 108.341 90.4399 108.222 90.6558C108.102 90.8716 107.928 91.0524 107.717 91.18L56.7174 121.75C56.5182 121.87 56.2898 121.932 56.0574 121.93H55.8074C55.7278 121.941 55.647 121.941 55.5674 121.93L55.5274 122ZM55.5274 118.3L83.8174 79.71L25.7574 81.31L55.5274 118.3ZM60.5274 116.3L103.967 90.23L86.9674 80.39L60.5274 116.3ZM49.8174 115.61L22.6874 82L6.60741 92.25L49.8174 115.61ZM5.37741 89.7L21.2374 79.56L3.60741 40L5.37741 89.7ZM105.517 87.89L104.677 35.54L88.2174 77.89L105.517 87.89ZM25.6474 78.51L83.6974 76.91L52.8074 27L25.6474 78.51ZM23.2174 77.11L50.0874 26.18L3.90741 33.76L23.2174 77.11ZM86.1274 75.52L103.377 31.17L55.3774 25.83L86.1274 75.52ZM10.0374 29.91L51.1074 23.17V4.55L10.0374 29.91ZM98.9874 27.86L53.9074 4.11V22.85L98.9874 27.86Z" fill="white"/>
<path d="M52.7274 1C52.8736 0.997514 53.018 1.03191 53.1474 1.1L106.417 29.18C106.56 29.2552 106.68 29.3672 106.764 29.5044C106.848 29.6416 106.895 29.7989 106.897 29.96L107.897 89.96C107.9 90.1188 107.861 90.2755 107.784 90.4143C107.707 90.553 107.594 90.6689 107.457 90.75L56.4574 121.32C56.338 121.396 56.1987 121.434 56.0574 121.43C55.9646 121.445 55.8702 121.445 55.7774 121.43C55.7074 121.461 55.6333 121.481 55.5574 121.49V121.49C55.4245 121.487 55.2939 121.455 55.1747 121.396C55.0555 121.338 54.9506 121.254 54.8674 121.15L54.6274 120.86L3.72741 93.31C3.57862 93.313 3.43155 93.2779 3.30024 93.2078C3.16893 93.1378 3.05778 93.0353 2.97741 92.91C2.8594 92.7284 2.81252 92.5096 2.84573 92.2956C2.87894 92.0816 2.98992 91.8873 3.15741 91.75L1.05741 33.28C1.05171 33.2268 1.05171 33.1732 1.05741 33.12V33.04C1.00033 32.9145 0.972874 32.7775 0.977151 32.6396C0.981428 32.5018 1.01733 32.3667 1.08208 32.245C1.14683 32.1232 1.2387 32.018 1.35059 31.9373C1.46248 31.8567 1.59141 31.8029 1.72741 31.78L2.92741 31.58L51.7474 1.45C51.8247 1.31599 51.9353 1.20418 52.0684 1.12536C52.2015 1.04654 52.3527 1.00336 52.5074 1C52.5506 0.994343 52.5943 0.994343 52.6374 1C52.6673 0.99576 52.6976 0.99576 52.7274 1M53.4074 23.31H53.5274L101.527 28.65L53.4074 3.28V23.28M7.61741 30.81L51.6174 23.59V3.66L7.61741 30.81M86.2274 76.63L104.077 30.74L54.3974 25.22L86.2274 76.63ZM23.2274 78.25L50.9874 25.52L3.58741 33.3L3.24741 33.51L23.1774 78.25M24.8074 79.03L84.5774 77.38L52.7674 26L24.7674 79M105.997 88.74L105.137 33L87.5874 78.11L106.037 88.77M4.91741 90.59L21.9174 79.75L2.98741 37.42L4.88741 90.59M55.4774 119.07L84.8274 79.18L24.7374 80.84L55.5074 119.07M58.5674 118L104.857 90.22L86.7074 79.68L58.5674 118ZM51.6774 117.22L22.7974 81.3L5.61741 92.3L51.6774 117.2M52.7274 0H52.5074C52.2273 0.000530478 51.9508 0.0636593 51.6982 0.184771C51.4456 0.305883 51.2232 0.481916 51.0474 0.7L2.58741 30.63L1.58741 30.79C1.29899 30.8406 1.02617 30.9572 0.790256 31.1307C0.55434 31.3041 0.361711 31.5298 0.227411 31.79C-0.0102171 32.2351 -0.0640621 32.7556 0.0774107 33.24C0.0719989 33.2731 0.0719989 33.3069 0.0774107 33.34L2.13741 91.4C1.96166 91.6635 1.85573 91.9674 1.82955 92.283C1.80338 92.5987 1.85781 92.9158 1.98775 93.2047C2.11769 93.4936 2.31888 93.7447 2.57245 93.9345C2.82601 94.1244 3.12364 94.2467 3.43741 94.29L53.9874 121.6L54.0974 121.74C54.2757 121.959 54.4997 122.135 54.7536 122.258C55.0076 122.381 55.2854 122.446 55.5674 122.45H55.6374C55.7173 122.456 55.7975 122.456 55.8774 122.45H56.0974C56.421 122.451 56.739 122.365 57.0174 122.2L107.987 91.6C108.274 91.429 108.509 91.1854 108.671 90.8939C108.832 90.6023 108.914 90.2732 108.907 89.94L107.907 29.94C107.903 29.5995 107.808 29.2663 107.632 28.9746C107.456 28.6829 107.206 28.4432 106.907 28.28L53.6174 0.22C53.3418 0.0787436 53.0371 0.00343178 52.7274 0V0ZM54.4074 22.4V4.94L96.4074 27.07L54.4074 22.4ZM12.4474 29L50.6074 5.45V22.74L12.4474 29ZM85.9874 74.4L56.2874 26.4L102.627 31.55L85.9874 74.4ZM4.62741 34.15L49.1774 26.83L23.2574 76L4.62741 34.15ZM26.4874 78L52.8374 28L82.8374 76.4L26.4874 78ZM88.8374 77.69L104.217 38.1L104.987 87L88.8374 77.67V77.69ZM5.83741 88.83L4.19741 42.53L20.6074 79.37L5.84741 88.81L5.83741 88.83ZM26.7674 81.83L82.7674 80.29L55.4674 117.43L26.7774 81.78L26.7674 81.83ZM62.3074 114.59L86.9874 81L102.897 90.2L62.3174 114.54L62.3074 114.59ZM7.58741 92.21L22.5874 82.63L47.7874 113.94L7.58741 92.21Z" fill="white"/>
<path d="M54.8474 48L58.1774 54.75C58.2383 54.8683 58.3262 54.9706 58.4338 55.0488C58.5415 55.127 58.6661 55.1788 58.7974 55.2L66.2474 56.28C66.3996 56.301 66.5428 56.3642 66.6607 56.4626C66.7787 56.5609 66.8666 56.6905 66.9146 56.8364C66.9625 56.9823 66.9685 57.1387 66.9319 57.2879C66.8953 57.437 66.8175 57.5729 66.7074 57.68L61.3174 62.94C61.2215 63.0333 61.1496 63.1484 61.1078 63.2756C61.0661 63.4027 61.0556 63.538 61.0774 63.67L62.3474 71.08C62.3746 71.2313 62.3587 71.3871 62.3015 71.5298C62.2444 71.6724 62.1483 71.7962 62.0243 71.8868C61.9002 71.9775 61.7532 72.0316 61.5999 72.0427C61.4466 72.0539 61.2933 72.0218 61.1574 71.95L54.4974 68.45C54.3791 68.3861 54.2468 68.3527 54.1124 68.3527C53.978 68.3527 53.8457 68.3861 53.7274 68.45L47.0674 71.95C46.9309 72.0205 46.7774 72.0516 46.6242 72.0401C46.471 72.0285 46.324 71.9746 46.1996 71.8844C46.0752 71.7942 45.9783 71.6713 45.9196 71.5292C45.861 71.3872 45.8429 71.2317 45.8674 71.08L47.1474 63.67C47.1675 63.538 47.1563 63.4032 47.1146 63.2763C47.0729 63.1495 47.0019 63.0343 46.9074 62.94L41.5174 57.68C41.4073 57.5729 41.3296 57.437 41.2929 57.2879C41.2563 57.1387 41.2623 56.9823 41.3103 56.8364C41.3582 56.6905 41.4462 56.5609 41.5641 56.4626C41.6821 56.3642 41.8253 56.301 41.9774 56.28L49.4174 55.2C49.5493 55.1803 49.6745 55.1291 49.7824 55.0508C49.8904 54.9725 49.9778 54.8693 50.0374 54.75L53.3674 48C53.4341 47.8603 53.539 47.7423 53.67 47.6597C53.8009 47.5771 53.9526 47.5333 54.1074 47.5333C54.2622 47.5333 54.4139 47.5771 54.5449 47.6597C54.6758 47.7423 54.7807 47.8603 54.8474 48V48Z" fill="#42DBFF"/>
</svg>
