<svg width="4519" height="2832" viewBox="0 0 4519 2832" fill="none" xmlns="http://www.w3.org/2000/svg">
<g clip-path="url(#clip0_148_16640)">
<rect width="4519" height="2832" fill="white"/>
<path fill-rule="evenodd" clip-rule="evenodd" d="M136 0H4383.53V2832H136V0Z" fill="white"/>
<path d="M4383.53 2832H136V-1.14441e-05H4383.53V2832Z" fill="white"/>
<path d="M4045.97 2348.07C4009.52 2348.07 3769.83 2348.1 3615.56 2348.1C3604.86 2348.11 3593.93 2348.11 3582.79 2348.1C3529.83 2348.11 3471.87 2348.11 3409.7 2348.11H3376.92C2761.8 2348.11 1765.33 2347.93 1106.82 2346.86C1095.78 2346.85 1084.85 2346.84 1074.03 2346.82C1013.03 2346.71 955.137 2346.6 900.965 2346.5C889.881 2346.45 878.95 2346.44 868.176 2346.41C608.516 2345.8 442.267 2344.98 441.806 2343.89L441.469 2343.28C441.469 2343.28 441.132 2342.69 441.132 2342.38C439.795 2339.97 106.759 1727.18 671.407 1389.06C915.394 1242.95 520.939 779.684 868.176 558.659C878.046 552.37 888.5 546.286 899.598 540.404C900.058 540.169 900.504 539.934 900.965 539.683C902.485 538.9 904.004 538.1 905.554 537.315C906.523 536.813 907.519 536.311 908.502 535.81C913.644 533.208 918.802 530.73 923.96 528.376C961.232 511.236 998.612 500.055 1036.07 493.531C1046.14 491.774 1056.22 490.362 1066.31 489.265C1068.89 488.983 1071.45 488.717 1074.03 488.482C1084.96 487.462 1095.89 486.804 1106.82 486.458C1221.92 482.951 1337.49 515.881 1452.51 548.812C1611.14 594.229 1768.71 639.647 1922.5 589.475C1980.75 570.498 2039.16 539.951 2097.67 493.075C2156.83 445.682 2224.17 410.528 2295.06 384.556C2311.66 378.487 2328.56 372.871 2345.78 367.713C2411.08 347.414 2505.64 329.169 2611.63 322.94C2872.84 307.712 3157.31 364.059 3376.92 461.13C3525.88 526.814 3595.98 589.797 3615.56 604.561C3679.45 652.783 3970.9 852.81 3812.51 1173.45C3729.54 1341.4 3998.61 1462.7 4107.26 1669.75C4286.9 2011.99 4049.31 2342.04 4045.97 2348.07Z" fill="#8C9CF4"/>
<path d="M3297.63 944.372V2352.5H1174.58V944.372C1174.58 944.372 1377.22 943.107 1444.69 941.803C1551.58 939.737 1675.8 970.518 1805.6 1001.3C1933.38 1031.61 2066.56 1061.91 2193.93 1060.87C2564.61 1057.85 2776.83 964.902 3004.67 941.707C3071.21 934.931 3297.63 944.372 3297.63 944.372Z" fill="#A8D19E"/>
<path d="M3387.39 944.373H1088.07C1087.65 944.373 1087.3 944.029 1087.3 943.606V929.194C1087.3 928.77 1087.65 928.426 1088.07 928.426H3387.39C3387.81 928.426 3388.15 928.77 3388.15 929.194V943.606C3388.15 944.029 3387.81 944.373 3387.39 944.373Z" fill="#2A468A"/>
<path d="M3387.39 845.797H1088.07C1087.65 845.797 1087.3 845.453 1087.3 845.029V830.619C1087.3 830.194 1087.65 829.851 1088.07 829.851H3387.39C3387.81 829.851 3388.15 830.194 3388.15 830.617V845.029C3388.15 845.453 3387.81 845.797 3387.39 845.797Z" fill="#2A468A"/>
<path d="M3049.59 941.803L3040.7 932.446L3140.02 833.87L3148.93 843.228L3049.59 941.803Z" fill="#2A468A"/>
<path d="M3140.02 941.803L3148.93 932.446L3049.59 833.87L3040.7 843.228L3140.02 941.803Z" fill="#2A468A"/>
<path d="M2947.43 941.803L2938.54 932.446L3037.86 833.87L3046.76 843.228L2947.43 941.803Z" fill="#2A468A"/>
<path d="M3037.86 941.803L3046.76 932.446L2947.43 833.87L2938.54 843.228L3037.86 941.803Z" fill="#2A468A"/>
<path d="M3257.41 941.803L3248.51 932.446L3347.84 833.87L3356.75 843.228L3257.41 941.803Z" fill="#2A468A"/>
<path d="M3347.84 941.803L3356.75 932.446L3257.41 833.87L3248.51 843.228L3347.84 941.803Z" fill="#2A468A"/>
<path d="M3155.24 941.803L3146.34 932.446L3245.67 833.87L3254.57 843.228L3155.24 941.803Z" fill="#2A468A"/>
<path d="M3245.67 941.803L3254.57 932.446L3155.24 833.87L3146.34 843.228L3245.67 941.803Z" fill="#2A468A"/>
<path d="M1233.54 941.803L1224.64 932.446L1323.97 833.87L1332.87 843.228L1233.54 941.803Z" fill="#2A468A"/>
<path d="M1323.97 941.803L1332.87 932.446L1233.54 833.87L1224.64 843.228L1323.97 941.803Z" fill="#2A468A"/>
<path d="M1131.37 941.803L1122.47 932.446L1221.8 833.87L1230.7 843.228L1131.37 941.803Z" fill="#2A468A"/>
<path d="M1221.8 941.803L1230.7 932.446L1131.37 833.87L1122.47 843.228L1221.8 941.803Z" fill="#2A468A"/>
<path d="M2849.52 941.803L2840.62 932.446L2939.95 833.87L2948.84 843.228L2849.52 941.803Z" fill="#2A468A"/>
<path d="M2939.95 941.803L2948.84 932.446L2849.52 833.87L2840.62 843.228L2939.95 941.803Z" fill="#2A468A"/>
<path d="M2741.68 941.803L2732.77 932.446L2832.11 833.87L2841 843.228L2741.68 941.803Z" fill="#2A468A"/>
<path d="M2832.11 941.803L2841 932.446L2741.68 833.87L2732.77 843.228L2832.11 941.803Z" fill="#2A468A"/>
<path d="M2633.83 941.803L2624.93 932.446L2724.26 833.87L2733.15 843.228L2633.83 941.803Z" fill="#2A468A"/>
<path d="M2724.26 941.803L2733.15 932.446L2633.83 833.87L2624.93 843.228L2724.26 941.803Z" fill="#2A468A"/>
<path d="M2525.99 941.803L2517.08 932.446L2616.42 833.87L2625.31 843.228L2525.99 941.803Z" fill="#2A468A"/>
<path d="M2616.42 941.803L2625.31 932.446L2525.99 833.87L2517.08 843.228L2616.42 941.803Z" fill="#2A468A"/>
<path d="M2418.14 941.803L2409.24 932.446L2508.57 833.87L2517.46 843.228L2418.14 941.803Z" fill="#2A468A"/>
<path d="M2508.57 941.803L2517.46 932.446L2418.14 833.87L2409.24 843.228L2508.57 941.803Z" fill="#2A468A"/>
<path d="M2310.3 941.803L2301.39 932.446L2400.73 833.87L2409.62 843.228L2310.3 941.803Z" fill="#2A468A"/>
<path d="M2400.73 941.803L2409.62 932.446L2310.3 833.87L2301.39 843.228L2400.73 941.803Z" fill="#2A468A"/>
<path d="M2202.44 941.803L2193.55 932.446L2292.88 833.87L2301.77 843.228L2202.44 941.803Z" fill="#2A468A"/>
<path d="M2292.88 941.803L2301.77 932.446L2202.44 833.87L2193.55 843.228L2292.88 941.803Z" fill="#2A468A"/>
<path d="M2094.59 941.803L2085.7 932.446L2185.04 833.87L2193.93 843.228L2094.59 941.803Z" fill="#2A468A"/>
<path d="M2185.04 941.803L2193.93 932.446L2094.59 833.87L2085.7 843.228L2185.04 941.803Z" fill="#2A468A"/>
<path d="M1988.18 941.803L1979.27 932.446L2078.61 833.87L2087.5 843.228L1988.18 941.803Z" fill="#2A468A"/>
<path d="M2078.61 941.803L2087.5 932.446L1988.18 833.87L1979.27 843.228L2078.61 941.803Z" fill="#2A468A"/>
<path d="M1880.33 941.803L1871.43 932.446L1970.76 833.87L1979.65 843.228L1880.33 941.803Z" fill="#2A468A"/>
<path d="M1970.76 941.803L1979.65 932.446L1880.33 833.87L1871.43 843.228L1970.76 941.803Z" fill="#2A468A"/>
<path d="M1772.49 941.803L1763.58 932.446L1862.92 833.87L1871.81 843.228L1772.49 941.803Z" fill="#2A468A"/>
<path d="M1862.92 941.803L1871.81 932.446L1772.49 833.87L1763.58 843.228L1862.92 941.803Z" fill="#2A468A"/>
<path d="M1664.64 941.803L1655.74 932.446L1755.07 833.87L1763.97 843.228L1664.64 941.803Z" fill="#2A468A"/>
<path d="M1755.07 941.803L1763.97 932.446L1664.64 833.87L1655.74 843.228L1755.07 941.803Z" fill="#2A468A"/>
<path d="M1556.8 941.803L1547.89 932.446L1647.23 833.87L1656.12 843.228L1556.8 941.803Z" fill="#2A468A"/>
<path d="M1647.23 941.803L1656.12 932.446L1556.8 833.87L1547.89 843.228L1647.23 941.803Z" fill="#2A468A"/>
<path d="M1444.69 941.803L1435.79 932.446L1535.12 833.87L1544.02 843.228L1444.69 941.803Z" fill="#2A468A"/>
<path d="M1535.12 941.803L1544.02 932.446L1444.69 833.87L1435.79 843.228L1535.12 941.803Z" fill="#2A468A"/>
<path d="M1336.84 941.803L1327.95 932.446L1427.28 833.87L1436.18 843.228L1336.84 941.803Z" fill="#2A468A"/>
<path d="M1427.28 941.803L1436.18 932.446L1336.84 833.87L1327.95 843.228L1427.28 941.803Z" fill="#2A468A"/>
<path d="M2679.04 2345.8H1584.04L1309.98 1022.15H1440.04L1626.67 1216.76L1584.04 1022.15H1714.1C1714.1 1022.15 1850.96 1187.89 2159.64 1207.19C2173.56 1208.05 2187.4 1208.47 2201.18 1208.47C2492.83 1208.46 2746.62 1022.15 2746.62 1022.15H2876.66L2862.8 1196.06L3020.68 1022.15H3150.73L2679.04 2345.8ZM2395.93 1828.42C2398.56 1832.6 2405.17 1843.89 2410.31 1847.89C2410.96 1848.39 2411.74 1848.64 2412.51 1848.64C2413.26 1848.64 2414.01 1848.4 2414.66 1847.95L2470.98 1807.86C2472.55 1806.82 2472.67 1804.47 2471.15 1803.3C2468.59 1801.34 2464.54 1799.67 2460.72 1799.67C2458.88 1799.67 2457.11 1800.05 2455.55 1800.95C2449.06 1804.78 2438.47 1809.22 2428.52 1809.22C2424.33 1809.22 2420.25 1808.43 2416.63 1806.49C2418.44 1803.12 2419.37 1800.71 2419.37 1800.71C2377.95 1767.73 2285.52 1681.22 2285.52 1681.22L2285.24 1681.19C2280.69 1676.39 2275.18 1671.39 2267.89 1666.07C2252.6 1654.91 2235.88 1644.25 2219.05 1634.33C2239.41 1622.06 2266.89 1605.86 2287.73 1592.65C2292.6 1589.56 2301.75 1585.59 2310.11 1585.59C2313.72 1585.59 2317.19 1586.33 2320.11 1588.2C2322.29 1589.64 2324.53 1591.06 2326.88 1592.39C2356.77 1609.07 2479.49 1623.33 2479.49 1623.33C2480.48 1622.47 2481.25 1621.49 2482.12 1620.57C2487.55 1622.1 2492.3 1623.4 2494.41 1624.14C2495.94 1624.66 2497.59 1624.89 2499.24 1624.89C2504.15 1624.89 2509.14 1622.88 2511.25 1620.7L2554.05 1575.71C2555.47 1574.42 2554.94 1572.47 2553.54 1571.17C2551.39 1569.17 2547.24 1566.2 2541.99 1566.2C2538.83 1566.2 2535.29 1567.26 2531.51 1570.23C2524.36 1575.88 2508.91 1585.75 2496.17 1586.09C2496.17 1585.93 2496.18 1585.61 2496.18 1585.61C2448.44 1570.23 2306.84 1511.13 2306.84 1511.13L2306.67 1511.17C2301.25 1509.06 2295.19 1507.84 2288.44 1507.84C2281.88 1507.84 2274.67 1508.99 2266.79 1511.58C2197.44 1534.34 2120.46 1562.5 2097.28 1571.05L2089.68 1566.73C2083.82 1561.23 2083.9 1557.35 2083.64 1555.01C2082.8 1547.66 2081.87 1540.66 2080.85 1534.02C2079.93 1528.02 2078.93 1522.33 2077.92 1516.9V1516.88C2077.9 1516.75 2077.87 1516.62 2077.84 1516.48C2077.82 1516.34 2077.79 1516.2 2077.76 1516.04C2075.52 1503.57 2072.37 1491.7 2072.37 1491.7C2105.34 1487.92 2143.47 1483.23 2163.15 1479.68C2190.21 1474.79 2230.7 1456.97 2253.01 1446.49C2253.47 1449.02 2255.53 1450.92 2257.98 1450.92C2258.29 1450.92 2258.61 1450.89 2258.93 1450.83L2280.49 1446.61C2283.4 1446.05 2285.21 1443.06 2284.43 1440.16C2284.12 1439.02 2283.78 1437.44 2283.44 1436.08C2289.12 1434.86 2294.82 1433.32 2296.96 1431.65C2300.5 1428.9 2306.84 1419.78 2303.18 1410.83C2303.2 1410.83 2303.22 1410.83 2303.23 1410.83C2303.33 1410.83 2303.42 1410.85 2303.49 1410.87C2303.57 1410.89 2303.66 1410.91 2303.76 1410.91C2303.78 1410.91 2303.81 1410.91 2303.84 1410.9C2304.22 1410.83 2304.59 1410.73 2304.96 1410.61L2312.02 1408.32C2316.46 1406.89 2319.76 1403.3 2320.89 1398.71L2322.35 1392.76L2332.47 1390.77C2334.45 1390.39 2335.88 1388.64 2335.91 1386.59L2336.14 1372.73L2353.54 1369.32C2355.19 1369 2356.55 1367.82 2357.15 1366.21L2358.62 1362.25V1362.21L2376.77 1358.65L2376.32 1356.17L2358.15 1359.72L2357.87 1358.26L2379.63 1354.01L2378.4 1347.43L2372.76 1348.53L2372.4 1346.56L2369.24 1347.18L2367.74 1349.51L2334.25 1356.06L2329 1355.52C2328.63 1355.49 2328.26 1355.47 2327.9 1355.47C2327.2 1355.47 2326.51 1355.53 2325.83 1355.67L2295.9 1361.52C2292.43 1362.2 2289.73 1364.9 2288.92 1368.4C2288.81 1368.84 2288.56 1369.1 2288.44 1369.52C2288.31 1369.49 2287.98 1369.44 2287.49 1369.44C2286.43 1369.44 2284.6 1369.67 2282.45 1370.81C2279.74 1369.1 2275.95 1367.45 2271.01 1367.45C2270.14 1367.45 2269.24 1367.5 2268.29 1367.61C2267.58 1367.7 2267.07 1368.36 2267.16 1369.09C2267.23 1369.77 2267.79 1370.27 2268.45 1370.27C2268.49 1370.27 2268.54 1370.26 2268.59 1370.26C2269.41 1370.16 2270.21 1370.11 2271.01 1370.11C2274.41 1370.11 2277.62 1371 2280.62 1372.75C2281.64 1373.34 2282.31 1373.91 2282.97 1374.46L2285.25 1376.58C2280.89 1382.73 2274.29 1385.17 2269.76 1386.09C2267.07 1386.64 2265.32 1389.31 2265.84 1392.06L2266.29 1394.51C2263.67 1397.8 2261.66 1401.3 2259.92 1404.85C2250.97 1405.37 2228.93 1407.43 2174.36 1414.66C2160.09 1416.54 2147.07 1417.29 2135.02 1417.29C2090.91 1417.29 2059.91 1407.31 2028.39 1406.98C2029.08 1405.14 2029.62 1403.66 2029.96 1402.64L2029.97 1402.65C2031.67 1398.81 2032.66 1396.03 2033.43 1393.7C2043.31 1393.26 2051.35 1391.22 2051.35 1391.22C2061.26 1387.88 2058.42 1352.66 2054.41 1334.67C2056.37 1334.53 2058.18 1334.08 2059.99 1333.05C2067.32 1328.89 2066.66 1317.04 2066.66 1317.04C2066.66 1317.04 2064.86 1321.47 2061.7 1323.12C2061.7 1323.12 2072.83 1304.1 2056.96 1293.28C2051.31 1289.44 2045.86 1288.16 2040.81 1288.16C2031.63 1288.16 2023.75 1292.38 2018.27 1293.24C1999.56 1296.19 1988.83 1299.11 1982.52 1311.72C1968.78 1339.09 1986.31 1369.31 1999.45 1380.67C1996.7 1387.01 1993.81 1391.89 1991.01 1395.54C1988.01 1394.45 1985.6 1393.78 1984.34 1393.78C1984.21 1393.78 1984.1 1393.79 1984 1393.8C1984 1393.8 1975.76 1402.25 1974.62 1412.71L1975 1412.68C1955.63 1432.33 1948.71 1481.07 1952.84 1535.65C1953.38 1542.92 1954.17 1651.55 2018.15 1667.09L2017.83 1667.31L2037.39 1685.35C2042.24 1699.78 2083.83 1711.31 2104.75 1714.83C2148.44 1722.17 2200.29 1720.02 2229.14 1730.03C2230.05 1730.34 2231 1730.52 2231.92 1730.81C2260.35 1764.46 2389.46 1831.55 2389.46 1831.55C2391.79 1830.69 2393.9 1829.59 2395.93 1828.42ZM2303.57 1406.57C2303.52 1406.57 2303.46 1406.57 2303.4 1406.56C2303.35 1406.55 2303.29 1406.54 2303.23 1406.54C2303.2 1406.54 2303.16 1406.55 2303.13 1406.55C2303.78 1405.15 2305.03 1403.91 2306.59 1402.83L2306.62 1402.83L2306.81 1402.81C2306.96 1402.78 2306.94 1402.57 2307.07 1402.49C2310.62 1400.1 2314.8 1398.39 2313.51 1397.08C2312.45 1396.01 2310.74 1395.56 2308.74 1395.42L2314.56 1394.28C2314.7 1394.25 2314.83 1394.24 2314.97 1394.24C2316.31 1394.24 2317.36 1395.54 2317.02 1396.95L2316.85 1397.68C2316.07 1400.82 2313.81 1403.29 2310.78 1404.26L2303.7 1406.55C2303.66 1406.57 2303.61 1406.57 2303.57 1406.57Z" fill="#DBE2B3"/>
<path d="M900.965 539.683V2350.48H868.174V558.659C878.045 552.37 888.498 546.286 899.597 540.405C900.057 540.17 900.503 539.935 900.965 539.683Z" fill="#798CDF"/>
<path d="M1106.82 486.458V2350.48H1074.03V488.482C1084.96 487.462 1095.89 486.804 1106.82 486.458Z" fill="#798CDF"/>
<path d="M1078.49 1187.02V1243.67L1053.92 1201.12L990.078 1090.53L973.708 1062.22L924.164 976.41L899.592 933.853V877.175L924.164 919.73L990.078 1033.88L1006.43 1062.22L1053.92 1144.47L1078.49 1187.02Z" fill="#798CDF"/>
<path d="M1078.49 880.714V937.392L1053.92 979.949L1006.43 1062.22L990.078 1090.53L924.164 1204.68L899.592 1247.24V1190.59L924.164 1148.04L973.708 1062.22L990.078 1033.88L1053.92 923.299L1078.49 880.714Z" fill="#798CDF"/>
<path d="M1078.49 1513.49V1570.15L1053.92 1527.58L990.078 1417.01L973.708 1388.69L924.164 1302.88L899.592 1260.33V1203.65L924.164 1246.2L990.078 1360.35L1006.43 1388.69L1053.92 1470.94L1078.49 1513.49Z" fill="#798CDF"/>
<path d="M1078.49 1207.19V1263.87L1053.92 1306.42L1006.43 1388.69L990.078 1417.01L924.164 1531.15L899.592 1573.71V1517.06L924.164 1474.51L973.708 1388.69L990.078 1360.35L1053.92 1249.77L1078.49 1207.19Z" fill="#798CDF"/>
<path d="M1078.48 510.358V567.018L1074.03 559.302L1067.97 548.779L1053.92 524.441L1036.07 493.531C1046.14 491.774 1056.22 490.362 1066.31 489.265L1074.03 502.658L1078.48 510.358Z" fill="#798CDF"/>
<path d="M923.96 528.376L912.186 548.795L900.965 568.21L899.598 570.593V540.405C900.058 540.17 900.504 539.935 900.965 539.683C902.485 538.9 904.004 538.1 905.554 537.315C906.521 536.813 907.519 536.311 908.502 535.81C913.644 533.208 918.802 530.73 923.96 528.376Z" fill="#798CDF"/>
<path d="M1078.5 836.829V893.474L1074.81 887.092L1074.03 885.742L1053.92 850.928L990.076 740.337L973.711 712.031L924.16 626.218L900.965 586.04L899.598 583.673V540.405C900.058 540.17 900.504 539.935 900.965 539.683C902.485 538.9 904.004 538.1 905.554 537.315L912.186 548.795L924.16 569.542L990.076 683.693L1006.44 712.031L1053.92 794.269L1074.03 829.098L1078.5 836.829Z" fill="#798CDF"/>
<path d="M1078.49 530.524V587.203L1053.92 629.759L1006.43 712.033L990.078 740.342L924.164 854.494L899.592 897.049V840.4L924.164 797.844L973.708 712.033L990.078 683.692L1053.92 573.109L1078.49 530.524Z" fill="#798CDF"/>
<path d="M1078.49 1872.29V1928.95L1053.92 1886.38L990.078 1775.81L973.708 1747.5L924.165 1661.68L899.592 1619.13V1562.44L924.165 1604.99L990.078 1719.15L1006.43 1747.5L1053.92 1829.74L1078.49 1872.29Z" fill="#798CDF"/>
<path d="M1078.49 1565.98V1622.67L1053.92 1665.22L1006.43 1747.5L990.078 1775.81L924.164 1889.95L899.592 1932.51V1875.86L924.164 1833.31L973.708 1747.5L990.078 1719.15L1053.92 1608.58L1078.49 1565.98Z" fill="#798CDF"/>
<path d="M1078.49 2198.77V2255.41L1053.92 2212.85L990.078 2102.28L973.708 2073.96L924.164 1988.15L899.592 1945.6V1888.92L924.164 1931.47L990.078 2045.62L1006.43 2073.96L1053.92 2156.21L1078.49 2198.77Z" fill="#798CDF"/>
<path d="M1078.49 1892.46V1949.14L1053.92 1991.69L1006.43 2073.96L990.078 2102.28L924.164 2216.42L899.592 2258.99V2202.33L924.164 2159.78L973.708 2073.96L990.078 2045.62L1053.92 1935.04L1078.49 1892.46Z" fill="#798CDF"/>
<path d="M3409.7 476.139V2350.48H3376.92V461.132C3388.02 466.024 3398.95 471.027 3409.7 476.139Z" fill="#798CDF"/>
<path d="M3615.56 604.561V2350.48H3582.79V578.826C3584.27 579.924 3585.76 581.053 3587.23 582.183C3594.41 587.656 3601.39 593.191 3608.16 598.79C3610.08 600.374 3612.56 602.303 3615.56 604.561Z" fill="#798CDF"/>
<path d="M3587.25 1187.02V1243.67L3562.67 1201.12L3498.83 1090.53L3482.46 1062.22L3432.9 976.41L3408.34 933.853V877.175L3432.9 919.73L3498.83 1033.88L3515.18 1062.22L3562.67 1144.47L3587.25 1187.02Z" fill="#798CDF"/>
<path d="M3587.25 880.714V937.392L3562.67 979.949L3515.18 1062.22L3498.83 1090.53L3432.9 1204.68L3408.34 1247.24V1190.59L3432.9 1148.04L3482.46 1062.22L3498.83 1033.88L3562.67 923.299L3587.25 880.714Z" fill="#798CDF"/>
<path d="M3587.25 1513.49V1570.15L3562.67 1527.58L3498.83 1417.01L3482.46 1388.69L3432.9 1302.88L3408.34 1260.33V1203.65L3432.9 1246.2L3498.83 1360.35L3515.18 1388.69L3562.67 1470.94L3587.25 1513.49Z" fill="#798CDF"/>
<path d="M3587.25 1207.19V1263.87L3562.67 1306.42L3515.18 1388.69L3498.83 1417.01L3432.9 1531.15L3408.34 1573.71V1517.06L3432.9 1474.51L3482.46 1388.69L3498.83 1360.35L3562.67 1249.77L3587.25 1207.19Z" fill="#798CDF"/>
<path d="M3425.7 483.87C3434.25 488.09 3442.69 492.37 3451 496.699L3432.92 528.017L3420.93 548.795L3409.7 568.21L3408.34 570.593V513.918L3409.7 511.55L3425.7 483.87Z" fill="#798CDF"/>
<path d="M3587.25 836.831V893.481L3562.67 850.926L3498.83 740.342L3482.46 712.033L3432.9 626.221L3408.34 583.664V526.986L3432.9 569.541L3498.83 683.692L3515.18 712.033L3562.67 794.276L3587.25 836.831Z" fill="#798CDF"/>
<path d="M3587.23 582.183V587.2L3582.79 594.917L3562.67 629.762L3515.18 712.031L3498.83 740.337L3432.92 854.488L3414.07 887.107L3409.7 894.681L3408.34 897.049V840.405L3409.7 838.037L3432.92 797.844L3482.45 712.031L3498.83 683.693L3562.67 573.102L3566.29 566.818C3571.88 570.801 3577.41 574.765 3582.79 578.826C3584.27 579.924 3585.76 581.053 3587.23 582.183Z" fill="#798CDF"/>
<path d="M3587.25 1872.29V1928.95L3562.67 1886.38L3498.83 1775.81L3482.46 1747.5L3432.9 1661.68L3408.34 1619.13V1562.44L3432.9 1604.99L3498.83 1719.15L3515.18 1747.5L3562.67 1829.74L3587.25 1872.29Z" fill="#798CDF"/>
<path d="M3587.25 1565.98V1622.67L3562.67 1665.22L3515.18 1747.5L3498.83 1775.81L3432.9 1889.95L3408.34 1932.51V1875.86L3432.9 1833.31L3482.46 1747.5L3498.83 1719.15L3562.67 1608.58L3587.25 1565.98Z" fill="#798CDF"/>
<path d="M3587.25 2198.77V2255.41L3562.67 2212.85L3498.83 2102.28L3482.46 2073.96L3432.9 1988.15L3408.34 1945.6V1888.92L3432.9 1931.47L3498.83 2045.62L3515.18 2073.96L3562.67 2156.21L3587.25 2198.77Z" fill="#798CDF"/>
<path d="M3587.25 1892.46V1949.14L3562.67 1991.69L3515.18 2073.96L3498.83 2102.28L3432.9 2216.42L3408.34 2258.99V2202.33L3432.9 2159.78L3482.46 2073.96L3498.83 2045.62L3562.67 1935.04L3587.25 1892.46Z" fill="#798CDF"/>
<path d="M1301.61 960.739L1474.54 959.836C1479.36 959.836 1482.49 965.013 1480.34 969.412L1453.22 1024.82C1452.12 1027.06 1449.88 1028.47 1447.43 1028.47H1301.9C1297.08 1028.47 1293.95 1023.3 1296.1 1018.9L1295.82 964.397C1296.91 962.155 1299.16 960.739 1301.61 960.739Z" fill="#233862"/>
<path d="M1337.29 972.005H1467.34L1440.04 1022.15H1309.98L1337.29 972.005Z" fill="white"/>
<path d="M1325.53 966.214L1283.09 936.41L1285.6 932.688L1328.03 962.491L1325.53 966.214Z" fill="#233862"/>
<path d="M1465.21 966.214L1422.77 936.41L1425.27 932.688L1467.71 962.491L1465.21 966.214Z" fill="#233862"/>
<path d="M1575.67 960.739L1748.6 959.836C1753.42 959.836 1756.55 965.013 1754.39 969.412L1727.28 1024.82C1726.19 1027.06 1723.94 1028.47 1721.49 1028.47H1575.96C1571.14 1028.47 1568.01 1023.3 1570.16 1018.9L1569.88 964.397C1570.97 962.155 1573.22 960.739 1575.67 960.739Z" fill="#233862"/>
<path d="M1611.35 972.005H1741.41L1714.1 1022.15H1584.04L1611.35 972.005Z" fill="white"/>
<path d="M1599.59 966.214L1557.15 936.41L1559.66 932.688L1602.09 962.491L1599.59 966.214Z" fill="#233862"/>
<path d="M1739.27 966.214L1696.84 936.41L1699.33 932.688L1741.78 962.491L1739.27 966.214Z" fill="#233862"/>
<path d="M3159.11 960.739L2986.16 959.836C2981.35 959.836 2978.22 965.013 2980.37 969.412L3007.49 1024.82C3008.59 1027.06 3010.83 1028.47 3013.29 1028.47H3158.81C3163.63 1028.47 3166.76 1023.3 3164.6 1018.9L3164.9 964.397C3163.8 962.155 3161.56 960.739 3159.11 960.739Z" fill="#233862"/>
<path d="M3123.43 972.005H2993.37L3020.67 1022.15H3150.73L3123.43 972.005Z" fill="white"/>
<path d="M3135.18 966.214L3177.61 936.41L3175.11 932.688L3132.68 962.491L3135.18 966.214Z" fill="#233862"/>
<path d="M2995.51 966.214L3037.94 936.41L3035.43 932.688L2993 962.491L2995.51 966.214Z" fill="#233862"/>
<path d="M2885.04 960.739L2712.11 959.836C2707.29 959.836 2704.16 965.013 2706.31 969.412L2733.44 1024.82C2734.53 1027.06 2736.78 1028.47 2739.23 1028.47H2884.75C2889.56 1028.47 2892.7 1023.3 2890.54 1018.9L2890.84 964.397C2889.73 962.155 2887.49 960.739 2885.04 960.739Z" fill="#233862"/>
<path d="M2849.36 972.005H2719.3L2746.62 1022.15H2876.66L2849.36 972.005Z" fill="white"/>
<path d="M2861.12 966.214L2903.55 936.41L2901.06 932.688L2858.61 962.491L2861.12 966.214Z" fill="#233862"/>
<path d="M2721.44 966.214L2763.88 936.41L2761.37 932.688L2718.94 962.491L2721.44 966.214Z" fill="#233862"/>
<path d="M1412.35 1564.98C1412.35 1564.98 1319.76 1631.09 1327.95 1676.26C1336.13 1721.45 1382.13 1803.04 1382.13 1803.04L1412.35 1564.98Z" fill="#E47C2D"/>
<path d="M1898.94 1404.87L1404.86 1897.33V1888.42L1894.58 1400.29L1898.94 1404.87Z" fill="#233862"/>
<path d="M1808.83 1505.73L1791.42 1487.06C1785.7 1480.92 1785.94 1471.14 1791.93 1465.29L1874.56 1384.88C1880.56 1379.04 1890.14 1379.28 1895.86 1385.41L1913.28 1404.08C1918.99 1410.21 1918.76 1420.01 1912.76 1425.84L1830.14 1506.26C1824.14 1512.1 1814.55 1511.86 1808.83 1505.73Z" fill="#233862"/>
<path d="M1447.88 2308.96C1447.88 2308.96 1450.29 2347.28 1457.55 2347.81C1458.52 2347.88 1494.37 2347.8 1494.37 2347.8L1540.14 2347.43C1540.14 2347.43 1539.81 2336.16 1526.43 2333.81C1513.05 2331.46 1490.63 2321.9 1482.49 2303.86C1473.92 2284.87 1447.88 2308.96 1447.88 2308.96Z" fill="#143D79"/>
<path d="M1345.94 2309.18C1345.94 2309.18 1348.35 2347.5 1355.61 2348.04C1356.58 2348.11 1392.43 2348.03 1392.43 2348.03L1438.2 2347.66C1438.2 2347.66 1437.87 2336.4 1424.49 2334.04C1411.11 2331.68 1388.69 2322.13 1380.55 2304.09C1371.99 2285.1 1345.94 2309.18 1345.94 2309.18Z" fill="#143D79"/>
<path d="M1497.69 1896.87C1497.69 1896.87 1485.89 1975.12 1441.53 2114.05C1397.17 2252.98 1391.22 2313.12 1391.22 2313.12L1343.31 2311.85C1343.31 2311.85 1342.58 2160.12 1363.01 2090.26C1383.44 2020.41 1366.92 1838.56 1366.92 1838.56L1497.69 1896.87Z" fill="#153460"/>
<path d="M1520.89 1842.5C1520.89 1842.5 1522.84 1960.35 1503.18 2105.11C1483.53 2249.87 1490.43 2311.28 1490.43 2311.28L1442.62 2313.01C1442.62 2313.01 1413.75 2168.31 1421.78 2095.86C1429.82 2023.41 1382.13 1847.4 1382.13 1847.4L1520.89 1842.5Z" fill="#1C4689"/>
<path d="M1427.76 1566.9L1453.26 1583.91L1490.06 1576.82C1489.54 1573.79 1487.09 1561.21 1484.85 1549.81C1484.72 1549.15 1484.58 1548.47 1484.45 1547.82C1482.54 1538.13 1480.88 1529.8 1480.88 1529.8L1446.47 1514.37L1433.64 1508.62C1433.67 1508.83 1434.65 1519.38 1434.79 1520.93C1437.25 1548.3 1427.76 1566.9 1427.76 1566.9Z" fill="#FFB17C"/>
<path d="M1480.59 1558.18C1479.88 1557.87 1436.24 1544.83 1431.5 1546.43C1426.77 1548.04 1423.98 1557.42 1423.98 1557.42L1495.36 1573.73C1495.36 1573.73 1489.72 1562.07 1480.59 1558.18Z" fill="#E47C2D"/>
<path d="M1363.78 1857.4C1371.25 1891.83 1494.3 1895.66 1525.95 1864.31C1529.55 1860.74 1529.69 1844.16 1528.28 1821.78C1525.53 1778.1 1516.84 1712.4 1516.44 1678.82C1516.24 1662.61 1514.02 1646.03 1511.09 1630.98C1504.84 1598.89 1495.36 1573.73 1495.36 1573.73C1495.36 1573.73 1435.22 1554.02 1423.98 1557.42C1369.84 1573.8 1356.32 1822.96 1363.78 1857.4Z" fill="#F99746"/>
<path d="M1528.28 1821.78C1525.53 1778.1 1516.84 1712.4 1516.43 1678.82C1516.24 1662.61 1514.02 1646.03 1511.08 1630.98L1474.92 1624.53C1474.92 1624.53 1439.89 1772.1 1528.28 1821.78Z" fill="#E47C2D"/>
<path d="M1437.37 1521.41C1444.95 1534.45 1473.11 1545.69 1484.85 1549.81C1484.72 1549.15 1484.58 1548.47 1484.45 1547.82C1482.54 1538.13 1480.88 1529.8 1480.88 1529.8L1446.47 1514.37C1438.87 1514.28 1434.25 1516.04 1437.37 1521.41Z" fill="#FBA56B"/>
<path d="M1493.84 1527.64C1493.84 1527.64 1438.49 1545.41 1428.19 1510.02C1417.89 1474.64 1403.8 1453.11 1438.7 1440.27C1473.6 1427.43 1484.43 1438.83 1490.69 1449.79C1496.94 1460.73 1507.97 1522.1 1493.84 1527.64Z" fill="#FFB17C"/>
<path d="M1488.5 1446.37C1488.5 1446.37 1485.06 1487.58 1476.72 1485.81C1468.37 1484.04 1460.8 1482.74 1462.05 1495.15C1463.3 1507.56 1474.89 1521.87 1449.2 1524.14C1423.5 1526.39 1386.41 1458.75 1393.44 1445.92C1413.73 1408.88 1517.85 1401.18 1488.5 1446.37Z" fill="#153460"/>
<path d="M1647.85 1640.65C1647.85 1640.65 1672.25 1602.59 1673.76 1609.14C1675.28 1615.68 1669.6 1628.05 1673.76 1626.15C1677.94 1624.25 1693.55 1603.82 1695.81 1606.86C1698.04 1609.91 1695.76 1638.58 1690.84 1643.62C1685.91 1648.66 1656.94 1657.64 1656.94 1657.64L1647.85 1640.65Z" fill="#FFB17C"/>
<path d="M1451.54 1636.36C1451.54 1636.36 1520.13 1755.64 1561.6 1751.51C1603.08 1747.37 1661.98 1668.13 1661.98 1668.13C1661.98 1668.13 1663.34 1659.68 1659.67 1653.24C1657.15 1648.78 1647.85 1640.65 1647.85 1640.65C1647.85 1640.65 1580.63 1684.97 1567.57 1678.31C1554.55 1671.69 1517.73 1577.38 1495.36 1573.73C1472.98 1570.08 1451.54 1636.36 1451.54 1636.36Z" fill="#F99746"/>
<path d="M3346.95 1746.48H3437.87H3490.63V1701.07H3387.06L3346.95 1746.48Z" fill="#1C4689"/>
<path d="M3607.61 1604.85H3531.9V1591.92H3607.61V1604.85Z" fill="#2B5693"/>
<path d="M3346.95 1610.63V1746.48L3419.26 1713.6V1655.43L3346.95 1610.63Z" fill="#2659A3"/>
<path d="M3483.22 1610.63H3346.95L3415.08 1655.43H3483.22V1610.63Z" fill="#1C4689"/>
<path d="M3572.65 1749.3H3490.63L3531.63 1722.34H3572.65V1749.3Z" fill="#1C4689"/>
<path d="M3548.78 1945.15H3536.63V1734.13H3548.78V1945.15Z" fill="#2B5693"/>
<path d="M3628.84 2345.77C3630.02 2345.92 3631.05 2345.63 3630.8 2343.71L3572.44 1934.71L3564.34 1939.93L3626.71 2343.89C3626.93 2345.25 3627.95 2345.67 3628.84 2345.77Z" fill="#2B5693"/>
<path d="M3572.32 1945.15H3517.11V1934.71H3572.32V1945.15Z" fill="#2B5693"/>
<path d="M3600.1 2144.69L3597.13 2145.01C3594.23 2145.34 3591.59 2143.23 3591.27 2140.33L3590.39 2132.35C3590.06 2129.45 3592.17 2126.8 3595.08 2126.48L3598.03 2126.15C3600.94 2125.83 3603.57 2127.94 3603.9 2130.84L3604.79 2138.81C3605.11 2141.71 3603 2144.36 3600.1 2144.69Z" fill="#153460"/>
<path d="M3460.91 2345.77C3459.74 2345.92 3458.7 2345.63 3458.96 2343.71L3517.32 1934.71L3525.42 1939.93L3463.03 2343.89C3462.82 2345.25 3461.8 2345.67 3460.91 2345.77Z" fill="#2B5693"/>
<path d="M3489.67 2144.65L3492.61 2144.97C3495.5 2145.3 3498.12 2143.19 3498.44 2140.3L3499.34 2132.37C3499.65 2129.48 3497.55 2126.85 3494.66 2126.52L3491.72 2126.2C3488.83 2125.87 3486.21 2127.98 3485.89 2130.87L3485.01 2138.8C3484.68 2141.69 3486.78 2144.32 3489.67 2144.65Z" fill="#153460"/>
<path d="M3632.26 1765.38H3611.1C3609.76 1765.38 3608.67 1764.28 3608.67 1762.93V1753.55H3634.71V1762.93C3634.71 1764.28 3633.6 1765.38 3632.26 1765.38Z" fill="#153460"/>
<path d="M3520.11 1731.23H3438.54C3410.22 1731.23 3387.06 1708.06 3387.06 1679.74V1678.65C3387.06 1650.33 3410.22 1627.17 3438.54 1627.17H3520.11V1731.23Z" fill="#153460"/>
<path d="M3716.33 1624.35V1734.05C3716.33 1744.77 3705.48 1753.55 3692.22 1753.55H3500.1C3486.83 1753.55 3475.99 1744.77 3475.99 1734.05V1624.35C3475.99 1613.65 3486.83 1604.85 3500.1 1604.85H3692.22C3705.48 1604.85 3716.33 1613.65 3716.33 1624.35Z" fill="#2B5693"/>
<path d="M3698.18 1753.55H3634.25C3624.27 1753.55 3616.1 1745.38 3616.1 1735.38V1623.01C3616.1 1613.02 3624.27 1604.85 3634.25 1604.85H3698.18C3708.16 1604.85 3716.33 1613.02 3716.33 1623.01V1735.38C3716.33 1745.38 3708.16 1753.55 3698.18 1753.55Z" fill="#153460"/>
<path d="M3613.41 1591.92H3493.13C3483.7 1591.92 3475.99 1584.21 3475.99 1574.78V1563.8C3475.99 1554.37 3483.7 1546.64 3493.13 1546.64H3613.41C3622.84 1546.64 3630.56 1554.37 3630.56 1563.8V1574.78C3630.56 1584.21 3622.84 1591.92 3613.41 1591.92Z" fill="#153460"/>
<path d="M3616.56 1591.92H3596.75C3589.03 1591.92 3582.73 1585.62 3582.73 1577.92V1560.66C3582.73 1552.96 3589.03 1546.64 3596.75 1546.64H3616.56C3624.26 1546.64 3630.56 1552.96 3630.56 1560.66V1577.92C3630.56 1585.62 3624.26 1591.92 3616.56 1591.92Z" fill="#2B5693"/>
<path d="M3582.73 1604.85H3507.02V1591.92H3582.73V1604.85Z" fill="#153460"/>
<path d="M3692.97 2341.87H3393.32V2286.19H3692.97V2341.87Z" fill="#153460"/>
<path d="M3810.11 2311.88C3810.11 2311.88 3808.02 2345.12 3801.72 2345.59C3800.88 2345.65 3769.78 2345.58 3769.78 2345.58L3730.08 2345.25C3730.08 2345.25 3730.36 2335.48 3741.97 2333.44C3753.58 2331.4 3773.02 2323.1 3780.08 2307.46C3787.52 2290.99 3810.11 2311.88 3810.11 2311.88Z" fill="#113872"/>
<path d="M3898.55 2312.07C3898.55 2312.07 3896.45 2345.32 3890.15 2345.77C3889.32 2345.85 3858.21 2345.77 3858.21 2345.77L3818.51 2345.45C3818.51 2345.45 3818.79 2335.68 3830.4 2333.64C3842.01 2331.6 3861.45 2323.3 3868.52 2307.66C3875.95 2291.19 3898.55 2312.07 3898.55 2312.07Z" fill="#113872"/>
<path d="M3766.89 1954.38C3766.89 1954.38 3777.14 2022.26 3815.62 2142.79C3854.1 2263.32 3859.27 2315.49 3859.27 2315.49L3900.83 2314.38C3900.83 2314.38 3901.46 2182.75 3883.74 2122.15C3866.01 2061.54 3880.35 1903.78 3880.35 1903.78L3766.89 1954.38Z" fill="#153460"/>
<path d="M3746.77 1907.21C3746.77 1907.21 3745.08 2009.45 3762.13 2135.03C3779.18 2260.62 3773.2 2313.89 3773.2 2313.89L3814.67 2315.39C3814.67 2315.39 3839.72 2189.86 3832.75 2127C3825.77 2064.15 3867.16 1911.46 3867.16 1911.46L3746.77 1907.21Z" fill="#1C4689"/>
<path d="M3827.57 1668.12L3805.44 1682.87L3773.51 1676.71C3773.97 1674.08 3776.09 1663.18 3778.03 1653.29C3778.16 1652.71 3778.27 1652.13 3778.38 1651.55C3780.04 1643.16 3781.49 1635.92 3781.49 1635.92L3811.33 1622.55L3822.47 1617.55C3822.45 1617.74 3821.58 1626.9 3821.47 1628.23C3819.33 1651.96 3827.57 1668.12 3827.57 1668.12Z" fill="#FFB17C"/>
<path d="M3781.73 1660.54C3782.35 1660.29 3820.21 1648.96 3824.32 1650.36C3828.44 1651.75 3830.84 1659.88 3830.84 1659.88L3768.93 1674.04C3768.93 1674.04 3773.81 1663.93 3781.73 1660.54Z" fill="#95AAEF"/>
<path d="M3883.07 1920.14C3876.59 1950.02 3769.85 1953.32 3742.38 1926.13C3739.26 1923.03 3739.14 1908.64 3740.35 1889.24C3742.75 1851.34 3750.28 1794.34 3750.63 1765.21C3750.8 1751.14 3752.73 1736.77 3755.28 1723.7C3760.7 1695.87 3768.93 1674.04 3768.93 1674.04C3768.93 1674.04 3821.1 1656.93 3830.84 1659.88C3877.82 1674.09 3889.54 1890.26 3883.07 1920.14Z" fill="#AFBFFF"/>
<path d="M3740.36 1889.24C3742.75 1851.34 3750.28 1794.34 3750.63 1765.21C3750.8 1751.14 3752.73 1736.77 3755.28 1723.7L3786.65 1718.12C3786.65 1718.12 3817.04 1846.14 3740.36 1889.24Z" fill="#A1B5F6"/>
<path d="M3819.23 1628.64C3812.65 1639.97 3788.23 1649.71 3778.03 1653.29C3778.16 1652.71 3778.27 1652.13 3778.39 1651.55C3780.04 1643.15 3781.49 1635.92 3781.49 1635.92L3811.33 1622.55C3817.93 1622.47 3821.94 1623.98 3819.23 1628.64Z" fill="#FBA56B"/>
<path d="M3770.24 1634.05C3770.24 1634.05 3818.25 1649.47 3827.19 1618.77C3836.14 1588.07 3848.34 1569.4 3818.07 1558.25C3787.79 1547.11 3778.4 1557.01 3772.98 1566.51C3767.55 1576.01 3757.98 1629.25 3770.24 1634.05Z" fill="#FFB17C"/>
<path d="M3774.87 1563.55C3774.87 1563.55 3777.86 1599.3 3785.1 1597.77C3792.33 1596.23 3798.9 1595.1 3797.81 1605.87C3796.73 1616.63 3786.68 1629.05 3808.97 1631.01C3831.27 1632.96 3863.45 1574.29 3857.35 1563.15C3839.73 1531.02 3749.4 1524.35 3774.87 1563.55Z" fill="#153460"/>
<path d="M3629.85 1763.71C3629.85 1763.71 3608.67 1730.69 3607.35 1736.37C3606.03 1742.06 3610.98 1752.78 3607.35 1751.14C3603.74 1749.48 3590.19 1731.77 3588.24 1734.4C3586.3 1737.05 3588.27 1761.93 3592.54 1766.29C3596.83 1770.67 3621.95 1778.45 3621.95 1778.45L3629.85 1763.71Z" fill="#FFB17C"/>
<path d="M3806.94 1728.37C3806.94 1728.37 3747.43 1831.85 3711.46 1828.27C3675.47 1824.67 3611.9 1782.29 3611.9 1782.29C3611.9 1782.29 3611.73 1774.64 3615.87 1769.76C3621.68 1762.92 3629.85 1763.71 3629.85 1763.71C3629.85 1763.71 3705.43 1782.55 3712.39 1771.78C3719.34 1761.04 3749.52 1677.21 3768.93 1674.04C3788.34 1670.87 3806.94 1728.37 3806.94 1728.37Z" fill="#AFBFFF"/>
<path d="M2412.51 1848.65C2411.74 1848.65 2410.96 1848.39 2410.31 1847.89C2405.17 1843.89 2398.56 1832.6 2395.93 1828.42C2393.9 1829.59 2391.79 1830.69 2389.46 1831.55C2389.46 1831.55 2260.34 1764.46 2231.91 1730.81C2230.99 1730.52 2230.05 1730.34 2229.14 1730.03C2200.28 1720.02 2148.44 1722.17 2104.74 1714.83C2083.83 1711.31 2042.23 1699.78 2037.39 1685.35L2017.83 1667.31L2018.15 1667.09C1954.17 1651.55 1953.38 1542.92 1952.84 1535.65C1948.7 1481.07 1955.63 1432.33 1975 1412.68L1974.61 1412.71C1975.76 1402.25 1984 1393.8 1984 1393.8C1984.1 1393.79 1984.21 1393.78 1984.34 1393.78C1985.6 1393.78 1988.01 1394.45 1991.01 1395.54C1993.81 1391.89 1996.7 1387.01 1999.45 1380.67C1986.31 1369.31 1968.78 1339.09 1982.51 1311.72C1988.83 1299.11 1999.56 1296.19 2018.26 1293.24C2023.74 1292.38 2031.63 1288.16 2040.8 1288.16C2045.86 1288.16 2051.31 1289.44 2056.96 1293.28C2072.83 1304.1 2061.7 1323.12 2061.7 1323.12C2064.86 1321.47 2066.66 1317.04 2066.66 1317.04C2066.66 1317.04 2067.32 1328.89 2059.99 1333.05C2058.18 1334.08 2056.36 1334.53 2054.41 1334.67C2058.42 1352.66 2061.26 1387.88 2051.35 1391.22C2051.35 1391.22 2043.31 1393.26 2033.43 1393.7C2032.66 1396.03 2031.67 1398.81 2029.97 1402.65L2029.96 1402.64C2029.62 1403.66 2029.08 1405.14 2028.39 1406.98C2059.9 1407.31 2090.91 1417.29 2135.01 1417.29C2147.06 1417.29 2160.09 1416.54 2174.36 1414.66C2228.93 1407.43 2250.97 1405.37 2259.92 1404.85C2261.66 1401.3 2263.67 1397.8 2266.29 1394.51L2265.84 1392.06C2265.31 1389.31 2267.07 1386.64 2269.76 1386.09C2274.29 1385.17 2280.89 1382.73 2285.25 1376.58L2282.97 1374.46C2282.3 1373.91 2281.64 1373.34 2280.62 1372.75C2277.62 1371 2274.4 1370.11 2271.01 1370.11C2270.21 1370.11 2269.41 1370.16 2268.59 1370.26C2268.54 1370.26 2268.49 1370.27 2268.44 1370.27C2267.79 1370.27 2267.23 1369.77 2267.16 1369.09C2267.07 1368.36 2267.58 1367.7 2268.29 1367.61C2269.24 1367.5 2270.14 1367.45 2271.01 1367.45C2275.95 1367.45 2279.74 1369.1 2282.45 1370.81C2284.6 1369.67 2286.42 1369.44 2287.49 1369.44C2287.98 1369.44 2288.31 1369.49 2288.44 1369.52C2288.56 1369.1 2288.8 1368.84 2288.92 1368.4C2289.72 1364.9 2292.43 1362.2 2295.9 1361.52L2325.83 1355.67C2326.51 1355.53 2327.2 1355.47 2327.89 1355.47C2328.26 1355.47 2328.63 1355.49 2329 1355.52L2334.25 1356.06L2367.74 1349.51L2369.24 1347.18L2372.39 1346.56L2372.76 1348.53L2378.4 1347.43L2379.63 1354.01L2357.87 1358.26L2358.15 1359.72L2376.32 1356.17L2376.77 1358.65L2358.62 1362.21V1362.25L2357.15 1366.21C2356.55 1367.82 2355.19 1369 2353.54 1369.32L2336.13 1372.73L2335.91 1386.59C2335.88 1388.64 2334.45 1390.39 2332.47 1390.77L2322.34 1392.76L2320.89 1398.71C2319.75 1403.3 2316.45 1406.89 2312.02 1408.32L2304.96 1410.61C2304.59 1410.73 2304.22 1410.83 2303.84 1410.9C2303.81 1410.91 2303.78 1410.91 2303.75 1410.91C2303.66 1410.91 2303.57 1410.89 2303.49 1410.87C2303.41 1410.85 2303.33 1410.83 2303.23 1410.83C2303.22 1410.83 2303.2 1410.83 2303.17 1410.83C2306.84 1419.78 2300.5 1428.9 2296.96 1431.65C2294.82 1433.32 2289.11 1434.86 2283.44 1436.08C2283.78 1437.44 2284.12 1439.02 2284.43 1440.16C2285.21 1443.06 2283.39 1446.05 2280.49 1446.61L2258.93 1450.83C2258.6 1450.89 2258.29 1450.92 2257.98 1450.92C2255.53 1450.92 2253.46 1449.02 2253.01 1446.49C2230.7 1456.97 2190.2 1474.79 2163.15 1479.68C2143.47 1483.23 2105.34 1487.92 2072.36 1491.7C2072.36 1491.7 2075.52 1503.57 2077.76 1516.04C2077.79 1516.2 2077.81 1516.34 2077.84 1516.48C2077.87 1516.62 2077.9 1516.75 2077.91 1516.88V1516.9C2078.93 1522.33 2079.92 1528.02 2080.84 1534.02C2081.86 1540.66 2082.8 1547.66 2083.63 1555.01C2083.9 1557.35 2083.82 1561.23 2089.68 1566.73L2097.28 1571.05C2120.46 1562.5 2197.44 1534.34 2266.79 1511.58C2274.67 1508.99 2281.88 1507.84 2288.44 1507.84C2295.19 1507.84 2301.25 1509.06 2306.67 1511.17L2306.84 1511.13C2306.84 1511.13 2448.44 1570.23 2496.18 1585.61C2496.18 1585.61 2496.17 1585.93 2496.17 1586.09C2508.91 1585.75 2524.36 1575.88 2531.51 1570.23C2535.29 1567.26 2538.83 1566.2 2541.98 1566.2C2547.24 1566.2 2551.39 1569.17 2553.54 1571.17C2554.94 1572.47 2555.46 1574.42 2554.05 1575.71L2511.25 1620.7C2509.14 1622.88 2504.15 1624.89 2499.24 1624.89C2497.58 1624.89 2495.94 1624.66 2494.41 1624.14C2492.3 1623.4 2487.55 1622.1 2482.12 1620.57C2481.24 1621.49 2480.48 1622.47 2479.49 1623.33C2479.49 1623.33 2356.76 1609.07 2326.88 1592.39C2324.53 1591.06 2322.29 1589.64 2320.11 1588.2C2317.19 1586.33 2313.72 1585.59 2310.11 1585.59C2301.74 1585.59 2292.6 1589.56 2287.73 1592.65C2266.89 1605.86 2239.4 1622.06 2219.04 1634.33C2235.88 1644.25 2252.6 1654.91 2267.89 1666.07C2275.18 1671.39 2280.69 1676.39 2285.24 1681.19L2285.52 1681.22C2285.52 1681.22 2377.94 1767.73 2419.37 1800.71C2419.37 1800.71 2418.44 1803.12 2416.63 1806.49C2420.25 1808.43 2424.33 1809.22 2428.52 1809.22C2438.47 1809.22 2449.06 1804.78 2455.55 1800.95C2457.1 1800.05 2458.87 1799.67 2460.72 1799.67C2464.54 1799.67 2468.59 1801.34 2471.15 1803.3C2472.66 1804.47 2472.55 1806.82 2470.98 1807.86L2414.66 1847.95C2414.01 1848.4 2413.26 1848.65 2412.51 1848.65ZM2303.23 1406.54C2303.29 1406.54 2303.34 1406.55 2303.4 1406.56C2303.46 1406.57 2303.51 1406.57 2303.57 1406.57C2303.61 1406.57 2303.66 1406.57 2303.7 1406.55L2310.78 1404.26C2313.81 1403.29 2316.07 1400.83 2316.85 1397.68L2317.02 1396.95C2317.36 1395.54 2316.31 1394.24 2314.97 1394.24C2314.83 1394.24 2314.7 1394.25 2314.56 1394.28L2308.74 1395.42C2310.73 1395.56 2312.45 1396.01 2313.51 1397.08C2314.8 1398.39 2310.62 1400.1 2307.07 1402.49C2306.94 1402.57 2306.95 1402.78 2306.81 1402.81L2306.61 1402.83L2306.59 1402.83C2305.03 1403.91 2303.78 1405.15 2303.13 1406.55C2303.16 1406.55 2303.2 1406.54 2303.23 1406.54Z" fill="#CAC8A0"/>
<path d="M2048.17 1466.42C2026.33 1346.28 2034.63 1207.3 2045.45 1111.87C2057.16 1008.48 2074.25 932.507 2074.42 931.752L2075.73 932.05C2075.56 932.803 2058.47 1008.72 2046.78 1112.03C2035.98 1207.37 2027.68 1346.21 2049.48 1466.18L2048.17 1466.42Z" fill="#2A468A"/>
<path d="M2424.6 1541.42C2400.74 1496.19 2369.04 1396.97 2353.48 1181.18C2344.18 1052.17 2345.1 941.088 2345.11 939.982L2346.44 939.993C2346.44 941.101 2345.52 1052.14 2354.81 1181.09C2363.39 1300.07 2382.68 1459.05 2425.79 1540.79L2424.6 1541.42Z" fill="#2A468A"/>
<path d="M2349.98 1669.9C2309.33 1590.27 2299.55 1392.87 2298.5 1241.29C2297.37 1077.12 2305.95 929.856 2306.04 928.388L2307.37 928.467C2307.28 929.934 2298.7 1077.16 2299.83 1241.29C2300.88 1392.72 2310.64 1589.9 2351.19 1669.29L2349.98 1669.9Z" fill="#2A468A"/>
<path d="M2079.19 1388.57C2138.27 1368.34 2178.52 1401.38 2267.88 1389.56C2357.25 1377.74 2359.57 1379.72 2359.57 1379.72L2362.73 1397.94C2362.73 1397.94 2295.67 1431.93 2256.67 1438.97C2217.66 1446.02 2106.13 1457.53 2106.13 1457.53C2106.13 1457.53 2044.44 1400.47 2079.19 1388.57Z" fill="#6980E2"/>
<path d="M2647.56 1550.61L2604.76 1595.61C2601.95 1598.52 2593.99 1601.13 2587.93 1599.03C2581.57 1596.84 2551.57 1589.49 2548.61 1586.16C2548.61 1586.16 2548.63 1551.19 2560.26 1557.86C2560.69 1558.1 2580.6 1559.33 2581.03 1559.53C2594.41 1565.94 2616.16 1552.15 2625.02 1545.14C2635.11 1537.18 2643.61 1542.89 2647.05 1546.07C2648.46 1547.38 2648.98 1549.32 2647.56 1550.61Z" fill="#1C3154"/>
<path d="M2183.65 1548.61C2183.65 1548.61 2277.56 1513.63 2360.29 1486.49C2443.03 1459.33 2452.22 1588.02 2413.68 1563.12C2404.01 1556.88 2388.22 1563.12 2381.24 1567.55C2352.81 1585.58 2311.88 1609.23 2293.77 1620.8C2275.81 1632.27 2244.32 1654.1 2244.32 1654.1L2183.65 1548.61Z" fill="#233862"/>
<path d="M2400.36 1486.04C2400.36 1486.04 2541.96 1545.14 2589.7 1560.52C2589.7 1560.52 2589.76 1583.71 2573.01 1598.23C2573.01 1598.23 2450.27 1583.98 2420.39 1567.29C2376.74 1542.9 2362.67 1494.18 2400.36 1486.04Z" fill="#233862"/>
<path d="M2564.48 1782.77L2508.17 1822.86C2506.86 1823.78 2505.1 1823.78 2503.83 1822.8C2498.49 1818.65 2491.48 1806.49 2489.08 1802.74L2489.06 1802.71C2488.49 1801.82 2488.31 1800.73 2488.57 1799.71C2490.14 1793.38 2496.54 1771.1 2507.03 1779.54C2507.41 1779.86 2507.81 1780.14 2508.2 1780.41C2520.45 1788.86 2539.37 1781.58 2549.06 1775.86C2553.86 1773.04 2560.89 1775.31 2564.67 1778.21C2566.18 1779.36 2566.07 1781.71 2564.48 1782.77Z" fill="#233862"/>
<path d="M2189.13 1547.53C2189.13 1547.53 2290.72 1589.35 2361.41 1640.97C2432.09 1692.6 2365.84 1719.92 2322.66 1704.93C2293.8 1694.92 2241.95 1697.08 2198.26 1689.73C2177.35 1686.22 2135.75 1674.69 2130.91 1660.26C2121.82 1633.21 2189.13 1547.53 2189.13 1547.53Z" fill="#2A468A"/>
<path d="M2125.9 1422.51C2097.79 1422.87 2072.7 1381.13 2072.7 1381.13C2072.7 1381.13 2090.05 1374.21 2098.92 1337.94L2113.93 1360.39L2124.13 1375.63C2124.13 1375.63 2122.13 1382.15 2117.27 1393.16C2116.38 1395.16 2115.4 1397.32 2114.33 1399.62C2113.47 1401.45 2113.72 1403.65 2115.04 1405.17C2122.64 1413.96 2125.9 1422.51 2125.9 1422.51Z" fill="#FFB17C"/>
<path d="M2161.04 1449.66C2165.7 1464.17 2170.55 1484.04 2174.36 1508.93C2175.38 1515.57 2176.31 1522.57 2177.15 1529.92C2177.57 1533.51 2176.88 1540.72 2198.9 1551.99C2204.5 1554.87 2188.7 1566.59 2197.65 1569.99C2212.93 1575.81 2122.57 1644.02 2119.62 1643.69C2047.54 1635.79 2046.92 1518.12 2046.35 1510.56C2042.11 1454.32 2049.47 1404.01 2070.2 1385.63C2070.2 1385.63 2085.08 1382.77 2095.91 1385.44C2106.53 1388.06 2108.91 1389.47 2118.01 1393.38C2118.01 1393.38 2128.87 1397.91 2133.71 1402.57C2144.91 1413.34 2154.1 1428.06 2161.04 1449.66Z" fill="#8C9CF4"/>
<path d="M2128.62 1362.11C2128.62 1362.11 2128.35 1366.55 2123.49 1377.55C2101.86 1367 2093.47 1356.07 2093.47 1356.07C2101.73 1356.17 2108.51 1357.82 2113.93 1360.39L2128.62 1362.11Z" fill="#ED975D"/>
<path d="M2144.87 1366.13C2144.87 1366.13 2097.57 1378.85 2090.26 1348.63C2082.95 1318.41 2071.92 1299.71 2101.83 1290.3C2131.72 1280.9 2140.4 1290.95 2145.24 1300.43C2150.08 1309.91 2156.99 1362.04 2144.87 1366.13Z" fill="#FFB17C"/>
<path d="M2093.48 1356.07C2093.48 1356.07 2099.92 1341.27 2095.49 1335.91C2090.06 1329.36 2091.12 1321.58 2096.8 1322.75C2102.48 1323.91 2103.17 1328.4 2105.2 1325.55C2107.22 1322.69 2106.26 1311.58 2122.61 1309.24C2138.98 1306.91 2146.19 1312.11 2153.52 1307.96C2160.84 1303.8 2160.18 1291.94 2160.18 1291.94C2160.18 1291.94 2158.38 1296.37 2155.22 1298.02C2155.22 1298.02 2166.35 1279 2150.48 1268.19C2134.61 1257.38 2120.28 1266.81 2111.78 1268.15C2093.08 1271.1 2082.35 1274.02 2076.03 1286.63C2062.13 1314.34 2080.29 1345.06 2093.48 1356.07Z" fill="#2A468A"/>
<path d="M2077.52 1368.71C2077.52 1368.71 2069.28 1377.15 2068.13 1387.61C2068.13 1387.61 2089 1385.62 2126.18 1397.38C2126.18 1397.38 2119.27 1388.92 2116.44 1386.71C2107.94 1380.08 2082.01 1368.15 2077.52 1368.71Z" fill="#6980E2"/>
<path d="M2111.34 1642.22C2111.34 1642.22 2162.58 1607.1 2183.03 1541.54L2207.92 1555.67C2207.92 1555.67 2193.53 1638.69 2130.91 1660.26L2111.34 1642.22Z" fill="#172F54"/>
<path d="M2379.04 1656.13C2379.04 1656.13 2471.46 1742.64 2512.89 1775.61C2512.89 1775.61 2504.64 1798.45 2482.97 1806.46C2482.97 1806.46 2339.76 1732.08 2321.61 1700.64C2303.47 1669.2 2339.07 1650.04 2379.04 1656.13Z" fill="#2A468A"/>
<path d="M2155.98 1608.41C2155.98 1608.41 2185.56 1612.14 2189.38 1616.9C2193.19 1621.66 2199.95 1663.55 2196.87 1666.45C2193.82 1669.35 2178.38 1670.82 2176.13 1668.33C2173.88 1665.84 2172.42 1629.42 2168.37 1629.24C2164.32 1629.04 2153.83 1631.02 2151.71 1626.12C2149.87 1621.9 2147.25 1609.27 2155.98 1608.41Z" fill="#112444"/>
<path d="M2092.44 1460.11C2092.44 1460.11 2118.24 1470.06 2165.88 1466.61C2165.88 1466.61 2169.19 1479 2171.43 1491.78C2173.67 1504.57 2108.38 1481.46 2092.44 1460.11Z" fill="#6980E2"/>
<path d="M2473.15 1328.91L2429 1337.55L2427.77 1330.97L2471.92 1322.34L2473.15 1328.91Z" fill="#2A468A"/>
<path d="M2470.3 1333.56L2429.74 1341.49L2429.27 1339L2469.83 1331.07L2470.3 1333.56Z" fill="#2A468A"/>
<path d="M2396.89 1370.55C2396.89 1370.55 2396.99 1373.83 2395.02 1374.86L2390.36 1369.96L2396.89 1370.55Z" fill="#233862"/>
<path d="M2400.33 1377.72L2400.13 1377.74C2394.65 1377.82 2390.91 1372.45 2390.76 1372.23C2390.41 1371.7 2390.53 1370.99 2391.04 1370.62C2391.55 1370.26 2392.25 1370.38 2392.61 1370.9C2392.64 1370.95 2395.83 1375.5 2400.09 1375.43C2400.71 1375.42 2401.24 1375.93 2401.24 1376.57C2401.25 1377.14 2400.85 1377.61 2400.33 1377.72Z" fill="#233862"/>
<path d="M2379.7 1351.56C2379.26 1351.65 2378.78 1351.49 2378.47 1351.11C2378.46 1351.1 2376.93 1349.28 2374.14 1347.65C2370.44 1345.49 2366.39 1344.65 2362.1 1345.16C2361.4 1345.25 2360.74 1344.73 2360.66 1344C2360.59 1343.27 2361.1 1342.61 2361.81 1342.52C2373.47 1341.14 2380.17 1349.06 2380.45 1349.39C2380.92 1349.96 2380.85 1350.79 2380.3 1351.27C2380.13 1351.42 2379.91 1351.52 2379.7 1351.56Z" fill="#233862"/>
<path d="M2382.14 1344.45C2382.14 1344.45 2378.24 1343.43 2373.9 1346.96L2380.04 1352.67L2382.14 1344.45Z" fill="#233862"/>
<path d="M2410.35 1372.58C2409.59 1375.73 2407.32 1378.19 2404.29 1379.17L2397.22 1381.46C2394.94 1382.2 2392.44 1381.36 2391.04 1379.38L2389.37 1377.02C2388.15 1375.31 2389.09 1372.9 2391.13 1372.5L2408.08 1369.18C2409.6 1368.89 2410.92 1370.31 2410.54 1371.85L2410.35 1372.58ZM2427.77 1330.97L2422.52 1330.43C2421.45 1330.32 2420.39 1330.37 2419.35 1330.57L2389.41 1336.43C2385.96 1337.1 2383.24 1339.81 2382.43 1343.31C2379.53 1355.79 2369.44 1359.75 2363.28 1361C2360.59 1361.54 2358.83 1364.21 2359.36 1366.96L2359.81 1369.42L2382.17 1374.11L2387.66 1381.87C2389.9 1385.03 2393.69 1386.52 2397.36 1385.81C2397.74 1385.73 2398.11 1385.64 2398.48 1385.52L2405.56 1383.23C2409.96 1381.8 2413.27 1378.21 2414.4 1373.62L2415.86 1367.66L2425.99 1365.68C2427.97 1365.29 2429.4 1363.55 2429.44 1361.49L2429.65 1347.63L2447.05 1344.23C2448.71 1343.91 2450.07 1342.73 2450.66 1341.12L2452.14 1337.16L2450.15 1326.59L2427.77 1330.97Z" fill="#2A468A"/>
<path d="M2346.27 1420.91C2345.48 1410.22 2345.72 1387.08 2359.81 1369.42C2359.81 1369.42 2372.04 1363.65 2382.5 1374.19C2392.95 1384.72 2387.46 1383.02 2385.22 1383.7C2383 1384.38 2373.26 1385.2 2374.25 1396.2C2374.86 1402.79 2376.61 1410.19 2377.94 1415.06C2378.72 1417.97 2376.91 1420.96 2374.01 1421.52L2352.45 1425.74C2349.39 1426.34 2346.51 1424.09 2346.27 1420.91Z" fill="#233862"/>
<path d="M2461.25 1324.42L2462.75 1322.08L2465.91 1321.46L2466.28 1323.44L2461.25 1324.42Z" fill="#233862"/>
<path d="M2354.47 1389.83C2352.96 1395.56 2350.38 1406.93 2351.06 1416.26C2351.2 1418.17 2352.93 1419.53 2354.78 1419.17L2366.99 1416.78C2368.71 1416.44 2369.82 1414.72 2369.45 1412.96C2368.54 1408.68 2367.21 1400.89 2367.82 1394.53C2367.95 1393.18 2367.24 1391.9 2366.05 1391.32L2358.86 1387.79C2357.09 1386.92 2355 1387.9 2354.47 1389.83Z" fill="#2A468A"/>
<path d="M2359.4 1394.41C2359.23 1393.56 2359.78 1392.74 2360.6 1392.58C2361.44 1392.42 2362.24 1392.97 2362.4 1393.82C2362.56 1394.67 2362.02 1395.49 2361.18 1395.65C2360.35 1395.81 2359.55 1395.26 2359.4 1394.41Z" fill="#6B79FF"/>
<path d="M2079.19 1404.19C2138.27 1383.95 2178.52 1416.99 2267.88 1405.17C2357.25 1393.35 2359.57 1395.33 2359.57 1395.33L2362.73 1413.55C2362.73 1413.55 2295.67 1447.53 2256.67 1454.59C2217.66 1461.64 2097.16 1475.02 2097.16 1475.02C2097.16 1475.02 2044.44 1416.09 2079.19 1404.19Z" fill="#8C9CF4"/>
<path d="M2359.57 1395.33C2359.57 1395.33 2364.4 1387.06 2370.44 1382.77C2382.82 1373.99 2401.73 1366.62 2407.03 1371.99C2409.41 1374.4 2393.25 1378.04 2396.55 1385.04C2400.87 1394.21 2394.11 1403.74 2390.48 1406.56C2385.63 1410.31 2362.73 1413.55 2362.73 1413.55L2359.57 1395.33Z" fill="#FFB17C"/>
<path d="M2965.93 1553.59C2965.93 1553.59 2928.55 1547.84 2910.46 1571.9C2892.35 1595.96 2899.94 1619.32 2869.57 1621.96C2839.2 1624.61 2833.95 1636.94 2840.37 1654.03C2846.79 1671.14 2808.83 1671.73 2800.66 1694.99C2792.48 1718.27 2796.57 1758.25 2854.39 1747.5C2912.2 1736.77 2933.39 1700.97 2960.17 1710.51C2986.96 1720.06 3024.91 1692.57 3011.49 1675.6C2998.06 1658.6 3019.66 1660.5 3017.91 1621.96C3016.16 1583.43 2991.47 1552.7 2965.93 1553.59Z" fill="#153460"/>
<path d="M3143.38 1722.56C3143.38 1722.56 3131.98 1804.27 3082.19 1804.22C3049.5 1804.21 3011.52 1775.88 3011.52 1775.88C3011.52 1775.88 3013.31 1763.9 3012.34 1759.48C3008.36 1741.1 2999.5 1692.93 3013.99 1685.32C3013.99 1685.32 3021.65 1688.75 3031.05 1696.5C3052.48 1714.12 3057.55 1739.7 3077.15 1744.81C3095.23 1749.52 3096.71 1726.66 3117.88 1727.89L3143.38 1722.56Z" fill="#8C9CF4"/>
<path d="M3102.97 1793.55C3101.67 1793.36 3100.37 1793.12 3099.09 1792.85C3101.2 1793 3102.45 1793.24 3102.97 1793.55Z" fill="#F2CCAA"/>
<path d="M2815.94 2280.82C2815.94 2280.82 2802.09 2293.74 2804.79 2302.9C2807.5 2312.07 2820 2318.19 2821.68 2329.39C2823.37 2340.61 2830.12 2346.72 2836.2 2346.72C2842.29 2346.72 2865.18 2346.72 2865.18 2346.72C2865.18 2346.72 2869.65 2338.84 2858.85 2336.46C2848.05 2334.08 2843.97 2320.91 2844.65 2308.67C2845.31 2296.45 2843.63 2280.14 2843.63 2280.14L2820.67 2274.71L2815.94 2280.82Z" fill="#3D5B87"/>
<path d="M2933.13 2287.34C2933.13 2287.34 2928.14 2342.02 2934.22 2345.08L3012 2344.91C3012 2344.91 3012 2335.75 2999.51 2333.71C2987.03 2331.67 2965.07 2324.19 2961.36 2307.56C2957.65 2290.9 2933.13 2287.34 2933.13 2287.34Z" fill="#3D5B87"/>
<path d="M3000.22 1826.54L2951.48 1865.64L2904.98 1831.84H2904.97L2901.19 1830.44C2901.19 1830.44 2893.51 1826.54 2891.23 1808.02C2890.95 1805.74 2889.33 1786.19 2887.72 1766.47C2885.98 1745.21 2884.27 1723.77 2884.27 1723.77L2913.96 1678.77C2976.3 1665.32 3013.99 1685.32 3013.99 1685.32C3013.99 1685.32 3020.87 1711.15 3026.83 1744.78C3035.93 1796.11 3000.22 1826.54 3000.22 1826.54Z" fill="#8C9CF4"/>
<path d="M2996.64 1837.56C2996.64 1837.56 3019.07 1908.87 3020.51 1933.14C3021.96 1957.42 2977.64 2278.06 2975.86 2289.25C2974.17 2299.8 2961.36 2306.51 2961.36 2306.51C2961.36 2306.51 2955.47 2310.06 2947.04 2307.64C2935.38 2304.27 2931.68 2300.24 2931.68 2300.24C2931.68 2300.24 2914.22 2071.57 2925.03 1989.88C2935.83 1908.19 2935.96 1837.56 2935.96 1837.56H2996.64Z" fill="#ED7C2A"/>
<path d="M2901.62 1835.42C2901.62 1835.42 2867.42 1882.32 2864.23 1914.02C2861.03 1945.71 2859.22 2057.05 2852.42 2087.96C2845.63 2118.86 2820.67 2178.33 2820.67 2274.7C2820.67 2274.7 2823.27 2280.23 2831.27 2283.17C2833.83 2284.12 2837.27 2285.03 2840.6 2285.81C2847.21 2287.36 2853.99 2284.06 2857.01 2277.86C2873.89 2243.14 2927.65 2131.18 2930.41 2107.94C2932.35 2091.49 2949.32 1982.64 2986.35 1918.77C2995.24 1903.43 2980.9 1842.44 2980.9 1842.44L2901.62 1835.42Z" fill="#F99746"/>
<path d="M2948.05 1688.58C2941.62 1686.68 2938.32 1682.49 2938.68 1675.62C2939.2 1665.56 2941.44 1655.88 2939.81 1641.55L2941.89 1641.74L2976.92 1644.74L2978.49 1666.48C2979.58 1680.49 2978.66 1697.56 2948.05 1688.58Z" fill="#FFB17C"/>
<path d="M2976.92 1644.74C2976.92 1644.74 2977.34 1655.84 2978.46 1666.22C2959.23 1667.86 2947.13 1651.17 2941.89 1641.74L2976.92 1644.74Z" fill="#E8935B"/>
<path d="M2941.89 1833.61C2941.89 1833.61 2940.33 1817.03 2929.52 1803.79C2918.71 1790.53 2920.65 1753.79 2911.79 1753.79C2895.35 1753.82 2896.65 1817.55 2912.23 1829.44C2927.79 1841.34 2941.89 1833.61 2941.89 1833.61Z" fill="#6980E2"/>
<path d="M2984.39 1653.83C2984.39 1653.83 2939.12 1659.79 2935.92 1630.93C2932.7 1602.08 2924.7 1583.4 2953.47 1578.37C2982.26 1573.35 2989.1 1583.7 2992.46 1593.07C2995.83 1602.43 2996.09 1651.52 2984.39 1653.83Z" fill="#FFB17C"/>
<path d="M2974.06 1575.3C2974.06 1575.3 2965.37 1610.59 2946.86 1617.78C2928.34 1624.97 2919.51 1620.71 2919.51 1620.71C2919.51 1620.71 2932.81 1607.16 2933.58 1586.1C2933.58 1586.1 2962.92 1560.25 2974.06 1575.3Z" fill="#153460"/>
<path d="M2971.28 1578.4C2971.28 1578.4 2980.88 1580.85 2985.43 1587.28C2989.87 1593.57 2994.01 1602.09 2994.47 1613.08C2994.47 1613.08 3001.3 1588.99 2989.35 1577.17C2976.68 1564.65 2971.28 1578.4 2971.28 1578.4Z" fill="#153460"/>
<path d="M3000.22 1826.54C3000.22 1826.54 2991.22 1833.82 2973.33 1834.19C2951.97 1834.63 2899.03 1828.62 2899.03 1828.62C2899.03 1828.62 2896.68 1835.33 2896.78 1842.43C2896.78 1842.43 2961.43 1859.08 2998.89 1844.86C2998.89 1844.86 3003.72 1835.58 3000.22 1826.54Z" fill="#ED7C2A"/>
<path d="M2971.95 1841.72C2971.95 1846.11 2974.87 1849.69 2978.46 1849.69C2982.06 1849.69 2984.98 1846.11 2984.98 1841.72C2984.98 1837.33 2982.06 1833.75 2978.46 1833.75C2974.87 1833.75 2971.95 1837.33 2971.95 1841.72ZM2968.71 1841.72C2968.71 1835.5 2973.08 1830.45 2978.46 1830.45C2983.84 1830.45 2988.22 1835.5 2988.22 1841.72C2988.22 1847.94 2983.84 1852.99 2978.46 1852.99C2973.08 1852.99 2968.71 1847.94 2968.71 1841.72Z" fill="white"/>
<path d="M3233.31 1919.98L2973.6 1942.4L2962.04 1802.48L3221.75 1780.08L3233.31 1919.98Z" fill="white"/>
<path d="M3235.28 1943.69L2975.56 1966.09L2963.99 1826.19L3223.71 1803.79L3235.28 1943.69Z" fill="#233862"/>
<path d="M2988.87 1825.25L2972.13 1826.7L2983.39 1800.64L3000.11 1799.2L2988.87 1825.25Z" fill="#233862"/>
<path d="M3024.67 1822.17L3007.95 1823.61L3019.21 1797.56L3035.93 1796.11L3024.67 1822.17Z" fill="#233862"/>
<path d="M3060.49 1819.08L3043.77 1820.51L3055.02 1794.47L3071.74 1793.02L3060.49 1819.08Z" fill="#233862"/>
<path d="M3096.32 1815.98L3079.58 1817.42L3090.84 1791.38L3107.56 1789.94L3096.32 1815.98Z" fill="#233862"/>
<path d="M3132.12 1812.89L3115.4 1814.34L3126.66 1788.28L3143.38 1786.85L3132.12 1812.89Z" fill="#233862"/>
<path d="M3167.94 1809.8L3151.22 1811.25L3162.46 1785.19L3179.19 1783.75L3167.94 1809.8Z" fill="#233862"/>
<path d="M3203.76 1806.72L3187.03 1808.16L3198.29 1782.11L3215.01 1780.66L3203.76 1806.72Z" fill="#233862"/>
<path d="M3201.74 1698.93L2961.63 1802.51L2952.57 1780.61L3192.68 1677.03L3201.74 1698.93Z" fill="white"/>
<path d="M2984.52 1792.64L2969.06 1799.31L2972.3 1772.08L2987.76 1765.41L2984.52 1792.64Z" fill="#153460"/>
<path d="M3017.64 1778.35L3002.18 1785.02L3005.42 1757.81L3020.88 1751.14L3017.64 1778.35Z" fill="#153460"/>
<path d="M3050.75 1764.07L3035.28 1770.74L3038.54 1743.52L3054 1736.85L3050.75 1764.07Z" fill="#153460"/>
<path d="M3083.86 1749.78L3068.4 1756.45L3071.64 1729.23L3087.11 1722.56L3083.86 1749.78Z" fill="#153460"/>
<path d="M3116.97 1735.49L3101.51 1742.16L3104.75 1714.95L3120.21 1708.28L3116.97 1735.49Z" fill="#153460"/>
<path d="M3150.09 1721.22L3134.63 1727.89L3137.87 1700.67L3153.33 1694L3150.09 1721.22Z" fill="#153460"/>
<path d="M3183.19 1706.93L3167.73 1713.6L3170.99 1686.39L3186.45 1679.72L3183.19 1706.93Z" fill="#153460"/>
<path d="M2984.52 1792.64L2984.98 1800.59L2972.13 1826.7L2963.99 1826.19L2952.57 1780.61L2980.54 1768.53L2984.52 1792.64Z" fill="#233862"/>
<path d="M2946.56 1865.35C2946.56 1865.35 2959.79 1865.24 2962.41 1862.82C2965.02 1860.41 2977.98 1854.63 2982.09 1858.02C2987.58 1862.56 2994.91 1872.19 2993.02 1875.46C2991.13 1878.75 2982.89 1873.16 2974.67 1878.13C2970.52 1880.63 2962.53 1886.88 2956.15 1884.57C2949.75 1882.25 2941.97 1878.45 2941.97 1878.45L2946.56 1865.35Z" fill="#FFB17C"/>
<path d="M2954.68 1864.87C2954.68 1864.87 2963.62 1856.91 2966.74 1852.85C2969.85 1848.79 2971.01 1851.04 2970.45 1853.39C2969.81 1856.09 2968.71 1858.7 2965.05 1862.47C2961.39 1866.23 2954.04 1867.22 2954.68 1864.87Z" fill="#FFB17C"/>
<path d="M2913.96 1678.77C2913.96 1678.77 2888.87 1679.21 2874.6 1704.38C2860.32 1729.56 2848.7 1796.82 2859.38 1820.51C2870.05 1844.21 2899.71 1872.26 2941.98 1878.45L2946.56 1865.35C2946.56 1865.35 2942.92 1851.07 2929.52 1833.61C2916.12 1816.16 2902.9 1794.2 2904.97 1783.75C2907.03 1773.3 2913.96 1678.77 2913.96 1678.77Z" fill="#8C9CF4"/>
<path d="M3115.4 1708.28C3115.4 1708.28 3114.84 1715.43 3123.49 1716.76C3132.14 1718.08 3140.79 1705.12 3137.87 1700.67C3134.94 1696.21 3120.07 1697.6 3115.4 1708.28Z" fill="#FFB17C"/>
<path d="M1216.58 2348.07H1216.93C1218.97 2348.07 1220.62 2345.29 1220.57 2341.91L1215.05 1946.35L1198.77 1943.21L1212.65 2341.94C1212.77 2345.38 1214.49 2348.07 1216.58 2348.07Z" fill="#2A468A"/>
<path d="M508.073 2348.07H507.726C505.681 2348.07 504.036 2345.29 504.083 2341.91L509.608 1946.35L525.881 1943.21L512.003 2341.94C511.884 2345.38 510.16 2348.07 508.073 2348.07Z" fill="#2A468A"/>
<path d="M1248.57 1953.63H468.53C463.21 1953.63 458.9 1949.31 458.9 1944V1939.4C458.9 1934.07 463.21 1929.75 468.53 1929.75H1248.57C1253.89 1929.75 1258.2 1934.07 1258.2 1939.4V1944C1258.2 1949.31 1253.89 1953.63 1248.57 1953.63Z" fill="#2A468A"/>
<path d="M1082.04 1754.01L1095.67 1919.64C1095.67 1919.64 1097.1 1929.68 1089.79 1929.7C1077.77 1929.73 1029.96 1929.7 1029.96 1929.7C1029.96 1929.7 1039.01 1927.6 1038.9 1922.9C1038.77 1917.36 1022.96 1752.44 1022.96 1752.44L1082.04 1754.01Z" fill="#D86712"/>
<path d="M1026.08 1926.69C1028.45 1926.69 1074.11 1926.84 1085.81 1926.69C1090.91 1926.62 1091.81 1922.05 1091.85 1919.11C1091.87 1917.67 1091.7 1916.63 1091.7 1916.63L1091.34 1912.32L1090.44 1901.36L1089.64 1891.66L1088.61 1879.2L1087.75 1868.7L1078.06 1751L1018.99 1749.44C1018.99 1749.44 1025.65 1818.46 1030.36 1868.7C1030.88 1874.29 1031.38 1879.66 1031.84 1884.67C1031.99 1886.27 1032.14 1887.83 1032.28 1889.35C1032.72 1894.11 1033.11 1898.47 1033.46 1902.33C1033.65 1904.35 1033.81 1906.25 1033.97 1907.98C1034.57 1914.74 1034.92 1919.08 1034.92 1919.9C1034.93 1920.38 1034.89 1920.82 1034.81 1921.24C1033.84 1926.51 1026.97 1926.69 1026.08 1926.69Z" fill="#D86712"/>
<path d="M1225.5 1663.89L1192.28 1800.18L1187.73 1818.84L1172.27 1882.32H884.873L941.889 1663.89H1225.5Z" fill="#F0A34F"/>
<path d="M1225.5 1663.89L1230.1 1665.44L1178.38 1887.06L1172.26 1882.32L1225.5 1663.89Z" fill="#ED9749"/>
<path d="M1178.38 1887.06H892.759L884.873 1882.32H1172.26L1178.38 1887.06Z" fill="#D86712"/>
<path d="M1078.08 1929.75H1016.24V1926.75H1078.08V1929.75Z" fill="#D86712"/>
<path d="M898.795 1842.06L945.428 1666.77H1225.95V1663.89H941.889L895.412 1841.68L898.795 1842.06Z" fill="#F0A34F"/>
<path d="M1031.96 1887.06L1032.28 1889.35L1090.44 1901.36L1089.64 1891.66L1089.26 1887.06H1031.96Z" fill="#D86712"/>
<path d="M1026.08 1926.69C1028.45 1926.69 1074.11 1926.84 1085.81 1926.69C1090.92 1926.62 1091.81 1922.05 1091.85 1919.11L1033.97 1907.98C1034.57 1914.74 1034.92 1919.08 1034.92 1919.9C1034.93 1920.38 1034.89 1920.82 1034.81 1921.24C1033.84 1926.51 1026.97 1926.69 1026.08 1926.69Z" fill="#D86712"/>
<path d="M1172.26 1872.82H1174.58V1882.32H1172.26V1872.82Z" fill="#AA879A"/>
<path d="M1174.58 1872.82L1187.73 1818.84L1174.58 1872.82Z" fill="#BAA767"/>
<path d="M1172.26 1882.32L1046.02 1838.1L1187.73 1818.84L1174.58 1872.82L1172.26 1882.32Z" fill="#E68A36"/>
<path d="M1225.49 1663.89H941.888L895.873 1839.44H1184.17L1225.49 1663.89Z" fill="#153460"/>
<path d="M909.25 1831.82H1174.79L1204.86 1709.45L1207.17 1700.06L1209.14 1692.05L1213.75 1673.29H952.033L946.968 1692.05L944.808 1700.06L942.276 1709.45L909.25 1831.82Z" fill="#D6EFCD"/>
<path d="M1198.77 1689.13H1134.04V1686.91H1198.77V1689.13Z" fill="#153460"/>
<path d="M1196.18 1695.48H1131.44V1693.25H1196.18V1695.48Z" fill="#153460"/>
<path d="M1194.31 1701.62H1129.57V1699.41H1194.31V1701.62Z" fill="#153460"/>
<path d="M891.191 2304.27C891.191 2304.27 893.751 2345.01 901.469 2345.58C902.496 2345.66 940.603 2345.58 940.603 2345.58L989.25 2345.18C989.25 2345.18 988.906 2333.2 974.681 2330.71C960.456 2328.2 936.633 2318.05 927.978 2298.86C918.874 2278.68 891.191 2304.27 891.191 2304.27Z" fill="#0E2B4F"/>
<path d="M751.941 1969.19C750.082 1970.79 700.537 2025.63 704.582 2067.76C705.772 2080.13 716.204 2089.44 728.373 2089.44H788.726C788.726 2089.44 850.308 2100.68 851.776 2114.27C853.246 2127.87 865.847 2201.14 890.82 2305.29C890.82 2305.29 909.223 2311.76 920.384 2307.15C935.144 2301.03 937.286 2294.54 937.286 2294.54C937.286 2294.54 922.403 2061.34 910.65 2044.93C898.898 2028.52 777.835 1979.72 738.635 1974.87C699.434 1970.01 751.941 1969.19 751.941 1969.19Z" fill="#153460"/>
<path d="M1101.96 1911.02C1101.96 1911.02 1136.97 1902.71 1145.93 1911.02C1154.89 1919.35 1157.74 1929.75 1157.74 1929.75H1101.96V1911.02Z" fill="#FFB17C"/>
<path d="M976.453 2304.27C976.453 2304.27 979.013 2345.01 986.731 2345.58C987.756 2345.66 1025.86 2345.58 1025.86 2345.58L1074.51 2345.18C1074.51 2345.18 1074.17 2333.2 1059.94 2330.71C1045.72 2328.2 1021.89 2318.05 1013.24 2298.86C1004.13 2278.68 976.453 2304.27 976.453 2304.27Z" fill="#153460"/>
<path d="M706.17 1969.19C704.76 1970.41 694.039 1999.87 686.876 2033.35C680.713 2062.16 702.163 2089.44 731.031 2089.44H871.43C871.43 2089.44 933.012 2100.68 934.48 2114.27C935.95 2127.87 948.551 2201.14 973.524 2305.29C973.524 2305.29 991.989 2310.25 1006.41 2303.95C1014.08 2300.6 1020.12 2292.58 1020.12 2292.58C1020.12 2292.58 1005.11 2061.34 993.354 2044.93C981.602 2028.52 860.538 1979.72 821.339 1974.87C782.138 1970.01 706.17 1969.19 706.17 1969.19Z" fill="#2A468A"/>
<path d="M783.99 1760.71L805.702 1781.99L842.698 1782.01C842.741 1778.98 842.615 1766.3 842.486 1754.82C842.474 1754.14 842.462 1753.46 842.458 1752.8C842.429 1750.25 842.395 1747.8 842.368 1745.55C842.295 1739.22 842.232 1734.64 842.232 1734.64L832.722 1727.99L811.594 1713.22L800.166 1705.23C800.161 1705.43 799.22 1715.87 799.079 1717.38C796.55 1744.41 783.99 1760.71 783.99 1760.71Z" fill="#FFB17C"/>
<path d="M837.779 1756.86C837.073 1756.56 797.045 1738.23 792.363 1739.8C787.682 1741.38 781.848 1755.98 781.848 1755.98L852.33 1772.27C852.33 1772.27 846.784 1760.74 837.779 1756.86Z" fill="#E9C3A1"/>
<path d="M664.647 1879.41C672.274 1831.37 704.473 1795.42 718.251 1781.94C727.502 1767.72 781.848 1755.98 781.848 1755.98C781.848 1755.98 826.869 1766.38 852.33 1772.27C852.33 1772.27 892.056 1776.67 914.46 1814.52C928.314 1837.93 967.994 1891.48 994.054 1893.14C1020.11 1894.79 1101.96 1911.02 1101.96 1911.02V1929.75L977.183 1935.08C975.655 1935.13 974.143 1935.01 972.641 1934.72C961.903 1932.64 915.881 1923.31 892.993 1911.13C889.339 1971.34 885.02 2063.3 864.435 2077.9C842.662 2093.33 689.548 2095.4 673.335 2071.86C665.036 2059.81 675.211 1988.49 687.922 1919.71C672.12 1912.04 661.45 1899.55 664.647 1879.41Z" fill="#F9DDBF"/>
<path d="M806.084 1725.81L807.97 1727C807.97 1727 825.381 1739.81 842.368 1745.55C842.294 1739.22 842.232 1734.64 842.232 1734.64L832.722 1727.99L806.084 1725.81Z" fill="#E9A16E"/>
<path d="M855.198 1734.97C855.198 1734.97 798.276 1741.85 794.629 1705.57C790.98 1669.29 781.177 1645.75 817.366 1639.81C853.555 1633.89 862.019 1646.99 866.119 1658.8C870.221 1670.6 869.911 1732.24 855.198 1734.97Z" fill="#FFB17C"/>
<path d="M864.611 1655.08C864.611 1655.08 853.866 1694.44 846.084 1691.16C838.302 1687.87 831.191 1685.18 830.172 1697.47C829.154 1709.76 837.84 1725.84 812.486 1723.2C787.134 1720.57 763.272 1647.96 772.405 1636.81C798.76 1604.67 901.22 1616.7 864.611 1655.08Z" fill="#153460"/>
<path d="M904.926 2097.22H623.568C612.759 2097.22 603.998 2088.47 603.998 2077.65V2064.58H904.926V2097.22Z" fill="#77A3E4"/>
<path d="M938.513 2097.22H725.804C717.813 2097.22 711.334 2090.75 711.334 2082.77V2079.06C711.334 2071.07 717.813 2064.58 725.804 2064.58H938.513C946.506 2064.58 952.983 2071.07 952.983 2079.06V2082.77C952.983 2090.75 946.506 2097.22 938.513 2097.22Z" fill="#F99746"/>
<path d="M761.326 2333.33H743.164L738.068 2097.22H765.813L761.326 2333.33Z" fill="#2A468A"/>
<path d="M840.257 2333.33H663.625V2317.03L753.65 2308.73L840.257 2317.03V2333.33Z" fill="#2A468A"/>
<path d="M646.467 2330.76C646.467 2322.58 652.971 2315.92 660.995 2315.92C669.02 2315.92 675.526 2322.58 675.526 2330.76C675.526 2338.96 669.02 2345.62 660.995 2345.62C652.971 2345.62 646.467 2338.96 646.467 2330.76Z" fill="#2A468A"/>
<path d="M823.098 2330.76C823.098 2322.58 829.603 2315.92 837.628 2315.92C845.652 2315.92 852.156 2322.58 852.156 2330.76C852.156 2338.96 845.652 2345.62 837.628 2345.62C829.603 2345.62 823.098 2338.96 823.098 2330.76Z" fill="#2A468A"/>
<path d="M833.764 2112.71H670.118C661.654 2112.71 654.793 2105.86 654.793 2097.39V2097.22H849.089V2097.39C849.089 2105.86 842.228 2112.71 833.764 2112.71Z" fill="#2A468A"/>
<path d="M631.813 2097.22C624.177 2097.22 617.988 2090.91 617.988 2083.11V1865.69C617.988 1824.96 644.061 1791.93 676.223 1791.93H807.912C840.075 1791.93 866.147 1824.96 866.147 1865.69V2097.22H631.813Z" fill="#F99746"/>
<path d="M629.213 2097.22C615.288 2097.22 603.998 2085.7 603.998 2071.47V1865.69C603.998 1824.96 630.071 1791.93 662.233 1791.93H793.924C826.086 1791.93 852.157 1824.96 852.157 1865.69V2097.22H629.213Z" fill="#CC6926"/>
<path d="M4186.56 2354.27H288.893C286.23 2354.27 284.051 2352.09 284.051 2349.43V2346.71C284.051 2344.05 286.23 2341.87 288.893 2341.87H4186.56C4189.22 2341.87 4191.4 2344.05 4191.4 2346.71V2349.43C4191.4 2352.09 4189.22 2354.27 4186.56 2354.27Z" fill="#233862"/>
<path d="M1811.33 2100.81C1811.33 2081.48 1826.66 2065.82 1845.59 2065.82C1864.51 2065.82 1879.84 2081.48 1879.84 2100.81C1879.84 2120.13 1864.51 2135.81 1845.59 2135.81C1826.66 2135.81 1811.33 2120.13 1811.33 2100.81Z" fill="#153460"/>
<path d="M1860.48 2306.45H1839.27V2128.4H1860.48V2306.45Z" fill="#153460"/>
<path d="M2048.08 2060.32L1911.84 2089.56L1901.95 2041.46L1990.09 2022.54L2048.08 2060.32Z" fill="#1C4689"/>
<path d="M1764.5 1976.44L1838.59 1960.55L1835.99 1947.89L1761.9 1963.79L1764.5 1976.44Z" fill="#2B5693"/>
<path d="M2020.76 1927.37L2048.08 2060.32L1970.71 2043.32L1959.01 1986.41L2020.76 1927.37Z" fill="#2659A3"/>
<path d="M1887.38 1955.99L2020.76 1927.37L1963.09 1985.53L1896.4 1999.83L1887.38 1955.99Z" fill="#1C4689"/>
<path d="M1827.78 2110.46L1908.04 2093.24L1862.48 2075.46L1822.36 2084.07L1827.78 2110.46Z" fill="#1C4689"/>
<path d="M1772.64 2138.73L1793.39 2134.28C1794.69 2134 1795.54 2132.68 1795.27 2131.35L1793.37 2122.17L1767.9 2127.65L1769.78 2136.82C1770.05 2138.15 1771.34 2139.01 1772.64 2138.73Z" fill="#153460"/>
<path d="M1875.55 2081.75L1955.93 2064.5C1983.34 2058.62 2001.05 2030.9 1995.3 2002.89C1989.54 1974.9 1962.4 1956.78 1934.98 1962.68L1854.61 1979.91L1875.55 2081.75Z" fill="#153460"/>
<path d="M1662.02 2018.35L1684.08 2125.7C1686.25 2136.21 1698.62 2142.51 1711.61 2139.72L1899.63 2099.39C1912.61 2096.6 1921.46 2085.74 1919.3 2075.23L1897.24 1967.89C1895.07 1957.41 1882.7 1951.09 1869.71 1953.87L1681.69 1994.21C1668.71 1997 1659.87 2007.87 1662.02 2018.35Z" fill="#2B5693"/>
<path d="M1705.59 2141.01L1768.52 2127.51C1778.19 2125.43 1784.44 2115.66 1782.4 2105.78L1759.87 1996.19C1757.85 1986.31 1748.28 1979.92 1738.61 1982L1675.67 1995.5C1666 1997.58 1659.76 2007.35 1661.78 2017.23L1684.32 2126.83C1686.35 2136.7 1695.92 2143.09 1705.59 2141.01Z" fill="#153460"/>
<path d="M1756.05 1965.05L1874.1 1939.72C1883.24 1937.77 1889.14 1928.52 1887.23 1919.19L1885.09 1908.81C1883.17 1899.48 1874.13 1893.45 1864.99 1895.4L1746.93 1920.73C1737.8 1922.69 1731.9 1931.93 1733.81 1941.27L1735.95 1951.64C1737.87 1960.98 1746.91 1967.01 1756.05 1965.05Z" fill="#153460"/>
<path d="M1753.01 1965.71L1772.67 1961.49C1780.13 1959.89 1784.96 1952.34 1783.39 1944.71L1779.98 1928.11C1778.42 1920.49 1771.03 1915.57 1763.57 1917.17L1743.89 1921.38C1736.43 1922.99 1731.61 1930.53 1733.17 1938.15L1736.58 1954.76C1738.15 1962.38 1745.54 1967.31 1753.01 1965.71Z" fill="#2B5693"/>
<path d="M1788.84 1971.23L1862.93 1955.33L1860.34 1942.68L1786.24 1958.57L1788.84 1971.23Z" fill="#153460"/>
<path d="M1711.21 2326.13C1711.21 2317.1 1718.38 2309.78 1727.21 2309.78C1736.06 2309.78 1743.22 2317.1 1743.22 2326.13C1743.22 2335.15 1736.06 2342.48 1727.21 2342.48C1718.38 2342.48 1711.21 2335.15 1711.21 2326.13Z" fill="#153460"/>
<path d="M1971.54 2326.13C1971.54 2317.1 1978.71 2309.78 1987.54 2309.78C1996.39 2309.78 2003.56 2317.1 2003.56 2326.13C2003.56 2335.15 1996.39 2342.48 1987.54 2342.48C1978.71 2342.48 1971.54 2335.15 1971.54 2326.13Z" fill="#153460"/>
<path d="M2016.06 2320.37H1693.44V2284.36H2016.06V2320.37Z" fill="#2B5693"/>
<path d="M1422.77 681.493C1422.77 678.063 1425.49 675.282 1428.85 675.282C1432.21 675.282 1434.93 678.063 1434.93 681.493C1434.93 684.924 1432.21 687.705 1428.85 687.705C1425.49 687.705 1422.77 684.924 1422.77 681.493Z" fill="white"/>
<path d="M2372.48 681.493C2372.48 678.063 2375.2 675.282 2378.55 675.282C2381.91 675.282 2384.64 678.063 2384.64 681.493C2384.64 684.924 2381.91 687.705 2378.55 687.705C2375.2 687.705 2372.48 684.924 2372.48 681.493Z" fill="white"/>
<path d="M1257.49 607.848C1257.49 604.418 1260.21 601.637 1263.57 601.637C1266.93 601.637 1269.65 604.418 1269.65 607.848C1269.65 611.277 1266.93 614.058 1263.57 614.058C1260.21 614.058 1257.49 611.277 1257.49 607.848Z" fill="white"/>
<path d="M1257.49 748.928C1257.49 745.497 1260.21 742.716 1263.57 742.716C1266.93 742.716 1269.65 745.497 1269.65 748.928C1269.65 752.358 1266.93 755.139 1263.57 755.139C1260.21 755.139 1257.49 752.358 1257.49 748.928Z" fill="white"/>
<path d="M1551.08 607.848C1551.08 604.418 1553.8 601.637 1557.15 601.637C1560.51 601.637 1563.24 604.418 1563.24 607.848C1563.24 611.277 1560.51 614.058 1557.15 614.058C1553.8 614.058 1551.08 611.277 1551.08 607.848Z" fill="white"/>
<path d="M1551.08 748.928C1551.08 745.497 1553.8 742.716 1557.15 742.716C1560.51 742.716 1563.24 745.497 1563.24 748.928C1563.24 752.358 1560.51 755.139 1557.15 755.139C1553.8 755.139 1551.08 752.358 1551.08 748.928Z" fill="white"/>
<path d="M2177.58 607.848C2177.58 604.418 2180.29 601.637 2183.65 601.637C2187.01 601.637 2189.74 604.418 2189.74 607.848C2189.74 611.277 2187.01 614.058 2183.65 614.058C2180.29 614.058 2177.58 611.277 2177.58 607.848Z" fill="white"/>
<path d="M2177.58 748.928C2177.58 745.497 2180.29 742.716 2183.65 742.716C2187.01 742.716 2189.74 745.497 2189.74 748.928C2189.74 752.358 2187.01 755.139 2183.65 755.139C2180.29 755.139 2177.58 752.358 2177.58 748.928Z" fill="white"/>
<path d="M2565.12 607.848C2565.12 604.418 2567.84 601.637 2571.19 601.637C2574.55 601.637 2577.28 604.418 2577.28 607.848C2577.28 611.277 2574.55 614.058 2571.19 614.058C2567.84 614.058 2565.12 611.277 2565.12 607.848Z" fill="white"/>
<path d="M2565.12 748.928C2565.12 745.497 2567.84 742.716 2571.19 742.716C2574.55 742.716 2577.28 745.497 2577.28 748.928C2577.28 752.358 2574.55 755.139 2571.19 755.139C2567.84 755.139 2565.12 752.358 2565.12 748.928Z" fill="white"/>
<path d="M2718.94 681.493C2718.94 678.063 2721.66 675.282 2725.03 675.282C2728.38 675.282 2731.1 678.063 2731.1 681.493C2731.1 684.924 2728.38 687.705 2725.03 687.705C2721.66 687.705 2718.94 684.924 2718.94 681.493Z" fill="white"/>
<path d="M2911.58 607.848C2911.58 604.418 2914.3 601.637 2917.65 601.637C2921.02 601.637 2923.74 604.418 2923.74 607.848C2923.74 611.277 2921.02 614.058 2917.65 614.058C2914.3 614.058 2911.58 611.277 2911.58 607.848Z" fill="white"/>
<path d="M2911.58 748.928C2911.58 745.497 2914.3 742.716 2917.65 742.716C2921.02 742.716 2923.74 745.497 2923.74 748.928C2923.74 752.358 2921.02 755.139 2917.65 755.139C2914.3 755.139 2911.58 752.358 2911.58 748.928Z" fill="white"/>
<path d="M979.951 1722.08C993.226 1717.54 1002.27 1724.96 1022.35 1722.3C1042.43 1719.65 1042.95 1720.09 1042.95 1720.09L1043.66 1724.18C1043.66 1724.18 1028.6 1731.82 1019.83 1733.4C1011.07 1734.98 986.006 1737.57 986.006 1737.57C986.006 1737.57 972.144 1724.74 979.951 1722.08Z" fill="#6980E2"/>
<path d="M1107.67 1758.49L1098.05 1768.6C1097.41 1769.25 1095.63 1769.84 1094.26 1769.36C1092.84 1768.88 1086.09 1767.22 1085.43 1766.47C1085.43 1766.47 1085.43 1758.62 1088.05 1760.12L1092.71 1760.5C1095.72 1761.93 1100.61 1758.83 1102.6 1757.26C1104.87 1755.47 1106.78 1756.75 1107.55 1757.47C1107.86 1757.77 1107.98 1758.2 1107.67 1758.49Z" fill="#1C3154"/>
<path d="M1003.42 1758.04C1003.42 1758.04 1024.53 1750.18 1043.12 1744.07C1061.71 1737.97 1063.77 1766.9 1055.11 1761.29C1052.94 1759.89 1049.39 1761.29 1047.82 1762.3C1041.43 1766.35 1032.24 1771.66 1028.17 1774.26C1024.13 1776.84 1017.05 1781.74 1017.05 1781.74L1003.42 1758.04Z" fill="#233862"/>
<path d="M1052.12 1743.97C1052.12 1743.97 1083.94 1757.26 1094.66 1760.71C1094.66 1760.71 1094.68 1765.92 1090.91 1769.19C1090.91 1769.19 1063.33 1765.99 1056.62 1762.24C1046.81 1756.76 1043.65 1745.81 1052.12 1743.97Z" fill="#233862"/>
<path d="M1089 1810.65L1076.34 1819.66C1076.05 1819.87 1075.65 1819.87 1075.37 1819.65C1074.17 1818.71 1072.59 1815.98 1072.05 1815.14L1072.05 1815.13C1071.92 1814.93 1071.88 1814.69 1071.94 1814.46C1072.29 1813.03 1073.73 1808.04 1076.09 1809.93L1076.35 1810.13C1079.1 1812.03 1083.35 1810.39 1085.53 1809.1C1086.61 1808.47 1088.19 1808.98 1089.04 1809.64C1089.38 1809.89 1089.35 1810.41 1089 1810.65Z" fill="#233862"/>
<path d="M1004.66 1757.79C1004.66 1757.79 1027.48 1767.2 1043.37 1778.79C1059.25 1790.39 1044.36 1796.54 1034.66 1793.17C1028.17 1790.91 1016.52 1791.4 1006.71 1789.75C1002.01 1788.96 992.663 1786.37 991.572 1783.13C989.531 1777.05 1004.66 1757.79 1004.66 1757.79Z" fill="#2A468A"/>
<path d="M990.444 1729.7C984.132 1729.79 978.494 1720.4 978.494 1720.4C978.494 1720.4 982.392 1718.85 984.384 1710.7L987.755 1715.74L990.047 1719.17C990.047 1719.17 989.6 1720.64 988.508 1723.1C988.309 1723.56 988.089 1724.04 987.844 1724.56C987.652 1724.97 987.709 1725.47 988.004 1725.81C989.713 1727.79 990.444 1729.7 990.444 1729.7Z" fill="#FFB17C"/>
<path d="M998.344 1735.8C999.39 1739.06 1000.48 1743.54 1001.34 1749.13C1001.56 1750.62 1001.78 1752.19 1001.96 1753.83C1002.06 1754.65 1001.9 1756.27 1006.85 1758.8C1008.11 1759.44 1004.56 1762.08 1006.57 1762.85C1010 1764.15 989.697 1779.47 989.037 1779.4C972.842 1777.63 972.701 1751.18 972.573 1749.5C971.617 1736.85 973.272 1725.55 977.932 1721.42C977.932 1721.42 981.274 1720.78 983.71 1721.37C986.094 1721.96 986.628 1722.28 988.673 1723.16C988.673 1723.16 991.114 1724.18 992.202 1725.23C994.718 1727.65 996.785 1730.95 998.344 1735.8Z" fill="#8C9CF4"/>
<path d="M991.056 1716.14C991.056 1716.14 990.997 1717.13 989.905 1719.6C985.045 1717.23 983.16 1714.78 983.16 1714.78C985.016 1714.79 986.538 1715.17 987.756 1715.74L991.056 1716.14Z" fill="#ED975D"/>
<path d="M994.71 1717.03C994.71 1717.03 984.08 1719.89 982.439 1713.11C980.798 1706.31 978.32 1702.1 985.038 1699.99C991.756 1697.88 993.706 1700.13 994.793 1702.27C995.881 1704.4 997.432 1716.12 994.71 1717.03Z" fill="#FFB17C"/>
<path d="M983.16 1714.78C983.16 1714.78 984.609 1711.45 983.612 1710.25C982.393 1708.77 982.635 1707.03 983.911 1707.29C985.185 1707.55 985.339 1708.56 985.795 1707.92C986.251 1707.27 986.033 1704.78 989.709 1704.26C993.386 1703.73 995.005 1704.89 996.652 1703.96C998.298 1703.02 998.147 1700.36 998.147 1700.36C998.147 1700.36 997.746 1701.37 997.036 1701.73C997.036 1701.73 999.535 1697.46 995.969 1695.02C992.403 1692.6 989.185 1694.71 987.276 1695.02C983.071 1695.67 980.663 1696.34 979.241 1699.17C976.118 1705.4 980.198 1712.3 983.16 1714.78Z" fill="#2A468A"/>
<path d="M979.575 1717.61C979.575 1717.61 977.724 1719.51 977.467 1721.86C977.467 1721.86 982.155 1721.42 990.511 1724.05C990.511 1724.05 988.958 1722.15 988.321 1721.66C986.413 1720.17 980.583 1717.5 979.575 1717.61Z" fill="#6980E2"/>
<path d="M987.176 1779.08C987.176 1779.08 998.691 1771.18 1003.28 1756.45L1008.88 1759.62C1008.88 1759.62 1005.64 1778.28 991.571 1783.13L987.176 1779.08Z" fill="#172F54"/>
<path d="M1047.33 1782.19C1047.33 1782.19 1068.1 1801.63 1077.4 1809.04C1077.4 1809.04 1075.55 1814.18 1070.68 1815.98C1070.68 1815.98 1038.5 1799.27 1034.42 1792.2C1030.35 1785.14 1038.34 1780.83 1047.33 1782.19Z" fill="#2A468A"/>
<path d="M997.204 1771.47C997.204 1771.47 1003.85 1772.31 1004.71 1773.38C1005.57 1774.45 1007.08 1783.86 1006.39 1784.51C1005.71 1785.17 1002.24 1785.51 1001.73 1784.94C1001.23 1784.37 1000.9 1776.2 999.989 1776.16C999.08 1776.1 996.724 1776.56 996.243 1775.45C995.832 1774.5 995.242 1771.67 997.204 1771.47Z" fill="#112444"/>
<path d="M982.93 1738.16C982.93 1738.16 988.726 1740.39 999.431 1739.61C999.431 1739.61 1000.18 1742.4 1000.68 1745.28C1001.18 1748.14 986.513 1742.96 982.93 1738.16Z" fill="#6980E2"/>
<path d="M1068.47 1708.67L1058.55 1710.61L1058.28 1709.14L1068.19 1707.2L1068.47 1708.67Z" fill="#2A468A"/>
<path d="M1067.83 1709.72L1058.72 1711.51L1058.62 1710.94L1067.73 1709.15L1067.83 1709.72Z" fill="#2A468A"/>
<path d="M1051.34 1718.03C1051.34 1718.03 1051.36 1718.77 1050.92 1719L1049.87 1717.89L1051.34 1718.03Z" fill="#233862"/>
<path d="M1052.11 1719.63L1052.07 1719.65C1050.84 1719.66 1050 1718.46 1049.96 1718.4L1050.02 1718.05L1050.38 1718.1C1050.38 1718.12 1051.1 1719.14 1052.06 1719.12C1052.2 1719.12 1052.31 1719.24 1052.32 1719.38C1052.32 1719.51 1052.23 1719.62 1052.11 1719.63Z" fill="#233862"/>
<path d="M1047.48 1713.76L1047.2 1713.66C1047.2 1713.66 1046.85 1713.25 1046.23 1712.88C1045.4 1712.4 1044.49 1712.21 1043.52 1712.33C1043.36 1712.34 1043.22 1712.23 1043.2 1712.06C1043.18 1711.9 1043.3 1711.75 1043.46 1711.73C1046.08 1711.42 1047.58 1713.2 1047.65 1713.28L1047.61 1713.7L1047.48 1713.76Z" fill="#233862"/>
<path d="M1048.02 1712.17C1048.02 1712.17 1047.15 1711.93 1046.17 1712.72L1047.55 1714.01L1048.02 1712.17Z" fill="#233862"/>
<path d="M1054.37 1718.49C1054.19 1719.19 1053.68 1719.75 1053 1719.96L1051.41 1720.48C1050.9 1720.64 1050.34 1720.45 1050.02 1720.02L1049.65 1719.48C1049.38 1719.09 1049.59 1718.56 1050.04 1718.47L1053.85 1717.72C1054.2 1717.65 1054.49 1717.98 1054.41 1718.32L1054.37 1718.49ZM1058.28 1709.14L1057.1 1709.01C1056.86 1708.98 1056.62 1709 1056.39 1709.04L1049.66 1710.36C1048.88 1710.51 1048.27 1711.12 1048.09 1711.9C1047.44 1714.72 1045.17 1715.6 1043.79 1715.88C1043.18 1716.01 1042.79 1716.6 1042.91 1717.23L1043.01 1717.78L1048.03 1718.83L1049.27 1720.57C1049.77 1721.28 1050.62 1721.62 1051.44 1721.46L1051.7 1721.39L1053.28 1720.88C1054.28 1720.55 1055.02 1719.75 1055.27 1718.71L1055.6 1717.38L1057.88 1716.93C1058.32 1716.84 1058.65 1716.45 1058.65 1715.99L1058.7 1712.88L1062.61 1712.11C1062.98 1712.04 1063.29 1711.77 1063.42 1711.42L1063.75 1710.53L1063.31 1708.15L1058.28 1709.14Z" fill="#2A468A"/>
<path d="M1039.97 1729.35C1039.79 1726.94 1039.84 1721.74 1043.01 1717.78C1043.01 1717.78 1045.76 1716.48 1048.11 1718.84C1050.46 1721.2 1049.22 1720.84 1048.72 1720.98C1048.22 1721.13 1046.03 1721.32 1046.25 1723.8C1046.39 1725.27 1046.78 1726.94 1047.08 1728.03C1047.26 1728.68 1046.85 1729.35 1046.2 1729.47L1041.35 1730.42C1040.67 1730.56 1040.02 1730.05 1039.97 1729.35Z" fill="#233862"/>
<path d="M1065.8 1707.67L1066.14 1707.14L1066.85 1707L1066.93 1707.44L1065.8 1707.67Z" fill="#233862"/>
<path d="M1041.81 1722.37C1041.46 1723.64 1040.89 1726.2 1041.04 1728.3C1041.07 1728.72 1041.46 1729.04 1041.88 1728.95L1044.62 1728.41C1045.01 1728.34 1045.26 1727.95 1045.17 1727.56C1044.97 1726.6 1044.67 1724.84 1044.81 1723.41C1044.83 1723.12 1044.68 1722.82 1044.41 1722.69L1042.79 1721.9C1042.4 1721.7 1041.92 1721.93 1041.81 1722.37Z" fill="#2A468A"/>
<path d="M1042.91 1723.39C1042.88 1723.2 1043 1723.02 1043.19 1722.98C1043.37 1722.95 1043.55 1723.06 1043.59 1723.26C1043.62 1723.44 1043.5 1723.63 1043.31 1723.67C1043.13 1723.71 1042.95 1723.58 1042.91 1723.39Z" fill="#6B79FF"/>
<path d="M979.952 1725.58C993.227 1721.03 1002.27 1728.47 1022.35 1725.81C1042.43 1723.16 1042.95 1723.6 1042.95 1723.6L1043.66 1727.69C1043.66 1727.69 1028.6 1735.32 1019.83 1736.91C1011.07 1738.49 983.989 1741.5 983.989 1741.5C983.989 1741.5 972.145 1728.26 979.952 1725.58Z" fill="#8C9CF4"/>
<path d="M1042.95 1723.6C1042.95 1723.6 1044.04 1721.74 1045.4 1720.77C1048.18 1718.8 1052.43 1717.14 1053.61 1718.35C1054.15 1718.9 1050.52 1719.72 1051.26 1721.29C1052.23 1723.34 1050.71 1725.48 1049.9 1726.12C1048.81 1726.97 1043.66 1727.69 1043.66 1727.69L1042.95 1723.6Z" fill="#FFB17C"/>
</g>
<defs>
<clipPath id="clip0_148_16640">
<rect width="4519" height="2832" fill="white"/>
</clipPath>
</defs>
</svg>
