<svg width="4531" height="2832" viewBox="0 0 4531 2832" fill="none" xmlns="http://www.w3.org/2000/svg">
<g clip-path="url(#clip0_148_16963)">
<path fill-rule="evenodd" clip-rule="evenodd" d="M0 0H4531V2832H0V0Z" fill="white"/>
<path d="M4531 2832H0V-0.000255585H4531V2832Z" fill="white"/>
<path d="M4196.27 2308.34C4120.31 2308.34 3964.62 2313.73 3962.98 2316.18H3570.48L3455.61 2315.94H2427L2126.6 2315.68H1334.67L1003.9 2315.44H405.758C405.758 2315.44 404.767 2313.48 402.784 2309.54L402.453 2309.04C402.453 2309.04 402.123 2308.56 402.123 2308.32C400.802 2306.35 -95.63 1524.71 724.01 1139.39C1044.7 988.626 875.713 687.584 1350.37 505.219C1702.99 369.739 1907.81 425.743 2156.52 481.748C2339.45 522.942 2546.12 564.135 2852.82 529.131C3481.32 457.397 3767.7 685.866 3723.59 1025.65C3702.86 1185.25 3845.12 1307.59 3985.44 1329.54C4372.54 1390.08 4358.68 1744.67 4327.03 2005.2C4307.52 2165.8 4198.96 2308.34 4196.27 2308.34Z" fill="#EBF2F9"/>
<path d="M1857.8 1693.86C1857.8 1693.86 1852.83 1687.82 1845.36 1685.93C1837.92 1684.06 1821.8 1676.19 1823.67 1680.32C1825.55 1684.45 1834.55 1689.32 1833.04 1692.3C1833.04 1692.3 1807.44 1685.18 1806.69 1689.68C1805.94 1694.19 1815.71 1711.35 1826.67 1715.04C1830.3 1716.26 1855.53 1711.42 1855.53 1711.42L1857.8 1693.86Z" fill="#F2A16B"/>
<path d="M2681.29 1769.76C2681.29 1769.76 2671.25 1758.81 2657.84 1760.54C2651 1761.43 2641.09 1750.67 2641.59 1757.67C2642.1 1764.65 2652.01 1780.85 2655.38 1783.62C2662.01 1789.07 2676.56 1787.27 2676.56 1787.27L2694.43 1798.28L2681.29 1769.76Z" fill="#FFB17C"/>
<path d="M549.023 1472.12C549.023 1472.12 475.077 1548.78 471.582 1577.64C468.088 1606.49 507.003 1651.55 507.003 1651.55L549.023 1472.12Z" fill="#ED7C2A"/>
<path d="M582.436 2266.73C582.436 2266.73 585.047 2307.4 592.916 2307.97C593.963 2308.04 632.827 2307.95 632.827 2307.95L682.439 2307.56C682.439 2307.56 682.089 2295.61 667.582 2293.11C653.074 2290.62 628.778 2280.47 619.952 2261.32C610.667 2241.17 582.436 2266.73 582.436 2266.73Z" fill="#2357A5"/>
<path d="M471.934 2266.97C471.934 2266.97 474.543 2307.64 482.414 2308.21C483.461 2308.28 522.325 2308.19 522.325 2308.19L571.937 2307.8C571.937 2307.8 571.586 2295.85 557.078 2293.35C542.57 2290.85 518.276 2280.71 509.449 2261.56C500.163 2241.41 471.934 2266.97 471.934 2266.97Z" fill="#2357A5"/>
<path d="M636.433 1829.46C636.433 1829.46 623.635 1912.48 575.552 2059.91C527.466 2207.35 521.008 2271.15 521.008 2271.15L469.079 2269.81C469.079 2269.81 468.286 2108.81 490.432 2034.66C512.579 1960.54 494.668 1767.58 494.668 1767.58L636.433 1829.46Z" fill="#153460"/>
<path d="M661.575 1771.76C661.575 1771.76 663.685 1896.82 642.381 2050.42C621.077 2204.03 628.553 2269.2 628.553 2269.2L576.734 2271.02C576.734 2271.02 545.43 2117.49 554.142 2040.61C562.856 1963.72 511.16 1776.97 511.16 1776.97L661.575 1771.76Z" fill="#1C4689"/>
<path d="M560.619 1479.31L588.268 1497.36L628.157 1489.83C627.597 1486.62 624.934 1473.26 622.51 1461.18C622.364 1460.46 622.217 1459.75 622.079 1459.06C620.002 1448.77 618.208 1439.93 618.208 1439.93L580.902 1423.58L566.994 1417.47C567.031 1417.68 568.095 1428.89 568.244 1430.53C570.914 1459.56 560.619 1479.31 560.619 1479.31Z" fill="#FFB17C"/>
<path d="M617.894 1470.05C617.118 1469.74 569.81 1455.89 564.677 1457.59C559.544 1459.3 556.525 1469.24 556.525 1469.24L633.895 1486.56C633.895 1486.56 627.782 1474.2 617.894 1470.05Z" fill="#ED7C2A"/>
<path d="M491.271 1787.57C499.364 1824.12 632.747 1828.15 667.055 1794.89C670.957 1791.11 671.112 1773.51 669.585 1749.78C666.599 1703.42 657.184 1633.71 656.745 1598.07C656.532 1580.86 654.13 1563.28 650.946 1547.31C644.172 1513.25 633.897 1486.56 633.897 1486.56C633.897 1486.56 568.707 1465.63 556.525 1469.24C497.838 1486.63 483.178 1751.03 491.271 1787.57Z" fill="#F99746"/>
<path d="M669.586 1749.78C666.6 1703.42 657.185 1633.71 656.746 1598.07C656.532 1580.86 654.131 1563.28 650.946 1547.31L611.745 1540.47C611.745 1540.47 573.771 1697.06 669.586 1749.78Z" fill="#ED7C2A"/>
<path d="M648.224 1685.21C648.224 1685.21 645.567 1691.6 651.185 1695.87C656.805 1700.15 660.458 1707.09 659.184 1712.16C657.909 1717.24 645.623 1725.55 641.356 1724.22C637.087 1722.89 628.39 1716.23 629.32 1713.54C630.248 1710.87 623.428 1690.07 633.81 1682.04C644.192 1674 648.224 1685.21 648.224 1685.21Z" fill="#FFB17C"/>
<path d="M603.954 1477.24C603.954 1477.24 642.188 1484.31 672.738 1529.12C703.287 1573.93 723.394 1607.26 717.82 1623.44C712.245 1639.63 661.233 1695.84 652.418 1695.86C643.603 1695.87 629.363 1689.5 628.529 1675.07C628.529 1675.07 662.212 1619 655.102 1610.94C652.064 1607.49 610.482 1574.14 604.277 1590.18C594.01 1616.72 603.954 1477.24 603.954 1477.24Z" fill="#F99746"/>
<path d="M571.042 1431.02C579.256 1444.87 609.78 1456.8 622.51 1461.18C622.364 1460.46 622.217 1459.75 622.079 1459.06C620.002 1448.77 618.208 1439.93 618.208 1439.93L580.902 1423.58C572.665 1423.48 567.654 1425.33 571.042 1431.02Z" fill="#FBA56B"/>
<path d="M632.251 1437.64C632.251 1437.64 572.257 1456.5 561.089 1418.96C549.92 1381.41 534.655 1358.56 572.488 1344.93C610.32 1331.3 622.058 1343.4 628.833 1355.03C635.609 1366.65 647.571 1431.76 632.251 1437.64Z" fill="#FFB17C"/>
<path d="M626.467 1351.41C626.467 1351.41 622.735 1395.14 613.69 1393.26C604.645 1391.38 596.442 1389.99 597.795 1403.17C599.148 1416.34 611.718 1431.53 583.862 1433.93C556.005 1436.32 515.796 1364.55 523.421 1350.93C545.419 1311.63 658.284 1303.46 626.467 1351.41Z" fill="#153460"/>
<path d="M3763.32 1625.65C3763.32 1625.65 3758.21 1617.21 3755.08 1612.54C3751.95 1607.87 3745.72 1602.05 3744.12 1603.55C3742.54 1605.05 3748.92 1611.22 3748.62 1613.29C3748.34 1615.34 3737.65 1608.42 3736.49 1606.86C3734.18 1603.73 3728.05 1600.36 3727.3 1604.3C3726.55 1608.24 3731.11 1620.6 3733.16 1624.15C3735.23 1627.71 3743.85 1633.33 3748.62 1635.01C3753.4 1636.71 3761.57 1640.63 3761.57 1640.63L3763.32 1625.65Z" fill="#FFB17C"/>
<path d="M3980.29 1348.24C3962.03 1338.77 3947.41 1344.72 3947.41 1344.72C3891.55 1338.16 3875.25 1403.3 3876.02 1425.71C3876.77 1448.13 3879.33 1472.2 3854.38 1501.31C3782.34 1585.42 3933.23 1589.13 3933.23 1589.13C3934.51 1521.93 4015.06 1546.46 4011.52 1553.27C4114.79 1578.05 4021.8 1369.78 3980.29 1348.24Z" fill="#153460"/>
<path d="M3906.88 1633.23C3906.88 1633.23 3901.55 1643.81 3891.86 1655.94C3880.19 1670.57 3862.2 1687.45 3839.6 1690.79C3828.81 1692.37 3818.26 1690.05 3808.55 1685.75L3808.52 1685.73C3781.08 1673.56 3760.45 1645.53 3760.45 1645.53C3755.61 1632.35 3763.52 1623.4 3763.52 1623.4C3763.52 1623.4 3818.93 1635.86 3824.21 1633.23C3829.49 1630.58 3860.27 1541.9 3867.59 1530.75C3874.93 1519.61 3899.9 1513.82 3899.9 1513.82L3906.88 1633.23Z" fill="#F99746"/>
<path d="M3891.86 1655.94C3880.19 1670.57 3862.2 1687.45 3839.6 1690.79C3828.81 1692.37 3818.26 1690.05 3808.55 1685.75C3809.62 1685.89 3837.04 1689.27 3847.95 1669.73C3859.1 1649.8 3871.15 1618.12 3887.7 1628.68C3894.85 1633.23 3894.52 1644.56 3891.86 1655.94Z" fill="#ED7C2A"/>
<path d="M4113.61 2231.39C4113.61 2231.39 4130.52 2246.82 4127.22 2257.78C4123.92 2268.74 4108.67 2276.05 4106.6 2289.46C4104.55 2302.86 4096.29 2310.16 4088.87 2310.16C4081.46 2310.16 4053.48 2310.16 4053.48 2310.16C4053.48 2310.16 4048.03 2300.75 4061.21 2297.9C4074.42 2295.05 4079.39 2279.31 4078.57 2264.69C4077.73 2250.07 4079.8 2230.58 4079.8 2230.58L4107.85 2224.08L4113.61 2231.39Z" fill="#2357A5"/>
<path d="M3970.5 2237.95C3970.5 2237.95 3976.59 2303.31 3969.17 2306.96L3874.16 2306.78C3874.16 2306.78 3874.16 2295.8 3889.42 2293.37C3904.69 2290.93 3931.49 2282 3936.02 2262.1C3940.57 2242.21 3970.5 2237.95 3970.5 2237.95Z" fill="#2357A5"/>
<path d="M4038.2 1768.95C4018.66 1725.11 4006.69 1712.52 4008.97 1698.92C4010.67 1688.79 4003.8 1510.08 4003.8 1510.08C4001.48 1509.36 3996.84 1508.72 3994.29 1508.15C3986.27 1506.37 3979.63 1500.73 3976.87 1493C3973.54 1483.68 3970.9 1469.92 3970.95 1452.69L3968.46 1453.17L3926.35 1461.51C3926.35 1461.51 3927.3 1474.76 3927.34 1487.25V1487.56C3927.39 1498.4 3920.28 1507.97 3909.86 1510.97C3904.55 1512.51 3899.92 1513.83 3899.92 1513.83C3899.92 1513.83 3884.45 1557.97 3881.5 1603.32C3878.55 1648.66 3909.62 1668.36 3881.27 1758.98C3852.33 1851.55 4049 1793.18 4038.2 1768.95Z" fill="#FFB17C"/>
<path d="M3926.35 1461.51C3926.35 1461.51 3927.3 1474.76 3927.34 1487.25C3950.9 1486.59 3963.35 1465.09 3968.46 1453.17L3926.35 1461.51Z" fill="#E8935B"/>
<path d="M3918.48 1473.33C3918.48 1473.33 3974.23 1474.25 3974.27 1439.53C3974.31 1404.8 3981.53 1381.53 3945.94 1379.48C3910.34 1377.42 3903.41 1390.66 3900.58 1402.25C3897.75 1413.84 3903.98 1472.2 3918.48 1473.33Z" fill="#FFB17C"/>
<path d="M3920.55 1378.62C3920.55 1378.62 3935.81 1419.37 3959.23 1425.39C3982.65 1431.42 3992.82 1425.13 3992.82 1425.13C3992.82 1425.13 3974.85 1410.86 3971.12 1385.95C3971.12 1385.95 3932.06 1359.24 3920.55 1378.62Z" fill="#153460"/>
<path d="M3924.33 1381.93C3924.33 1381.93 3913.01 1386.16 3908.36 1394.42C3903.8 1402.49 3899.92 1413.18 3900.81 1426.29C3900.81 1426.29 3889.31 1398.61 3902.24 1382.94C3915.95 1366.33 3924.33 1381.93 3924.33 1381.93Z" fill="#153460"/>
<path d="M3930.62 1451.8C3930.62 1451.8 3926.76 1456.85 3919.08 1456.48C3912.87 1456.2 3910.48 1450.82 3910.48 1450.82C3910.48 1450.82 3921.86 1448.07 3930.62 1451.8Z" fill="#EBF2F9"/>
<path d="M4043.58 1589.13C4043.58 1589.13 4044.99 1609.1 4043.58 1633.04C4042.64 1648.92 4026.59 1670.19 4024.31 1675.44C4018.59 1688.64 4012.14 1690.79 4012.14 1690.79L3962.26 1703.01L3944.72 1707.3L3889.41 1690.79C3889.41 1690.79 3864.22 1620.47 3874.34 1580.89C3884.45 1541.32 3899.9 1513.82 3899.9 1513.82C3899.9 1513.82 3945.04 1558.01 4003.8 1510.08L4043.58 1589.13Z" fill="#F99746"/>
<path d="M4028.98 1639.53C4028.05 1655.4 4026.59 1670.19 4024.31 1675.44C4018.59 1688.64 4012.15 1690.79 4012.15 1690.79L3962.26 1703.01L3940.6 1696.65C3940.6 1696.65 4012.91 1685.69 4004.91 1623.46L4028.98 1639.53Z" fill="#F2CCAA"/>
<path d="M3892.94 1701.47C3892.94 1701.47 3865.55 1786.71 3863.78 1815.74C3862.03 1844.76 3916.14 2228.08 3918.32 2241.46C3920.38 2254.06 3936.02 2262.1 3936.02 2262.1C3936.02 2262.1 3943.23 2266.35 3953.5 2263.45C3967.75 2259.43 3972.26 2254.6 3972.26 2254.6C3972.26 2254.6 3993.58 1981.22 3980.38 1883.56C3967.2 1785.92 3967.05 1701.47 3967.05 1701.47H3892.94Z" fill="#153460"/>
<path d="M4008.97 1698.92C4008.97 1698.92 4050.76 1754.98 4054.65 1792.87C4058.55 1830.76 4060.75 1963.88 4069.05 2000.82C4077.35 2037.77 4107.85 2108.85 4107.85 2224.08C4107.85 2224.08 4104.68 2230.68 4094.89 2234.21C4091.76 2235.33 4087.57 2236.42 4083.49 2237.35C4075.42 2239.21 4067.15 2235.25 4063.46 2227.84C4042.86 2186.35 3977.2 2052.49 3973.83 2024.71C3971.45 2005.04 3950.72 1874.9 3905.5 1798.55C3894.65 1780.21 3912.17 1707.3 3912.17 1707.3L4008.97 1698.92Z" fill="#1C4689"/>
<path d="M3929.37 1452.72C3929.37 1452.72 3928.41 1456.81 3918.22 1456.19C3918.22 1456.19 3909.69 1455.65 3909.94 1451.16C3909.94 1451.16 3918.22 1447.96 3929.37 1452.72Z" fill="white"/>
<path d="M3888.56 1688.3C3888.56 1688.3 3899.55 1696.99 3921.4 1697.43C3947.49 1697.97 4012.13 1690.79 4012.13 1690.79C4012.13 1690.79 4015 1698.8 4014.89 1707.29C4014.89 1707.29 3935.94 1727.21 3890.19 1710.19C3890.19 1710.19 3884.28 1699.09 3888.56 1688.3Z" fill="#233862"/>
<path d="M3915.14 1696.92C3910.75 1696.92 3907.18 1701.2 3907.18 1706.45C3907.18 1711.7 3910.75 1715.98 3915.14 1715.98C3919.53 1715.98 3923.1 1711.7 3923.1 1706.45C3923.1 1701.2 3919.53 1696.92 3915.14 1696.92ZM3915.14 1719.92C3908.57 1719.92 3903.23 1713.87 3903.23 1706.45C3903.23 1699.02 3908.57 1692.97 3915.14 1692.97C3921.71 1692.97 3927.05 1699.02 3927.05 1706.45C3927.05 1713.87 3921.71 1719.92 3915.14 1719.92Z" fill="white"/>
<path d="M4097.14 1703.72L4016.25 1774.16L3919.82 1663.43L4000.72 1592.99L4097.14 1703.72Z" fill="#AFCDFB"/>
<path d="M3993.89 1703.97C3993.89 1703.97 3962.44 1708.81 3962.53 1715.85C3962.63 1722.88 3969.04 1735.61 3975.39 1736.61C3983.46 1737.9 3999.51 1717.07 3999.51 1717.07L3993.89 1703.97Z" fill="#FFB17C"/>
<path d="M3993.23 1705.64C3993.23 1705.64 3982.69 1701.79 3974.96 1703.38C3967.23 1704.98 3960.08 1703.8 3961.85 1706.61C3963.61 1709.42 3974.06 1708.38 3975.71 1709.48C3977.38 1710.58 3977.4 1709.89 3977.4 1709.89L3993.23 1705.64Z" fill="#FFB17C"/>
<path d="M4003.8 1510.08C4003.8 1510.08 4043.38 1512.85 4058.54 1549.73C4073.71 1586.6 4102.49 1648.52 4102.49 1658.93C4102.49 1669.35 4086.41 1701.47 4000.08 1719.92C4000.08 1719.92 3991.15 1710.53 3991.68 1703.09C3991.68 1703.09 4045.59 1656.8 4045.43 1651.4C4045.16 1641.16 4036.6 1627.65 3989.28 1580.31C3976.42 1567.44 4003.8 1510.08 4003.8 1510.08Z" fill="#F99746"/>
<path d="M1201.94 1257.6C1179.85 1270.93 1159.4 1285.9 1141.06 1302.26C1133.33 1309.16 1125.97 1316.29 1118.99 1323.66C1140.3 1318.08 1160.63 1316 1179.77 1317.46C1187.51 1318.05 1194.99 1319.22 1202.23 1320.96C1217.78 1309.89 1235.41 1299.31 1255.4 1289.63C1271.24 1281.97 1287.69 1275.37 1304.46 1269.9C1262.56 1260.08 1229.71 1257.11 1201.94 1257.6ZM1339.27 1269.48C1363.53 1276.48 1387.19 1284.73 1410.25 1293.33C1440.35 1304.55 1477.36 1320.43 1516.3 1341.98C1521.86 1337.83 1527.56 1334.03 1533.33 1330.61C1545.3 1323.54 1557.45 1318.12 1569.68 1314.36C1544.62 1285.14 1503.63 1266.41 1450.97 1261.15C1415.49 1257.61 1377.1 1260.61 1339.27 1269.48ZM1524.91 1346.82C1549.15 1360.67 1573.98 1376.72 1598.25 1395.2C1597.74 1382.89 1596.3 1371.67 1593.91 1361.79C1590.37 1347.15 1584.22 1333.84 1575.71 1322.02C1562.97 1325.56 1550.34 1331 1537.91 1338.35C1533.52 1340.95 1529.18 1343.78 1524.91 1346.82ZM1316.2 1346.16C1339.24 1346.16 1361.57 1349.58 1382.93 1356.45C1414.68 1366.66 1440.99 1381.15 1462.79 1398.12C1476.3 1378.81 1491.82 1361.81 1508.61 1348.01C1471.34 1327.64 1436.02 1312.53 1407.1 1301.75C1374.94 1289.76 1346.62 1280.76 1321.4 1274.12C1300.13 1280.18 1279.23 1288.09 1259.32 1297.73C1245.1 1304.61 1229.4 1313.32 1213.43 1324.19C1230.86 1330.06 1246.64 1339.52 1260.61 1352.49C1279.49 1348.28 1298.06 1346.16 1316.2 1346.16ZM1204.12 1330.75C1175.72 1351.51 1147.23 1379.23 1125.46 1415.75C1137.13 1407.46 1148.97 1399.81 1160.95 1392.83C1190.97 1375.37 1220.8 1362.76 1249.97 1355.08C1236.36 1343.56 1221.02 1335.43 1204.12 1330.75ZM1473.5 1406.97C1516.89 1408.63 1559.44 1414.73 1598 1422.54C1598.3 1417.12 1598.45 1411.85 1598.47 1406.73C1571.63 1385.76 1543.97 1367.88 1517.09 1352.72C1499.7 1366.49 1483.65 1383.86 1469.79 1403.79C1471.05 1404.84 1472.28 1405.9 1473.5 1406.97ZM1268.22 1360.08C1285.61 1378.42 1301.1 1400.35 1314.82 1426.12C1359.96 1411.29 1408.82 1405.99 1457.11 1406.56C1457.31 1406.25 1457.52 1405.94 1457.72 1405.62C1436.58 1389.06 1411.04 1374.94 1380.18 1365.01C1345.23 1353.77 1307.48 1352.2 1268.22 1360.08ZM1606.85 1424.38C1612.84 1425.66 1618.71 1426.96 1624.48 1428.31C1618.81 1423.31 1613.09 1418.46 1607.3 1413.77C1607.22 1417.25 1607.06 1420.79 1606.85 1424.38ZM1470.37 1489.15C1491.08 1489.15 1510.92 1491.97 1529.61 1497.6C1516.43 1469.5 1497.37 1440.55 1469.84 1415.8C1467.22 1415.71 1464.63 1415.64 1462.03 1415.59C1454.21 1428.15 1447.24 1441.56 1441.33 1455.59C1436.16 1467.87 1431.87 1480.31 1428.48 1492.8C1442.76 1490.37 1456.76 1489.15 1470.37 1489.15ZM1107.46 1336.44C1090.61 1356.04 1076.29 1377.13 1064.67 1399.46C1048.39 1430.74 1037.35 1464.65 1031.72 1500.55C1055.77 1473.53 1081.43 1449.38 1108.18 1428.59C1123.28 1398.55 1149.03 1361.53 1192.54 1328.12C1188.15 1327.34 1183.66 1326.78 1179.08 1326.43C1156.89 1324.73 1132.88 1328.1 1107.46 1336.44ZM1642.71 1432.72C1660.95 1437.31 1677.73 1442.08 1692.61 1446.64C1728.19 1457.53 1757.42 1476.27 1779.76 1502.48C1778.09 1453.91 1763.48 1402.71 1720.65 1364.07C1677.77 1325.4 1630.98 1310.4 1585.14 1319.75C1593.21 1331.73 1599.12 1345.08 1602.66 1359.67C1605.64 1372.04 1607.2 1386.41 1607.4 1402.31C1615.97 1409.11 1624.46 1416.23 1632.8 1423.67C1636.16 1426.66 1639.47 1429.68 1642.71 1432.72ZM1319 1434.21C1331.18 1458.44 1341.9 1485.88 1351.23 1516.72C1374.18 1506.55 1396.76 1499.19 1418.7 1494.64C1422.35 1480.36 1427.14 1466.11 1433.04 1452.11C1438.42 1439.35 1444.64 1427.09 1451.58 1415.47C1451.12 1415.47 1450.67 1415.47 1450.22 1415.47C1405.54 1415.47 1360.63 1420.72 1319 1434.21ZM1541.26 1501.55C1553.18 1506.03 1564.57 1511.72 1575.36 1518.62C1577.24 1519.82 1579.08 1521.04 1580.91 1522.31C1589.59 1490 1595.18 1459.15 1597.39 1431.58C1562.06 1424.37 1523.31 1418.59 1483.68 1416.41C1510.47 1442.71 1528.76 1472.8 1541.26 1501.55ZM997.494 1559.43C1004.28 1559.43 1011.1 1559.6 1017.93 1559.94C1018.12 1549.81 1018.61 1539.46 1019.41 1528.93C1011.43 1538.78 1003.66 1548.95 996.128 1559.43C996.584 1559.43 997.038 1559.43 997.494 1559.43ZM1115.31 1434.45C1114.53 1436.04 1113.76 1437.65 1113 1439.26C1092.8 1482.59 1084.68 1523.98 1088.66 1562.98C1118.06 1533.94 1151.34 1516.51 1184.26 1514.31C1184.68 1514.28 1185.1 1514.27 1185.52 1514.24C1206.84 1487.15 1233.03 1465.04 1263.94 1448.06C1277.51 1440.61 1291.65 1434.32 1306.21 1429.08C1292.44 1403.46 1276.87 1381.81 1259.39 1363.87C1258.89 1363.36 1258.4 1362.86 1257.9 1362.36C1227.72 1369.64 1196.73 1382.42 1165.48 1400.61C1148.43 1410.52 1131.67 1421.85 1115.31 1434.45ZM1026.91 1560.49C1044.72 1561.75 1062.56 1564.14 1080.1 1567.58C1075.45 1529.37 1082.01 1489.01 1099.77 1446.91C1075.19 1467.4 1051.64 1490.81 1029.56 1516.71C1029.14 1520.52 1028.78 1524.35 1028.48 1528.2C1027.62 1539.18 1027.1 1549.95 1026.91 1560.49ZM1196.98 1514.41C1226.18 1516.86 1252 1534.96 1275.55 1569.4C1296.03 1548.69 1318.81 1532.08 1342.99 1520.5C1333.57 1489.18 1322.75 1461.47 1310.41 1437.13C1295.87 1442.3 1281.77 1448.53 1268.27 1455.95C1240.54 1471.17 1216.75 1490.69 1196.98 1514.41ZM1588.65 1527.99C1605.77 1541.29 1620.13 1557.43 1631.07 1575.31C1674.83 1572.18 1708.07 1571.15 1736.17 1572.52C1713.09 1524.68 1680.38 1480.68 1638.25 1440.86C1627.99 1438.3 1617.28 1435.8 1606.2 1433.43C1603.8 1462.25 1597.86 1494.43 1588.65 1527.99ZM1746.43 1573.15C1752.41 1573.59 1758.16 1574.14 1763.75 1574.82C1767.09 1575.23 1770.37 1575.68 1773.62 1576.18C1773.73 1575.55 1773.84 1574.95 1773.96 1574.34C1777.2 1556.75 1779.56 1537.28 1779.89 1517.06C1757.91 1487.56 1727.71 1466.78 1689.99 1455.24C1679.5 1452.04 1668.05 1448.71 1655.83 1445.42C1694.59 1484.32 1724.85 1527 1746.43 1573.15ZM1546.05 1513.18C1549.11 1521.1 1551.75 1528.84 1554.03 1536.32C1558.11 1549.73 1561.34 1563.21 1563.83 1576.53C1569.28 1561.38 1574.14 1546.33 1578.36 1531.52C1575.8 1529.68 1573.19 1527.91 1570.52 1526.19C1562.69 1521.18 1554.52 1516.85 1546.05 1513.18ZM1586.01 1537.38C1581.93 1551.47 1577.27 1565.77 1572.09 1580.14C1589.69 1578.57 1605.91 1577.2 1620.94 1576.06C1611.54 1561.66 1599.77 1548.54 1586.01 1537.38ZM1782.48 1577.69C1792.49 1579.55 1802.09 1581.9 1811.56 1584.74C1806.27 1564.54 1798.51 1545.99 1788.47 1529.7C1787.64 1544.56 1785.74 1559.99 1782.81 1575.97C1782.69 1576.53 1782.59 1577.11 1782.48 1577.69ZM1093.77 1570.5C1111.3 1574.54 1128.45 1579.63 1144.9 1585.72C1153.9 1563.05 1165.02 1542.43 1178.24 1523.96C1149.15 1527.81 1119.89 1544.29 1093.77 1570.5ZM1426.06 1502.38C1418.47 1534.75 1416.94 1567.2 1421.71 1597.46C1437.83 1594.08 1454.55 1591.51 1471.85 1589.79C1502.78 1586.7 1530.54 1583.98 1555.63 1581.66C1553.13 1567.51 1549.77 1553.2 1545.42 1538.94C1542.48 1529.24 1538.88 1519.06 1534.52 1508.68C1501.86 1497.22 1465.13 1495.13 1426.06 1502.38ZM1353.81 1525.41C1357.35 1537.71 1360.69 1550.53 1363.82 1563.87C1367.42 1579.18 1370.67 1594.8 1373.63 1610.64C1386.27 1606.3 1399.37 1602.56 1412.92 1599.41C1408.07 1569.11 1409.3 1536.71 1416.39 1504.34C1396.03 1508.88 1375.09 1515.9 1353.81 1525.41ZM1821.63 1587.97C1840.45 1594.36 1859.18 1602.76 1880.18 1613.31C1877.96 1606.45 1875.59 1599.6 1873.12 1592.72C1811.69 1422.97 1726.93 1304.83 1621.23 1241.6C1520.26 1181.21 1422.17 1184.27 1357.66 1197.47C1307.47 1207.73 1259.51 1225.4 1216.88 1248.96C1253.01 1249.9 1287.96 1255.91 1321.78 1264.68C1365.48 1252.57 1410.58 1248.08 1451.86 1252.21C1508.92 1257.9 1553.01 1278.91 1579.27 1311.76C1629.15 1299.97 1680.15 1315.44 1726.66 1357.39C1768.36 1395 1789.45 1448.53 1788.97 1514.24C1790.31 1516.11 1791.61 1517.99 1792.89 1519.92C1805.93 1539.6 1815.61 1562.63 1821.63 1587.97ZM1750.65 1582.48C1755.58 1593.75 1760.01 1605.22 1763.93 1616.89C1766.99 1606.14 1769.64 1595.51 1771.85 1584.99C1765.05 1583.95 1758.03 1583.12 1750.65 1582.48ZM1153.3 1588.95C1181.25 1600.04 1206.96 1614.06 1228.77 1630.64C1240.68 1610.45 1254.27 1592.12 1269.19 1576.04C1245.33 1540.54 1219.39 1523.18 1190.05 1523.12C1175.29 1542.52 1163.02 1564.48 1153.3 1588.95ZM1779.61 1630.64C1794.66 1630.64 1807.91 1632.39 1819.42 1635.89C1818.64 1621.7 1816.82 1607.98 1813.99 1594.88C1803.15 1591.41 1792.24 1588.64 1780.73 1586.5C1777.67 1601.09 1773.79 1615.93 1769.13 1630.91C1772.71 1630.72 1776.21 1630.64 1779.61 1630.64ZM1280.6 1577.07C1292.16 1595.35 1302.48 1616.39 1312.13 1638.52C1328.68 1628.92 1346.34 1620.64 1365.05 1613.7C1362.04 1597.5 1358.74 1581.56 1355.07 1565.93C1352.08 1553.21 1348.91 1540.99 1345.55 1529.25C1322.26 1540.62 1300.33 1556.85 1280.6 1577.07ZM1026.83 1569.47C1026.83 1595.18 1028.85 1619.49 1032.87 1642.22C1045.33 1616.96 1060.09 1594.69 1076.35 1576.08C1059.78 1572.88 1043.22 1570.67 1026.83 1569.47ZM1636.02 1583.91C1647.9 1606.1 1654.69 1630.55 1655.3 1655.36C1666.29 1651.79 1677.11 1648.51 1687.68 1645.58C1714.52 1638.16 1738.3 1633.5 1759.17 1631.61C1754.04 1614.57 1747.79 1597.93 1740.46 1581.73C1712.32 1580.03 1679.09 1580.92 1636.02 1583.91ZM1091.04 1579.19C1094.09 1595.07 1099.22 1610.52 1106.43 1625.51C1111.52 1636.12 1117.47 1646.14 1124.07 1655.57C1126.79 1644.44 1129.73 1633.14 1132.9 1621.66C1135.51 1612.23 1138.43 1603.08 1141.66 1594.25C1125.5 1588.27 1108.51 1583.2 1091.04 1579.19ZM1467.28 1664.52C1487.15 1664.52 1505.96 1665.74 1523.7 1668.15C1536.24 1644.05 1547.56 1619.04 1557.53 1593.38C1557.39 1592.42 1557.25 1591.49 1557.09 1590.52C1531.76 1592.89 1503.8 1595.63 1472.74 1598.73C1455.67 1600.45 1439.19 1602.97 1423.3 1606.32C1423.74 1608.49 1424.21 1610.64 1424.72 1612.78C1428.71 1629.76 1432.93 1647.45 1437.47 1665.39C1438.79 1665.32 1440.11 1665.24 1441.42 1665.17C1450.22 1664.75 1458.84 1664.52 1467.28 1664.52ZM1235.9 1636.26C1248.66 1646.74 1259.43 1657.81 1268.13 1669.37C1275.16 1663.47 1282.46 1657.88 1290.02 1652.61C1294.7 1649.34 1299.47 1646.21 1304.35 1643.2C1295.07 1621.8 1285.19 1601.5 1274.23 1583.84C1260.1 1599.32 1247.21 1616.92 1235.9 1636.26ZM1375.27 1619.59C1378.29 1636.44 1381.02 1653.55 1383.51 1670.81C1398.91 1668.63 1413.88 1667.03 1428.38 1665.98C1424.09 1649.06 1419.99 1631.94 1415.97 1614.83C1415.45 1612.67 1414.97 1610.47 1414.52 1608.26C1400.97 1611.44 1387.88 1615.2 1375.27 1619.59ZM1533.09 1669.55C1542.79 1671.14 1552.12 1673.09 1561.11 1675.43C1562.23 1655.9 1562.01 1634.38 1559.78 1611.9C1551.66 1631.57 1542.73 1650.83 1533.09 1669.55ZM1315.7 1646.85C1320.37 1657.87 1324.89 1669.11 1329.34 1680.37C1344.79 1677.12 1359.89 1674.36 1374.61 1672.11C1372.21 1655.46 1369.59 1638.96 1366.69 1622.69C1348.66 1629.46 1331.64 1637.53 1315.7 1646.85ZM1569.96 1677.88C1574.17 1679.11 1578.29 1680.44 1582.32 1681.85C1603.79 1673.41 1625.33 1665.4 1646.37 1658.32C1646.23 1632.66 1639.03 1607.3 1626.15 1584.63C1608.65 1585.92 1589.59 1587.55 1568.66 1589.46C1568.02 1591.13 1567.39 1592.79 1566.75 1594.46C1570.88 1624.14 1571.52 1652.66 1569.96 1677.88ZM1273.35 1676.73C1276.59 1681.6 1279.48 1686.56 1282 1691.57C1295.02 1688.16 1307.83 1685.05 1320.43 1682.28C1316.34 1671.96 1312.19 1661.66 1307.93 1651.55C1303.59 1654.27 1299.34 1657.07 1295.17 1659.98C1287.62 1665.24 1280.34 1670.82 1273.35 1676.73ZM1266.5 1682.68C1259.91 1688.57 1253.59 1694.75 1247.54 1701.23C1256.03 1698.7 1264.57 1696.27 1273.1 1693.95C1271.13 1690.15 1268.92 1686.39 1266.5 1682.68ZM1090.81 1342.53C1088.06 1343.64 1085.29 1344.8 1082.51 1346.02C1014.29 1375.94 941.542 1438.77 887.902 1514.1C842.113 1578.42 814.044 1644.8 806.437 1705.47C812.025 1688.1 818.783 1671.6 826.599 1656.47C852.805 1605.7 888.74 1573.54 927.785 1565.91C946.236 1562.32 965.441 1560.25 984.954 1559.63C996.421 1543.34 1008.44 1527.76 1020.94 1512.98C1025.88 1470.98 1037.88 1431.46 1056.69 1395.31C1066.3 1376.84 1077.71 1359.2 1090.81 1342.53ZM1594.87 1686.63C1610.11 1692.93 1624.05 1700.56 1636.7 1709.51C1641.91 1695.76 1645.08 1681.8 1646.04 1667.98C1629.18 1673.7 1612.03 1680.01 1594.87 1686.63ZM1528.67 1677.99C1522.61 1689.4 1516.28 1700.6 1509.72 1711.58C1526.1 1704.69 1542.93 1697.67 1559.92 1690.79C1560.12 1688.74 1560.32 1686.67 1560.49 1684.56C1550.15 1681.83 1539.52 1679.65 1528.67 1677.99ZM1231.4 1644.22C1229.64 1647.42 1227.92 1650.66 1226.25 1653.94C1216.1 1673.92 1207.95 1694.71 1201.9 1715.81C1211.49 1712.54 1221.2 1709.37 1230.98 1706.29C1240.39 1695.21 1250.51 1684.86 1261.3 1675.26C1253.25 1664.47 1243.25 1654.07 1231.4 1644.22ZM1131.05 1665.02C1147.86 1686.63 1168.08 1704.96 1189.18 1720.23C1189.98 1719.94 1190.78 1719.66 1191.59 1719.38C1197.94 1695.65 1206.86 1672.27 1218.23 1649.88C1220.19 1646.03 1222.2 1642.25 1224.27 1638.51L1224.23 1638.48C1203.48 1622.57 1178.14 1608.62 1150.06 1597.47C1146.93 1606.04 1144.1 1614.91 1141.57 1624.05C1137.72 1637.97 1134.22 1651.64 1131.05 1665.02ZM1439.77 1674.39C1444.88 1694.22 1450.4 1714.27 1456.4 1733.95C1468.3 1729.02 1480.45 1723.9 1492.7 1718.74C1493.64 1718.34 1494.58 1717.93 1495.53 1717.54C1503.8 1704.28 1511.7 1690.65 1519.19 1676.67C1493.4 1673.44 1466.59 1672.96 1439.77 1674.39ZM1198.89 1727C1202.54 1729.45 1206.2 1731.81 1209.87 1734.09C1213.36 1728.94 1216.98 1723.91 1220.73 1719.01C1213.45 1721.39 1206.23 1723.81 1199.07 1726.29C1199.01 1726.51 1198.95 1726.77 1198.89 1727ZM1128.48 1676.15C1122.81 1701.34 1118.37 1725.57 1115.16 1748.79C1135.21 1740.36 1156.7 1731.91 1179.04 1723.84C1160.92 1710.24 1143.55 1694.39 1128.48 1676.15ZM1384.78 1679.79C1388.41 1705.83 1391.55 1732.18 1394.45 1758.5C1411.17 1752.37 1429.26 1745.16 1448.08 1737.4C1441.91 1717.18 1436.14 1696.23 1430.66 1674.94C1415.26 1676.01 1399.9 1677.68 1384.78 1679.79ZM1459.08 1742.59C1461.13 1749.1 1463.26 1755.57 1465.42 1761.97C1472.84 1751.89 1480.04 1741.52 1487 1730.89C1477.53 1734.88 1468.2 1738.79 1459.08 1742.59ZM1035.82 1657.05C1044.94 1698.17 1060.96 1733.68 1083.59 1762.59C1090.66 1759.38 1097.99 1756.14 1105.55 1752.88C1109.12 1725.61 1114.38 1697.01 1121.33 1667.07C1112.59 1655.43 1104.8 1642.89 1098.32 1629.41C1091.03 1614.23 1085.77 1598.62 1082.53 1582.62C1066.05 1601.62 1051.12 1624.65 1038.68 1650.87C1037.71 1652.91 1036.75 1654.98 1035.82 1657.05ZM1196.71 1736.26C1194.67 1745.49 1193.03 1754.76 1191.8 1764.02C1192.41 1762.88 1193.03 1761.74 1193.66 1760.6C1197.24 1754.08 1201.02 1747.73 1204.97 1741.54C1202.21 1739.83 1199.46 1738.07 1196.71 1736.26ZM1332.69 1688.89C1334.18 1692.7 1335.67 1696.51 1337.15 1700.32C1346.48 1724.21 1355.63 1747.66 1365.18 1768.47C1371.72 1766.46 1378.59 1764.17 1385.74 1761.63C1382.79 1734.69 1379.6 1707.72 1375.88 1681.09C1361.15 1683.34 1346.7 1685.99 1332.69 1688.89ZM1217.58 1738.75C1241.83 1752.98 1265.75 1763.37 1285.63 1770.17C1286.15 1757.14 1286.06 1745.73 1285.41 1736.36C1284.61 1724.79 1281.79 1713.36 1277.02 1702.2C1263.35 1705.9 1249.7 1709.88 1236.17 1714.1C1229.61 1721.94 1223.41 1730.17 1217.58 1738.75ZM1644.16 1715.07C1664.17 1730.75 1680.6 1750.01 1693.39 1772.78C1720.05 1730.11 1741.53 1685.07 1756.43 1640.95C1726.01 1644.16 1691.37 1653.07 1655.23 1664.92C1654.51 1681.61 1650.73 1698.52 1644.16 1715.07ZM1294.49 1773.04C1299.39 1774.56 1303.97 1775.82 1308.16 1776.84C1318.91 1779.44 1335.68 1776.92 1356.5 1771.05C1347 1750.26 1337.97 1727.12 1328.78 1703.59C1327.12 1699.33 1325.45 1695.05 1323.77 1690.79C1310.61 1693.65 1297.9 1696.72 1285.8 1699.87C1290.66 1711.56 1293.54 1723.56 1294.38 1735.73C1295.09 1745.97 1295.16 1758.59 1294.49 1773.04ZM1089.48 1769.79C1091.29 1771.9 1093.13 1773.98 1095.02 1776.02C1097.36 1778.55 1099.76 1781.02 1102.21 1783.41C1102.79 1776.77 1103.48 1770.04 1104.27 1763.23C1099.23 1765.43 1094.29 1767.62 1089.48 1769.79ZM1770.9 1639.84C1775.19 1655.6 1778.6 1671.72 1781.09 1688.14C1786.18 1721.59 1790.16 1753.8 1793.02 1784.71C1811.27 1740.21 1820.8 1691.02 1819.79 1645.46C1805.83 1640.66 1789.29 1639.02 1770.9 1639.84ZM1029.92 1670.94C1012.97 1713.37 1003.79 1760.14 1003.51 1805.81C1009.62 1801.04 1016.29 1796.62 1023.5 1792.59C1037.87 1784.56 1055.38 1775.66 1075.21 1766.45C1054.64 1739.66 1039.47 1707.57 1029.92 1670.94ZM1369.05 1776.7C1376.16 1791.48 1383.54 1804.68 1391.4 1815.43C1389.88 1800.61 1388.35 1785.73 1386.74 1770.84C1380.62 1772.97 1374.72 1774.94 1369.05 1776.7ZM1110.58 1791.13C1126.89 1805.34 1145.4 1816.83 1165.79 1825.45C1169.71 1813.26 1174.57 1800.26 1180.59 1786.84C1181.68 1768.23 1184.41 1749.47 1188.72 1730.85C1188.43 1730.64 1188.14 1730.44 1187.85 1730.22C1161.77 1739.51 1136.78 1749.34 1113.8 1759.13C1112.45 1770.01 1111.38 1780.69 1110.58 1791.13ZM1468.99 1772.24C1472.52 1782.16 1476.2 1791.89 1480.07 1801.32C1483.72 1810.27 1487.46 1818.75 1491.27 1826.77C1525.12 1789.16 1547 1755.94 1552.43 1734.91C1554.95 1725.2 1557.15 1713.74 1558.78 1700.96C1539.36 1708.86 1520.18 1716.91 1501.64 1724.73C1491.29 1741.18 1480.39 1757.06 1468.99 1772.24ZM1174.25 1828.82C1176.54 1829.67 1178.85 1830.51 1181.18 1831.3C1180.62 1824.84 1180.26 1818.34 1180.12 1811.8C1177.96 1817.61 1176.01 1823.3 1174.25 1828.82ZM1401.7 1827.73C1403.05 1829.1 1404.41 1830.42 1405.79 1831.65C1424.39 1813.06 1442.16 1792.63 1458.9 1770.68C1456.09 1762.62 1453.39 1754.38 1450.76 1746.03C1431.14 1754.11 1412.56 1761.52 1395.45 1767.73C1397.52 1786.84 1399.47 1805.94 1401.41 1824.88C1401.5 1825.83 1401.6 1826.78 1401.7 1827.73ZM1495.51 1835.46C1495.75 1835.94 1496.01 1836.42 1496.25 1836.91C1526.54 1827.4 1556.81 1810.03 1582.59 1786.54C1605.15 1765.99 1622.35 1742.49 1633.17 1718.09C1619.79 1708.36 1604.85 1700.23 1588.38 1693.71C1586.43 1692.93 1584.48 1692.18 1582.49 1691.45C1577.75 1693.32 1573.01 1695.22 1568.28 1697.12C1566.56 1712.33 1564.07 1725.88 1561.14 1737.16C1555.12 1760.43 1531.24 1796.2 1495.51 1835.46ZM1190.49 1834.22C1213.95 1841.07 1239.46 1844.57 1266.65 1844.57C1270.29 1844.57 1274.02 1844.69 1277.85 1844.93C1281.65 1820.89 1284.02 1798.7 1285.16 1779.49C1264.22 1772.49 1238.62 1761.5 1212.66 1746.2C1208.77 1752.29 1205.06 1758.53 1201.53 1764.95C1197.06 1773.06 1193.06 1781.13 1189.47 1789.07C1188.66 1804.31 1188.99 1819.42 1190.49 1834.22ZM1412.95 1837.2C1419.22 1841.37 1425.85 1843.93 1432.89 1844.6C1447.09 1845.91 1462.1 1844.91 1477.33 1841.81C1479.82 1839.19 1482.26 1836.59 1484.65 1834.02C1476.65 1817.49 1469.3 1799.62 1462.47 1780.78C1446.78 1800.98 1430.22 1819.87 1412.95 1837.2ZM1286.82 1845.7C1310.78 1848.23 1338.12 1855.09 1368.02 1865.93C1376.41 1859.04 1384.68 1851.79 1392.83 1844.18C1393.29 1843.75 1393.75 1843.32 1394.21 1842.88C1393.82 1839.12 1393.44 1835.32 1393.05 1831.53C1381.06 1818.4 1370.41 1800.27 1360.36 1779.29C1337.28 1785.89 1318.61 1788.63 1306.03 1785.58C1302.3 1784.67 1298.27 1783.57 1293.98 1782.29C1292.79 1801.08 1290.45 1822.55 1286.82 1845.7ZM1377.73 1869.56C1384.33 1872.09 1391.04 1874.81 1397.86 1877.72C1397.02 1869.88 1396.19 1862.01 1395.37 1854.08C1389.55 1859.42 1383.67 1864.57 1377.73 1869.56ZM804.547 1748.32C804.584 1749.2 804.626 1750.08 804.673 1750.95C806.982 1793.72 821.136 1831.07 846.742 1861.96C853.302 1869.87 860.617 1877.36 868.665 1884.41C869.298 1857.47 872.538 1829.81 878.415 1801.62C895.27 1720.82 929.833 1640.55 978.581 1568.84C961.774 1569.68 945.356 1571.65 929.509 1574.75C893.217 1581.84 859.507 1612.33 834.589 1660.59C821.174 1686.57 810.954 1716.7 804.547 1748.32ZM1698.25 1781.94C1703.6 1792.67 1708.2 1804.11 1712.05 1816.28C1719.34 1839.33 1724.41 1862.29 1727.29 1885.01C1748.36 1864.67 1767.18 1838.53 1782.51 1807.88C1783.51 1805.85 1784.51 1803.83 1785.47 1801.79C1782.58 1766.12 1778.16 1728.68 1772.2 1689.5C1770.05 1675.28 1767.19 1661.32 1763.65 1647.62C1748.06 1692.71 1725.79 1738.62 1698.25 1781.94ZM1407.35 1881.85C1413.61 1884.63 1419.94 1887.54 1426.36 1890.62C1440.83 1877.87 1454.32 1865.16 1466.73 1852.68C1454.86 1854.27 1443.24 1854.58 1432.05 1853.54C1422.83 1852.68 1414.36 1849.21 1406.47 1843.6C1405.51 1844.52 1404.57 1845.44 1403.61 1846.37C1404.84 1858.32 1406.08 1870.14 1407.35 1881.85ZM1408.48 1892.19C1408.95 1896.41 1409.42 1900.6 1409.9 1904.78C1412.97 1902.2 1415.99 1899.62 1418.98 1897.04C1415.46 1895.39 1411.96 1893.76 1408.48 1892.19ZM1500.47 1844.95C1516.28 1874.26 1533.38 1896.12 1552.07 1910.96C1557.81 1908.12 1563.25 1905.65 1568.35 1903.68C1600.9 1891.08 1645.82 1845.6 1685.56 1785.01C1686.33 1783.82 1687.1 1782.65 1687.87 1781.46C1675.73 1758.63 1659.92 1739.34 1640.49 1723.68C1629.12 1748.53 1611.52 1772.35 1588.65 1793.18C1562.36 1817.14 1531.51 1834.95 1500.47 1844.95ZM1285.38 1854.58C1281.48 1877.74 1276.31 1902.4 1269.72 1927.64C1300.98 1913.51 1331.09 1895.09 1359.83 1872.52C1332.43 1862.92 1307.38 1856.84 1285.38 1854.58ZM877.558 1891.78C898.871 1908.51 924.699 1922.52 954.832 1933.66C953.09 1916.56 953.482 1900.44 956.057 1885.59C961.062 1856.73 973.967 1832.57 994.552 1813.44C993.672 1759.42 1004.62 1705.37 1026.41 1656.07C1020.68 1629.18 1017.8 1600.02 1017.84 1568.9C1008.4 1568.42 999.027 1568.26 989.759 1568.45C939.691 1640.56 904.262 1721.74 887.218 1803.46C880.93 1833.61 877.724 1863.12 877.558 1891.78ZM1560.28 1916.97C1564.19 1919.59 1568.15 1921.91 1572.19 1923.95C1602.03 1938.99 1635.12 1938.29 1673.34 1921.85C1689.28 1914.98 1704.66 1905.09 1719.1 1892.51C1716.48 1868.26 1711.29 1843.67 1703.47 1818.98C1700.34 1809.1 1696.69 1799.69 1692.53 1790.79C1651.34 1853.37 1606.18 1898.69 1571.59 1912.07C1568.01 1913.46 1564.23 1915.1 1560.28 1916.97ZM1435.08 1894.86C1455.26 1904.83 1476.14 1916.19 1497.57 1928.89C1501.3 1931.1 1505.03 1933.34 1508.75 1935.62C1521.13 1928 1532.7 1921.17 1543.33 1915.48C1523.39 1898.76 1506.39 1875.45 1491.55 1847.61C1488.33 1848.49 1485.13 1849.28 1481.93 1849.99C1467.42 1865.06 1451.68 1880.14 1435.08 1894.86ZM1828.58 1639.2C1833.04 1641.1 1837.18 1643.3 1841.03 1645.8C1864.78 1661.28 1877.15 1688.86 1877.79 1727.76C1879.01 1801.97 1861.08 1873.79 1826.84 1936.68C1871.26 1902.69 1897.99 1873.17 1902.84 1867.68C1915.64 1789.82 1909.29 1708.5 1883.96 1625.3C1861.87 1613.96 1842.74 1605.02 1823.84 1598.24C1826.18 1610.25 1827.71 1622.72 1828.41 1635.55C1828.49 1636.77 1828.54 1637.99 1828.58 1639.2ZM1191.65 1843.92C1196.75 1880.86 1209.41 1914.72 1228.75 1943.47C1239 1940.16 1249.16 1936.39 1259.2 1932.2C1266.53 1905.11 1272.2 1878.61 1276.39 1853.84C1273.07 1853.66 1269.82 1853.56 1266.65 1853.56C1240 1853.56 1214.89 1850.3 1191.65 1843.92ZM964.29 1937C967.085 1937.95 969.91 1938.89 972.775 1939.78C990.824 1945.47 1008.74 1950.07 1026.48 1953.57C1007.95 1913.92 997.212 1870.64 994.959 1825.75C979.146 1842.58 969.08 1863.12 964.916 1887.13C962.257 1902.47 962.101 1919.23 964.29 1937ZM1794.63 1803.45C1799.08 1859.62 1799.74 1911.39 1796.61 1958.46C1800.78 1955.64 1804.81 1952.83 1808.75 1950.03C1848.86 1884.46 1870.11 1807.59 1868.8 1727.9C1868.2 1691.67 1857.51 1667.28 1836.12 1653.34C1833.81 1651.82 1831.37 1650.45 1828.84 1649.22C1829.29 1700.18 1817.12 1755.22 1794.63 1803.45ZM1171.61 1837.44C1159.7 1878.21 1158.44 1907.92 1158.42 1908.37L1158.38 1908.78C1156.15 1926.02 1154.9 1942.92 1154.62 1959.49C1173.42 1957.35 1191.94 1953.85 1210.16 1948.97C1213.38 1948.1 1216.59 1947.2 1219.79 1946.25C1199.84 1915.79 1187 1880.02 1182.22 1841.11C1178.63 1839.96 1175.1 1838.75 1171.61 1837.44ZM1109.83 1802.27C1106.27 1863.44 1112.53 1916.64 1128.59 1961.56C1134.28 1961.3 1139.96 1960.92 1145.61 1960.41C1145.86 1943.23 1147.14 1925.69 1149.44 1907.83C1149.58 1904.49 1151.13 1874.63 1163.12 1834.1C1143.65 1825.96 1125.81 1815.31 1109.83 1802.27ZM1037.42 1955.6C1065.12 1960.38 1092.4 1962.48 1119.18 1961.88C1102.85 1914.73 1096.89 1858.98 1101.31 1794.92C1096.85 1790.86 1092.55 1786.6 1088.41 1782.12C1085.87 1779.37 1083.4 1776.56 1080.99 1773.67C1060.57 1783.11 1042.57 1792.23 1027.89 1800.44C1018.89 1805.47 1010.8 1811.13 1003.63 1817.39C1003.66 1818.38 1003.69 1819.36 1003.73 1820.35C1005.44 1868.04 1016.96 1913.99 1037.42 1955.6ZM1234.17 1951.16C1238.04 1956.4 1242.15 1961.46 1246.48 1966.31C1247.14 1967.05 1247.8 1967.79 1248.47 1968.51C1251.09 1960.35 1253.66 1951.91 1256.15 1943.16C1248.88 1946.05 1241.55 1948.71 1234.17 1951.16ZM1795.78 1969.83V1969.88L1795.85 1969.78L1795.78 1969.83ZM1411.14 1915.41C1414.23 1941.38 1417.59 1966.44 1421.54 1990.2C1439.53 1979.3 1456.8 1968.34 1473.03 1958.04C1482.42 1952.1 1491.48 1946.35 1500.17 1940.93C1497.78 1939.48 1495.39 1938.05 1492.98 1936.62C1470.55 1923.34 1448.74 1911.53 1427.79 1901.28C1422.31 1906.04 1416.76 1910.75 1411.14 1915.41ZM1255.53 1975.86C1262.83 1983.09 1270.66 1989.83 1279.02 1996.09C1305.37 1981.18 1328.49 1966.09 1347.3 1952.89C1366.36 1939.51 1384.54 1925.65 1401.64 1911.63C1400.73 1903.81 1399.84 1895.91 1398.97 1887.95C1388.99 1883.61 1379.24 1879.66 1369.75 1876.12C1337.1 1902.38 1302.65 1923.32 1266.72 1938.79C1263.13 1951.77 1259.39 1964.12 1255.53 1975.86ZM1728.52 1896.15C1731.96 1932.25 1729.84 1967.63 1722.25 2001.64C1735.8 1995.02 1749.24 1987.8 1762.53 1979.99C1771.08 1974.97 1779.3 1969.85 1787.17 1964.73C1790.5 1920.48 1790.37 1871.9 1786.77 1819.22C1770.47 1849.98 1750.64 1876.06 1728.52 1896.15ZM1131.92 1970.41C1136.34 1981.56 1141.39 1992.18 1147.09 2002.25C1146.14 1991.48 1145.64 1980.55 1145.57 1969.44C1141.03 1969.84 1136.48 1970.17 1131.92 1970.41ZM1252.35 1985.3C1248.61 1996.18 1244.77 2006.5 1240.86 2016.31C1251.07 2011.27 1260.96 2006.1 1270.45 2000.88C1264.12 1995.97 1258.08 1990.78 1252.35 1985.3ZM1287.07 2001.86C1304.72 2013.93 1324.55 2023.99 1346.47 2031.97C1369.3 2020.7 1391.74 2008.06 1413.26 1995.2C1409.32 1971.96 1405.96 1947.5 1402.9 1922.16C1386.5 1935.45 1369.57 1948.25 1352.46 1960.25C1334.32 1972.98 1312.2 1987.46 1287.07 2001.86ZM1517.35 1940.9C1562.61 1969.05 1606.52 2000.85 1644.5 2032.77C1667.17 2025.66 1689.62 2016.94 1711.8 2006.63C1720 1973.42 1722.81 1938.79 1720.11 1903.42C1706.39 1914.66 1691.89 1923.65 1676.89 1930.11C1636.65 1947.42 1600.05 1948.05 1568.14 1931.98C1562.23 1929 1556.55 1925.51 1551.09 1921.54C1540.81 1926.89 1529.51 1933.48 1517.35 1940.9ZM799.307 1781.41C797.676 1795.63 796.825 1809.95 796.808 1824.15C796.732 1883.12 810.351 1936.18 836.189 1977.59C852.348 2003.48 872.733 2024.13 897.147 2039.42C878.378 1994.95 868.773 1946.76 868.555 1895.97C835.597 1869.08 809.016 1832.13 799.307 1781.41ZM1158.11 2019.94C1163.84 2028.29 1170.1 2036.24 1176.86 2043.77C1194.83 2037.23 1212.2 2029.89 1228.78 2022.12C1234.43 2008.58 1239.95 1993.98 1245.26 1978.24C1243.4 1976.28 1241.57 1974.31 1239.78 1972.3C1234.57 1966.48 1229.69 1960.38 1225.13 1954.02C1220.94 1955.31 1216.72 1956.52 1212.49 1957.65C1193.49 1962.75 1174.16 1966.37 1154.56 1968.55C1154.64 1986.1 1155.82 2003.23 1158.11 2019.94ZM1161.3 2039.32C1161.89 2042.41 1162.53 2045.5 1163.2 2048.56C1164.71 2048.05 1166.21 2047.54 1167.72 2047.01C1165.52 2044.49 1163.38 2041.93 1161.3 2039.32ZM1358.41 2036.04C1369.44 2039.56 1380.95 2042.59 1392.95 2045.11C1403.46 2047.32 1413.99 2049.21 1424.52 2050.74C1420.95 2036.09 1417.78 2020.7 1414.91 2004.67C1396.63 2015.55 1377.69 2026.24 1358.41 2036.04ZM1434.1 2052.04C1490.02 2059.06 1546.03 2056.5 1601.2 2044.34C1612.23 2041.9 1623.24 2039.08 1634.2 2035.88C1596.54 2004.62 1553.27 1973.58 1508.77 1946.16C1498.94 1952.27 1488.6 1958.82 1477.84 1965.65C1460.65 1976.54 1442.3 1988.18 1423.17 1999.73C1426.39 2018.06 1429.98 2035.56 1434.1 2052.04ZM1042.54 1965.56C1048.96 1977.54 1056.14 1989.14 1064.06 2000.28C1083.06 2027 1104.9 2046.39 1129.82 2058.52C1138.17 2056.34 1146.44 2053.94 1154.61 2051.35C1152.55 2042.13 1150.85 2032.77 1149.49 2023.25C1148.97 2022.49 1148.46 2021.71 1147.94 2020.93C1137.85 2005.57 1129.34 1988.84 1122.43 1970.8C1096.24 1971.58 1069.58 1969.83 1042.54 1965.56ZM1719.51 2012.94C1714.71 2031.29 1708.31 2049.21 1700.31 2066.6C1711.46 2058.62 1722.22 2050.06 1732.58 2040.9C1752.15 2023.58 1769.84 2004.52 1785.47 1984.03C1785.72 1981.38 1785.99 1978.7 1786.23 1976.03C1780.05 1979.96 1773.66 1983.87 1767.08 1987.74C1751.42 1996.94 1735.54 2005.35 1719.51 2012.94ZM1143.08 2064.19C1148.27 2066.11 1153.6 2067.76 1159.05 2069.1C1158.22 2066.11 1157.43 2063.11 1156.68 2060.1C1152.17 2061.53 1147.64 2062.89 1143.08 2064.19ZM1183.52 2050.88C1190.4 2057.93 1197.77 2064.6 1205.62 2070.87C1211.61 2059.77 1217.59 2047.66 1223.47 2034.44C1210.57 2040.26 1197.22 2045.79 1183.52 2050.88ZM910.326 2046.96C927.547 2055.89 946.546 2062.43 967.262 2066.54C979.605 2068.99 991.99 2070.62 1004.36 2071.51C995.386 2056 987.454 2040.5 980.687 2025.18C968.068 1996.6 959.815 1969.15 956.078 1943.66C929.74 1934.26 902.274 1921.19 877.65 1903.02C878.789 1954.21 889.761 2002.61 910.326 2046.96ZM1652.57 2039.63C1665.1 2050.42 1676.91 2061.19 1687.84 2071.81C1696.51 2054.38 1703.5 2036.36 1708.8 2017.89C1690.23 2026.23 1671.47 2033.49 1652.57 2039.63ZM1015.08 2072.12C1049.51 2073.48 1083.74 2069.39 1116.82 2061.72C1094.29 2048.84 1074.18 2030.02 1056.73 2005.5C1047.25 1992.16 1038.79 1978.17 1031.41 1963.67C1011.16 1959.97 990.705 1954.86 970.07 1948.36C968.633 1947.91 967.193 1947.44 965.743 1946.97C972.231 1985.56 989.19 2028.49 1015.08 2072.12ZM1235.73 2028.76C1228.8 2045.09 1221.68 2059.88 1214.54 2073.24C1229.15 2072.13 1244.49 2069.48 1260.57 2065.28C1285.36 2058.81 1310.5 2048.99 1335.3 2037.34C1314.39 2029.07 1295.38 2018.86 1278.38 2006.77C1264.91 2014.26 1250.65 2021.67 1235.73 2028.76ZM1169 2071.21C1177.36 2072.7 1186.01 2073.55 1194.94 2073.76C1187.62 2067.6 1180.73 2061.09 1174.26 2054.23C1171.27 2055.28 1168.27 2056.32 1165.25 2057.32C1166.41 2061.99 1167.66 2066.62 1169 2071.21ZM1171.97 2080.81C1173.61 2085.84 1175.35 2090.81 1177.22 2095.74C1178.9 2100.18 1180.68 2104.57 1182.53 2108.89C1187.92 2101 1193.41 2092.35 1198.91 2082.85C1189.66 2082.82 1180.69 2082.14 1171.97 2080.81ZM1794.15 1987.47C1792 2007.96 1789.07 2027.47 1785.36 2045.98C1779.66 2074.33 1772.13 2100.44 1762.76 2124.27C1775.01 2113.78 1786.77 2102.32 1797.92 2089.99C1848.93 2033.53 1884.13 1962.41 1899.83 1884.1C1885.32 1899.14 1856.36 1926.99 1815.46 1956.27C1808.85 1966.98 1801.74 1977.39 1794.15 1987.47ZM1696.41 2080.27C1700.39 2084.3 1704.24 2088.29 1707.95 2092.24C1720.7 2105.88 1734.61 2122.27 1744.97 2138.57C1745.98 2137.81 1746.98 2137.04 1748 2136.26C1760.18 2108.91 1769.72 2078.14 1776.53 2044.21C1779.32 2030.36 1781.65 2015.93 1783.54 2000.94C1769.89 2017.57 1754.86 2033.19 1738.54 2047.62C1725.14 2059.49 1711.08 2070.38 1696.41 2080.27ZM1436.54 2061.38C1437.22 2063.92 1437.91 2066.43 1438.62 2068.9C1447.34 2099.45 1457.72 2124.1 1470.05 2143.3C1547.76 2140.24 1620.14 2118.28 1682.19 2078.84C1670 2066.96 1656.66 2054.89 1642.46 2042.81C1629.4 2046.77 1616.29 2050.21 1603.14 2053.12C1548.13 2065.24 1492.27 2068.01 1436.54 2061.38ZM1220.35 2081.79C1262.17 2110.56 1315.72 2129.62 1380.52 2138.68C1407.32 2142.44 1433.75 2144.05 1459.63 2143.6C1448.07 2124.35 1438.27 2100.38 1429.97 2071.37C1428.92 2067.69 1427.89 2063.95 1426.9 2060.15C1414.96 2058.51 1403.02 2056.43 1391.1 2053.91C1375.63 2050.65 1360.93 2046.59 1347.02 2041.72C1319.23 2055.23 1290.87 2066.65 1262.85 2073.99C1248.01 2077.85 1233.88 2080.46 1220.35 2081.79ZM1020.65 2081.28C1037.32 2108.13 1057.32 2135.14 1080.31 2161.48C1087.39 2169.6 1096.66 2177.24 1107.94 2184.38C1121.65 2175.68 1134.83 2164.91 1147.44 2152.08C1156.32 2143.05 1166.18 2131.67 1176.48 2117.49C1173.75 2111.41 1171.2 2105.22 1168.81 2098.92C1166.33 2092.35 1164.04 2085.71 1161.95 2078.97C1158.71 2078.28 1155.51 2077.48 1152.34 2076.59C1144.31 2074.36 1136.52 2071.49 1128.97 2068C1093.94 2076.92 1057.46 2082.1 1020.65 2081.28ZM1690.19 2086.77C1680.38 2104.77 1668.77 2122.13 1655.4 2138.71C1637.83 2160.5 1617.55 2180.48 1595.03 2198.3C1619.38 2196.74 1644.48 2191.02 1669.57 2181.19C1693.04 2171.99 1715.96 2159.4 1737.72 2143.88C1729.21 2130.41 1716.99 2115.07 1701.38 2098.38C1697.78 2094.55 1694.06 2090.67 1690.19 2086.77ZM1476.07 2152.04C1492.26 2173.86 1511.58 2187.27 1534.66 2193.06C1549.15 2196.7 1564.23 2198.58 1579.69 2198.72C1605.62 2179.49 1628.74 2157.45 1648.41 2133.06C1658.8 2120.18 1668.09 2106.81 1676.27 2093.03C1616.87 2128.28 1548.81 2148.31 1476.07 2152.04ZM916.74 2060.05C925.263 2076.56 935.163 2092.48 946.425 2107.73C975.122 2146.6 1012.08 2180.02 1055.25 2206.95C1070.44 2203.3 1085.14 2197.49 1099.29 2189.55C1088.98 2182.64 1080.38 2175.25 1073.53 2167.4C1049.18 2139.49 1027.71 2110.24 1009.91 2080.87C995.108 2080.08 980.302 2078.29 965.517 2075.36C948.082 2071.91 931.814 2066.79 916.74 2060.05ZM1183.73 1258.42C1173.9 1259.14 1164.68 1260.25 1155.85 1261.56C1103.63 1269.3 1053.83 1289.6 1007.81 1321.89C954.297 1359.45 904.053 1414.47 858.477 1485.43C800.643 1575.47 767.713 1681.23 763.247 1791.25C759.217 1890.52 778.828 1987.72 818.467 2064.98C840.888 2108.68 868.332 2143.64 900.038 2168.87C932.951 2195.08 968.793 2209.36 1006.56 2211.31C1018.82 2211.95 1030.81 2211.34 1042.52 2209.48C1001.8 2182.86 966.78 2150.44 939.193 2113.07C925.232 2094.17 913.317 2074.28 903.464 2053.53C872.945 2037.09 847.878 2013.3 828.56 1982.34C801.828 1939.51 787.738 1884.81 787.816 1824.13C787.849 1798.62 790.514 1772.69 795.52 1747.64C792.742 1674.56 822.852 1589.96 880.577 1508.89C935.933 1431.15 1008.22 1368.78 1078.9 1337.79C1086.79 1334.32 1094.59 1331.29 1102.27 1328.69C1112.35 1317.12 1123.3 1306.06 1135.07 1295.55C1150 1282.23 1166.31 1269.81 1183.73 1258.42ZM1746.5 2159.91C1735.94 2179.99 1723.78 2198.06 1710.04 2214.1C1736.32 2204.37 1751.08 2193.16 1751.8 2182.24C1752.21 2176.08 1750.4 2168.58 1746.5 2159.91ZM1116.57 2189.5C1151.51 2209.07 1202.53 2224.35 1265.92 2234.25C1265.47 2233.88 1265.03 2233.51 1264.58 2233.15C1228.98 2203.76 1200.89 2168.08 1180.81 2126.76C1171.27 2139.52 1162.15 2149.94 1153.86 2158.38C1141.92 2170.53 1129.48 2180.91 1116.57 2189.5ZM1582.64 2207.71C1563.45 2221.73 1542.81 2234.24 1520.96 2245.05C1588.51 2241.33 1649.68 2232.58 1692.72 2219.82C1701.21 2211.11 1709.11 2201.71 1716.43 2191.61C1724.94 2179.88 1732.73 2167.15 1739.78 2153.42C1718.35 2168.36 1695.87 2180.54 1672.85 2189.56C1642.44 2201.48 1611.93 2207.57 1582.64 2207.71ZM1283.98 2236.87C1311.26 2240.57 1340.62 2243.31 1371.79 2245.04C1413.73 2247.36 1456.39 2247.66 1497.27 2246.14C1522.29 2235.28 1545.89 2222.24 1567.71 2207.28C1555.68 2206.48 1543.91 2204.66 1532.48 2201.78C1505.51 2195.01 1483.41 2178.94 1465.31 2152.46C1437.2 2153.27 1408.46 2151.67 1379.27 2147.59C1309.48 2137.83 1252.33 2116.64 1208.4 2084.35C1201.14 2097.11 1193.89 2108.44 1186.82 2118.48C1206.47 2160.48 1234.47 2196.64 1270.3 2226.21C1274.76 2229.89 1279.32 2233.44 1283.98 2236.87ZM1300 2247.91C1320.39 2261.07 1342.37 2271.94 1365.45 2280.31C1402.09 2276.69 1438.31 2268.46 1473.03 2255.82C1439.5 2256.45 1405.16 2255.89 1371.29 2254.02C1346.63 2252.64 1322.76 2250.6 1300 2247.91ZM1065.96 2213.42C1128 2249.76 1201.97 2273.12 1282.23 2280.6C1303.03 2282.54 1324 2282.95 1344.89 2281.87C1322.01 2272.1 1300.37 2259.88 1280.43 2245.41C1248.07 2240.95 1218.29 2235.14 1192.1 2228.15C1157.8 2218.97 1129.65 2207.87 1107.9 2194.97C1094.4 2203.01 1080.41 2209.17 1065.96 2213.42ZM1385.66 2286.93C1397.08 2290.27 1408.73 2293 1420.55 2295.12C1477.01 2305.26 1536.04 2300.96 1591.24 2282.68C1624.59 2271.65 1653.96 2254.97 1679.05 2232.86C1631.75 2244.67 1568.01 2252.4 1499.32 2255.05C1496.63 2256.21 1493.93 2257.34 1491.21 2258.45C1457.3 2272.21 1421.76 2281.77 1385.66 2286.93ZM1481.01 2309.47C1460.19 2309.47 1439.41 2307.64 1418.95 2303.97C1400.25 2300.62 1381.97 2295.75 1364.31 2289.46C1336.72 2292.07 1308.94 2292.12 1281.39 2289.54C1196.48 2281.63 1118.43 2256.18 1053.7 2216.55C1038.31 2219.89 1022.43 2221.14 1006.1 2220.29C966.417 2218.23 928.848 2203.31 894.438 2175.91C861.727 2149.87 833.475 2113.93 810.467 2069.09C770.131 1990.47 750.171 1891.68 754.261 1790.9C758.794 1679.26 792.216 1571.96 850.913 1480.57C897.122 1408.63 948.173 1352.76 1002.64 1314.53C1049.82 1281.42 1100.92 1260.61 1154.53 1252.66C1169.51 1250.44 1184.31 1249.25 1198.92 1248.92C1245.64 1221 1299.39 1200.21 1355.86 1188.66C1421.93 1175.14 1522.4 1172.02 1625.85 1233.88C1733.38 1298.2 1819.42 1417.9 1881.57 1589.66C1885.12 1599.49 1888.41 1609.28 1891.45 1619.05C1905.71 1626.43 1921.1 1634.72 1938.29 1643.98L1939.42 1644.59C1993.13 1673.53 2076.94 1696.69 2163.6 1706.55C2235.84 1714.75 2343.15 1717.62 2444.08 1684.64C2538.39 1653.82 2605.03 1598.73 2642.14 1520.9L2650.25 1524.76C2612.05 1604.91 2543.62 1661.58 2446.87 1693.18C2344.41 1726.67 2235.71 1723.8 2162.58 1715.48C2074.84 1705.5 1989.83 1681.97 1935.15 1652.5L1934.03 1651.91C1919.88 1644.27 1907.01 1637.34 1895.06 1631.06C1920.04 1717.28 1924.88 1801.53 1909.39 1882.08C1893.76 1963.47 1857.51 2037.44 1804.58 2096.02C1789.19 2113.05 1772.65 2128.45 1755.27 2142C1754.06 2144.66 1752.82 2147.29 1751.56 2149.9C1757.74 2161.67 1761.43 2173.02 1760.78 2182.83C1759.71 2198.93 1741.42 2213.11 1706.4 2224.93C1703.51 2225.91 1700.54 2226.86 1697.45 2227.79C1668.92 2256.68 1634.42 2277.86 1594.08 2291.22C1557.43 2303.35 1519.16 2309.47 1481.01 2309.47Z" fill="#2A468A"/>
<path d="M1139.05 902.631C1164.19 804.89 1206.7 719.892 1321.77 719.892C1422.69 719.892 1514.23 808.797 1507.58 918.36C1501.46 1019.1 1413.98 1104.43 1306.9 1092.43C1206.61 1081.2 1110.25 1014.54 1139.05 902.631Z" fill="#AFCDFB"/>
<path d="M1314.44 1042.28C1307.01 1042.28 1301.3 1040.2 1297.3 1036.03C1293.31 1031.87 1291.31 1026.69 1291.31 1020.49C1291.31 1017.34 1291.82 1014.41 1292.83 1011.71C1293.84 1009.01 1295.33 1006.65 1297.3 1004.62C1299.27 1002.59 1301.69 1001.02 1304.56 999.891C1307.44 998.767 1310.73 998.202 1314.44 998.202C1318.16 998.202 1321.45 998.767 1324.32 999.891C1327.19 1001.02 1329.61 1002.59 1331.58 1004.62C1333.55 1006.65 1335.07 1009.01 1336.14 1011.71C1337.21 1014.41 1337.75 1017.34 1337.75 1020.49C1337.75 1026.69 1335.72 1031.87 1331.67 1036.03C1327.61 1040.2 1321.87 1042.28 1314.44 1042.28ZM1332.51 967.973H1294.18C1294.18 959.981 1294.66 953.029 1295.61 947.118C1296.57 941.207 1298.15 935.803 1300.34 930.906C1302.54 926.009 1305.38 921.366 1308.87 916.975C1312.36 912.584 1316.64 907.912 1321.7 902.959C1325.53 899.242 1329.1 895.725 1332.43 892.403C1335.74 889.084 1338.67 885.678 1341.21 882.188C1343.74 878.697 1345.74 874.982 1347.2 871.041C1348.67 867.1 1349.4 862.711 1349.4 857.869C1349.4 847.287 1346.78 839.209 1341.55 833.637C1336.31 828.063 1328.63 825.277 1318.5 825.277C1314.44 825.277 1310.5 825.842 1306.67 826.965C1302.85 828.092 1299.41 829.895 1296.37 832.37C1293.34 834.847 1290.89 838 1289.03 841.826C1287.17 845.656 1286.24 850.271 1286.24 855.675H1245.21C1245.32 845.093 1247.26 835.775 1251.03 827.725C1254.8 819.677 1259.98 812.923 1266.57 807.461C1273.15 802.001 1280.87 797.893 1289.7 795.132C1298.54 792.378 1308.14 790.997 1318.5 790.997C1329.87 790.997 1339.99 792.46 1348.89 795.387C1357.78 798.315 1365.33 802.593 1371.52 808.22C1377.71 813.851 1382.41 820.716 1385.62 828.823C1388.83 836.93 1390.43 846.107 1390.43 856.35C1390.43 863.78 1389.25 870.704 1386.88 877.121C1384.52 883.539 1381.37 889.564 1377.43 895.188C1373.49 900.819 1368.98 906.224 1363.92 911.403C1358.85 916.582 1353.62 921.704 1348.22 926.769C1342.02 932.401 1337.88 938.564 1335.8 945.261C1333.72 951.96 1332.62 959.53 1332.51 967.973Z" fill="#EFF4FD"/>
<path d="M1822.57 674.292L1658.6 721.421L1759.09 630.314L1768.11 653.786L1809.81 655.496L1822.57 674.292Z" fill="#E9BD95"/>
<path d="M1658.6 721.421L1787.82 630.286L1923.31 604.447L1658.6 721.421Z" fill="#F9DDBF"/>
<path d="M1759.09 630.314L1658.6 721.421L1728.09 591.21L1759.09 630.314Z" fill="#F9DDBF"/>
<path d="M3262.26 1349.51L3433.15 1373.84L3319.74 1296.57L3313.97 1321.36L3272.42 1328.89L3262.26 1349.51Z" fill="#EDCAAA"/>
<path d="M3433.15 1373.84L3290.94 1300.56L3151.55 1293.58L3433.15 1373.84Z" fill="#F9DDBF"/>
<path d="M3319.74 1296.57L3433.15 1373.84L3345.34 1253.06L3319.74 1296.57Z" fill="#F9DDBF"/>
<path d="M3212.01 1115.67C3198.91 1115.67 3185.59 1116.01 3172.01 1116.71C3019.53 1124.48 2896.38 1172.2 2806.01 1258.52C2710.67 1349.6 2652.39 1483.36 2632.78 1656.08C2618.49 1781.89 2660.08 1906.57 2749.86 2007.14C2854.88 2124.76 3012.66 2194.98 3171.91 2194.98C3360.32 2194.98 3502.43 2145.62 3594.33 2048.26C3637.9 2002.1 3669.87 1945 3689.37 1878.56C3708.5 1813.3 3715.79 1738.41 3711.02 1655.97C3706.51 1577.82 3693.93 1506.24 3673.62 1443.24C3651.38 1374.21 3619.65 1315.01 3579.35 1267.28C3494.31 1166.58 3370.84 1115.67 3212.01 1115.67ZM3171.91 2199.32C3011.44 2199.32 2852.46 2128.55 2746.64 2010.03C2656.02 1908.53 2614.05 1782.66 2628.48 1655.6L2630.63 1655.84L2628.48 1655.6C2648.2 1481.83 2706.93 1347.18 2803.02 1255.39C2894.16 1168.33 3018.24 1120.21 3171.8 1112.38C3351.44 1103.22 3489.68 1154.39 3582.66 1264.49C3623.33 1312.64 3655.31 1372.34 3677.74 1441.91C3698.16 1505.26 3710.8 1577.2 3715.35 1655.71C3720.13 1738.66 3712.79 1814.05 3693.52 1879.78C3673.83 1946.89 3641.52 2004.57 3597.49 2051.23C3504.74 2149.49 3361.55 2199.32 3171.91 2199.32Z" fill="#2A468A"/>
<path d="M3212.01 1118.67C3199.03 1118.67 3185.63 1119.01 3172.17 1119.7C3020.42 1127.44 2897.91 1174.87 2808.09 1260.69C2713.26 1351.27 2655.29 1484.41 2635.75 1656.42C2621.57 1781.38 2662.9 1905.23 2752.1 2005.14C2856.57 2122.13 3013.5 2191.98 3171.91 2191.98C3359.45 2191.98 3500.85 2142.93 3592.15 2046.2C3635.39 2000.4 3667.14 1943.7 3686.48 1877.71C3705.52 1812.79 3712.77 1738.24 3708.03 1656.14C3703.53 1578.25 3691 1506.92 3670.78 1444.16C3648.64 1375.5 3617.11 1316.64 3577.05 1269.21C3492.69 1169.32 3369.87 1118.67 3212.01 1118.67ZM3171.91 2202.3C3010.61 2202.3 2850.79 2131.16 2744.4 2012.02C2653.91 1910.67 2611.64 1785.14 2625.18 1658.23H2625.16L2625.84 1652.29C2645.98 1479.24 2704.88 1344.99 2800.95 1253.22C2892.63 1165.65 3017.35 1117.25 3171.64 1109.39C3352.29 1100.18 3491.35 1151.71 3584.94 1262.55C3625.86 1311.01 3658.05 1371.05 3680.6 1441.01C3701.09 1504.58 3713.79 1576.76 3718.34 1655.54C3723.15 1738.83 3715.76 1814.56 3696.39 1880.62C3676.58 1948.19 3644.03 2006.29 3599.67 2053.3C3506.33 2152.18 3362.41 2202.3 3171.91 2202.3Z" fill="#2A468A"/>
<path d="M2639.7 1423.32L2641.54 1424.47C2574.54 1531.9 2558.49 1662.34 2596.31 1791.75C2640.54 1943.11 2752.78 2074.36 2896.55 2142.83C3066.65 2223.86 3216.19 2240.41 3341.02 2192.02C3400.2 2169.1 3453.61 2131.29 3499.79 2079.68C3545.11 2029 3583.89 1964.53 3615.06 1888.05C3644.58 1815.54 3663.99 1745.52 3672.76 1679.91C3682.36 1608.01 3679.17 1540.92 3663.31 1480.5C3627.07 1342.5 3525.13 1237.83 3360.32 1169.39C3219.29 1110.83 3087.61 1100.96 2968.9 1140.03C2843.66 1181.25 2733.52 1276.95 2641.54 1424.47L2639.7 1423.32ZM3191.23 2223.42C3101.12 2223.42 3001.94 2197.83 2894.69 2146.74C2749.82 2077.74 2636.72 1945.49 2592.14 1792.97C2553.97 1662.36 2570.21 1530.68 2637.86 1422.17C2730.39 1273.78 2841.32 1177.47 2967.54 1135.92C3087.27 1096.51 3219.97 1106.43 3361.97 1165.39C3528.11 1234.38 3630.9 1340.03 3667.5 1479.41C3683.5 1540.37 3686.72 1608.02 3677.05 1680.48C3668.24 1746.45 3648.73 1816.84 3619.07 1889.68C3587.72 1966.63 3548.68 2031.52 3503 2082.57C3456.39 2134.69 3402.41 2172.88 3342.58 2196.07C3295.51 2214.31 3244.97 2223.42 3191.23 2223.42Z" fill="#2A468A"/>
<path d="M2644.08 1426.05C2577.54 1532.76 2561.6 1662.33 2599.18 1790.91C2643.17 1941.45 2754.82 2072 2897.84 2140.13C3067.16 2220.78 3215.91 2237.31 3339.93 2189.24C3398.68 2166.47 3451.7 2128.94 3497.55 2077.68C3542.65 2027.26 3581.26 1963.07 3612.28 1886.92C3641.71 1814.65 3661.06 1744.87 3669.78 1679.52C3679.33 1608.01 3676.18 1541.3 3660.41 1481.26C3624.42 1344.22 3523.07 1240.22 3359.16 1172.16C3218.82 1113.89 3087.83 1104.04 2969.83 1142.88C2845.28 1183.88 2735.69 1279.15 2644.08 1426.05ZM3191.23 2226.42C3100.83 2226.42 3000.63 2200.52 2893.4 2149.45C2747.77 2080.08 2634.08 1947.13 2589.27 1793.8C2550.85 1662.37 2567.21 1529.82 2635.33 1420.59C2728.24 1271.58 2839.69 1174.84 2966.6 1133.07C3087.03 1093.43 3220.44 1103.38 3363.12 1162.63C3530.17 1231.99 3633.55 1338.31 3670.39 1478.64C3686.51 1539.99 3689.75 1608.04 3680.02 1680.88C3671.19 1747.1 3651.6 1817.73 3621.84 1890.81C3590.36 1968.07 3551.14 2033.26 3505.24 2084.58C3458.3 2137.06 3403.94 2175.5 3343.67 2198.86C3296.49 2217.14 3245.2 2226.42 3191.23 2226.42Z" fill="#2A468A"/>
<path d="M3212.35 1096.96C3209.61 1096.96 3206.87 1096.98 3204.13 1097.03C3067.66 1099.37 2929.41 1160.21 2793.22 1277.85C2694.02 1363.53 2638.13 1487.56 2635.82 1627.11C2633.13 1790.33 2703.86 1954.53 2825.01 2066.35C2968.34 2198.64 3111.11 2260.88 3249.38 2251.34C3314.94 2246.81 3379.35 2225.82 3440.81 2188.97C3501.19 2152.76 3559.31 2100.9 3613.57 2034.83C3665.01 1972.2 3705.69 1908.92 3734.46 1846.75C3766.01 1778.6 3783.44 1711.29 3786.29 1646.68C3792.79 1499.12 3724.1 1364.36 3582.14 1246.13C3463.24 1147.12 3338.87 1096.96 3212.35 1096.96ZM3221.71 2256.78C3090.95 2256.78 2956.63 2193.94 2821.96 2069.64C2699.9 1956.98 2628.63 1791.52 2631.35 1627.04C2633.66 1486.21 2690.11 1360.98 2790.29 1274.45L2791.75 1276.15L2790.29 1274.45C2927.3 1156.11 3066.51 1094.91 3204.05 1092.55C3334.46 1090.3 3462.68 1140.82 3585 1242.69C3728.11 1361.86 3797.33 1497.84 3790.78 1646.88C3787.9 1712.07 3770.33 1779.95 3738.54 1848.63C3709.6 1911.16 3668.72 1974.77 3617.04 2037.68C3562.44 2104.15 3503.94 2156.33 3443.12 2192.8C3381.03 2230.04 3315.96 2251.24 3249.69 2255.82C3240.39 2256.45 3231.06 2256.78 3221.71 2256.78Z" fill="#2A468A"/>
<path d="M3212.35 1099.96C3209.62 1099.96 3206.91 1099.98 3204.18 1100.03C3068.44 1102.36 2930.82 1162.95 2795.17 1280.11C2696.64 1365.23 2641.11 1488.48 2638.83 1627.17C2636.15 1789.56 2706.51 1952.9 2827.05 2064.15C2960.26 2187.11 3092.9 2249.29 3221.73 2249.29C3230.9 2249.29 3240.03 2248.98 3249.17 2248.35C3314.26 2243.85 3378.21 2223.01 3439.27 2186.39C3499.35 2150.35 3557.22 2098.72 3611.25 2032.94C3662.53 1970.51 3703.07 1907.44 3731.75 1845.49C3763.12 1777.7 3780.47 1710.77 3783.3 1646.55C3789.76 1499.98 3721.42 1366.03 3580.21 1248.43C3461.91 1149.91 3338.14 1099.96 3212.35 1099.96ZM3221.71 2259.77C3090.23 2259.78 2955.05 2196.56 2819.94 2071.85C2697.25 1958.61 2625.63 1792.32 2628.35 1627C2630.67 1486.35 2686.64 1361.17 2786.07 1274.15L2786.06 1274.14L2790.6 1270.22V1270.23C2927.42 1152.69 3066.5 1091.91 3204 1089.55C3335.16 1087.28 3464.02 1138.04 3586.92 1240.38C3730.78 1360.19 3800.38 1497 3793.76 1647.02C3790.88 1712.6 3773.2 1780.86 3741.26 1849.89C3712.21 1912.65 3671.2 1976.47 3619.35 2039.58C3564.55 2106.31 3505.78 2158.72 3444.66 2195.38C3382.16 2232.85 3316.64 2254.2 3249.89 2258.8C3240.57 2259.44 3231.08 2259.77 3221.71 2259.77Z" fill="#2A468A"/>
<path d="M2900.38 1140.28L2901.02 1142.43C2775.34 1179.66 2673.33 1269.67 2613.76 1395.9C2544.11 1543.52 2540.94 1722.28 2605.3 1874.06C2681.43 2053.65 2785.91 2169.17 2915.84 2217.4C2977.45 2240.28 3044.77 2247.67 3115.98 2239.4C3185.9 2231.26 3260.22 2207.95 3336.87 2170.09C3409.53 2134.21 3472.66 2093.29 3524.49 2048.48C3581.3 1999.36 3624.9 1945.22 3654.1 1887.51C3720.79 1755.71 3713.68 1604.63 3633 1438.42C3563.96 1296.21 3468.72 1198.13 3349.92 1146.88C3224.6 1092.81 3073.56 1091.31 2901.02 1142.43L2900.38 1140.28ZM3060.32 2247.16C3009.02 2247.16 2960.09 2238.63 2914.28 2221.6C2783.15 2172.92 2677.81 2056.58 2601.18 1875.82C2536.33 1722.88 2539.51 1542.75 2609.71 1393.98C2669.82 1266.59 2772.83 1175.73 2899.74 1138.13C3073.33 1086.71 3225.39 1088.27 3351.71 1142.76C3471.51 1194.45 3567.51 1293.26 3637.03 1436.46C3718.36 1603.99 3725.44 1756.42 3658.1 1889.54C3628.64 1947.76 3584.67 2002.38 3527.43 2051.87C3475.3 2096.93 3411.86 2138.06 3338.85 2174.11C3261.74 2212.2 3186.94 2235.67 3116.49 2243.85C3097.49 2246.06 3078.76 2247.16 3060.32 2247.16Z" fill="#2A468A"/>
<path d="M2901.86 1145.3C2777.02 1182.29 2675.67 1271.74 2616.48 1397.18C2547.17 1544.05 2544.03 1721.88 2608.06 1872.9C2683.87 2051.68 2787.77 2166.65 2916.89 2214.6C2978.04 2237.31 3044.9 2244.64 3115.63 2236.42C3185.21 2228.33 3259.2 2205.11 3335.54 2167.4C3407.98 2131.63 3470.89 2090.85 3522.53 2046.2C3579.04 1997.35 3622.41 1943.5 3651.43 1886.15C3717.67 1755.25 3710.56 1605.05 3630.29 1439.73C3561.58 1298.19 3466.85 1200.59 3348.73 1149.63C3224.08 1095.85 3073.72 1094.39 2901.86 1145.3ZM3060.32 2250.17C3008.73 2250.17 2959.24 2241.5 2913.23 2224.42C2781.31 2175.43 2675.39 2058.54 2598.42 1876.99C2533.24 1723.27 2536.45 1542.24 2607.01 1392.71C2667.48 1264.53 2771.15 1173.1 2898.89 1135.26C3073.18 1083.63 3225.92 1085.23 3352.88 1140.01C3473.38 1191.99 3569.88 1291.29 3639.72 1435.14C3721.49 1603.56 3728.57 1756.9 3660.78 1890.88C3631.14 1949.46 3586.92 2004.39 3529.38 2054.13C3477.08 2099.36 3413.41 2140.64 3340.18 2176.8C3262.77 2215.03 3187.63 2238.6 3116.85 2246.82C3097.82 2249.05 3078.8 2250.17 3060.32 2250.17Z" fill="#2A468A"/>
<path d="M2662 1655.84L2664.16 1656.08C2649.87 1781.89 2718.6 1894.2 2808.4 1994.76C2913.42 2112.37 3044.04 2194.98 3203.28 2194.98C3391.69 2194.98 3533.81 2145.62 3625.71 2048.26C3669.27 2002.1 3701.25 1945 3720.73 1878.56C3739.87 1813.3 3747.16 1738.41 3742.39 1655.97C3737.88 1577.82 3725.3 1506.24 3705 1443.24C3682.74 1374.21 3651.02 1315.01 3610.73 1267.28C3518.66 1158.28 3381.63 1107.62 3203.39 1116.71C3050.89 1124.48 2927.76 1172.2 2837.38 1258.52C2742.05 1349.6 2683.77 1483.36 2664.16 1656.08L2662 1655.84ZM3203.28 2199.32C3042.82 2199.32 2907 2115.06 2801.18 1996.55C2710.56 1895.05 2645.42 1782.66 2659.85 1655.6C2679.58 1481.83 2738.31 1347.18 2834.4 1255.39C2925.54 1168.33 3049.62 1120.21 3203.18 1112.38C3382.83 1103.22 3521.05 1154.39 3614.02 1264.49C3654.7 1312.64 3686.69 1372.34 3709.12 1441.91C3729.54 1505.26 3742.18 1577.2 3746.73 1655.71C3751.51 1738.66 3744.16 1814.05 3724.89 1879.78C3705.21 1946.89 3672.9 2004.57 3628.85 2051.23C3536.12 2149.49 3392.93 2199.32 3203.28 2199.32Z" fill="#2A468A"/>
<path d="M2696.71 1840.56C2720.13 1889.98 2755.1 1940.43 2803.42 1994.55C2824.02 2017.62 2845.26 2038.83 2867.05 2058.11C2846.37 2039.51 2826.06 2019.05 2806.16 1996.76C2757.28 1942.02 2720.99 1890.4 2696.71 1840.56ZM2667.13 1656.42C2655.07 1762.72 2700.66 1869.59 2810.64 1992.76C2928.67 2124.96 3060.78 2191.98 3203.28 2191.98C3390.83 2191.98 3532.23 2142.93 3623.53 2046.2C3666.77 2000.4 3698.51 1943.7 3717.86 1877.71C3736.9 1812.79 3744.15 1738.24 3739.41 1656.14C3734.9 1578.25 3722.37 1506.92 3702.14 1444.16C3680.01 1375.5 3648.47 1316.64 3608.43 1269.21C3517.02 1160.97 3380.81 1110.65 3203.54 1119.7C3051.78 1127.44 2929.29 1174.87 2839.45 1260.69C2744.64 1351.26 2686.66 1484.41 2667.13 1656.42ZM3203.28 2202.3C3126.59 2202.3 3051.59 2183.03 2980.34 2145.01C2916.21 2110.8 2855.18 2061.53 2798.94 1998.54C2748.22 1941.72 2712.06 1888.84 2688.4 1836.89C2660.31 1775.22 2650 1715.81 2656.88 1655.26C2676.69 1480.78 2735.72 1345.51 2832.33 1253.22C2924.01 1165.65 3048.73 1117.25 3203.02 1109.39C3383.67 1100.19 3522.71 1151.71 3616.32 1262.55C3657.24 1311.01 3689.42 1371.05 3711.97 1441.01C3732.47 1504.58 3745.17 1576.77 3749.71 1655.54C3754.53 1738.83 3747.14 1814.56 3727.77 1880.62C3707.96 1948.19 3675.41 2006.29 3631.03 2053.3C3537.71 2152.18 3393.79 2202.3 3203.28 2202.3Z" fill="#2A468A"/>
<path d="M3096.98 1897.95C3096.71 1898.42 3096.44 1898.9 3096.16 1899.39C3089.65 1910.71 3074.71 1938.43 3058.26 1968.78C3050.48 1983.18 3042.33 1998.17 3034.61 2012.28C3021.29 2036.6 3009.17 2058.28 3002.1 2069.74C2994.91 2081.39 2989.63 2089.56 2987.47 2092.85L2987.46 2092.86C2986.82 2093.87 2986.68 2095.06 2986.76 2096.23C2987.52 2106.51 2987.3 2116.71 2986.3 2126.76C2976.37 2225.48 2909.79 2278.39 2909.79 2278.39L2890 2281.32C2890 2281.32 2918.02 2177.54 2926.28 2118.87C2927.66 2108.93 2928.27 2100.86 2927.79 2095.61C2926.32 2080.33 2929.04 2057.89 2934.18 2032.12C2943.31 1986.34 2960.07 1930.14 2974.64 1885.15C2975.57 1882.27 3003.4 1781.58 3003.4 1781.58C3026.77 1802 3111.99 1810.43 3111.99 1810.43C3111.99 1810.43 3126.43 1845.56 3096.98 1897.95Z" fill="#F99746"/>
<path d="M2848.47 2306.37H2931.08C2931.08 2306.37 2933.06 2293.76 2928.74 2284.22C2924.6 2275.06 2918.71 2274.76 2927.99 2260.39C2922.74 2265.8 2905.86 2268.04 2893.92 2266.42C2892.46 2268.8 2884.49 2284.72 2879.59 2288.23C2874.2 2292.11 2850.13 2290.72 2848.47 2306.37Z" fill="#2357A5"/>
<path d="M3096.98 1897.95C3096.71 1898.42 3096.44 1898.9 3096.16 1899.39C3089.65 1910.71 3054.43 1975.75 3037.99 2006.09C3057.05 1927.66 3043.78 1849.23 3043.78 1849.23L3096.98 1897.95Z" fill="#ED7C2A"/>
<path d="M2778.13 1510.53C2778.13 1510.53 2774.85 1474.88 2814.69 1474.88C2814.69 1474.88 2802.62 1478.16 2796.38 1484.7C2796.38 1484.7 2821.78 1469.79 2849.42 1492.7C2877.07 1515.62 2859.88 1573.09 2868.29 1584.01C2876.7 1594.93 2909.44 1597.11 2905.43 1632.38C2901.44 1667.67 2801.55 1711.86 2807.96 1741.06C2807.96 1741.06 2768.81 1683.51 2796.8 1657.24C2796.8 1657.24 2783.15 1670.09 2781.76 1685.37C2781.76 1685.37 2778.07 1655.54 2797.04 1646C2813.84 1637.56 2827.6 1606.68 2826.14 1601.17C2824.68 1595.65 2778.13 1510.53 2778.13 1510.53Z" fill="#1F2D4F"/>
<path d="M2834.34 1660.22C2834.34 1660.22 2777.69 1803.21 2765.47 1797.91C2753.26 1792.61 2681.29 1769.76 2681.29 1769.76C2681.29 1769.76 2683.87 1790.14 2685.03 1791.07C2695.56 1799.41 2748.53 1840.28 2780.28 1842.36C2815.52 1844.67 2863.24 1740.84 2863.24 1740.84L2834.34 1660.22Z" fill="#FFB17C"/>
<path d="M2789.4 1505.52C2788.86 1503.35 2836.58 1527.09 2839 1529.78C2861.38 1554.6 2855 1587 2842.2 1587.31C2833.99 1587.51 2835.57 1601.17 2835.57 1601.17L2744.07 1562.46C2744.07 1562.46 2755.09 1498.21 2789.4 1505.52Z" fill="#1F2D4F"/>
<path d="M2820.15 1663.19C2820.15 1663.19 2807.96 1675.82 2807.96 1713.59C2807.96 1713.59 2824.75 1740.09 2868.29 1746.81C2868.29 1746.81 2830.86 1663.18 2820.15 1663.19Z" fill="#1C4689"/>
<path d="M3032.58 1816.57L3032.3 1801.12C3063.08 1805 3138.44 1764.34 3138.44 1764.34C3138.44 1764.34 3170.65 1785.76 3175.06 1846.93C3177.21 1876.79 3190.82 2003.07 3192.33 2040.78C3192.87 2054.45 3193.05 2064.2 3193.12 2068.1L3193.11 2068.12C3193.14 2069.31 3193.69 2070.38 3194.43 2071.31C3200.8 2079.41 3206.32 2087.99 3211.11 2096.88C3258.07 2184.28 3233.52 2303.04 3233.52 2303.04L3222.6 2300.26C3222.6 2300.26 3182.89 2177.16 3156.93 2123.9C3152.53 2114.87 3148.52 2107.84 3145.17 2103.78C3135.41 2091.93 3125.12 2071.79 3114.98 2047.56C3095.79 2001.76 3032.58 1816.57 3032.58 1816.57Z" fill="#F99746"/>
<path d="M3167.82 2306.37H3250.43C3250.43 2306.37 3252.41 2293.76 3248.09 2284.22C3243.96 2275.06 3237.48 2270.88 3239.03 2259.79C3233.79 2265.2 3225.24 2271.25 3213.29 2269.65C3211.83 2272.01 3203.84 2284.72 3198.96 2288.23C3193.55 2292.11 3169.48 2290.72 3167.82 2306.37Z" fill="#2357A5"/>
<path d="M2873.87 1764.55C2884.97 1766.43 2872.06 1775.25 2887.32 1776.91C2909.04 1779.29 2931.47 1780.9 2943.22 1785.59C2947.5 1787.3 2950.38 1789.41 2951.27 1792.12C2956.36 1807.43 2978.81 1831.06 2978.81 1831.06C3122.65 1824.5 3138.44 1764.34 3138.44 1764.34C3045.09 1673.66 2959.24 1620.19 2893.7 1613.11C2882.48 1611.9 2868.29 1619.03 2858.2 1623.52C2835.23 1633.74 2820.15 1663.19 2820.15 1663.19C2820.15 1663.19 2831.71 1757.36 2873.87 1764.55Z" fill="#1C4689"/>
<path d="M2887.32 1776.91C2909.04 1779.29 2931.47 1780.9 2943.22 1785.59C2948.02 1713.86 2914.17 1659.88 2914.17 1659.88C2914.17 1659.88 2892.08 1749.77 2887.32 1776.91Z" fill="#153460"/>
<path d="M2868.58 1647.74C2868.58 1647.74 2923.2 1644.75 2932.92 1679.05C2942.62 1713.35 2914.71 1850.24 2908.69 1864.38C2897.73 1890.11 2844.41 1963.52 2844.41 1963.52L2829.71 1955.96C2829.71 1955.96 2860.36 1845.39 2868.29 1834.29C2880.75 1816.87 2852.24 1662.67 2868.58 1647.74Z" fill="#FFB17C"/>
<path d="M2833.59 1945.71C2833.59 1945.71 2829.03 1961.83 2820.12 1970.73C2816.02 1974.84 2812.36 1987.19 2812.17 1993.54C2812.17 1993.54 2811.5 1998.8 2813.79 1998.29C2816.09 1997.78 2818.65 1986.36 2822.74 1986.93C2822.74 1986.93 2820.56 1999.67 2818.4 2003.26C2816.23 2006.85 2814.96 2017.96 2818.03 2019.3C2825.48 2022.59 2836.49 2008.54 2843.03 1999.73C2849.59 1990.91 2843.15 1955.16 2843.15 1955.16L2833.59 1945.71Z" fill="#FFB17C"/>
<path d="M2943.69 1724.91C2943.55 1725.72 2892 1734.4 2859.75 1718.03C2859.75 1718.03 2832.81 1633.65 2871.31 1637.69C2909.81 1641.72 2932.59 1653.85 2933.57 1672.28C2934.53 1690.7 2943.69 1724.91 2943.69 1724.91Z" fill="#1C4689"/>
<path d="M2858.2 1623.51C2858.2 1623.51 2843 1680.18 2820.15 1663.19C2820.79 1660.46 2816.81 1652.5 2812.11 1644.43C2806.09 1634.11 2798.94 1623.56 2798.94 1623.56L2829.86 1596.47L2831.71 1594.84C2841.18 1611.38 2850.47 1617.88 2858.2 1623.51Z" fill="#FFB17C"/>
<path d="M2798.94 1623.56C2798.94 1623.56 2806.09 1634.09 2812.09 1644.43C2831.32 1632.58 2831.34 1608.79 2829.86 1596.47L2798.94 1623.56Z" fill="#ED975E"/>
<path d="M2798.09 1637.14C2798.09 1637.14 2844.75 1611.17 2828.14 1582.37C2811.51 1553.55 2806.35 1530.79 2775.86 1546.16C2745.36 1561.52 2745.97 1575.82 2749.17 1586.78C2752.38 1597.76 2785.52 1643.15 2798.09 1637.14Z" fill="#FFB17C"/>
<path d="M2741.28 1569.99C2743.42 1557.19 2749.92 1555.97 2754.45 1556.82C2771.68 1528.33 2799.83 1539.45 2799.83 1539.45C2814.87 1558.32 2836.62 1561.54 2836.62 1561.54C2836.62 1561.54 2831.2 1571.62 2808.9 1577.85C2802.07 1579.76 2794.34 1578.6 2786.88 1576.09C2802.37 1584.72 2818.55 1588.03 2818.55 1588.03C2789.14 1590.72 2761.18 1563.84 2758.28 1560.97C2756.92 1565.13 2754.54 1573.86 2755.97 1580.23C2757.89 1588.89 2765.6 1604.58 2760.9 1606.61C2760.9 1606.61 2738.08 1589.16 2741.28 1569.99Z" fill="#1F2D4F"/>
<path d="M2691.36 1776.26C2691.36 1776.26 2683.02 1779.95 2674.54 1771.32C2670.2 1766.9 2662.44 1764.51 2666.45 1762.14C2670.47 1759.78 2681.16 1764.63 2683.67 1765.48C2686.19 1766.35 2691.36 1776.26 2691.36 1776.26Z" fill="#FFB17C"/>
<path d="M3003.8 828.657C3028.86 731.246 3071.23 646.536 3185.9 646.536C3286.49 646.536 3377.7 735.141 3371.08 844.331C3364.99 944.73 3277.8 1029.77 3171.08 1017.82C3071.13 1006.62 2975.1 940.191 3003.8 828.657Z" fill="#AFCDFB"/>
<path d="M3185.02 977.057C3176.68 977.057 3170.23 974.716 3165.68 970.038C3161.14 965.362 3158.86 959.543 3158.86 952.588C3158.86 949.048 3159.45 945.759 3160.66 942.723C3161.86 939.692 3163.56 937.034 3165.78 934.757C3167.99 932.481 3170.71 930.711 3173.94 929.447C3177.15 928.187 3180.86 927.551 3185.02 927.551C3189.2 927.551 3192.9 928.187 3196.12 929.447C3199.35 930.711 3202.07 932.481 3204.28 934.757C3206.49 937.034 3208.2 939.692 3209.41 942.723C3210.6 945.759 3211.2 949.048 3211.2 952.588C3211.2 959.543 3208.93 965.362 3204.38 970.038C3199.82 974.716 3193.38 977.057 3185.02 977.057ZM3204.18 893.03H3164.55L3160.17 698.228H3208.74L3204.18 893.03Z" fill="#EFF4FD"/>
<path d="M1810.3 1029.76C1866.57 811.037 1961.7 620.828 2219.21 620.828C2445.04 620.828 2649.87 819.779 2634.99 1064.95C2621.3 1290.38 2425.56 1481.33 2185.92 1454.49C1961.48 1429.35 1745.87 1280.19 1810.3 1029.76Z" fill="#AFCDFB"/>
<path d="M2392.79 1004.6C2393.03 1046.63 2378.28 1085.21 2353.57 1115.3C2332.29 1141.21 2320.31 1173.51 2320.31 1207.05V1255.39C2320.31 1269.06 2315.31 1281.63 2307.06 1291.36C2296.81 1303.46 2281.53 1311.17 2264.52 1311.17H2175.26C2144.58 1311.17 2119.49 1286.06 2119.49 1255.39V1207.13C2119.49 1173.66 2107.67 1141.35 2086.38 1115.51C2061.79 1085.64 2047.01 1047.37 2047.01 1005.64C2047.01 923.099 2104.85 854.059 2182.21 836.869C2184.41 836.376 2186.63 835.933 2188.87 835.531C2190.04 835.314 2191.23 835.114 2192.44 834.92C2201.37 833.483 2210.55 832.738 2219.89 832.738C2315.26 832.738 2392.23 909.236 2392.79 1004.6Z" fill="#F9DDBF"/>
<path d="M2264.21 1311.17L2264.01 1312.65L2261.56 1331.45L2260.91 1336.41V1336.45L2260.26 1341.43L2257.83 1360.23L2257.17 1365.18L2257.16 1365.22L2256.52 1370.22L2256.16 1372.97C2254.92 1382.5 2244.02 1389.79 2230.98 1389.79H2201.6C2198.5 1389.79 2195.52 1389.38 2192.76 1388.62C2190.27 1387.94 2187.98 1386.98 2185.91 1385.78L2185.75 1385.68C2184.08 1384.7 2182.6 1383.56 2181.31 1382.29C2178.68 1379.7 2176.93 1376.58 2176.44 1373.14L2175.4 1365.86L2174.74 1361.27V1361.26L2174.72 1361.16V1361.15L2174.09 1356.66L2171.6 1339.23L2170.93 1334.66L2170.92 1334.56L2170.28 1330.04L2167.57 1311.17H2264.21Z" fill="#ED7C2A"/>
<path d="M2252.54 1311.17H2252.35H2235.95C2209.16 1318.91 2182.58 1326.57 2170.28 1330.04L2170.92 1334.56L2170.93 1334.66L2171.6 1339.23C2181.56 1336.47 2205.49 1329.62 2264.01 1312.65L2264.21 1311.17H2252.54Z" fill="#F99746"/>
<path d="M2174.72 1361.15V1361.16L2174.74 1361.26V1361.27L2175.4 1365.86C2186.93 1362.62 2210.72 1355.79 2260.26 1341.43L2260.91 1336.45V1336.41L2261.56 1331.45C2230.26 1340.52 2192.37 1351.46 2174.09 1356.66L2174.72 1361.15Z" fill="#F99746"/>
<path d="M2185.75 1385.68L2185.91 1385.78C2187.98 1386.98 2190.27 1387.94 2192.76 1388.62C2206.36 1384.73 2226.52 1378.9 2256.52 1370.22L2257.16 1365.22L2257.17 1365.18L2257.83 1360.23C2231.04 1367.98 2200.3 1376.86 2181.31 1382.29C2182.6 1383.56 2184.08 1384.7 2185.75 1385.68Z" fill="#F99746"/>
<path d="M2185.05 1311.82L2147.57 1090.62L2155.28 1089.31L2192.75 1310.51L2185.05 1311.82Z" fill="#ED7C2A"/>
<path d="M2251.26 1311.87L2243.57 1310.46L2283.41 1092.75L2291.11 1094.16L2251.26 1311.87Z" fill="#ED7C2A"/>
<path d="M2266.41 1100.2C2262.29 1104.15 2259.5 1109.21 2259.71 1113.11C2259.86 1115.94 2261.56 1117.96 2264.74 1119.13C2266.49 1119.77 2267.68 1119.3 2268.52 1117.66C2270.34 1114.03 2269.56 1106.25 2266.41 1100.2ZM2179.06 1098.68C2174.94 1102.37 2172.61 1107.57 2172.09 1112.33C2171.65 1116.37 2172.64 1119.65 2174.5 1120.31C2177.51 1121.37 2179.72 1120.69 2181.04 1118.28C2183.45 1113.88 2182.57 1105.43 2179.06 1098.68ZM2208.65 1106.18C2206.48 1108.88 2204.78 1111.73 2203.88 1114.4C2202.08 1119.7 2203.55 1123.28 2208.25 1125.05C2210.14 1125.76 2212.64 1126.32 2213.85 1124.96C2215.72 1122.85 2214.63 1116.87 2211.2 1110.41C2210.43 1108.98 2209.58 1107.56 2208.65 1106.18ZM2242.87 1106.35C2238.19 1113.19 2234.89 1120.91 2235.65 1125.06C2235.89 1126.37 2236.53 1127.11 2237.68 1127.37C2242.31 1128.42 2245.17 1127.07 2246.14 1123.34C2247.28 1119.04 2245.79 1112.33 2242.87 1106.35ZM2240.52 1130.09C2239.53 1130.09 2238.41 1129.96 2237.15 1129.67C2235.06 1129.2 2233.74 1127.75 2233.32 1125.48C2232.42 1120.6 2236.26 1111.63 2241.64 1104.04C2238.84 1099.12 2235.09 1095.07 2231.15 1093.88C2225.34 1092.12 2216.44 1097.48 2210.24 1104.33C2211.37 1105.94 2212.4 1107.61 2213.29 1109.3C2216.47 1115.3 2218.75 1122.98 2215.63 1126.52C2214.47 1127.84 2212.1 1129.03 2207.42 1127.26C2201.56 1125.05 2199.45 1120.09 2201.64 1113.64C2202.7 1110.49 2204.69 1107.2 2207.19 1104.15C2202.38 1097.89 2195.96 1093.13 2189.63 1093.92C2186.25 1094.35 2183.36 1095.53 2180.95 1097.2C2184.99 1104.73 2185.92 1114.29 2183.12 1119.41C2181.21 1122.91 2177.87 1124.01 2173.7 1122.54C2170.73 1121.47 2169.16 1117.37 2169.74 1112.07C2170.32 1106.65 2173.04 1100.71 2177.85 1096.59C2176.59 1094.63 2175.09 1092.9 2173.35 1091.55C2162.46 1083.09 2153.44 1092.17 2153.06 1092.56L2151.36 1090.91C2151.47 1090.8 2162.26 1079.94 2174.81 1089.68C2176.71 1091.16 2178.36 1093.04 2179.74 1095.16C2182.41 1093.34 2185.61 1092.05 2189.34 1091.57C2196.43 1090.68 2203.51 1095.69 2208.76 1102.35C2215.52 1095.01 2225.13 1089.59 2231.84 1091.62C2236.08 1092.9 2240.07 1096.99 2243.13 1102.03C2245.97 1098.34 2249.15 1095.12 2252.23 1093.08C2257.17 1089.81 2260.39 1090.56 2262.22 1091.76C2264.08 1092.99 2265.68 1094.65 2267.02 1096.56C2268.5 1095.38 2270.06 1094.37 2271.6 1093.6C2277.32 1090.75 2282.58 1090.96 2286.4 1094.19L2284.87 1095.99C2280.75 1092.51 2275.45 1094.33 2272.65 1095.72C2271.12 1096.48 2269.63 1097.46 2268.26 1098.56C2272.07 1105.43 2272.81 1114.39 2270.63 1118.72C2269.25 1121.45 2266.8 1122.4 2263.93 1121.35C2258.76 1119.46 2257.5 1115.89 2257.34 1113.24C2257.06 1108.16 2260.59 1102.38 2265.17 1098.13C2264 1096.35 2262.57 1094.83 2260.91 1093.74C2258.68 1092.27 2255.67 1093.64 2253.54 1095.05C2250.46 1097.09 2247.23 1100.44 2244.39 1104.25C2247.94 1111 2249.78 1118.87 2248.44 1123.95C2247.79 1126.41 2245.9 1130.09 2240.52 1130.09Z" fill="#ED7C2A"/>
<path d="M2309.14 899.228C2323.36 912.618 2321.57 937.259 2303.29 942.742C2289.51 946.875 2268.96 941.356 2258.79 923.762C2248.64 906.168 2253.32 891.707 2265.78 884.512C2278.24 877.316 2294.36 885.297 2309.14 899.228Z" fill="#FFEFE2"/>
<path d="M2216.1 800.221H2214.44C2211.41 800.221 2208.95 797.746 2208.95 794.72V726.591C2208.95 723.565 2211.41 721.09 2214.44 721.09H2216.1C2219.13 721.09 2221.61 723.565 2221.61 726.591V794.72C2221.61 797.746 2219.13 800.221 2216.1 800.221Z" fill="#FFEFE2"/>
<path d="M2422.19 879.442L2421.27 877.866C2419.78 875.286 2420.67 871.954 2423.25 870.465L2456.65 851.177C2459.24 849.688 2462.57 850.58 2464.06 853.161L2464.98 854.737C2466.46 857.318 2465.57 860.649 2462.98 862.139L2429.58 881.426C2427 882.916 2423.67 882.023 2422.19 879.442Z" fill="#FFEFE2"/>
<path d="M2445 974.723C2445 971.241 2447.84 968.394 2451.33 968.394H2535.8C2539.29 968.394 2542.13 971.241 2542.13 974.723C2542.13 978.204 2539.29 981.051 2535.8 981.051H2451.33C2447.84 981.051 2445 978.204 2445 974.723Z" fill="#FFEFE2"/>
<path d="M2326.94 828.779C2323.74 827.413 2322.24 823.676 2323.61 820.474L2368.44 715.346C2369.81 712.146 2373.55 710.644 2376.75 712.009C2379.95 713.374 2381.45 717.112 2380.09 720.314L2335.25 825.44C2333.88 828.642 2330.14 830.144 2326.94 828.779Z" fill="#FFEFE2"/>
<path d="M2016.83 879.442L2017.74 877.866C2019.23 875.286 2018.33 871.954 2015.76 870.465L1982.36 851.177C1979.78 849.688 1976.44 850.58 1974.95 853.161L1974.04 854.737C1972.56 857.318 1973.45 860.649 1976.03 862.139L2009.43 881.426C2012.01 882.916 2015.35 882.023 2016.83 879.442Z" fill="#FFEFE2"/>
<path d="M1994.01 974.723C1994.01 971.241 1991.16 968.394 1987.68 968.394H1903.2C1899.72 968.394 1896.88 971.241 1896.88 974.723C1896.88 978.204 1899.72 981.051 1903.2 981.051H1987.68C1991.16 981.051 1994.01 978.204 1994.01 974.723Z" fill="#FFEFE2"/>
<path d="M2112.07 828.779C2115.27 827.413 2116.77 823.676 2115.41 820.474L2070.57 715.346C2069.21 712.146 2065.47 710.644 2062.26 712.009C2059.06 713.374 2057.56 717.112 2058.93 720.314L2103.77 825.44C2105.13 828.642 2108.87 830.144 2112.07 828.779Z" fill="#FFEFE2"/>
<path d="M2052.76 1329.48C2052.84 1327.09 2054.7 1301.31 2093.95 1299.96C2093.95 1299.96 2074.65 1302.27 2071.3 1310.75C2071.3 1310.75 2084.46 1300.26 2095.16 1303.64C2105.87 1307.01 2112.15 1325.77 2112.21 1331.94C2112.28 1338.11 2106.33 1357.99 2099.54 1359.68C2096.96 1360.32 2094 1360.15 2091.31 1359.69C2093.11 1362.52 2094.89 1365.63 2096.58 1369.11C2112.25 1401.27 2096.1 1432.69 2082.83 1429.23C2074.32 1427 2071.91 1441.52 2071.91 1441.52L1989.28 1374.61C1989.28 1374.61 2019.64 1311.8 2052.76 1329.48Z" fill="#2B3A64"/>
<path d="M2023.98 2276.9L2041.53 2283.43C2041.53 2283.43 2117.78 2177.68 2127.16 2084.65C2128.83 2068.04 2128.28 2051.95 2124.66 2037.09C2124.66 2037.09 2125.39 2032.82 2126.7 2025.3C2127.3 2021.79 2128.04 2017.57 2128.89 2012.73C2131.37 1998.51 2134.78 1979.09 2138.67 1956.97C2147.65 1906.05 2159.28 1840.96 2168.3 1793.11L2163.57 1791.58L2112.39 1775.07L2101.82 1741.48L2063.71 1731.46C2063.71 1731.46 2055.2 1748.11 2047.6 1826.77C2046.2 1837.09 2044.91 1848.46 2043.96 1860.81C2040.99 1898.46 2040.78 1945.19 2047.59 1998.6C2049.33 2012.26 2051.54 2026.38 2054.27 2040.88C2056.28 2051.51 2056.58 2066 2055.74 2082.64C2051.89 2158.69 2023.98 2276.9 2023.98 2276.9Z" fill="#1C4689"/>
<path d="M2043.96 1860.81L2126.7 2025.3C2127.3 2021.79 2128.04 2017.57 2128.89 2012.73C2131.37 1998.51 2134.78 1979.09 2138.67 1956.97C2147.65 1906.05 2159.28 1840.96 2168.3 1793.11L2163.57 1791.58L2112.4 1775.07L2101.82 1741.48L2052.35 1714.04C2052.35 1714.04 2052.33 1721.7 2048.03 1805.4C2046.62 1815.71 2044.91 1848.46 2043.96 1860.81Z" fill="#153460"/>
<path d="M2080.35 1752.57L2082.28 1736.13C2114.36 1744.65 2203.82 1704.79 2203.82 1704.79C2203.82 1704.79 2231.19 1739.64 2227.11 1805.16C2225.12 1837.13 2221.48 1973 2217.68 2013.2C2216.31 2027.77 2215.11 2038.15 2214.61 2042.28L2214.6 2042.33C2214.46 2043.59 2214.89 2044.77 2215.53 2045.88C2221.12 2055.38 2225.77 2065.26 2229.56 2075.39C2266.87 2174.81 2223.81 2297.23 2223.81 2297.23L2212.64 2292.73C2212.64 2292.73 2188.15 2156.48 2168.24 2096.29C2164.85 2086.08 2161.63 2078.05 2158.65 2073.26C2150 2059.29 2141.96 2036.46 2134.68 2009.32C2120.9 1957.99 2109.8 1891.22 2102.43 1839.68C2096.14 1796.03 2080.35 1752.57 2080.35 1752.57Z" fill="#1C4689"/>
<path d="M1852.66 1693.31L1850.16 1712.18C1850.16 1712.18 1861.53 1710.67 1863.39 1710.54C1869.24 1710.15 1886.54 1709.03 1902.61 1707.3C1926.78 1704.91 1944.29 1704.34 1955.72 1697.3C1973.12 1686.68 2001.68 1654.13 2020.27 1621.59C2020.81 1620.8 2021.21 1619.99 2021.6 1619.2C2031.3 1601.92 2038.07 1584.79 2038.61 1571.11C2039.01 1562.74 2038.07 1555.56 2036.36 1549.33C2034.09 1541.09 2030.37 1534.58 2026.52 1529.66C2025.99 1528.87 2025.46 1528.08 2024.66 1527.41C2018.29 1519.84 2012.05 1516.65 2012.05 1516.65C2008.86 1515.32 1998.27 1528.16 1994.67 1532.01L1991.69 1540.92C1988.75 1543.98 1956.67 1647.13 1942.2 1663.21C1935.95 1670.12 1906.87 1680.96 1880.38 1688.31C1863.18 1693.08 1852.66 1693.31 1852.66 1693.31Z" fill="#F2A16B"/>
<path d="M2019.06 1553.32C2029.12 1558 2041.29 1561.17 2056.01 1561.98C2111.18 1565.01 2123.71 1516.64 2125.99 1484.53C2118.03 1481.65 2111.06 1481.93 2107.06 1482.14C2103.86 1482.31 2100.53 1482.61 2097.6 1482.95C2096.2 1483.1 2094.81 1482.72 2093.7 1481.86C2086.75 1476.41 2076.17 1459.88 2069.8 1433.87L2067.42 1434.97L2027.62 1453.69C2027.62 1453.69 2031.84 1466.65 2034.97 1479.04C2036.32 1484.42 2037.46 1489.69 2037.96 1493.77C2038.43 1497.62 2036.25 1501.3 2032.68 1502.82L2032.66 1502.86C2032.27 1503.88 2023.61 1525.94 2019.06 1553.32Z" fill="#FFB17C"/>
<path d="M2215.35 1722.75C2214.89 1743.17 2071.19 1761.25 2046.47 1747.56C2046.47 1747.56 2040.05 1716.62 2031.88 1681.85C2029.42 1671.39 2026.8 1660.6 2024.17 1650.18C2017.95 1625.71 2011.55 1603.39 2006.64 1592.8C2006.13 1591.7 2005.68 1590.62 2005.25 1589.52C1994.24 1560.32 2014.87 1529.11 2000.62 1519.88C2000.62 1519.88 2009.06 1512.09 2032.68 1502.82L2032.66 1502.86C2032.3 1504.25 2030.19 1523.62 2034.24 1531.21C2042.22 1546.19 2073.44 1538.36 2087.67 1519.86C2096.03 1509.05 2102.48 1498.1 2105.43 1487.86C2106.08 1485.55 2107.06 1482.14 2107.06 1482.14C2107.06 1482.14 2133.38 1478.57 2148.18 1484.56C2148.18 1484.56 2142.33 1497.26 2140.19 1511.25C2139.98 1512.59 2139.82 1513.93 2139.68 1515.26C2139.4 1518.08 2139.31 1520.91 2139.47 1523.64C2139.68 1527.3 2141.56 1530.51 2144.55 1533.68C2147.28 1536.57 2150.98 1539.42 2155.16 1542.48C2157.9 1544.45 2160.83 1546.53 2163.86 1548.78C2164.13 1565.27 2162.97 1592.38 2166.03 1621.31C2166.8 1628.65 2169.23 1635.66 2173.07 1641.88C2174.6 1644.37 2176.34 1646.71 2178.28 1648.9C2193.84 1666.33 2215.87 1720.37 2215.35 1722.75Z" fill="#F99746"/>
<path d="M2027.62 1453.69C2027.62 1453.69 2031.86 1466.64 2034.97 1479.05C2058.24 1472.56 2065.3 1448.1 2067.44 1434.99L2027.62 1453.69Z" fill="#ED975E"/>
<path d="M2022.72 1467.4C2022.72 1467.4 2078.38 1454.52 2069.83 1419.98C2061.28 1385.43 2062.7 1360.5 2026.79 1367.26C1990.89 1374.03 1987.27 1388.91 1987.32 1401.14C1987.38 1413.37 2008.01 1469.86 2022.72 1467.4Z" fill="#FFB17C"/>
<path d="M1984.2 1381.53C1990.17 1369 1997.22 1369.67 2001.63 1371.89C2027.79 1347.69 2053.45 1367.46 2053.45 1367.46C2063.32 1391.32 2084.73 1401.07 2084.73 1401.07C2084.73 1401.07 2076.17 1409.83 2051.38 1409.63C2043.81 1409.57 2036.2 1406.1 2029.26 1401.31C2042.63 1414.77 2058.31 1422.95 2058.31 1422.95C2027.27 1417.02 2006.47 1381.1 2004.33 1377.28C2001.7 1381.16 1996.67 1389.43 1996.25 1396.4C1995.68 1405.89 1998.94 1424.3 1993.51 1425.01C1993.51 1425.01 1975.22 1400.31 1984.2 1381.53Z" fill="#2B3A64"/>
<path d="M2000.62 1519.86C2000.62 1519.86 1995.68 1522.71 1986.65 1550.32C1986.65 1550.32 1997 1563.16 2009.61 1561.98C2009.61 1561.98 2011.3 1523.02 2000.62 1519.86Z" fill="#F99746"/>
<path d="M2158.87 2306.37H2247.28C2247.28 2306.37 2249.39 2292.89 2244.77 2282.66C2240.35 2272.86 2233.41 2268.4 2235.07 2256.52C2229.46 2262.31 2220.3 2268.79 2207.52 2267.07C2205.96 2269.61 2197.42 2283.2 2192.18 2286.95C2186.41 2291.1 2160.65 2289.63 2158.87 2306.37Z" fill="#2357A5"/>
<path d="M1969.04 2306.37H2057.46C2057.46 2306.37 2060.76 2292.26 2054.95 2282.66C2049.82 2274.18 2051.79 2269.34 2055.59 2262.31C2051.59 2263.96 2046.41 2265.44 2040.71 2265.12C2036.3 2264.86 2031.64 2262.87 2027.55 2260.5C2023.76 2264.84 2007.46 2283.3 2002.36 2286.95C1996.58 2291.1 1970.83 2289.63 1969.04 2306.37Z" fill="#2357A5"/>
<path d="M1889.2 1631.2C1889.2 1631.2 1881.46 1620.75 1876.6 1618.56C1871.76 1616.38 1867.17 1602.88 1864.49 1607C1862.85 1609.52 1866.98 1618.86 1865.94 1620.97C1864.87 1623.08 1854.18 1618.62 1852.32 1615.63C1851.06 1613.62 1840.04 1600.32 1839.78 1606.45C1839.53 1612.58 1849.16 1636.1 1853.9 1639.11C1858.64 1642.11 1876.6 1646.14 1876.6 1646.14L1889.2 1631.2Z" fill="#FFB17C"/>
<path d="M2130.15 1573.87C2110.16 1622.78 2033.22 1683.35 2033.22 1683.35L2031.88 1681.85C2029.42 1671.39 2026.8 1660.6 2024.17 1650.18L2106.12 1573.87H2130.15Z" fill="#ED7C2A"/>
<path d="M1879.1 1632.19L1876.6 1646.14C1876.6 1646.14 1920.58 1656.2 1930.28 1658.32L1930.39 1658.38C1947.14 1661.7 1966.03 1665.13 1982.5 1666.86C1994.12 1667.98 2004.53 1668.23 2012.16 1667.21C2012.94 1667.13 2013.58 1666.99 2014.41 1666.79C2033.24 1663.04 2063.91 1640.59 2091.82 1614.25C2095.69 1610.62 2099.44 1606.93 2103.12 1603.37C2116.6 1589.97 2128.76 1576.26 2137.99 1563.84C2143.57 1556.48 2148.23 1549.54 2151.3 1543.51C2152.42 1541.39 2153.49 1539.39 2154.26 1537.41C2170.12 1502.31 2154.97 1489.48 2154.97 1489.48C2154.66 1489.19 2154.36 1488.9 2153.94 1488.56C2151.13 1486.69 2147.06 1487.3 2141.96 1489.77C2135.59 1492.83 2127.52 1498.92 2118.55 1506.64C2104.51 1519.04 2020.27 1621.59 2000.62 1625.5C1983.56 1628.88 1879.1 1632.19 1879.1 1632.19Z" fill="#FFB17C"/>
<path d="M2146.07 1483.8C2146.07 1483.8 2163.24 1488.61 2164.74 1506.6C2166.23 1524.58 2163.89 1580.23 2163.89 1580.23C2163.89 1580.23 2107.79 1564.14 2084.94 1529.82C2084.94 1529.82 2126.14 1484.24 2146.07 1483.8Z" fill="#F99746"/>
<path d="M4321.23 2323.3H233.56C230.373 2323.3 227.765 2320.68 227.765 2317.5V2312.16C227.765 2308.97 230.373 2306.37 233.56 2306.37H4321.23C4324.43 2306.37 4327.03 2308.97 4327.03 2312.16V2317.5C4327.03 2320.68 4324.43 2323.3 4321.23 2323.3Z" fill="#2D3452"/>
</g>
<defs>
<clipPath id="clip0_148_16963">
<rect width="4531" height="2832" fill="white"/>
</clipPath>
</defs>
</svg>
