<svg width="4256" height="2832" viewBox="0 0 4256 2832" fill="none" xmlns="http://www.w3.org/2000/svg">
<g clip-path="url(#clip0_146_16415)">
<path fill-rule="evenodd" clip-rule="evenodd" d="M0 0H4256V2832H0V0Z" fill="white"/>
<path d="M4256 2832H0V-1.14441e-05H4256V2832Z" fill="white"/>
<path d="M3981.45 2219.96C3978.06 2264.21 3970.58 2304.99 3960.76 2342.02C3942.65 2410.4 3903.66 2468.84 3851.72 2511.38C3794.55 2558.2 3721.69 2585.72 3643.75 2585.81H3641.99C3568.94 2585.53 3479.2 2585.13 3376.81 2584.68C3373.65 2584.67 3370.45 2584.65 3367.26 2584.64C3300.76 2584.36 3229.06 2584.03 3153.26 2583.68C3130.69 2583.58 3107.75 2583.46 3084.48 2583.35C3028.88 2583.1 2971.38 2582.84 2912.37 2582.56C2895.53 2582.49 2878.56 2582.4 2861.48 2582.32C2775.72 2581.92 2687.08 2581.5 2596.71 2581.07C2581.72 2581 2566.68 2580.92 2551.59 2580.86C2493.09 2580.56 2433.96 2580.29 2374.49 2579.99C2277.6 2579.53 2179.84 2579.06 2082.55 2578.58C2078.69 2578.56 2074.84 2578.55 2070.98 2578.54C1966.2 2578.01 1862.06 2577.52 1760.17 2577.02C1709.71 2576.78 1659.81 2576.54 1610.67 2576.3C1599.52 2576.23 1588.4 2576.19 1577.33 2576.13H1577.32C1490.45 2575.7 1406.16 2575.28 1325.58 2574.88C1308.41 2574.8 1291.4 2574.71 1274.59 2574.64C1220.65 2574.36 1168.56 2574.1 1118.69 2573.86C1090.69 2573.74 1063.41 2573.59 1036.86 2573.47C955.136 2573.06 880.66 2572.69 815.35 2572.36C809.539 2572.33 803.812 2572.31 798.148 2572.29C769.535 2572.14 742.794 2572.01 718.119 2571.88C659.813 2571.6 604.751 2553.95 558.613 2523.27C504.728 2487.44 463.012 2433.81 442.564 2369.18C442.081 2367.64 441.597 2366.08 441.129 2364.51C428.235 2321.26 416.228 2272.62 407.238 2219.96C403.301 2196.97 399.962 2173.21 397.363 2148.81C369.283 1885.01 381.177 1439.53 752.64 1170.56C1041.1 961.675 752.881 626.219 1018.51 435.924C1220.51 291.215 1456.28 323.864 1609.56 331.356C1697.53 335.656 1765.86 298.963 1765.86 298.963C1904.89 299.14 2040.43 334.898 2221.19 308.804C2305.56 296.627 2463.1 276.847 2479.96 275.591C2807.51 251.397 3165.54 416.031 3355.77 614.992C3394.08 655.052 3568.23 862.357 3430.95 1147.3C3344.27 1327.19 3707.39 1499.01 3836.43 1704.44C3941.61 1871.92 3979.89 2021.99 3983.22 2148.81C3983.86 2173.42 3983.19 2197.15 3981.45 2219.96Z" fill="#1C4689"/>
<path d="M1705.75 668.314L1390.64 2153.51H2813.05L2550.68 668.314L2368.72 669.536L2150.46 1311.06L1887.72 669.536L1705.75 668.314Z" fill="#F9DDBF"/>
<path d="M3489.83 600.217H1116.62V619.936H3489.83V600.217Z" fill="#233862"/>
<path d="M3615.33 507.742H1116.62V527.463H3615.33V507.742Z" fill="#233862"/>
<path d="M1290.34 615.019L1174.66 522.542L1182.59 512.662L1298.26 605.136L1290.34 615.019Z" fill="#233862"/>
<path d="M1429.22 615.019L1313.55 522.542L1321.48 512.662L1437.15 605.136L1429.22 615.019Z" fill="#233862"/>
<path d="M1576.34 615.019L1460.66 522.542L1468.59 512.662L1584.27 605.136L1576.34 615.019Z" fill="#233862"/>
<path d="M1715.23 615.019L1599.55 522.542L1607.48 512.662L1723.16 605.136L1715.23 615.019Z" fill="#233862"/>
<path d="M1866.28 615.019L1750.61 522.542L1758.54 512.662L1874.21 605.136L1866.28 615.019Z" fill="#233862"/>
<path d="M2005.17 615.019L1889.49 522.542L1897.42 512.662L2013.1 605.136L2005.17 615.019Z" fill="#233862"/>
<path d="M2142.53 615.019L2026.85 522.542L2034.78 512.662L2150.46 605.136L2142.53 615.019Z" fill="#233862"/>
<path d="M2281.41 615.019L2165.74 522.542L2173.67 512.662L2289.33 605.136L2281.41 615.019Z" fill="#233862"/>
<path d="M2436.09 615.019L2320.43 522.542L2328.34 512.662L2444.02 605.136L2436.09 615.019Z" fill="#233862"/>
<path d="M2574.98 615.019L2459.32 522.542L2467.23 512.662L2582.91 605.136L2574.98 615.019Z" fill="#233862"/>
<path d="M2721.51 615.019L2605.84 522.542L2613.77 512.662L2729.44 605.136L2721.51 615.019Z" fill="#233862"/>
<path d="M2860.4 615.019L2744.72 522.542L2752.65 512.662L2868.33 605.136L2860.4 615.019Z" fill="#233862"/>
<path d="M3031.18 615.019L2915.52 522.542L2923.43 512.662L3039.11 605.136L3031.18 615.019Z" fill="#233862"/>
<path d="M3170.07 615.019L3054.39 522.542L3062.32 512.662L3178 605.136L3170.07 615.019Z" fill="#233862"/>
<path d="M3346.63 615.019L3230.97 522.542L3238.9 512.662L3354.57 605.136L3346.63 615.019Z" fill="#233862"/>
<path d="M1312.74 1511.52C1312.74 1511.52 1316.82 1482.34 1326.6 1481.24C1336.39 1480.12 1348.15 1489.82 1348.62 1497.77C1349.09 1505.75 1326.6 1524.74 1326.6 1524.74L1312.74 1511.52Z" fill="#FFB17C"/>
<path d="M1172.49 1430.23C1172.49 1430.23 1236.08 1548.07 1261.36 1543.95C1286.64 1539.83 1312.74 1511.52 1312.74 1511.52L1326.6 1524.73C1326.6 1524.73 1293.98 1592.75 1260.55 1596C1227.11 1599.26 1178.18 1559.61 1178.18 1559.61L1172.49 1430.23Z" fill="#8C9CF4"/>
<path d="M1214.28 2151.99H1122.75C1116.19 2147.56 1124.52 2104.16 1124.52 2104.16C1124.52 2104.16 1149.5 2094.69 1153.81 2113.93C1158.14 2133.16 1185.63 2139.28 1200.19 2141.63C1210.14 2143.24 1213.29 2148.7 1214.28 2151.99Z" fill="#102A50"/>
<path d="M1078.52 2151.99H986.988C980.43 2147.56 988.757 2104.16 988.757 2104.16C988.757 2104.16 1013.74 2094.69 1018.05 2113.93C1022.38 2133.16 1049.88 2139.28 1064.43 2141.63C1074.38 2143.24 1077.53 2148.7 1078.52 2151.99Z" fill="#102A50"/>
<path d="M1189.66 1709.23C1189.66 1709.23 1185.54 1760.46 1180.71 1822.05C1174.13 1905.71 1156.41 2113.14 1156.41 2113.14C1156.41 2113.14 1144.78 2123.04 1119.04 2117.63C1119.04 2117.63 1097.13 2046.06 1090.58 1964.39C1090.47 1963.06 1090.37 1961.7 1090.27 1960.35C1084.18 1877.21 1074.7 1702.13 1074.7 1702.13L1189.66 1709.23Z" fill="#173667"/>
<path d="M1191.06 1691.53C1191.06 1691.53 1185.54 1760.46 1180.71 1822.05L1090.58 1964.39C1090.47 1963.06 1090.37 1961.7 1090.27 1960.35C1084.18 1877.21 1074.7 1702.13 1074.7 1702.13L1191.06 1691.53Z" fill="#102A50"/>
<path d="M1164.79 1691.53C1164.79 1691.53 1099.42 1853.93 1078.52 1915.49C1063.64 1959.35 1021.66 2113.18 1021.66 2113.18C1021.66 2113.18 1003.41 2118.72 988.064 2108C988.064 2108 972.444 1950.84 1003.99 1906.52C1020.73 1883.01 1008.15 1662.12 1076.02 1660.22C1143.88 1658.32 1164.79 1691.53 1164.79 1691.53Z" fill="#173667"/>
<path d="M1135.59 1452.11C1125.61 1457.35 1115.87 1457.67 1107.43 1455.89C1099.71 1454.26 1093.07 1450.86 1088.35 1447.85C1083.5 1444.76 1080.65 1442.07 1080.65 1442.07C1080.65 1442.07 1080.99 1441.57 1081.56 1440.62C1084.51 1435.58 1093.45 1417.49 1089.47 1388.42C1089.42 1388.04 1092.3 1388.58 1096.66 1389.6C1109.63 1392.67 1135.71 1400.05 1136.86 1400.38H1136.91C1136.91 1400.38 1137.23 1406.49 1138.3 1417.46C1138.39 1418.42 1138.49 1419.43 1138.59 1420.47C1138.73 1421.76 1138.86 1423.12 1139.02 1424.52C1140.23 1435.92 1135.59 1452.11 1135.59 1452.11Z" fill="#FFB17C"/>
<path d="M1138.3 1417.46C1118.94 1421.89 1090.04 1393.35 1090.04 1393.35C1092.15 1391.78 1094.37 1390.54 1096.66 1389.6C1109.63 1392.67 1135.71 1400.05 1136.86 1400.38H1136.91C1136.91 1400.38 1137.23 1406.49 1138.3 1417.46Z" fill="#ED975D"/>
<path d="M1200.52 1747.8C1200.52 1747.8 1019.42 1757.09 1020.79 1746.59C1021.24 1743.05 1026 1693.66 1029.82 1647.32C1030.79 1635.52 1031.7 1623.93 1032.47 1613.35C1033.77 1595.29 1034.65 1580.16 1034.68 1571.92C1034.78 1552.21 1034.97 1533.06 1035.63 1516.89C1035.63 1516.89 1026.57 1453.4 1036.63 1442.99C1048.41 1430.8 1083.03 1427.06 1085.19 1427.53C1085.84 1427.38 1086.49 1427.21 1087.16 1427.12C1087.16 1427.12 1116.63 1443.7 1138.53 1431.42C1138.53 1431.42 1138.74 1431.46 1139.15 1431.52C1144.47 1432.36 1171.09 1438.5 1180.28 1448.2C1183.46 1451.53 1196.11 1472.03 1196.46 1494.55C1196.94 1525.91 1209.16 1747.8 1200.52 1747.8Z" fill="#8C9CF4"/>
<path d="M1139.31 1415.36L1136.37 1555.21L1168.02 1504.78L1152.82 1491.35L1172.49 1473.72L1159.37 1419.1L1139.31 1415.36Z" fill="#6980E2"/>
<path d="M1089.05 1417.93L1121.05 1435.84L1142.45 1417.93L1136.32 1555.21L1089.05 1417.93Z" fill="white"/>
<path d="M1214.12 1349.95C1195.74 1337.9 1170.43 1342.75 1152.67 1360.17L1152.66 1360.16C1149.35 1363.41 1146.3 1367.1 1143.61 1371.19C1130.81 1390.63 1129.69 1413.8 1139.03 1430.23H1139.04C1142.2 1435.81 1146.56 1440.6 1152.08 1444.22C1156.73 1447.27 1173.43 1452.77 1177.96 1453.6C1182.49 1454.43 1184.59 1462.7 1184.59 1462.7L1187.38 1462.39C1187.38 1462.39 1185.1 1456.29 1194.69 1452.46C1204.28 1448.62 1227.98 1460.94 1231.69 1467.2C1235.4 1473.48 1227.38 1478.19 1227.38 1478.19L1229.44 1481.83C1235.32 1478.02 1244.56 1485.53 1244.56 1485.53L1244.66 1485.37C1247.17 1488.27 1250.1 1490.88 1253.48 1493.09C1273.07 1505.93 1299.38 1500.49 1312.25 1480.94C1325.12 1461.38 1319.67 1435.12 1300.08 1422.27C1296.24 1419.75 1292.14 1417.95 1287.94 1416.81C1285.15 1415.07 1278.97 1410.56 1279.87 1405.2L1275.7 1404.76C1275.7 1404.76 1274.55 1413.98 1267.32 1413.07C1260.08 1412.16 1239.34 1395.34 1239.06 1385.04C1238.78 1374.73 1245.29 1374.4 1245.29 1374.4L1244.47 1371.71C1244.47 1371.71 1236.02 1373.08 1233.47 1369.25C1230.91 1365.43 1218.91 1353.08 1214.12 1349.95Z" fill="#F99746"/>
<path d="M1224.21 1409L1207.46 1434.46L1210.66 1436.56L1227.41 1411.1L1224.21 1409Z" fill="white"/>
<path d="M1370.5 1515.73L1364.58 1524.74L1239.8 1451.61L1252.83 1431.82L1370.5 1515.73Z" fill="#ED7C2A"/>
<path d="M1228.07 1448.4C1227.94 1448.54 1226.57 1451.6 1220.23 1450.42C1219.05 1450.2 1215.53 1448.96 1213.19 1447.56C1206.72 1443.73 1196.72 1436.46 1190.9 1436.93H1190.87L1190.76 1436.94C1189.45 1437.13 1188.12 1438.09 1188.4 1438.76C1188.57 1439.18 1188.58 1439.48 1190.04 1439.46C1191.5 1439.45 1192.55 1442.76 1190.1 1442.66C1187.65 1442.56 1187.41 1441.01 1187.41 1441.01C1186.25 1436.18 1191.51 1435.99 1191.52 1436.01C1197.59 1435 1206.91 1439.96 1213.81 1444.07C1216.12 1445.44 1219.62 1447.49 1220.67 1447.95C1225.16 1449.9 1227.24 1447.78 1227.35 1447.68C1228.34 1446.67 1228.27 1445.04 1227.5 1444.86C1227.06 1444.76 1226.81 1444.59 1225.97 1445.76C1225.13 1446.95 1221.82 1445.86 1223.34 1443.94C1224.86 1442.03 1226.26 1442.73 1226.26 1442.73C1230.85 1444.63 1228.07 1448.4 1228.07 1448.4Z" fill="white"/>
<path d="M1248.03 1418.07C1248.1 1417.9 1250.37 1415.43 1246.77 1410.09C1246.1 1409.09 1243.56 1406.37 1241.36 1404.78C1235.25 1400.38 1224.59 1394.1 1222.72 1388.58L1222.71 1388.56L1222.68 1388.44C1222.33 1387.17 1222.68 1385.58 1223.41 1385.56C1223.86 1385.56 1224.15 1385.44 1224.71 1386.79C1225.27 1388.13 1228.74 1387.77 1227.67 1385.57C1226.61 1383.37 1225.08 1383.76 1225.08 1383.76C1220.19 1384.62 1222.1 1389.51 1222.12 1389.52C1223.6 1395.48 1231.86 1402.04 1238.38 1406.73C1240.56 1408.31 1243.84 1410.7 1244.67 1411.47C1248.26 1414.81 1247.13 1417.56 1247.07 1417.7C1246.55 1419.02 1245.02 1419.6 1244.54 1418.96C1244.28 1418.59 1244.02 1418.44 1244.78 1417.19C1245.54 1415.95 1243.21 1413.36 1242.05 1415.51C1240.89 1417.66 1242.1 1418.66 1242.1 1418.66C1245.67 1422.12 1248.03 1418.07 1248.03 1418.07Z" fill="white"/>
<path d="M1369.04 1512.97L1361.99 1523.69L1389.89 1541.98L1396.94 1531.26L1369.04 1512.97Z" fill="#ED7C2A"/>
<path d="M1188.06 1409.68C1189.01 1410.55 1211.25 1429.83 1212.2 1430.66L1212.22 1430.67L1212.25 1430.68L1381.7 1529.79L1381.91 1529.42L1212.48 1430.33C1211.65 1429.62 1189.3 1410.24 1188.37 1409.39L1188.06 1409.68Z" fill="white"/>
<path d="M1189.62 1407.35L1214.9 1426.59L1382.41 1528.71L1382.62 1528.35L1215.14 1426.24L1189.89 1407.03L1189.62 1407.35Z" fill="white"/>
<path d="M1193.84 1400.94L1193.67 1401.32L1222.31 1415.37L1383.44 1526.59L1383.68 1526.25L1222.52 1415L1193.84 1400.94Z" fill="white"/>
<path d="M1192.71 1402.68L1219.2 1421.58L1382.93 1527.67L1383.16 1527.31L1219.44 1421.23L1192.96 1402.34L1192.71 1402.68Z" fill="white"/>
<path d="M1355.31 1535.45C1353.7 1537.9 1354.39 1541.22 1356.84 1542.82L1357.92 1543.53C1360.36 1545.13 1363.69 1544.45 1365.29 1542C1366.9 1539.56 1366.22 1536.25 1363.77 1534.63L1362.69 1533.92C1360.24 1532.32 1356.92 1533 1355.31 1535.45Z" fill="#ED7C2A"/>
<path d="M1359.29 1538.06L1366.96 1526.39L1369.75 1528.22L1362.08 1539.89L1359.29 1538.06Z" fill="#ED7C2A"/>
<path d="M1369.36 1540.06C1368.2 1541.83 1368.7 1544.23 1370.47 1545.39L1371.25 1545.9C1373.02 1547.07 1375.43 1546.57 1376.59 1544.8C1377.76 1543.03 1377.26 1540.62 1375.49 1539.46L1374.71 1538.95C1372.93 1537.79 1370.53 1538.29 1369.36 1540.06Z" fill="#ED7C2A"/>
<path d="M1372.24 1541.94L1377.8 1533.5L1379.82 1534.82L1374.26 1543.27L1372.24 1541.94Z" fill="#ED7C2A"/>
<path d="M1377.21 1502.18C1378.82 1499.73 1382.14 1499.05 1384.59 1500.65L1385.67 1501.36C1388.12 1502.96 1388.8 1506.27 1387.2 1508.72C1385.59 1511.17 1382.27 1511.85 1379.82 1510.25L1378.74 1509.54C1376.29 1507.94 1375.6 1504.63 1377.21 1502.18Z" fill="#ED7C2A"/>
<path d="M1381.19 1504.78L1373.51 1516.45L1376.3 1518.28L1383.98 1506.61L1381.19 1504.78Z" fill="#ED7C2A"/>
<path d="M1387.03 1513.22C1388.19 1511.45 1390.6 1510.96 1392.37 1512.12L1393.15 1512.63C1394.92 1513.79 1395.42 1516.18 1394.25 1517.95C1393.09 1519.72 1390.68 1520.23 1388.91 1519.06L1388.13 1518.55C1386.36 1517.39 1385.86 1514.99 1387.03 1513.22Z" fill="#ED7C2A"/>
<path d="M1389.9 1515.11L1384.34 1523.56L1386.36 1524.88L1391.92 1516.42L1389.9 1515.11Z" fill="#ED7C2A"/>
<path d="M1190.18 1420.09C1188.68 1419.1 1140.96 1376.14 1140.96 1376.14L1145.5 1369.24L1204.14 1398.88L1190.18 1420.09Z" fill="#ED7C2A"/>
<path d="M1152.67 1360.17L1152.66 1360.16C1149.35 1363.41 1146.3 1367.1 1143.61 1371.19C1130.81 1390.63 1129.69 1413.8 1139.03 1430.23H1139.04C1139.04 1430.23 1157.75 1426.62 1161.83 1412.58C1165.89 1398.58 1142.98 1383.54 1142.88 1383.48C1142.88 1383.48 1158.95 1368.93 1152.67 1360.17Z" fill="#ED7C2A"/>
<path d="M1122.8 1606.27L1118.75 1603.15C1117.54 1602.22 1118.76 1598.62 1121.46 1595.12L1251.5 1426.79C1254.2 1423.29 1257.38 1421.21 1258.59 1422.13L1262.64 1425.26L1266.67 1420.04L1262.62 1416.92C1260.42 1415.22 1254.62 1419.03 1249.69 1425.4L1119.66 1593.74C1114.73 1600.11 1112.51 1606.68 1114.72 1608.38L1118.76 1611.49L1122.8 1606.27Z" fill="#0B0754"/>
<path d="M1265.68 1419.27L1117.78 1610.73L1118.76 1611.49L1266.67 1420.04L1265.68 1419.27Z" fill="#0B0754"/>
<path d="M1144.88 1398.84C1144.88 1398.84 1136.91 1401.69 1126.76 1403.05C1111.92 1405.05 1092.4 1403.87 1086.27 1385.94C1075.94 1355.77 1062.75 1337.68 1093.14 1325.36C1109.41 1318.76 1119.82 1318.41 1126.89 1320.93C1133.03 1323.1 1136.65 1327.44 1139.4 1331.73C1145.3 1340.97 1157.17 1393.55 1144.88 1398.84Z" fill="#FFB17C"/>
<path d="M1128.34 1301.13C1137.71 1301.98 1144.38 1310.8 1142.02 1319.9C1140.04 1327.52 1133.18 1334.53 1113.81 1337.69C1105.65 1339.02 1104.89 1353.7 1104.76 1357.71C1104.62 1361.74 1104.09 1365.13 1093.82 1362.72C1092.14 1362.33 1090.93 1362.45 1090.1 1362.95C1085.84 1365.47 1091.28 1377.69 1092.92 1380.34C1092.92 1380.34 1095.28 1389.09 1090.04 1393.35C1089.41 1393.86 1079.11 1398.36 1054.3 1360.45C1050.4 1354.5 1046.67 1341.1 1052.69 1328.19C1058.71 1315.29 1083.02 1293.54 1105.19 1296.2C1116.8 1297.6 1122.22 1300.58 1128.34 1301.13Z" fill="#102A50"/>
<path d="M1145.11 1379.36C1145.11 1379.36 1145.74 1383.26 1136.65 1386.38C1136.65 1386.38 1129.01 1389 1127.61 1384.99C1127.61 1384.99 1133.68 1379.22 1145.11 1379.36Z" fill="white"/>
<path d="M1086.94 1583.85C1086.94 1583.85 1114.68 1566.04 1124.16 1565.06C1130.6 1564.41 1154.43 1568.63 1154.43 1571.83C1154.43 1586.94 1123.17 1593.11 1119.66 1593.74C1116.14 1594.36 1105.5 1594.88 1101.08 1596.89C1096.66 1598.89 1086.94 1583.85 1086.94 1583.85Z" fill="#FFB17C"/>
<path d="M1120.25 1435.05C1120.25 1435.05 1107.97 1429.2 1106.95 1430.87C1105.93 1432.54 1105.85 1442.59 1107.88 1444.12C1109.91 1445.65 1120.32 1440.2 1120.54 1439.08C1120.75 1437.96 1120.25 1435.05 1120.25 1435.05Z" fill="#A8443D"/>
<path d="M1123.27 1438.44C1123.27 1438.44 1135.74 1443.87 1136.71 1442.17C1137.67 1440.45 1137.4 1430.4 1135.32 1428.94C1133.24 1427.48 1123.02 1433.3 1122.85 1434.42C1122.67 1435.54 1123.27 1438.44 1123.27 1438.44Z" fill="#A8443D"/>
<path d="M1118.21 1436.79C1118.09 1435.07 1119.39 1433.59 1121.1 1433.46C1122.82 1433.35 1124.31 1434.64 1124.44 1436.35C1124.56 1438.06 1123.26 1439.56 1121.54 1439.68C1119.82 1439.8 1118.33 1438.5 1118.21 1436.79Z" fill="#A8443D"/>
<path d="M1089.1 1417.93L1136.37 1555.21L1096.63 1511.52L1105.57 1493.33L1080.65 1484.49L1071.98 1429L1089.1 1417.93Z" fill="#6980E2"/>
<path d="M1101.08 1596.88C1101.08 1596.88 1065.35 1644.92 1029.82 1647.32C1030.8 1635.52 1031.7 1623.93 1032.47 1613.35L1101.08 1596.88Z" fill="#6980E2"/>
<path d="M1036.63 1442.99C1036.63 1442.99 1010.03 1470.54 995.432 1524.73C980.829 1578.91 979.044 1618.79 995.432 1625.3C1011.82 1631.81 1068.72 1618.9 1101.08 1596.89L1093.86 1579.58C1093.86 1579.58 1041.18 1569.95 1042.81 1565.06C1044.44 1560.19 1080.17 1500.79 1080.65 1484.49C1081.14 1468.21 1043.87 1437.75 1036.63 1442.99Z" fill="#8C9CF4"/>
<path d="M1329.18 1481.18C1329.18 1481.18 1316.38 1479.78 1318.41 1485.36C1320.44 1490.93 1328.49 1494.14 1334.61 1494.32C1340.73 1494.5 1343.28 1490.89 1343.28 1490.89C1343.28 1490.89 1339.48 1481.12 1329.18 1481.18Z" fill="#FFB17C"/>
<path d="M1131.94 1642.43C1131.94 1639.5 1134.31 1637.14 1137.24 1637.14C1140.17 1637.14 1142.54 1639.5 1142.54 1642.43C1142.54 1645.35 1140.17 1647.71 1137.24 1647.71C1134.31 1647.71 1131.94 1645.35 1131.94 1642.43Z" fill="#020233"/>
<path d="M1131.94 1686.23C1131.94 1683.31 1134.31 1680.94 1137.24 1680.94C1140.17 1680.94 1142.54 1683.31 1142.54 1686.23C1142.54 1689.15 1140.17 1691.53 1137.24 1691.53C1134.31 1691.53 1131.94 1689.15 1131.94 1686.23Z" fill="#020233"/>
<path d="M1597.62 1570.77C1597.62 1570.77 1578.13 1571.17 1570.49 1576.97C1562.86 1582.78 1564.39 1595 1552.22 1600.11C1540.05 1605.22 1536.66 1607.9 1541.98 1610.4C1547.31 1612.9 1568.79 1611.89 1577.63 1603.93C1586.48 1595.99 1600.13 1586.49 1600.13 1586.49L1597.62 1570.77Z" fill="#FFB17C"/>
<path d="M1570.49 1576.97C1570.49 1576.97 1555.61 1582.32 1553.31 1583.88C1551.01 1585.44 1566.39 1587.52 1566.39 1587.52L1570.49 1576.97Z" fill="#FFB17C"/>
<path d="M2066.94 1570.77C2066.94 1570.77 2086.43 1571.17 2094.07 1576.97C2101.71 1582.78 2100.17 1595 2112.34 1600.11C2124.52 1605.22 2127.92 1607.9 2122.58 1610.4C2117.26 1612.9 2095.77 1611.89 2086.93 1603.93C2078.08 1595.99 2064.43 1586.49 2064.43 1586.49L2066.94 1570.77Z" fill="#FFB17C"/>
<path d="M2094.07 1576.97C2094.07 1576.97 2108.95 1582.32 2111.25 1583.88C2113.54 1585.44 2098.18 1587.52 2098.18 1587.52L2094.07 1576.97Z" fill="#FFB17C"/>
<path d="M2080.67 1572.19L2067.48 1595.08C2067.48 1595.08 2032 1587.68 2001.14 1577.75C1990.29 1574.24 1980.01 1570.42 1972.03 1566.49C1953.49 1557.37 1935.49 1540.23 1924.18 1528.12L1924.17 1528.09C1916.82 1520.25 1912.32 1514.53 1912.32 1514.53L1884.59 1383C1884.59 1383 1911.27 1389.71 1927.22 1403.04C1943.16 1416.37 1979.37 1508.42 2008.66 1526.49C2037.97 1544.56 2080.67 1572.19 2080.67 1572.19Z" fill="#8C9CF4"/>
<path d="M1786.63 1379.73L1756.65 1510.96C1756.65 1510.96 1747.5 1522.57 1734.05 1535.4C1723.54 1545.48 1710.39 1556.28 1696.94 1562.91C1687.22 1567.7 1674.1 1572.55 1660.73 1576.96C1632.04 1586.4 1602.14 1593.72 1602.14 1593.72L1590.81 1570.77C1590.81 1570.77 1631 1540.98 1660.31 1522.91C1689.62 1504.84 1727.4 1409.49 1743.34 1396.16C1759.29 1382.82 1786.63 1379.73 1786.63 1379.73Z" fill="#8C9CF4"/>
<path d="M1955.01 2151.99H1857.23C1850.23 2147.25 1859.12 2100.89 1859.12 2100.89C1859.12 2100.89 1885.81 2090.8 1890.42 2111.34C1895.04 2131.87 1924.41 2138.42 1939.94 2140.92C1950.58 2142.65 1953.94 2148.47 1955.01 2151.99Z" fill="#123160"/>
<path d="M1809.99 2151.99H1712.22C1705.21 2147.25 1714.11 2100.89 1714.11 2100.89C1714.11 2100.89 1740.79 2090.8 1745.4 2111.34C1750.03 2131.87 1779.39 2138.42 1794.94 2140.92C1805.57 2142.65 1808.93 2148.47 1809.99 2151.99Z" fill="#123160"/>
<path d="M1928.69 1679.05C1928.69 1679.05 1924.31 1733.78 1919.14 1799.57C1912.12 1888.93 1893.18 2110.49 1893.18 2110.49C1893.18 2110.49 1880.77 2121.07 1853.28 2115.29C1853.28 2115.29 1829.87 2038.86 1822.87 1951.6C1822.76 1950.17 1822.65 1948.74 1822.55 1947.3C1816.04 1858.49 1805.91 1671.46 1805.91 1671.46L1928.69 1679.05Z" fill="#213F79"/>
<path d="M1930.2 1660.13C1930.2 1660.13 1924.31 1733.78 1919.14 1799.57L1822.87 1951.6C1822.76 1950.17 1822.65 1948.74 1822.55 1947.3C1816.04 1858.49 1805.91 1671.46 1805.91 1671.46L1930.2 1660.13Z" fill="#233862"/>
<path d="M1902.13 1660.13C1902.13 1660.13 1832.32 1833.61 1809.99 1899.37C1794.09 1946.21 1749.26 2110.53 1749.26 2110.53C1749.26 2110.53 1729.75 2116.45 1713.37 2105.01C1713.37 2105.01 1696.68 1937.13 1730.38 1889.79C1748.27 1864.67 1734.83 1628.73 1807.31 1626.7C1879.8 1624.68 1902.13 1660.13 1902.13 1660.13Z" fill="#213F79"/>
<path d="M1854.57 1404.4C1843.91 1410.01 1833.51 1410.36 1824.49 1408.44C1816.23 1406.71 1809.16 1403.08 1804.12 1399.86C1798.93 1396.56 1795.89 1393.68 1795.89 1393.68C1795.89 1393.68 1796.25 1393.16 1796.86 1392.13C1800 1386.76 1809.55 1367.43 1805.31 1336.38C1805.25 1335.97 1808.33 1336.55 1812.99 1337.64C1826.85 1340.92 1854.69 1348.8 1855.93 1349.15H1855.97C1855.97 1349.15 1856.31 1355.68 1857.46 1367.39C1857.56 1368.42 1857.66 1369.5 1857.77 1370.62C1857.91 1371.99 1858.06 1373.45 1858.23 1374.95C1859.52 1387.12 1854.57 1404.4 1854.57 1404.4Z" fill="#FFB17C"/>
<path d="M1857.46 1367.39C1836.78 1372.13 1805.91 1341.65 1805.91 1341.65C1808.18 1339.97 1810.55 1338.65 1812.99 1337.64C1826.85 1340.92 1854.69 1348.8 1855.93 1349.15H1855.97C1855.97 1349.15 1856.31 1355.68 1857.46 1367.39Z" fill="#ED975D"/>
<path d="M1932.82 1723.48C1932.82 1723.48 1814.31 1744.99 1724.53 1721.91C1721.82 1721.22 1747.47 1629.62 1751.73 1566.27C1753.27 1543.3 1737.78 1486.3 1738.44 1476.19C1738.44 1476.19 1738.12 1405.79 1748.86 1394.66C1761.45 1381.64 1798.43 1377.65 1800.74 1378.15C1801.44 1378.01 1802.12 1377.82 1802.84 1377.71C1802.84 1377.71 1834.32 1395.42 1857.7 1382.31C1857.7 1382.31 1857.93 1382.35 1858.37 1382.41C1864.06 1383.31 1892.49 1389.87 1902.31 1400.23C1905.7 1403.79 1919.22 1425.69 1919.58 1449.73C1920.1 1483.25 1939.29 1723.48 1932.82 1723.48Z" fill="#8C9CF4"/>
<path d="M1859.47 1372.87L1855.4 1514.53L1889.21 1460.68L1872.97 1446.33L1893.99 1427.5L1884.58 1383L1859.47 1372.87Z" fill="#6980E2"/>
<path d="M1804.86 1367.89L1839.03 1387.03L1857.77 1370.62L1866.88 1382.71L1855.35 1514.53L1797.37 1377.71L1804.86 1367.89Z" fill="#BCCAFF"/>
<path d="M1864.5 1347.5C1864.5 1347.5 1855.99 1350.55 1845.15 1352C1829.29 1354.14 1808.43 1352.88 1801.89 1333.73C1790.85 1301.5 1776.77 1282.18 1809.23 1269.02C1826.6 1261.97 1837.73 1261.6 1845.27 1264.29C1851.84 1266.61 1855.7 1271.24 1858.64 1275.83C1864.94 1285.69 1877.62 1341.86 1864.5 1347.5Z" fill="#FFB17C"/>
<path d="M1846.82 1243.14C1856.84 1244.04 1863.96 1253.47 1861.45 1263.19C1859.32 1271.33 1852 1278.81 1831.3 1282.19C1822.59 1283.61 1821.78 1299.29 1821.64 1303.58C1821.48 1307.88 1820.92 1311.5 1809.96 1308.93C1808.16 1308.51 1806.87 1308.63 1805.98 1309.17C1801.42 1311.86 1807.24 1324.92 1809 1327.74C1809 1327.74 1811.51 1337.09 1805.92 1341.65C1805.24 1342.19 1794.24 1346.99 1767.73 1306.5C1763.57 1300.15 1759.59 1285.83 1766.03 1272.05C1772.45 1258.26 1798.42 1235.04 1822.09 1237.88C1834.51 1239.37 1840.28 1242.55 1846.82 1243.14Z" fill="#173667"/>
<path d="M1838.18 1386.19C1838.18 1386.19 1825.07 1379.93 1823.98 1381.72C1822.89 1383.5 1822.8 1394.24 1824.97 1395.88C1827.14 1397.51 1838.27 1391.68 1838.49 1390.49C1838.72 1389.3 1838.18 1386.19 1838.18 1386.19Z" fill="#020233"/>
<path d="M1841.42 1389.81C1841.42 1389.81 1854.74 1395.61 1855.77 1393.79C1856.79 1391.96 1856.5 1381.23 1854.28 1379.67C1852.06 1378.11 1841.15 1384.32 1840.96 1385.52C1840.78 1386.71 1841.42 1389.81 1841.42 1389.81Z" fill="#020233"/>
<path d="M1836.01 1388.04C1835.88 1386.21 1837.26 1384.62 1839.1 1384.49C1840.93 1384.36 1842.52 1385.75 1842.65 1387.58C1842.79 1389.41 1841.4 1391 1839.57 1391.13C1837.73 1391.26 1836.14 1389.88 1836.01 1388.04Z" fill="#020233"/>
<path d="M1799.81 1374.51L1855.4 1514.53L1812.96 1467.88L1822.51 1448.44L1795.89 1439L1786.63 1379.72L1799.81 1374.51Z" fill="#6980E2"/>
<path d="M1864.47 1327.31C1865.11 1330.6 1863.4 1333.7 1860.65 1334.23C1857.91 1334.76 1855.16 1332.52 1854.52 1329.23C1853.89 1325.94 1855.6 1322.84 1858.34 1322.31C1861.09 1321.78 1863.83 1324.02 1864.47 1327.31Z" fill="white"/>
<path d="M1855.76 1647.49C1853.96 1645.69 1853.96 1642.77 1855.76 1640.98C1857.56 1639.18 1860.48 1639.18 1862.28 1640.98C1864.09 1642.77 1864.09 1645.69 1862.28 1647.49C1860.48 1649.29 1857.56 1649.29 1855.76 1647.49Z" fill="#020233"/>
<path d="M1855.76 1578.63C1853.96 1576.83 1853.96 1573.91 1855.76 1572.12C1857.56 1570.32 1860.48 1570.32 1862.28 1572.12C1864.09 1573.91 1864.09 1576.83 1862.28 1578.63C1860.48 1580.43 1857.56 1580.43 1855.76 1578.63Z" fill="#020233"/>
<path d="M1852.14 1516.81C1850.34 1515.01 1850.34 1512.09 1852.14 1510.29C1853.94 1508.49 1856.86 1508.49 1858.65 1510.29C1860.45 1512.09 1860.45 1515.01 1858.65 1516.81C1856.86 1518.6 1853.94 1518.6 1852.14 1516.81Z" fill="#020233"/>
<path d="M2001.14 1577.75C1990.29 1574.24 1980 1570.42 1972.03 1566.49C1953.49 1557.37 1935.49 1540.23 1924.18 1528.12L1924.17 1528.09C1923.92 1527.06 1918.07 1502.15 1924.18 1500.25C1930.44 1498.33 1949.19 1540.25 1970.74 1552.73C1983.99 1560.4 1994.83 1570.84 2001.14 1577.75Z" fill="#6980E2"/>
<path d="M1746.61 1522.57C1736.09 1532.65 1721.41 1552.81 1696.94 1562.91C1686.92 1567.05 1674.1 1572.55 1660.73 1576.96C1660.08 1569.3 1668.44 1561.59 1696.95 1552.73C1731.99 1541.84 1725.1 1497.68 1734.05 1497.11C1743.02 1496.51 1746.61 1522.57 1746.61 1522.57Z" fill="#6980E2"/>
<path d="M2080.23 1473.97C2080.23 1473.97 2068.53 1462.69 2060.6 1461.6C2052.66 1460.49 2046.31 1468.59 2036.11 1464.4C2025.91 1460.21 2022.32 1459.78 2023.98 1464.4C2025.63 1469.02 2038.87 1481.14 2048.8 1481.67C2058.73 1482.23 2072.4 1484.7 2072.4 1484.7L2080.23 1473.97Z" fill="#FFB17C"/>
<path d="M2395.53 1590.55C2395.53 1590.55 2538.05 1678.33 2586.5 1895.32C2634.93 2112.29 2706.73 2148.72 2706.73 2148.72H2212.23C2212.23 2148.72 2238.56 1728.85 2310.98 1609.58C2310.98 1609.58 2377.66 1598.17 2395.53 1590.55Z" fill="#FFA560"/>
<path d="M2295.76 1324.97C2295.76 1324.97 2347.48 1281.27 2364.29 1318.01C2364.29 1318.01 2371.05 1320.15 2377.3 1334.95C2379.88 1341.03 2390.51 1346.27 2389.29 1361.01C2386.79 1391.24 2358.63 1406.79 2349.54 1399.53C2343.69 1394.87 2336.83 1405.29 2336.83 1405.29L2295.76 1324.97Z" fill="#233862"/>
<path d="M2401.59 1500.97C2402.13 1464.75 2396.34 1447.1 2380.49 1441.22C2374.95 1439.17 2358.68 1440.82 2354.08 1440.51C2349.1 1439.87 2338.64 1423.65 2335.03 1395.73L2332.91 1396.44L2297.53 1408.46C2297.53 1408.46 2299.89 1419.77 2301.35 1430.53C2302.57 1439.49 2302.77 1445.03 2299.32 1447.75C2295.29 1450.61 2277.68 1458.88 2277.68 1458.88C2277.68 1458.88 2272.46 1496.39 2275.13 1535.79C2277.8 1575.22 2401.49 1507.19 2401.59 1500.97Z" fill="#FFB17C"/>
<path d="M2295.76 1402.55C2295.76 1402.55 2297.53 1409.75 2299.93 1421.3C2320.19 1418.02 2329.01 1410.74 2334.26 1402.12L2295.76 1402.55Z" fill="#E8935B"/>
<path d="M2397.12 1495.15L2395.53 1590.55C2391.94 1593.62 2387.97 1596.57 2383.81 1599.34C2360.58 1614.89 2331.47 1625.58 2331.47 1625.58C2318.53 1625.38 2304.45 1604.29 2304.45 1604.29C2304.45 1604.29 2275.54 1560.46 2266.7 1539.56C2259.03 1521.38 2273.31 1473.79 2277.19 1461.67C2277.77 1459.84 2279.24 1458.14 2279.24 1458.14C2337.27 1463 2376 1443.6 2380.14 1441.4C2380.37 1441.29 2380.49 1441.22 2380.49 1441.22L2381.12 1443.23L2382.62 1448.14V1448.16L2397.12 1495.15Z" fill="#F67C48"/>
<path d="M2329.82 1515.13C2316.5 1515.53 2279.24 1458.14 2279.24 1458.14C2337.08 1458.4 2376 1443.6 2380.14 1441.4C2380.51 1442.03 2343.14 1514.74 2329.82 1515.13Z" fill="#FFB17C"/>
<path d="M2348.96 1439.21C2348.74 1437.64 2349.81 1436.18 2351.34 1435.98C2352.86 1435.78 2354.28 1436.9 2354.48 1438.47C2354.69 1440.06 2353.62 1441.5 2352.09 1441.7C2350.57 1441.91 2349.17 1440.79 2348.96 1439.21Z" fill="white"/>
<path d="M2347.43 1444.75C2347.21 1443.16 2348.29 1441.72 2349.81 1441.52C2351.34 1441.3 2352.75 1442.42 2352.96 1444.01C2353.17 1445.59 2352.11 1447.04 2350.57 1447.24C2349.04 1447.45 2347.64 1446.33 2347.43 1444.75Z" fill="white"/>
<path d="M2345.33 1450.07C2345.11 1448.48 2346.18 1447.04 2347.71 1446.84C2349.24 1446.63 2350.65 1447.75 2350.86 1449.33C2351.07 1450.92 2349.99 1452.36 2348.48 1452.56C2346.94 1452.76 2345.54 1451.64 2345.33 1450.07Z" fill="white"/>
<path d="M2343.24 1455.46C2343.03 1453.88 2344.09 1452.43 2345.61 1452.24C2347.14 1452.02 2348.55 1453.14 2348.76 1454.73C2348.97 1456.31 2347.91 1457.76 2346.38 1457.96C2344.86 1458.15 2343.45 1457.05 2343.24 1455.46Z" fill="white"/>
<path d="M2339.98 1460C2339.78 1458.41 2340.84 1456.97 2342.36 1456.77C2343.89 1456.57 2345.3 1457.67 2345.51 1459.26C2345.72 1460.85 2344.66 1462.29 2343.13 1462.49C2341.61 1462.7 2340.19 1461.58 2339.98 1460Z" fill="white"/>
<path d="M2336.64 1464.61C2336.43 1463.03 2337.5 1461.58 2339.03 1461.38C2340.55 1461.19 2341.96 1462.3 2342.16 1463.88C2342.38 1465.46 2341.31 1466.91 2339.79 1467.1C2338.26 1467.32 2336.86 1466.2 2336.64 1464.61Z" fill="white"/>
<path d="M2332.18 1467.66C2331.96 1466.08 2333.03 1464.63 2334.54 1464.43C2336.08 1464.23 2337.48 1465.35 2337.69 1466.92C2337.91 1468.51 2336.84 1469.95 2335.31 1470.16C2333.79 1470.36 2332.37 1469.24 2332.18 1467.66Z" fill="white"/>
<path d="M2326.78 1469.44C2326.57 1467.87 2327.63 1466.41 2329.17 1466.21C2330.68 1466.01 2332.09 1467.13 2332.3 1468.7C2332.51 1470.29 2331.45 1471.73 2329.92 1471.93C2328.4 1472.14 2327 1471.03 2326.78 1469.44Z" fill="white"/>
<path d="M2321.05 1470.21C2320.84 1468.62 2321.9 1467.18 2323.44 1466.98C2324.97 1466.76 2326.37 1467.88 2326.59 1469.47C2326.8 1471.05 2325.73 1472.5 2324.2 1472.7C2322.67 1472.91 2321.27 1471.79 2321.05 1470.21Z" fill="white"/>
<path d="M2315.39 1469.89C2315.18 1468.31 2316.24 1466.86 2317.78 1466.67C2319.29 1466.45 2320.7 1467.57 2320.91 1469.16C2321.12 1470.74 2320.06 1472.19 2318.53 1472.39C2317.01 1472.58 2315.61 1471.48 2315.39 1469.89Z" fill="white"/>
<path d="M2310.38 1467.64C2310.17 1466.06 2311.24 1464.61 2312.77 1464.41C2314.3 1464.22 2315.7 1465.32 2315.92 1466.91C2316.13 1468.49 2315.07 1469.94 2313.53 1470.13C2312 1470.35 2310.6 1469.23 2310.38 1467.64Z" fill="white"/>
<path d="M2305.96 1464.4C2305.74 1462.81 2306.81 1461.37 2308.34 1461.17C2309.87 1460.96 2311.28 1462.08 2311.49 1463.66C2311.7 1465.25 2310.62 1466.69 2309.11 1466.89C2307.57 1467.1 2306.17 1465.99 2305.96 1464.4Z" fill="white"/>
<path d="M2302.01 1460.34C2301.8 1458.76 2302.88 1457.31 2304.4 1457.11C2305.93 1456.91 2307.33 1458.03 2307.55 1459.6C2307.76 1461.19 2306.69 1462.63 2305.16 1462.83C2303.64 1463.04 2302.23 1461.92 2302.01 1460.34Z" fill="white"/>
<path d="M2298.62 1455.99C2298.41 1454.42 2299.49 1452.97 2301.01 1452.76C2302.54 1452.56 2303.94 1453.68 2304.16 1455.25C2304.37 1456.84 2303.3 1458.28 2301.77 1458.49C2300.24 1458.69 2298.84 1457.57 2298.62 1455.99Z" fill="white"/>
<path d="M2295.18 1451.24C2294.95 1449.56 2296.08 1448.03 2297.7 1447.82C2299.32 1447.61 2300.82 1448.78 2301.03 1450.47C2301.26 1452.14 2300.13 1453.68 2298.51 1453.89C2296.89 1454.1 2295.4 1452.92 2295.18 1451.24Z" fill="white"/>
<path d="M2298.85 1443.8C2298.62 1442.11 2299.76 1440.58 2301.37 1440.37C2302.99 1440.16 2304.48 1441.33 2304.71 1443.02C2304.94 1444.69 2303.8 1446.22 2302.18 1446.44C2300.57 1446.66 2299.06 1445.47 2298.85 1443.8Z" fill="white"/>
<path d="M2304.58 1444.42C2304.35 1442.73 2305.49 1441.21 2307.11 1440.99C2308.72 1440.78 2310.23 1441.96 2310.44 1443.64C2310.67 1445.31 2309.55 1446.84 2307.92 1447.07C2306.3 1447.28 2304.81 1446.09 2304.58 1444.42Z" fill="white"/>
<path d="M2310.27 1444.08C2310.04 1442.41 2311.18 1440.88 2312.8 1440.65C2314.41 1440.44 2315.9 1441.63 2316.13 1443.3C2316.36 1444.99 2315.22 1446.51 2313.6 1446.73C2311.99 1446.95 2310.5 1445.76 2310.27 1444.08Z" fill="white"/>
<path d="M2315.93 1443.78C2315.72 1442.1 2316.84 1440.57 2318.46 1440.36C2320.07 1440.14 2321.58 1441.32 2321.8 1443C2322.02 1444.67 2320.9 1446.2 2319.28 1446.43C2317.65 1446.64 2316.16 1445.45 2315.93 1443.78Z" fill="white"/>
<path d="M2321.68 1443.48C2321.45 1441.8 2322.57 1440.27 2324.19 1440.06C2325.82 1439.83 2327.31 1441.02 2327.54 1442.69C2327.75 1444.38 2326.63 1445.91 2325.01 1446.12C2323.39 1446.34 2321.89 1445.16 2321.68 1443.48Z" fill="white"/>
<path d="M2327.24 1442.28C2327.01 1440.6 2328.15 1439.07 2329.76 1438.86C2331.38 1438.63 2332.87 1439.82 2333.1 1441.5C2333.32 1443.17 2332.19 1444.7 2330.57 1444.93C2328.95 1445.14 2327.46 1443.95 2327.24 1442.28Z" fill="white"/>
<path d="M2332.63 1441.11C2332.42 1439.44 2333.54 1437.89 2335.15 1437.68C2336.79 1437.47 2338.28 1438.66 2338.5 1440.33C2338.72 1442.01 2337.59 1443.54 2335.98 1443.75C2334.35 1443.97 2332.86 1442.79 2332.63 1441.11Z" fill="white"/>
<path d="M2338.13 1439.58C2337.91 1437.91 2339.04 1436.36 2340.66 1436.15C2342.27 1435.94 2343.76 1437.13 2343.99 1438.8C2344.22 1440.48 2343.08 1442.01 2341.47 1442.22C2339.85 1442.44 2338.36 1441.26 2338.13 1439.58Z" fill="white"/>
<path d="M2342.9 1436.22C2342.62 1434.07 2344.06 1432.1 2346.15 1431.82C2348.22 1431.55 2350.13 1433.06 2350.43 1435.22C2350.72 1437.38 2349.25 1439.35 2347.18 1439.62C2345.1 1439.9 2343.18 1438.37 2342.9 1436.22Z" fill="white"/>
<path d="M2340.02 1395.42C2340.02 1395.42 2353.55 1380.58 2358.62 1366.74C2362.24 1356.87 2363.7 1318.16 2324.68 1316.91C2324.68 1316.91 2313.45 1316.05 2301.82 1321.22C2292.58 1325.34 2278.54 1335.27 2286.04 1370.59L2287.53 1382.34L2340.02 1395.42Z" fill="#233862"/>
<path d="M2289.69 1408.4C2289.69 1408.4 2337.35 1417.6 2342.64 1387.88C2347.92 1358.16 2357.63 1339.33 2327.41 1332.2C2297.2 1325.07 2289.25 1335.36 2285.07 1344.85C2280.89 1354.34 2277.41 1405.25 2289.69 1408.4Z" fill="#FFB17C"/>
<path d="M2305.76 1327.64C2305.76 1327.64 2312.7 1364.82 2331.88 1373.51C2351.06 1382.2 2360.72 1378.36 2360.72 1378.36C2360.72 1378.36 2347.47 1363.43 2348.04 1341.54C2348.04 1341.54 2318.57 1312.78 2305.76 1327.64Z" fill="#233862"/>
<path d="M2308.51 1331.04C2308.51 1331.04 2297.36 1337.11 2293.64 1344.26C2289.91 1351.41 2286.1 1366.81 2281.64 1365.47C2281.64 1365.47 2275.95 1340.03 2289.41 1328.57C2303.67 1316.42 2308.51 1331.04 2308.51 1331.04Z" fill="#233862"/>
<path d="M2296.16 1391.32C2295.69 1393.97 2293.63 1395.82 2291.54 1395.46C2289.47 1395.09 2288.17 1392.65 2288.64 1389.99C2289.1 1387.34 2291.18 1385.49 2293.25 1385.85C2295.32 1386.22 2296.62 1388.66 2296.16 1391.32Z" fill="white"/>
<path d="M2279.24 1458.14C2279.24 1458.14 2259.98 1425.61 2250.9 1430.53C2241.82 1435.44 2180.6 1507.06 2146.68 1498.5C2112.76 1489.93 2101.49 1464.47 2080.23 1466.88L2069.27 1486.73C2069.27 1486.73 2068.42 1505.01 2084.8 1522.24C2101.19 1539.48 2144.2 1557.87 2166.55 1559C2188.88 1560.12 2265.81 1526.38 2265.81 1526.38L2279.24 1458.14Z" fill="#F67C48"/>
<path d="M2060.6 1461.6C2060.6 1461.6 2048.65 1455.95 2046.38 1455.49C2044.11 1455.05 2051.92 1465.38 2051.92 1465.38L2060.6 1461.6Z" fill="#FFB17C"/>
<path d="M2577.09 1558.03C2577.09 1558.03 2593.32 1556.99 2600.09 1561.27C2606.86 1565.56 2606.44 1575.84 2616.94 1579.22C2627.44 1582.62 2630.45 1584.6 2626.19 1587.05C2621.94 1589.52 2603.99 1590.2 2596.07 1584.21C2588.14 1578.22 2576.11 1571.28 2576.11 1571.28L2577.09 1558.03Z" fill="#FFB17C"/>
<path d="M2600.09 1561.27C2600.09 1561.27 2612.86 1564.68 2614.87 1565.8C2616.9 1566.93 2604.26 1569.76 2604.26 1569.76L2600.09 1561.27Z" fill="#FFB17C"/>
<path d="M2380.14 1441.4C2380.14 1441.4 2392.67 1416.86 2401.62 1419.75C2410.57 1422.64 2466.82 1524.18 2487.51 1530.17C2508.19 1536.18 2575.19 1548.85 2580.16 1559.02C2585.12 1569.2 2566.43 1585.69 2552.61 1585.3C2538.79 1584.89 2476.95 1574.97 2459.47 1567.55C2442.01 1560.12 2395.73 1520.66 2395.73 1520.66L2380.14 1441.4Z" fill="#F67C48"/>
<path d="M3981.45 2219.96C3978.06 2264.21 3970.58 2304.99 3960.76 2342.02C3922.54 2486.24 3791.43 2586.41 3641.99 2585.81C3040.12 2583.39 1302.34 2574.78 718.12 2571.88C590.098 2571.24 477.649 2486.99 441.129 2364.51C428.235 2321.26 416.229 2272.62 407.24 2219.96H3981.45Z" fill="#233862"/>
<path d="M3981.45 2219.96H407.24C403.302 2196.97 399.962 2173.21 397.363 2148.81H3983.22C3983.86 2173.42 3983.19 2197.15 3981.45 2219.96Z" fill="#6980E2"/>
<path d="M3975.71 2270.1C3863.81 2271.97 3879.07 2295.95 3772.58 2263.73C3752.54 2257.66 3727.48 2222.68 3669.98 2201.4C3586.45 2170.45 3511.13 2203.58 3511.13 2203.58L3568.94 1452.43C2875.04 1270.99 2549.33 469.251 2479.96 275.59C2929.96 244.535 3406.54 237.915 3619.59 361.701C3898.72 523.937 3929.65 872.923 3909.93 1201.07C3906.41 1259.79 3901.26 1317.85 3895.63 1374.04C3895.23 1378.11 3894.81 1382.13 3894.41 1386.16C3856.4 1758.63 4036.7 1897.02 3975.71 2270.1Z" fill="#F67C48"/>
<path d="M721.283 1448.28L769.615 2196.02C769.615 2196.02 726.817 2224 675.178 2203.06C640.047 2188.81 610.97 2202.09 588.818 2215.39C572.127 2225.4 559.368 2235.43 550.915 2233.66C482.781 2219.45 510.602 2196.95 403.269 2195.11C332.23 1943.33 445.551 1747.3 409.095 1383.55C409.014 1382.71 408.934 1381.89 408.837 1381.05C403.479 1327.33 398.509 1271.79 394.958 1215.55C374.528 891.415 401.413 543.604 672.708 383.059C877.062 262.157 1334.2 268.632 1765.86 298.963C1699.32 488.096 1386.87 1271.09 721.283 1448.28Z" fill="#F67C48"/>
<path d="M1855.76 698.779L1701.24 697.741C1686.5 697.642 1681.05 687.073 1689.09 674.134L1727.79 611.879C1735.84 598.941 1754.31 588.532 1769.06 588.631L1923.59 589.671C1938.33 589.768 1943.77 600.338 1935.73 613.277L1897.03 675.531C1888.98 688.471 1870.51 698.878 1855.76 698.779Z" fill="#233862"/>
<path d="M1852.59 689.323L1716.09 688.407C1703.53 688.322 1698.91 679.326 1705.75 668.314L1737.1 617.875C1743.95 606.863 1759.67 598.003 1772.23 598.087L1908.73 599.005C1921.29 599.089 1925.91 608.084 1919.07 619.097L1887.72 669.536C1880.87 680.55 1865.15 689.408 1852.59 689.323Z" fill="#FFE6CF"/>
<path d="M1769.06 588.631H1711.25C1699.54 588.631 1690 598.041 1689.86 609.737L1689.09 674.134L1743.54 598.087L1769.06 588.631Z" fill="#233862"/>
<path d="M2400.68 698.779L2555.19 697.741C2569.94 697.642 2575.38 687.073 2567.33 674.134L2528.65 611.879C2520.6 598.941 2502.12 588.532 2487.38 588.631L2332.86 589.671C2318.1 589.768 2312.67 600.338 2320.71 613.277L2359.41 675.531C2367.46 688.471 2385.93 698.878 2400.68 698.779Z" fill="#233862"/>
<path d="M2403.85 689.323L2540.35 688.407C2552.91 688.322 2557.53 679.326 2550.68 668.314L2519.33 617.875C2512.49 606.863 2496.75 598.003 2484.2 598.087L2347.71 599.005C2335.15 599.089 2330.52 608.084 2337.37 619.097L2368.72 669.536C2375.56 680.55 2391.29 689.408 2403.85 689.323Z" fill="#FFE6CF"/>
<path d="M2487.38 588.631H2545.17C2556.91 588.631 2566.44 598.041 2566.58 609.737L2567.33 674.134L2512.9 598.087L2487.38 588.631Z" fill="#233862"/>
<path d="M3233.03 2152.9L3232.66 2152.89C3229.62 2152.83 3227.3 2150.13 3227.58 2147.01L3247.77 1926.61L3265.37 1928.32L3236.39 2149.91C3236.16 2151.65 3234.72 2152.93 3233.03 2152.9Z" fill="#102A50"/>
<path d="M3427.41 2152.9L3427.78 2152.89C3430.81 2152.83 3433.15 2150.13 3432.86 2147.01L3412.67 1926.61L3395.05 1928.32L3424.04 2149.91C3424.27 2151.65 3425.71 2152.93 3427.41 2152.9Z" fill="#102A50"/>
<path d="M3421.4 1897.34L3457.23 1720.71C3461.83 1696.79 3441.98 1674.93 3416.21 1675.51L3347.09 1677.1C3323.25 1677.63 3302.53 1693.56 3295.9 1716.43L3243.47 1897.34H3421.4Z" fill="#102A50"/>
<path d="M3399.72 1897.34L3435.56 1720.71C3440.15 1696.79 3420.29 1674.93 3394.52 1675.51L3325.41 1677.1C3301.58 1677.63 3280.85 1693.56 3274.21 1716.43L3221.79 1897.34H3399.72Z" fill="#102A50"/>
<path d="M3411.41 1929.56H3137.99C3132.5 1929.56 3128 1925.07 3128 1919.59V1907.31C3128 1901.82 3132.5 1897.34 3137.99 1897.34H3421.4V1919.59C3421.4 1925.07 3416.9 1929.56 3411.41 1929.56Z" fill="#102A50"/>
<path d="M3283.11 1929.56H3108.81C3104.38 1929.56 3100.75 1925.93 3100.75 1921.51V1905.37C3100.75 1900.95 3104.38 1897.34 3108.81 1897.34H3283.11C3287.53 1897.34 3291.15 1900.95 3291.15 1905.37V1921.51C3291.15 1925.93 3287.53 1929.56 3283.11 1929.56Z" fill="#102A50"/>
<path d="M3321.09 1588.09C3324.84 1582.69 3326.33 1577.71 3325.55 1574.9C3318.74 1573.54 3313.27 1568.38 3311.72 1561.62C3310.35 1555.58 3309.21 1548.41 3308.67 1539.9L3306.36 1540.51L3267.46 1550.93C3267.46 1550.93 3269.19 1563.25 3270 1574.9C3270.11 1576.55 3270.2 1578.16 3270.27 1579.73C3270.35 1581.54 3269.11 1583.17 3267.3 1583.53L3267.28 1583.54C3255.2 1585.96 3254.41 1604.46 3270.03 1609.14C3272.07 1613.02 3276.04 1616.12 3283.66 1615.78C3296.37 1615.23 3323.78 1599.88 3321.35 1589.02C3321.3 1588.74 3321.2 1588.43 3321.09 1588.09Z" fill="#FFB17C"/>
<path d="M3272.21 1464.51C3272.21 1464.51 3266.29 1441.67 3288.89 1438.67C3311.49 1435.67 3334.01 1454.37 3341.97 1483.84C3347.23 1503.27 3339.16 1530.12 3321.54 1528.13C3303.92 1526.15 3272.21 1464.51 3272.21 1464.51Z" fill="#102A50"/>
<path d="M3241.58 1598.41C3241.58 1598.41 3234.15 1612.89 3209.89 1652.7C3187.29 1689.77 3189.22 1676.5 3181.16 1664.68C3174.75 1655.29 3153.29 1619.78 3153.29 1619.78L3142.62 1637.65C3142.62 1637.65 3176.07 1728.4 3192.78 1720.2C3209.49 1712 3257.73 1666.24 3265.54 1646.51C3273.38 1626.79 3241.58 1598.41 3241.58 1598.41Z" fill="#F4A169"/>
<path d="M3212.1 2099.63C3216.66 2107.45 3142.84 2142.86 3148.16 2136.9C3149.53 2135.37 3150.97 2133.77 3152.43 2132.14C3153.33 2131.15 3154.23 2130.13 3155.13 2129.11C3163.14 2120.01 3164.59 2108.37 3168.55 2096.36C3172.29 2084.99 3153.65 2031.46 3153.65 2031.46L3189.66 2039.71C3189.66 2039.71 3193.4 2065.73 3195.55 2076.59C3196.82 2082.98 3201.87 2088.42 3206 2092.44C3208.23 2094.63 3210.5 2096.88 3212.1 2099.63Z" fill="#FFB17C"/>
<path d="M3193.32 2121.49C3180.44 2128.28 3185.69 2129.11 3169.13 2140.78C3152.59 2152.43 3143.04 2150.86 3140.6 2149.04C3138.43 2147.41 3145.26 2140.13 3152.43 2132.14L3152.63 2132.24C3152.63 2132.24 3167.34 2130.64 3180.16 2119.85C3190.61 2111.06 3198.84 2098.57 3206 2092.44C3208.23 2094.63 3210.5 2096.88 3212.1 2099.63C3216.66 2107.45 3206.2 2114.71 3193.32 2121.49Z" fill="#102A50"/>
<path d="M3316.16 1803.55C3316.16 1803.55 3110.3 1805.5 3102.16 1844.65C3084.59 1929.22 3052.65 2100.01 3052.65 2100.01C3052.65 2100.01 3049.11 2109.43 3056.63 2109.95C3063.61 2110.44 3078.21 2101.46 3078.21 2101.46C3078.21 2101.46 3144.33 1981.72 3149.4 1959.89C3155.84 1932.08 3158.97 1910.23 3171.46 1909.07C3183.96 1907.9 3340.73 1921.44 3362.71 1879.03C3384.68 1836.61 3316.16 1803.55 3316.16 1803.55Z" fill="#FFB17C"/>
<path d="M3267.46 1550.93C3267.46 1550.93 3269.19 1563.25 3270 1574.9C3292 1572.82 3302.33 1551.96 3306.36 1540.51L3267.46 1550.93Z" fill="#F4A169"/>
<path d="M3362.18 1774.43C3350.1 1737.04 3360.51 1640.31 3360.17 1638.27C3352.07 1589.87 3325.55 1574.9 3325.55 1574.9C3325.55 1574.9 3310.37 1604.33 3285.99 1604.33C3261.62 1604.33 3267.28 1583.54 3267.28 1583.54C3267.28 1583.54 3245.03 1586.15 3239.77 1591.8C3234.52 1597.46 3221.18 1621.89 3218.54 1628.54C3218.54 1628.54 3218.01 1637.02 3239.03 1641.06C3239.03 1641.06 3233.91 1664.07 3233.3 1679.4C3232.84 1690.73 3241.04 1726.19 3243.4 1748.25C3244.24 1756.07 3250.1 1774.12 3237.28 1778.34C3197.14 1791.57 3367.38 1790.48 3362.18 1774.43Z" fill="#8C9CF4"/>
<path d="M3310.15 1535.96C3310.15 1535.96 3320.49 1516.96 3322.22 1501.19C3323.45 1489.93 3315.03 1449.05 3273.89 1457.76C3273.89 1457.76 3261.91 1459.74 3251.07 1468.15C3242.46 1474.82 3230.33 1488.81 3247.29 1523.84L3251.88 1535.75L3310.15 1535.96Z" fill="#102A50"/>
<path d="M3355.3 1755.23C3355.3 1755.23 3376.14 1805.67 3379.26 1859.73C3381.45 1897.62 3323.09 1906.94 3278.53 1908.58C3233.95 1910.23 3189.52 1926.62 3191.69 1946.02C3193.84 1965.44 3194.4 2042.38 3194.4 2042.38C3194.4 2042.38 3161.2 2055.85 3139.68 2036.63C3118.14 2017.42 3072.36 2039.97 3053.24 2023.51C3034.12 2007.02 3019.53 1979.3 3019.53 1979.3C3019.53 1979.3 3094.4 1834.17 3121.08 1812.25C3147.67 1790.4 3246.97 1776.9 3246.97 1776.9L3355.3 1755.23Z" fill="#8C9CF4"/>
<path d="M3260.83 1562.46C3260.83 1562.46 3313.08 1559.85 3310.94 1527.4C3308.81 1494.94 3314.12 1472.75 3280.68 1473.05C3247.23 1473.35 3241.57 1486.16 3239.64 1497.17C3237.71 1508.17 3247.19 1562.3 3260.83 1562.46Z" fill="#FFB17C"/>
<path d="M3256.86 1473.84C3256.86 1473.84 3273.69 1510.96 3295.99 1515.12C3318.29 1519.3 3327.41 1512.8 3327.41 1512.8C3327.41 1512.8 3309.71 1500.58 3304.66 1477.53C3304.66 1477.53 3266.42 1455.01 3256.86 1473.84Z" fill="#102A50"/>
<path d="M3260.61 1476.69C3260.61 1476.69 3250.51 1485.91 3248.45 1494.35C3246.41 1502.77 3246.36 1519.86 3241.36 1519.61C3241.36 1519.61 3228.87 1494.46 3239.99 1479.01C3251.78 1462.64 3260.61 1476.69 3260.61 1476.69Z" fill="#102A50"/>
<path d="M3155.65 2016.91C3154.52 2006.73 3170.88 1996.94 3170.88 1996.94L3168.41 1991.19C3168.41 1991.19 3156.83 1999.97 3142.49 1981.99C3128.16 1964.01 3139.32 1905.64 3150.36 1893.72C3161.38 1881.79 3176.59 1895.85 3176.59 1895.85L3183.08 1889.14C3173.83 1881.28 3177.87 1864.74 3180.14 1857.78C3185.66 1849.82 3190.06 1840.87 3192.98 1831.07C3207.9 1781.1 3179.43 1728.53 3129.37 1713.62C3079.3 1698.72 3026.61 1727.14 3011.69 1777.11C3009.12 1785.7 3007.86 1794.37 3007.76 1802.91L3007.36 1802.79C3007.36 1802.79 3002.39 1828.81 2986.89 1830.75L2988.63 1839.91C2988.63 1839.91 3009.08 1836.45 3011.76 1852.45C3014.44 1868.45 2991.75 1923.41 2969.89 1930.6C2948.03 1937.81 2943.15 1924.15 2943.15 1924.15L2937.93 1927.6C2937.93 1927.6 2946.26 1944.73 2939.72 1952.62C2933.18 1960.52 2912.64 1993.84 2909.09 2005.71C2904.89 2019.77 2904.34 2034.2 2906.96 2048.22V2048.23C2914.66 2089.65 2949.89 2127.53 2999.67 2142.35C3010.14 2145.47 3020.64 2147.38 3030.95 2148.17L3030.97 2148.16C3086.28 2152.41 3136.43 2124.43 3150.43 2077.54C3154.08 2065.34 3156.79 2027.09 3155.65 2016.91Z" fill="#F99746"/>
<path d="M3082.72 1962.41L3017.55 1943.01L3019.99 1934.84L3085.16 1954.24L3082.72 1962.41Z" fill="white"/>
<path d="M3178.65 1570.87L3155.61 1564L3048.02 1867.42L3098.69 1882.52L3178.65 1570.87Z" fill="#ED7C2A"/>
<path d="M3032.63 1889.69C3032.22 1889.67 3025.49 1886.41 3016.37 1897.5C3014.67 1899.56 3010.47 1906.7 3008.47 1912.44C3002.96 1928.25 2996.35 1954.99 2985.75 1962.52L2985.71 1962.55L2985.5 1962.69C2983 1964.25 2979.36 1964.5 2978.86 1962.97C2978.56 1962.02 2978.15 1961.49 2980.65 1959.42C2983.16 1957.37 2980.18 1950.2 2976.15 1953.88C2972.13 1957.56 2973.95 1960.55 2973.95 1960.55C2978.9 1970.44 2988.14 1963.23 2988.15 1963.2C2999.95 1956.22 3008.69 1934.41 3014.57 1917.53C3016.52 1911.88 3019.55 1903.36 3020.67 1901.09C3025.52 1891.29 3032.12 1891.95 3032.46 1891.97C3035.59 1892.26 3037.8 1895.13 3036.76 1896.56C3036.16 1897.36 3035.97 1898.02 3032.84 1897.2C3029.69 1896.38 3025.63 1902.99 3030.98 1904.08C3036.33 1905.17 3037.68 1901.96 3037.68 1901.96C3042.8 1892.14 3032.63 1889.69 3032.63 1889.69Z" fill="white"/>
<path d="M3110.28 1912.82C3110.65 1913.02 3118.06 1913.97 3119.61 1928.22C3119.89 1930.89 3119.49 1939.17 3118.02 1945.05C3113.94 1961.29 3104.79 1987.27 3109.53 1999.36L3109.55 1999.42L3109.66 1999.65C3110.88 2002.32 3113.8 2004.53 3115.05 2003.51C3115.83 2002.88 3116.47 2002.66 3115.51 1999.56C3114.54 1996.48 3120.95 1992.11 3122.31 1997.4C3123.66 2002.68 3120.5 2004.18 3120.5 2004.18C3110.92 2009.74 3107.15 1998.66 3107.16 1998.63C3101.12 1986.32 3105.77 1963.31 3110.13 1945.98C3111.58 1940.18 3113.73 1931.4 3114.04 1928.88C3115.35 1918.04 3109.48 1914.98 3109.18 1914.81C3106.4 1913.34 3102.96 1914.53 3103.06 1916.3C3103.12 1917.29 3102.92 1917.94 3106 1918.98C3109.08 1920 3108.85 1927.76 3103.77 1925.75C3098.69 1923.75 3099.33 1920.31 3099.33 1920.31C3100.44 1909.31 3110.28 1912.82 3110.28 1912.82Z" fill="white"/>
<path d="M3180.13 1577.66L3152.7 1569.49L3173.97 1498.33L3201.39 1506.5L3180.13 1577.66Z" fill="#ED7C2A"/>
<path d="M3020.12 2012.92C3020.47 2010.03 3030.54 1944.07 3030.97 1941.27L3030.98 1941.19L3031.01 1941.14L3175.71 1521.79L3176.58 1522.13L3031.89 1941.42C3031.52 1943.87 3021.41 2010.13 3021.05 2012.97L3020.12 2012.92Z" fill="white"/>
<path d="M3026.04 2014.67L3041.31 1944.39L3178.42 1522.64L3179.3 1522.95L3042.2 1944.64L3026.97 2014.85L3026.04 2014.67Z" fill="white"/>
<path d="M3042.27 2019.67L3041.44 2019.23L3069.74 1953.06L3183.19 1524.83L3184.08 1525.06L3070.61 1953.39L3042.27 2019.67Z" fill="white"/>
<path d="M3037.9 2018.28L3055.67 1946.83L3180.81 1523.7L3181.69 1523.98L3056.56 1947.07L3038.8 2018.51L3037.9 2018.28Z" fill="white"/>
<path d="M3124.39 1558.99C3118.13 1557.12 3114.54 1550.48 3116.4 1544.23L3117.22 1541.5C3119.08 1535.26 3125.73 1531.66 3131.99 1533.53C3138.26 1535.38 3141.85 1542.02 3139.98 1548.27L3139.17 1551.02C3137.3 1557.26 3130.64 1560.84 3124.39 1558.99Z" fill="#ED7C2A"/>
<path d="M3127.41 1548.85L3157.29 1557.74L3159.41 1550.63L3129.54 1541.74L3127.41 1548.85Z" fill="#ED7C2A"/>
<path d="M3141.72 1531.01C3137.18 1529.66 3134.59 1524.85 3135.93 1520.33L3136.53 1518.35C3137.88 1513.82 3142.7 1511.23 3147.23 1512.57C3151.77 1513.92 3154.36 1518.73 3153.02 1523.25L3152.42 1525.23C3151.07 1529.76 3146.25 1532.35 3141.72 1531.01Z" fill="#ED7C2A"/>
<path d="M3143.91 1523.67L3165.54 1530.12L3167.09 1524.96L3145.45 1518.52L3143.91 1523.67Z" fill="#ED7C2A"/>
<path d="M3209.58 1584.35C3215.85 1586.2 3222.49 1582.62 3224.36 1576.38L3225.17 1573.63C3227.04 1567.38 3223.45 1560.74 3217.18 1558.89C3210.92 1557.02 3204.29 1560.62 3202.41 1566.86L3201.59 1569.59C3199.73 1575.84 3203.32 1582.48 3209.58 1584.35Z" fill="#ED7C2A"/>
<path d="M3212.61 1574.21L3182.74 1565.32L3184.86 1558.21L3214.74 1567.1L3212.61 1574.21Z" fill="#ED7C2A"/>
<path d="M3210.43 1551.45C3214.97 1552.81 3219.78 1550.21 3221.14 1545.69L3221.72 1543.71C3223.08 1539.18 3220.47 1534.38 3215.95 1533.03C3211.41 1531.67 3206.6 1534.28 3205.24 1538.8L3204.65 1540.78C3203.29 1545.31 3205.9 1550.11 3210.43 1551.45Z" fill="#ED7C2A"/>
<path d="M3212.63 1544.12L3190.99 1537.69L3192.54 1532.54L3214.16 1538.98L3212.63 1544.12Z" fill="#ED7C2A"/>
<path d="M3008.75 1992.26C3007.6 1996.09 2988.02 2137.71 2988.02 2137.71L3005.7 2142.96L3063.04 2008.43L3008.75 1992.26Z" fill="#ED7C2A"/>
<path d="M3193.73 1518.66L3191.08 1528.18L3171.22 1522.64L3174.35 1513.22L3193.73 1518.66Z" fill="#F99746"/>
<path d="M3344.42 1599.87C3344.42 1599.87 3366.13 1599.61 3370.7 1627.1C3375.26 1654.58 3271.06 1770.33 3244.18 1763.56C3214.32 1756.05 3146.01 1704.01 3146.01 1704.01L3154.21 1693.39C3154.21 1693.39 3241.26 1724.58 3246.99 1722.32C3252.71 1720.07 3335.04 1597.19 3344.42 1599.87Z" fill="#FFB17C"/>
<path d="M3325.55 1574.9C3325.55 1574.9 3359.2 1580.82 3370.85 1598.41C3380.06 1612.34 3370.85 1660.98 3370.85 1660.98C3370.85 1660.98 3337.07 1666.6 3296.63 1656.11L3325.55 1574.9Z" fill="#8C9CF4"/>
<path d="M3158.36 1694.88C3158.36 1694.88 3123.05 1680.01 3117 1682.04C3110.95 1684.06 3095.49 1692.63 3093.11 1696.16C3090.74 1699.68 3105.89 1695.48 3110.65 1695.08C3113.73 1694.82 3120.97 1698.9 3124.57 1700.87C3133.62 1705.83 3140.36 1705.18 3144.8 1705.69C3147.78 1706.04 3152.69 1709.01 3152.69 1709.01L3158.36 1694.88Z" fill="#FFB17C"/>
<path d="M3113.62 1691.22C3113.62 1691.22 3104.81 1699.13 3102.25 1699.8C3099.72 1700.47 3098.25 1699.92 3098.25 1699.92L3104.64 1692.15L3113.62 1691.22Z" fill="#FFB17C"/>
<path d="M3116.99 1682.04L3094.38 1688.35C3094.38 1688.35 3095.01 1689.95 3097.59 1690.29C3100.17 1690.65 3107.05 1689.46 3107.05 1689.46L3116.99 1682.04Z" fill="#FFB17C"/>
<path d="M3144.8 1705.69C3144.8 1705.69 3137.55 1709.82 3130.84 1708.09C3124.15 1706.38 3117.9 1706.79 3118.03 1704.98C3118.14 1703.18 3127.56 1700.57 3127.56 1700.57L3144.8 1705.69Z" fill="#FFB17C"/>
<path d="M3139.17 1602.2C3139.17 1602.2 3155.7 1598.61 3154.97 1604.68C3154.23 1610.77 3139.78 1623.54 3135.72 1619.99C3131.66 1616.44 3135.55 1604.3 3139.17 1602.2Z" fill="#F4A169"/>
<path d="M1506.52 2344.09L1506.51 2344.27C1500.11 2344.68 1493.88 2345.29 1487.91 2346.09C1494.28 2345.18 1500.5 2344.54 1506.52 2344.09ZM1755.54 2509.21C1754.81 2501.86 1751.2 2495.09 1745.5 2490.36C1723.52 2472.07 1667.94 2424.57 1663.16 2408.57C1661.81 2404.13 1660.44 2400.06 1658.99 2396.34C1649.82 2372.51 1638.74 2363.09 1627.61 2359.11C1608.57 2352.36 1586.72 2347.87 1564.53 2345.53L1564.51 2345.19C1574.37 2346.33 1580.14 2347.53 1580.14 2347.53C1580.14 2347.53 1576.04 2340.72 1563.84 2335.52C1563.58 2329.45 1563.67 2323.27 1564.43 2317.99V2317.98C1572.86 2311.58 1581.05 2301.76 1585.74 2286.67C1590.18 2281.8 1594.01 2274.08 1592.84 2270.77C1592.47 2269.69 1591.97 2268.97 1591.39 2268.52C1592.07 2267.4 1592.69 2266.22 1593.26 2264.99C1598.01 2261.13 1597.3 2251.48 1600.17 2247.26C1603.62 2242.12 1607.86 2228.88 1604.37 2224.71C1600.88 2220.51 1599.36 2215.03 1598.44 2203.54C1597.53 2192.02 1589.2 2197.25 1582.22 2195.72C1575.23 2194.21 1576.63 2192.02 1573.13 2183.64C1569.64 2175.27 1561.95 2175.95 1550.06 2178.4C1538.19 2180.84 1540.61 2173.18 1528.39 2171.44C1516.16 2169.68 1511.26 2181.19 1500.5 2181.31C1489.74 2181.4 1487.83 2193.4 1478.05 2199.69C1468.26 2205.97 1478.05 2226.82 1478.05 2226.82C1477.58 2231.49 1478.05 2226.82 1473.2 2234.93C1468.33 2243.04 1476.65 2247.96 1473.7 2258.44C1470.75 2268.9 1481.68 2267.84 1481.68 2267.84C1481.71 2267.99 1481.77 2268.12 1481.8 2268.28C1479.97 2267.55 1477.56 2267.38 1476.38 2270.77C1474.62 2275.81 1484.29 2290.9 1490.24 2290.88C1494.32 2304.53 1500.1 2313.01 1506.45 2318.43C1506.81 2321.94 1507.19 2327.35 1507.15 2333.47C1492.44 2338.24 1485.44 2346 1485.02 2346.5C1479.88 2347.25 1474.94 2348.14 1470.22 2349.19C1454.35 2352.67 1441.22 2357.78 1432.65 2364.39C1414.1 2378.75 1361.7 2459.63 1341.49 2491.38C1336.18 2499.74 1332.94 2509.21 1331.99 2519.05L1325.58 2574.88C1406.16 2575.28 1490.45 2575.7 1577.32 2576.13H1577.33C1588.41 2576.19 1599.52 2576.23 1610.67 2576.3C1659.81 2576.54 1709.71 2576.78 1760.17 2577.02C1759.37 2548.79 1756.14 2514.97 1755.54 2509.21Z" fill="#1A2D4B"/>
<path d="M2345.31 2485C2344.42 2476.33 2340.18 2468.34 2333.46 2462.76C2307.56 2441.18 2242.03 2385.21 2236.39 2366.35C2224.72 2327.45 2209.64 2313.45 2194.45 2308.05C2172.02 2300.08 2146.27 2294.8 2120.11 2292.02C2119.12 2281.56 2118.58 2269.27 2120.01 2259.57V2259.54C2129.94 2251.99 2139.58 2240.42 2145.11 2222.62C2150.34 2216.9 2154.87 2207.8 2153.49 2203.88C2153 2202.45 2152.3 2201.58 2151.52 2201.06C2153.29 2198.26 2154.83 2195.15 2155.9 2191.56C2161.01 2174.31 2162.96 2139.32 2140.17 2120.59C2120.32 2104.28 2095.48 2093.66 2070.81 2100.55C2049.11 2106.61 2026.82 2126.62 2018.15 2152.07C2012.12 2169.77 2015.75 2188.47 2020.85 2200.48C2019.07 2200.25 2017.22 2200.9 2016.18 2203.88C2014.09 2209.81 2025.49 2227.57 2032.49 2227.58C2037.3 2243.71 2044.14 2253.69 2051.63 2260.09C2052.29 2266.58 2053.08 2278.56 2051.7 2290.54C2014.19 2293 1981.72 2301.07 1964.64 2314.28C1942.76 2331.19 1881 2426.54 1857.18 2463.97C1850.92 2473.81 1847.07 2485 1845.97 2496.59L1842.75 2530H2320.98C2333.01 2529.39 2346.53 2496.95 2345.31 2485Z" fill="#1A2D4B"/>
<path d="M2551.59 2475.21V2580.86C2493.09 2580.56 2433.96 2580.29 2374.49 2579.99C2277.6 2579.53 2179.84 2579.06 2082.55 2578.58C2078.69 2578.56 2074.84 2578.55 2070.98 2578.54L2089.47 2549.39C2091.63 2546.24 2094.39 2542.64 2097.46 2538.92C2099.84 2536 2102.41 2532.98 2105.05 2530C2115.09 2518.63 2125.87 2507.74 2129.76 2504.51C2153.78 2484.5 2214.54 2432.6 2219.76 2415.13C2225.79 2395.05 2232.77 2382.14 2240.25 2373.75C2246.16 2367.07 2252.4 2363.29 2258.65 2361.07C2269.04 2357.36 2280.22 2354.3 2291.8 2351.82C2303.4 2349.34 2315.43 2347.47 2327.56 2346.2C2328.49 2336.49 2328.98 2325.11 2327.66 2316.12C2327.66 2316.12 2305.72 2325.26 2300.47 2261.32C2298.95 2260.53 2297.59 2259.43 2296.48 2257.87C2278.88 2247.43 2278.17 2230.84 2281.27 2214.99C2286.65 2187.32 2310.77 2149.98 2350.7 2154.33C2358.36 2155.15 2366.07 2154.84 2373.66 2153.65C2388.51 2151.34 2412.68 2150.58 2424.15 2166.71C2468.44 2228.95 2413.93 2264.41 2422.09 2286.49C2430.23 2308.56 2483.45 2338.48 2471.72 2366.83V2366.84C2475.11 2369.48 2479.7 2374.39 2485.09 2380.91C2503.15 2402.74 2530.19 2442.61 2551.59 2475.21Z" fill="#1A2D4B"/>
<path d="M2103.07 2547.78C2103.6 2552.99 2093.7 2566.56 2082.55 2578.58C2078.69 2578.56 2074.84 2578.55 2070.98 2578.54C1966.2 2578.01 1862.06 2577.52 1760.17 2577.02C1709.71 2576.78 1659.81 2576.54 1610.67 2576.3L1604.02 2549.42L1602.75 2544.37C1600.11 2533.8 1602.55 2522.6 1609.39 2514.12C1609.7 2513.75 1610.02 2513.36 1610.33 2512.98C1619.86 2501.32 1632.64 2488.14 1635.91 2482.98C1639.45 2477.41 1644.18 2470.04 1649.61 2461.63C1644.7 2458.12 1641.81 2452.78 1641.62 2445.21C1641.17 2425.74 1649.07 2410.22 1658.99 2396.34C1679.76 2367.33 1709.47 2345.56 1690.57 2310.11C1677.38 2285.31 1735.33 2245.79 1742.78 2225.58C1750.24 2205.39 1753.97 2180.64 1775.87 2164.55C1797.79 2148.44 1833.53 2155.07 1833.53 2155.07C1875.78 2143.4 1901.25 2181.28 1906.62 2208.72C1909.41 2223.04 1908.77 2238.02 1893.25 2247.59C1892.02 2250.52 1890.39 2253.08 1888.57 2255.42C1886.23 2273.25 1879.71 2285.57 1871.96 2294.09C1872.87 2304.06 1876.71 2311.99 1884 2313.06C1917.39 2317.96 1927.36 2330.93 1930.15 2343.52C1932.21 2344.44 1934.25 2345.58 1936.28 2346.98C1946.01 2353.68 1955.29 2366.55 1962.87 2391.84C1967.66 2407.82 2023.26 2455.32 2045.24 2473.61C2050.91 2478.34 2072.69 2500.91 2082.11 2514.69L2091.81 2530L2097.46 2538.92L2103.07 2547.78Z" fill="#1A2D4B"/>
<path d="M1291.55 2547.78C1292.02 2552.43 1284.19 2563.71 1274.59 2574.64C1220.65 2574.36 1168.56 2574.1 1118.69 2573.86C1090.69 2573.74 1063.41 2573.59 1036.86 2573.47C955.137 2573.06 880.66 2572.69 815.35 2572.36C809.541 2572.33 803.812 2572.31 798.148 2572.29L791.208 2544.37C789.658 2538.11 789.885 2531.62 791.741 2525.62C793.032 2521.49 795.081 2517.59 797.872 2514.12C807.491 2502.19 820.998 2488.29 824.372 2482.98C827.921 2477.41 832.65 2470.04 838.089 2461.63C833.183 2458.12 830.278 2452.78 830.1 2445.21C829.341 2412.24 852.5 2390.56 869.009 2369.08C882.597 2351.37 891.666 2333.79 879.046 2310.11C865.845 2285.31 923.796 2245.79 931.253 2225.58C938.709 2205.39 942.436 2180.64 964.352 2164.55C986.267 2148.44 1021.98 2155.07 1021.98 2155.07C1064.24 2143.4 1089.73 2181.28 1095.08 2208.72C1097.89 2223.04 1097.25 2238.02 1081.72 2247.59C1080.5 2250.52 1078.87 2253.08 1077.04 2255.42C1074.7 2273.25 1068.17 2285.57 1060.44 2294.09C1061.34 2304.06 1065.18 2311.99 1072.48 2313.06C1105.87 2317.96 1115.84 2330.93 1118.63 2343.52C1130.54 2348.85 1142.19 2361.27 1151.34 2391.84C1152.81 2396.75 1159.07 2404.64 1167.7 2413.74C1187.12 2434.25 1218.46 2460.94 1233.69 2473.61C1239.39 2478.34 1261.14 2500.91 1270.58 2514.69L1291.55 2547.78Z" fill="#1A2D4B"/>
<path d="M1604.01 2549.42C1595.6 2559.73 1585.06 2570.44 1577.33 2576.13H1577.32C1490.45 2575.7 1406.16 2575.28 1325.58 2574.88C1308.41 2574.8 1291.4 2574.71 1274.58 2574.64C1220.65 2574.36 1168.56 2574.1 1118.69 2573.86L1106.03 2521.77C1103.33 2510.71 1105.83 2499 1112.84 2490.12C1122.68 2477.62 1136.49 2463.08 1139.96 2457.52C1146.32 2447.27 1156.33 2431.34 1167.7 2413.74C1193.2 2374.19 1225.53 2326.29 1238.66 2315.9C1253.49 2304.17 1281.69 2297.01 1314.24 2294.83C1314.43 2293.03 1314.59 2291.23 1314.69 2289.45C1276.91 2288.62 1240.49 2277.01 1226.09 2241.43C1215.1 2214.3 1241.68 2209.29 1249.31 2188.13C1256.95 2167 1260.75 2141.12 1283.19 2124.26C1305.6 2107.4 1342.15 2114.33 1342.15 2114.33C1385.4 2102.14 1411.48 2141.76 1416.97 2170.49C1419.83 2185.48 1419.18 2201.16 1403.28 2211.17C1402.03 2214.24 1400.36 2216.9 1398.49 2219.35C1396.86 2232.1 1393.23 2242.15 1388.58 2250.07C1389.68 2251.2 1390.99 2252.15 1392.6 2252.81C1404.95 2257.81 1413.24 2272.09 1404.59 2275.03C1395.94 2277.99 1385.02 2281.03 1372.82 2283.57C1372.95 2287.86 1373.24 2292.15 1373.61 2296.14C1396.31 2298.61 1418.66 2303.29 1438.14 2310.36C1449.52 2314.49 1460.83 2324.32 1470.22 2349.19C1471.72 2353.11 1473.16 2357.41 1474.53 2362.13C1479.44 2378.87 1536.32 2428.55 1558.8 2447.73C1564.62 2452.67 1586.89 2476.3 1596.54 2490.7L1610.33 2512.98L1618 2525.35C1618.41 2529.63 1612.23 2539.34 1604.01 2549.42Z" fill="#1A2D4B"/>
<path d="M815.35 2572.36C809.541 2572.33 803.812 2572.31 798.148 2572.29C769.535 2572.14 742.794 2572.01 718.119 2571.88C659.813 2571.6 604.751 2553.95 558.613 2523.27C504.728 2487.45 463.012 2433.81 442.564 2369.18C444.179 2367.52 445.647 2366.19 446.923 2365.2C461.43 2354 488.962 2347.16 520.785 2345.07C520.978 2343.35 521.125 2341.63 521.221 2339.94C484.297 2339.16 448.697 2328.05 434.641 2294.06C423.91 2268.12 449.875 2263.32 457.331 2243.13C464.788 2222.92 468.515 2198.2 490.43 2182.1C512.346 2166 548.075 2172.61 548.075 2172.61C590.323 2160.96 615.805 2198.82 621.179 2226.26C623.971 2240.59 623.325 2255.56 607.801 2265.13C606.574 2268.08 604.944 2270.63 603.121 2272.96C601.54 2285.14 597.989 2294.74 593.438 2302.32C594.504 2303.38 595.779 2304.29 597.376 2304.92C609.431 2309.69 617.548 2323.36 609.076 2326.16C600.635 2328.98 589.953 2331.9 578.043 2334.33C578.156 2338.43 578.446 2342.52 578.8 2346.33C600.991 2348.68 622.842 2353.15 641.867 2359.92C649.663 2362.7 657.409 2368.12 664.494 2379.26C669.157 2386.57 673.53 2396.31 677.436 2409.38C682.23 2425.37 737.807 2472.86 759.787 2491.17C764.629 2495.19 781.138 2512.17 791.741 2525.62C793.597 2527.97 795.258 2530.19 796.662 2532.25L817.641 2565.34C817.803 2566.97 816.948 2569.4 815.35 2572.36Z" fill="#1A2D4B"/>
<path d="M2806.66 2271.25L2806.65 2271.45C2799.34 2271.92 2792.26 2272.64 2785.51 2273.61C2792.79 2272.52 2799.85 2271.76 2806.66 2271.25ZM3055.69 2436.38C3054.94 2429.02 3051.34 2422.25 3045.65 2417.52C3031.76 2405.95 3004.45 2382.75 2985.03 2363.18C2973.71 2351.79 2965.06 2341.63 2963.3 2335.75C2953.41 2302.74 2940.63 2290.88 2927.73 2286.3C2908.71 2279.53 2886.86 2275.03 2864.68 2272.69L2864.66 2272.37C2874.52 2273.49 2880.29 2274.69 2880.29 2274.69C2880.29 2274.69 2876.19 2267.88 2863.98 2262.7C2863.72 2256.61 2863.82 2250.43 2864.59 2245.17V2245.14C2873.01 2238.75 2881.2 2228.93 2885.87 2213.83C2890.32 2208.97 2894.15 2201.26 2892.99 2197.93C2892.6 2196.85 2892.11 2196.13 2891.54 2195.68C2892.22 2194.56 2892.85 2193.4 2893.4 2192.15C2898.17 2188.29 2897.46 2178.64 2900.32 2174.42C2903.77 2169.31 2908 2156.04 2904.51 2151.87C2901 2147.68 2899.5 2142.21 2898.59 2130.7C2897.67 2119.19 2889.36 2124.41 2882.38 2122.88C2875.38 2121.37 2876.77 2119.19 2873.28 2110.8C2869.78 2102.43 2862.09 2103.11 2850.21 2105.56C2838.31 2108.01 2840.77 2100.34 2828.54 2098.6C2816.31 2096.86 2811.4 2108.35 2800.65 2108.47C2789.88 2108.57 2787.98 2120.59 2778.19 2126.85C2768.4 2133.13 2778.19 2153.98 2778.19 2153.98C2777.72 2158.66 2778.19 2153.98 2773.32 2162.09C2768.47 2170.2 2776.8 2175.12 2773.85 2185.6C2770.9 2196.06 2781.82 2195 2781.82 2195C2781.86 2195.15 2781.91 2195.28 2781.95 2195.45C2780.12 2194.72 2777.71 2194.55 2776.5 2197.93C2774.74 2202.97 2784.45 2218.07 2790.38 2218.04C2794.48 2231.69 2800.25 2240.17 2806.59 2245.59C2806.95 2249.1 2807.34 2254.53 2807.29 2260.63C2792.11 2265.57 2785.15 2273.67 2785.15 2273.67C2762.68 2276.96 2743.91 2282.97 2732.79 2291.56C2722.62 2299.43 2702.28 2327.3 2682.63 2356.1C2666.45 2379.83 2650.78 2404.2 2641.64 2418.56C2636.34 2426.9 2633.07 2436.37 2632.14 2446.21L2596.71 2581.07C2687.08 2581.5 2775.72 2581.92 2861.48 2582.32C2878.56 2582.4 2895.53 2582.49 2912.37 2582.56C2971.38 2582.84 3028.88 2583.1 3084.48 2583.35C3075 2527.29 3056.37 2443.1 3055.69 2436.38Z" fill="#1A2D4B"/>
<path d="M3643.75 2585.81H3641.99C3568.94 2585.53 3479.19 2585.13 3376.81 2584.68C3373.65 2584.67 3370.45 2584.65 3367.26 2584.64C3300.77 2584.36 3229.06 2584.03 3153.26 2583.68L3155.13 2564.22C3156.25 2552.62 3160.09 2541.44 3166.35 2531.6C3187.02 2499.11 3236.26 2423.03 3263.2 2392.43C3267.32 2387.76 3270.92 2384.15 3273.81 2381.91C3290.89 2368.7 3323.37 2360.63 3360.88 2358.16C3362.24 2346.18 3361.46 2334.21 3360.81 2327.71C3353.32 2321.32 3346.48 2311.34 3341.65 2295.21C3334.66 2295.21 3323.27 2277.44 3325.35 2271.5C3326.39 2268.53 3328.25 2267.88 3330.02 2268.11C3324.91 2256.1 3321.28 2237.39 3327.33 2219.69C3335.99 2194.25 3358.28 2174.25 3379.99 2168.18C3404.66 2161.28 3429.51 2171.9 3449.35 2188.22C3472.13 2206.95 3470.17 2241.94 3465.08 2259.19C3464 2262.8 3462.48 2265.87 3460.71 2268.69C3461.48 2269.21 3462.17 2270.07 3462.65 2271.5C3464.04 2275.44 3459.53 2284.52 3454.28 2290.24C3448.75 2308.05 3439.12 2319.62 3429.19 2327.18V2327.2C3427.75 2336.91 3428.28 2349.19 3429.29 2359.65C3455.45 2362.43 3481.19 2367.71 3503.62 2375.68C3511.8 2378.58 3519.92 2383.98 3527.53 2394.4C3534.05 2403.33 3540.17 2415.99 3545.56 2433.99C3551.21 2452.84 3616.72 2508.83 3642.64 2530.39C3649.34 2535.99 3653.61 2543.96 3654.47 2552.62C3655.24 2560 3650.38 2575.14 3643.75 2585.81Z" fill="#1A2D4B"/>
<path d="M1036.86 2573.47C955.138 2573.06 880.661 2572.69 815.351 2572.36C809.541 2572.33 803.813 2572.31 798.148 2572.29C769.535 2572.14 742.795 2572.01 718.12 2571.88C659.814 2571.6 604.751 2553.95 558.613 2523.27C585.257 2481.67 640.336 2397.68 660.75 2381.91C661.928 2381 663.17 2380.13 664.494 2379.26C682.325 2367.62 712.892 2360.46 747.814 2358.16C749.186 2346.18 748.411 2334.21 747.749 2327.71C740.261 2321.32 733.419 2311.34 728.609 2295.21C721.605 2295.21 710.212 2277.44 712.295 2271.51C713.326 2268.53 715.183 2267.88 716.958 2268.11C711.875 2256.1 708.243 2237.39 714.264 2219.69C722.945 2194.25 745.215 2174.25 766.92 2168.18C791.595 2161.28 816.447 2171.9 836.297 2188.22C859.068 2206.95 857.115 2241.94 852.016 2259.19C850.951 2262.8 849.417 2265.87 847.643 2268.69C848.417 2269.21 849.111 2270.07 849.612 2271.51C850.983 2275.44 846.465 2284.52 841.22 2290.24C835.685 2308.05 826.05 2319.62 816.125 2327.18V2327.2C814.69 2336.91 815.222 2349.19 816.222 2359.65C834.328 2361.56 852.257 2364.69 869.009 2369.08C876.466 2371.04 883.662 2373.23 890.569 2375.68C905.755 2381.08 920.844 2395.07 932.496 2433.99C938.144 2452.84 1003.66 2508.83 1029.58 2530.39C1036.28 2535.99 1040.54 2543.96 1041.43 2552.62C1041.91 2557.4 1040.04 2565.47 1036.86 2573.47Z" fill="#1A2D4B"/>
<path d="M3851.72 2475.21V2511.39C3794.55 2558.2 3721.69 2585.72 3643.75 2585.81H3641.99C3568.94 2585.53 3479.19 2585.13 3376.81 2584.68C3373.65 2584.67 3370.45 2584.65 3367.26 2584.64L3389.61 2549.39C3391.76 2546.24 3394.53 2542.64 3397.59 2538.92C3409.11 2524.84 3424.99 2508.6 3429.9 2504.51C3453.93 2484.5 3514.68 2432.6 3519.91 2415.13C3522.31 2407.13 3524.85 2400.29 3527.53 2394.4C3536.92 2373.7 3547.82 2364.96 3558.77 2361.07C3579.59 2353.68 3603.46 2348.76 3627.7 2346.2H3627.71C3628.64 2336.49 3629.13 2325.11 3627.8 2316.12C3627.8 2316.12 3605.87 2325.26 3600.62 2261.32C3599.09 2260.53 3597.72 2259.43 3596.63 2257.87C3579.03 2247.43 3578.3 2230.84 3581.4 2214.99C3586.8 2187.32 3610.92 2149.98 3650.85 2154.33C3658.49 2155.15 3666.2 2154.84 3673.81 2153.65C3688.65 2151.34 3712.81 2150.58 3724.3 2166.71C3768.59 2228.95 3714.08 2264.41 3722.24 2286.49C3730.38 2308.56 3783.57 2338.48 3771.84 2366.83V2366.84C3786.59 2378.26 3823.93 2432.87 3851.72 2475.21Z" fill="#1A2D4B"/>
<path d="M3403.22 2547.78C3403.85 2553.91 3390.07 2571.53 3376.81 2584.68C3373.65 2584.67 3370.45 2584.65 3367.26 2584.64C3300.77 2584.36 3229.06 2584.03 3153.26 2583.68C3130.68 2583.58 3107.76 2583.46 3084.48 2583.35C3028.88 2583.1 2971.38 2582.84 2912.37 2582.56L2902.88 2544.37C2900.25 2533.8 2902.71 2522.6 2909.53 2514.12C2919.15 2502.19 2932.67 2488.29 2936.04 2482.98C2939.59 2477.41 2944.33 2470.04 2949.76 2461.63C2944.84 2458.12 2941.95 2452.78 2941.78 2445.21C2940.94 2409.21 2968.63 2386.68 2985.03 2363.18C2996.03 2347.39 3001.94 2331.16 2990.72 2310.11C2977.5 2285.31 3035.45 2245.79 3042.93 2225.58C3050.39 2205.39 3054.11 2180.64 3076.02 2164.55C3097.93 2148.44 3133.65 2155.07 3133.65 2155.07C3175.9 2143.4 3201.41 2181.28 3206.75 2208.72C3209.55 2223.04 3208.92 2238.02 3193.38 2247.59C3192.16 2250.52 3190.54 2253.08 3188.72 2255.42C3186.38 2273.25 3179.84 2285.57 3172.11 2294.09C3173.02 2304.06 3176.85 2311.99 3184.15 2313.06C3217.54 2317.96 3227.51 2330.93 3230.3 2343.52C3242.21 2348.85 3253.87 2361.27 3263.02 2391.84C3263.08 2392.02 3263.15 2392.22 3263.2 2392.43C3269.15 2408.97 3323.64 2455.54 3345.37 2473.61C3351.05 2478.34 3372.82 2500.91 3382.24 2514.69L3397.59 2538.92L3403.22 2547.78Z" fill="#1A2D4B"/>
<path d="M2861.48 2582.32C2775.72 2581.92 2687.08 2581.5 2596.71 2581.07C2581.72 2581 2566.68 2580.92 2551.59 2580.86C2493.09 2580.56 2433.96 2580.29 2374.49 2579.99L2370.01 2561.93C2367.39 2551.35 2369.83 2540.15 2376.68 2531.68C2386.3 2519.74 2399.8 2505.84 2403.18 2500.53C2419.49 2474.9 2460.22 2411.82 2485.09 2380.91C2491.02 2373.51 2496.06 2367.98 2499.65 2365.2C2514.13 2354 2541.68 2347.16 2573.49 2345.07C2573.69 2343.35 2573.83 2341.63 2573.94 2339.94C2537 2339.16 2501.42 2328.05 2487.35 2294.06C2476.62 2268.12 2502.6 2263.32 2510.05 2243.13C2517.51 2222.92 2521.24 2198.2 2543.16 2182.1C2565.06 2166 2600.78 2172.61 2600.78 2172.61C2643.05 2160.96 2668.53 2198.82 2673.89 2226.26C2676.68 2240.59 2676.04 2255.56 2660.51 2265.13C2659.28 2268.08 2657.67 2270.63 2655.84 2272.96C2654.24 2285.14 2650.69 2294.74 2646.14 2302.32C2647.23 2303.38 2648.49 2304.29 2650.08 2304.92C2662.14 2309.69 2670.26 2323.36 2661.8 2326.16C2653.35 2328.98 2642.66 2331.9 2630.75 2334.33C2630.86 2338.43 2631.16 2342.52 2631.53 2346.33C2649.19 2348.2 2666.64 2351.42 2682.63 2356.1C2686.73 2357.27 2690.71 2358.56 2694.59 2359.92C2707.47 2364.51 2720.26 2376.37 2730.14 2409.38C2734.93 2425.37 2790.52 2472.86 2812.49 2491.17C2818.2 2495.9 2839.94 2518.47 2849.36 2532.25L2870.35 2565.34C2870.67 2568.57 2867 2575.01 2861.48 2582.32Z" fill="#1A2D4B"/>
<path d="M685.42 1445.85C609.09 1438.15 533.769 1415.38 480.82 1396.16C1351.56 1080.56 1478.85 426.389 1478.85 426.389C1341.45 1156.88 856.75 1386.56 685.42 1445.85Z" fill="#EF7242"/>
<path d="M407.385 1366.25C407.385 1366.25 568.996 1443.23 721.282 1448.29C721.282 1448.29 749.671 1488.53 725.187 1537.92C725.187 1537.92 578.926 1554.29 414.072 1498.74L407.385 1366.25Z" fill="#FFA560"/>
<path d="M442.392 1381.39C420.35 1372.43 407.385 1366.25 407.385 1366.25L407.395 1366.44C402.593 1317.29 398.188 1266.71 394.959 1215.55C547.317 1135.11 899.85 998.224 1248.78 474.744C1247.12 479.512 1068.44 988.446 442.405 1381.39C442.405 1381.39 442.401 1381.39 442.392 1381.39Z" fill="#EF7242"/>
<path d="M427.75 1382.1C422.43 1382.1 415.956 1381.85 408.837 1381.05C408.352 1376.19 407.873 1371.33 407.395 1366.44L407.385 1366.25C407.385 1366.25 420.35 1372.43 442.392 1381.39C442.085 1381.43 436.463 1382.1 427.75 1382.1Z" fill="#F48A50"/>
<path d="M3678.03 1457.49C3678.03 1457.49 2991.9 1312.48 2824.07 420.118C2824.07 420.118 2967.45 1091.2 3838.2 1406.8L3678.03 1457.49Z" fill="#EF7242"/>
<path d="M3864.83 1384.79C3238.79 991.845 3055.8 473.246 3054.12 468.478C3396.79 982.551 3752.96 1120.11 3909.93 1201.07C3906.41 1259.79 3901.26 1317.85 3895.63 1374.04C3876.68 1376.23 3864.83 1384.79 3864.83 1384.79Z" fill="#EF7242"/>
<path d="M3896.18 1368.44C3896.18 1368.44 3727.7 1447.27 3568.94 1452.45C3568.94 1452.45 3539.35 1493.65 3564.87 1544.23C3564.87 1544.23 3717.36 1560.98 3889.22 1504.1L3896.18 1368.44Z" fill="#FFA560"/>
</g>
<defs>
<clipPath id="clip0_146_16415">
<rect width="4256" height="2832" fill="white"/>
</clipPath>
</defs>
</svg>
