<svg width="4519" height="2832" viewBox="0 0 4519 2832" fill="none" xmlns="http://www.w3.org/2000/svg">
<g clip-path="url(#clip0_146_16340)">
<path fill-rule="evenodd" clip-rule="evenodd" d="M0 0H4519V2832H0V0Z" fill="white"/>
<path d="M4518.94 2832H0V-0.000255585H4518.94V2832Z" fill="white"/>
<path d="M608.268 2534.77C608.268 2534.77 134.183 2025.66 528.092 1474.47C877.596 985.414 1204 962.69 1545.32 1073.4C1792.85 1153.69 1872.37 1093.92 2278.3 669.117C2905.91 12.334 4140.01 480.661 3982.11 1535.07C3904.84 2051.12 4421.46 2030.77 4152.95 2535.84L608.268 2534.77Z" fill="#EBF2F9"/>
<path d="M3218.73 640.829C3394.9 712.517 3630.52 1014.02 3607.43 1499.98C3589.85 1869.74 3916.95 2117.68 3916.95 2117.68C3656.2 2137.1 3579.85 2363.09 3306.18 2275.99C3057.83 2196.98 2816.72 2199.88 2816.72 2199.88C2861.31 1583.95 3099.76 1375.54 3150.45 957.856C3176.3 744.882 3218.73 640.829 3218.73 640.829Z" fill="#699EEF"/>
<path d="M3970.69 2531.26H3740.75C3728.43 2520.81 3749.27 2497.07 3771.06 2495.47C3780.51 2494.75 3792.48 2496.73 3806.15 2499.62C3809.31 2457.6 3827.39 2268.63 3895.49 2276.22C3972.06 2284.72 3895.49 2359.44 3873.84 2403.67C3857.8 2436.44 3840.9 2483.42 3833.17 2505.6C3839.38 2506.94 3845.82 2508.26 3852.39 2509.48C3862.54 2478.31 3900.3 2373.47 3948.32 2379.57C4004.71 2386.72 3982.04 2428.77 3942.08 2453.72C3912.76 2472.07 3876.76 2498.14 3859.65 2510.74C3874.14 2513.1 3889.27 2514.7 3904.62 2514.35C3944 2513.41 3963.23 2525.01 3970.69 2531.26Z" fill="#82B377"/>
<path d="M779.755 2520.85C770.622 2506.5 743.139 2469.26 706.534 2474.19C666.651 2479.56 750.583 2505.85 776.278 2520.95C770.573 2521.03 765.665 2520.58 762.063 2519.29C744.883 2513.16 715.463 2524.91 706.057 2529.03H869.602C868.472 2525.12 865.526 2518.72 857.908 2514.08C855.222 2512.44 849.824 2512.2 842.857 2512.73C852.582 2501.26 859.335 2464.65 832.263 2474.06C812.487 2480.95 812.539 2503.33 814.482 2516.57C810.274 2517.24 806.007 2517.9 801.791 2518.5C793.649 2476.99 764.849 2355.35 706.477 2352.1C647.298 2348.82 756.658 2478.27 793.07 2519.66C788.405 2520.23 783.913 2520.65 779.755 2520.85Z" fill="#82B377"/>
<path d="M4300.72 2539.92H400.314C397.818 2539.92 395.775 2537.88 395.775 2535.38V2533.58C395.775 2531.07 397.818 2529.03 400.314 2529.03H4300.72C4303.22 2529.03 4305.25 2531.07 4305.25 2533.58V2535.38C4305.25 2537.88 4303.22 2539.92 4300.72 2539.92Z" fill="#2D3452"/>
<path d="M1322.46 701.169C1322.46 701.169 1014.22 607.955 817.426 878.603C620.626 1149.25 832.26 1342.77 541.463 1431.08C183.877 1539.69 214.331 1875.51 214.331 1875.51C214.331 1875.51 488.315 1840.21 564.27 1923.03C675.722 2044.55 991.63 1890.84 991.63 1890.84C991.63 1890.84 943.536 1631.69 1084.55 1594.74C1225.57 1557.78 1322.46 701.169 1322.46 701.169Z" fill="#DB5952"/>
<path d="M1906.96 2529.03H1690.99C1680.61 2516.36 1684.43 2469.57 1686 2454.3C1686.33 2451.22 1691.17 2406.35 1691.17 2406.35C1691.17 2406.35 1760.3 2390.42 1770.42 2435.61C1770.74 2437.02 1771.1 2438.41 1771.51 2439.77C1784.28 2482.02 1841.52 2501.24 1874.58 2506.57C1896.07 2510.07 1904.01 2521.24 1906.96 2529.03Z" fill="#233862"/>
<path d="M1773.17 2420.58C1773.17 2420.58 1752.12 2434.25 1721.33 2436.6C1693.85 2438.69 1674.69 2428.57 1674.69 2428.57C1674.69 2428.57 1525.7 2100.91 1512.62 1964.02C1508.64 1922.31 1464.94 1866.7 1409.74 1806.22C1312.74 1699.92 1180.18 1578.5 1165.1 1490.78C1160.61 1464.64 1166.55 1441.47 1187.01 1422.6C1196.4 1413.93 1205.52 1405.95 1214.37 1398.61C1325.96 1305.85 1391.94 1314.35 1391.94 1314.35C1391.94 1314.35 1443.46 1383.64 1504.99 1477.57C1587.82 1604.03 1688.78 1775.17 1706.42 1881.88C1737.15 2067.81 1773.17 2420.58 1773.17 2420.58Z" fill="#2A468A"/>
<path d="M1504.99 1477.57L1409.73 1806.22C1312.74 1699.92 1180.18 1578.5 1165.1 1490.78C1179.6 1462.81 1197.12 1430.2 1214.37 1398.61C1325.96 1305.85 1391.94 1314.35 1391.94 1314.35C1391.94 1314.35 1443.46 1383.64 1504.99 1477.57Z" fill="#233862"/>
<path d="M1261.51 2529.03H1045.54C1035.16 2516.36 1038.98 2469.57 1040.56 2454.3C1040.88 2451.22 1045.72 2406.35 1045.72 2406.35C1045.72 2406.35 1114.85 2390.42 1124.98 2435.61C1125.29 2437.02 1125.66 2438.41 1126.07 2439.77C1138.83 2482.02 1196.08 2501.24 1229.14 2506.57C1250.63 2510.07 1258.57 2521.24 1261.51 2529.03Z" fill="#233862"/>
<path d="M1379.77 1339.33C1379.77 1339.33 1313.18 1888.63 1308.05 1956.71C1302.99 2024.04 1141.1 2427.79 1138.79 2436.88C1138.76 2436.98 1110.04 2447.34 1078.74 2443.07C1046.38 2438.66 1034.88 2424.02 1034.88 2424.02C1034.88 2424.02 1034.68 2012.05 1090.35 1936.22C1163.69 1836.31 915.738 1439.09 1131.1 1241.4C1346.47 1043.7 1379.77 1339.33 1379.77 1339.33Z" fill="#2A468A"/>
<path d="M1475.36 754.916C1475.36 754.916 1602.4 795.615 1636.55 881.226C1670.71 966.837 1694.61 1227.81 1694.61 1227.81L1610.47 1212.95L1439.64 1058.74L1475.36 754.916Z" fill="#699EEF"/>
<path d="M1515.56 1018.32C1459.86 1150.75 1509.79 1403.44 1425.42 1454.27C1341.05 1505.1 1131 1501.43 1049.02 1465.56C969.753 1430.87 1033.91 1242.21 1084.55 1039.08C1086.28 1032.17 1087.99 1025.25 1089.68 1018.32C1098.47 982.125 1111.09 949.025 1126 919.015C1197.87 774.081 1322.46 701.168 1322.46 701.168L1524.54 775.875C1524.54 775.875 1571.27 885.882 1515.56 1018.32Z" fill="#699EEF"/>
<path d="M1322.46 701.169C1322.46 701.169 1409.35 674.387 1444.14 566.278L1484.91 633.166L1512.62 678.595C1512.62 678.595 1505.8 697.063 1489.88 727.998C1485.69 736.132 1480.86 745.149 1475.36 754.916C1510.84 813.797 1322.46 701.169 1322.46 701.169Z" fill="#FFB17C"/>
<path d="M1512.62 678.595C1512.62 678.595 1505.79 697.063 1489.88 727.998C1449.34 705.061 1425.42 617.615 1425.42 617.615C1449.7 619.167 1469.37 624.947 1484.91 633.166L1512.62 678.595Z" fill="#ED975D"/>
<path d="M1535.95 684.994C1535.95 684.994 1406.02 661.307 1422.01 580.607C1438.01 499.904 1432.01 442.496 1515.63 454.207C1599.28 465.918 1609.24 499.899 1610.45 528.134C1611.66 556.369 1570.15 689.076 1535.95 684.994Z" fill="#FFB17C"/>
<path d="M1417.38 1026.79C1417.38 1026.79 1744.13 960.007 1945.82 1131.83C1945.82 1131.83 1958.63 1582.71 1584.99 1726.47C1584.99 1726.47 1241.46 1482.79 1417.38 1026.79Z" fill="white"/>
<path d="M1591.65 1693.35C1591.65 1693.35 1280.08 1472.31 1439.64 1058.74C1439.64 1058.74 1563.78 1033.38 1700.95 1057.73C1775.73 1070.99 1854.38 1099.03 1918.91 1154.01C1918.91 1154.01 1930.53 1562.92 1591.65 1693.35Z" fill="#F99746"/>
<path d="M1247.22 919.015C1247.22 919.015 1152.47 1001.25 1084.55 1039.08C1086.28 1032.17 1087.99 1025.25 1089.68 1018.31C1098.47 982.125 1111.09 949.024 1126 919.015H1247.22Z" fill="#5087D6"/>
<path d="M1808.1 998.248L1088.32 1357.85L1049.02 1279.16L1769.04 919.446C1791.83 908.058 1817.65 904.225 1842.78 908.511L1877.47 914.426L1861.48 945.496C1849.73 968.305 1831.04 986.782 1808.1 998.248Z" fill="#D6E8FF"/>
<path d="M1877.47 914.426L1068.67 1318.5L1049.02 1279.16L1769.04 919.445C1791.83 908.058 1817.65 904.225 1842.78 908.511L1877.47 914.426Z" fill="#AED3FF"/>
<path d="M1101.24 1433.67L998.787 1228.53C996.066 1223.09 998.297 1216.4 1003.74 1213.68L1028.69 1201.22C1034.14 1198.5 1040.82 1200.73 1043.54 1206.17L1145.99 1411.31C1148.71 1416.76 1146.48 1423.45 1141.03 1426.17L1116.09 1438.63C1110.64 1441.35 1103.96 1439.12 1101.24 1433.67Z" fill="#F99746"/>
<path d="M1077.72 1330.59L1067.06 1309.26C1063.56 1302.24 1054.95 1299.37 1047.94 1302.87L944.875 1354.37C937.86 1357.87 934.989 1366.48 938.492 1373.49L949.146 1394.82C952.648 1401.84 961.253 1404.71 968.268 1401.21L1071.33 1349.71C1078.35 1346.21 1081.22 1337.6 1077.72 1330.59Z" fill="#F99746"/>
<path d="M950.964 1427.81L912.122 1350.04C909.142 1344.07 911.586 1336.74 917.553 1333.76L928.403 1328.34C934.37 1325.36 941.693 1327.8 944.673 1333.77L983.516 1411.55C986.496 1417.52 984.052 1424.84 978.085 1427.82L967.235 1433.25C961.268 1436.22 953.946 1433.78 950.964 1427.81Z" fill="#F99746"/>
<path d="M959.72 1259.91C959.72 1259.91 991.471 1267.29 1012.71 1283.12C1033.95 1298.94 1062.25 1354.25 1039.07 1365.83C1015.89 1377.41 993.358 1391.67 983.112 1380.79C976.298 1373.56 968.203 1360.98 963.543 1353.36C961.333 1349.75 956.733 1348.44 952.946 1350.33C952.946 1350.33 916.729 1314.15 917.646 1270.24C917.911 1257.55 959.72 1259.91 959.72 1259.91Z" fill="#FFB17C"/>
<path d="M1322.46 701.169C1322.46 701.169 1267.77 675.322 1163.69 712.72C1059.61 750.12 834.217 916.636 818.849 983.242C803.483 1049.85 917.628 1283.12 917.628 1283.12C917.628 1283.12 933.063 1285.06 949.671 1279.39C967.173 1273.41 976.02 1264.79 976.02 1264.79C976.02 1264.79 954.597 1013.98 967.404 1013.98C980.211 1013.98 1284.79 929.263 1284.79 929.263L1322.46 701.169Z" fill="#699EEF"/>
<path d="M1424.56 573.201C1424.56 573.201 1437.9 575.618 1442.1 557.556C1446.29 539.493 1454.46 516.844 1467.03 526.13C1479.6 535.418 1476.25 546.953 1484.4 542.444C1492.57 537.934 1502.64 510.212 1545.27 523.344C1587.88 536.478 1599.67 557.196 1622.25 555.63C1644.83 554.062 1656.46 524.917 1656.46 524.917C1656.46 524.917 1647.13 533.462 1637.56 533.803C1637.56 533.803 1686.06 500.995 1659.36 456.95C1632.66 412.905 1587.09 419.082 1564.82 412.57C1515.76 398.222 1483.71 389.959 1456.68 415.88C1429.66 441.802 1404.66 531.752 1424.56 573.201Z" fill="#2A468A"/>
<path d="M1591.64 1693.35C1591.64 1693.35 1758.71 1403.93 1700.95 1057.73C1775.73 1070.99 1854.38 1099.03 1918.9 1154.01C1918.9 1154.01 1930.53 1562.92 1591.64 1693.35Z" fill="#ED7C2A"/>
<path d="M1277.31 691.731C1277.31 691.731 1381.44 801.236 1460.89 821.664C1460.89 821.664 1388.59 696.866 1359.59 681.981C1330.59 667.094 1277.31 691.731 1277.31 691.731Z" fill="#DB5952"/>
<path d="M1460.89 821.664L1475.36 754.916L1484.66 737.968C1484.66 737.968 1521.67 749.605 1523.1 762.74C1524.54 775.874 1460.89 821.664 1460.89 821.664Z" fill="#DB5952"/>
<path d="M1439.64 872.048C1439.64 872.048 1427.24 840.451 1460.89 821.664C1460.89 821.664 1475.24 854.114 1439.64 872.048Z" fill="#DB5952"/>
<path d="M1492.01 893.397C1492.01 893.397 1498.96 830.204 1460.89 821.664C1460.89 821.664 1462.3 840.451 1466.89 857.53C1471.46 874.609 1492.01 893.397 1492.01 893.397Z" fill="#DB5952"/>
<path d="M1450.57 821.664C1450.57 815.97 1455.18 811.355 1460.89 811.355C1466.58 811.355 1471.2 815.97 1471.2 821.664C1471.2 827.356 1466.58 831.971 1460.89 831.971C1455.18 831.971 1450.57 827.356 1450.57 821.664Z" fill="#DB5952"/>
<path d="M2549.82 816.863C2559.12 841.888 2575.26 870.933 2592.18 878.155C2611.38 886.342 2619.38 897.911 2619.38 897.911L2634.88 888.914L2653.38 878.155C2653.38 878.155 2652.95 876.099 2652.04 872.75C2651.15 869.417 2649.76 864.774 2647.89 859.629C2647.89 859.629 2642.2 852.331 2645.68 843.158C2649.17 834 2648.47 819.841 2642.53 811.201C2636.59 802.577 2630.86 781.316 2627.29 781.949C2618.63 783.434 2631.54 812.656 2627.84 818.078C2624.49 822.98 2620.3 821.298 2619.52 820.925C2619.48 820.895 2619.43 820.876 2619.38 820.845C2595.1 810.166 2565.65 752.602 2552.61 760.369C2547.74 763.282 2545.86 806.202 2549.82 816.863Z" fill="#FFB17C"/>
<path d="M3070.19 692.59C3070.19 692.59 2915.41 962.596 2859.26 1012.28L2653.37 858.75C2653.37 858.75 2623.5 867.915 2610.42 897.91C2610.42 897.91 2735.44 1152.68 2858.54 1163.48C2981.63 1174.28 3154.41 858.111 3154.41 858.111L3070.19 692.59Z" fill="#9C2F28"/>
<path d="M3420.44 2529.03H3509.86C3521.13 2522.92 3531.15 2508.93 3534.32 2488.05C3538.69 2459.24 3570.97 2443.52 3577.97 2419.94C3584.93 2396.38 3549.16 2363.22 3549.16 2363.22L3543.17 2355.5L3536.94 2347.49L3477.59 2361.48C3477.59 2361.48 3476.12 2375.61 3475.23 2393.62C3474.58 2406.62 3474.24 2421.63 3474.97 2434.8C3476.71 2466.22 3466.18 2500.08 3438.26 2506.18C3417.62 2510.7 3418.54 2522.94 3420.44 2529.03Z" fill="#233862"/>
<path d="M2901.45 2529.03H3105.95C3115.79 2517.03 3112.16 2472.72 3110.68 2458.26C3110.37 2455.34 3110.15 2453.64 3110.15 2453.64C3110.15 2453.64 3040.32 2397.77 3030.73 2440.56C3030.43 2441.91 3030.08 2443.21 3029.7 2444.5C3017.61 2484.53 2963.4 2502.71 2932.1 2507.76C2911.75 2511.08 2904.22 2521.66 2901.45 2529.03Z" fill="#233862"/>
<path d="M2940.41 1387.26C2940.41 1387.26 2951.01 1519.58 2963.47 1678.65C2980.42 1894.74 3000.79 2160.15 3002.8 2210.43C3006.28 2297.74 3020.27 2437.4 3020.27 2437.4C3020.27 2437.4 3053.41 2470.59 3119.77 2456.6C3119.77 2456.6 3178.89 2257.23 3195.78 2046.29C3196.03 2042.83 3196.3 2039.35 3196.56 2035.87C3212.27 1821.12 3236.71 1368.92 3236.71 1368.92L2940.41 1387.26Z" fill="#F99746"/>
<path d="M2940.41 1387.26C2940.41 1387.26 2951.01 1519.58 2963.47 1678.65L3195.78 2046.29C3196.03 2042.84 3196.3 2039.35 3196.56 2035.87C3212.27 1821.12 3236.71 1368.92 3236.71 1368.92L2940.41 1387.26Z" fill="#DD7C2B"/>
<path d="M2988.84 1402.97C2988.84 1402.97 3179.98 1882.22 3305.65 2107.43C3431.33 2332.66 3470.61 2395.5 3470.61 2395.5C3470.61 2395.5 3542.62 2366.7 3549.16 2347.06C3549.16 2347.06 3501.09 1912.27 3416.93 1806.26C3369.37 1746.38 3313.51 1566.65 3310.89 1503.79C3308.27 1440.95 3293.87 1316.55 3293.87 1316.55L2988.84 1402.97Z" fill="#F99746"/>
<path d="M3036.41 704.328C3111.1 727.903 3240.34 664.281 3240.34 664.281C3240.34 664.281 3171.48 612.586 3175.09 505.101L3117.33 551.65L3078.1 583.267C3078.1 583.267 3078.27 601.906 3082.55 634.575C3083.69 643.166 3085.09 652.746 3086.86 663.215C3054.81 680.818 3036.41 704.328 3036.41 704.328Z" fill="#FFB17C"/>
<path d="M3078.1 583.267C3078.1 583.267 3078.27 601.906 3082.55 634.575C3126.02 627.115 3175.33 556.843 3175.33 556.843C3153.19 550.453 3133.82 549.305 3117.33 551.65L3078.1 583.267Z" fill="#ED975D"/>
<path d="M3055.27 581.497C3055.27 581.497 3178.63 601.998 3190.21 524.953C3201.79 447.913 3225.52 398.672 3147.25 382.327C3068.96 365.98 3049.21 393.071 3039.08 417.846C3028.96 442.62 3023.47 574.179 3055.27 581.497Z" fill="#FFB17C"/>
<path d="M2929.69 1430.51C2940.41 1438.95 3057.08 1429.4 3126.02 1420.18C3222.31 1407.3 3248.22 1411.96 3303.67 1387.09C3311.03 1383.8 3308.82 1349.26 3308.44 1341.03C3308.19 1332.01 3307.29 1318.94 3306.18 1302.47C3302.24 1245.22 3295.4 1146.75 3302.07 1033.14C3303.27 1011.99 3303.9 991.003 3303.98 970.345C3304.55 816.375 3274.02 680.946 3212.68 635.11C3207.44 631.358 3175.28 647.079 3145.73 661.658C3118.42 675.134 3091.13 676.618 3065.32 671.399L3039.52 694.209C3008.09 723.389 2973.69 763.048 2958.73 823.272C2946 874.522 2938.53 966.934 2934.42 1062.7C2932.55 1106.1 2931.04 1149.87 2930.67 1191.4V1192.89C2930.3 1197 2930.3 1201.5 2930.3 1205.62C2928.8 1312.23 2925.32 1427.07 2929.69 1430.51Z" fill="#B5443B"/>
<path d="M3306.17 1302.47C3302.24 1245.22 3295.4 1146.75 3302.07 1033.14C3303.27 1011.99 3303.9 991.003 3303.98 970.345C3278.43 908.35 3257.54 863.39 3257.54 863.39H3193.14C3193.14 863.39 3145.91 1185.97 3306.17 1302.47Z" fill="#9C2F28"/>
<path d="M3463.89 1328.29C3440.68 1332.81 3415.55 1330.98 3415.55 1330.98C3415.55 1330.98 3346.69 1118.24 3337.83 1098.81C3328.97 1079.37 3133.31 849.364 3133.31 849.364L3237.2 664.281C3237.2 664.281 3415.44 876.093 3452.41 1034.16C3472.76 1121.25 3495.77 1314.73 3495.77 1314.73C3495.77 1314.73 3482.09 1324.74 3463.89 1328.29Z" fill="#B5443B"/>
<path d="M3187.86 535.201C3187.86 535.201 3177.66 515.424 3179.69 497.982C3181.75 480.541 3181.72 457.743 3167.53 461.99C3153.36 466.239 3152.65 477.596 3146.83 470.963C3141 464.333 3140.9 436.401 3098.71 434.456C3056.53 432.51 3039.38 447.197 3019.76 438.571C3000.14 429.944 2999.1 400.245 2999.1 400.245C2999.1 400.245 2999.13 400.278 2999.16 400.34C3002.95 407.303 3013.43 405.994 3015.36 398.3C3018.82 384.361 3027.66 363.548 3050.11 345.355C3088 314.654 3111.38 340.225 3133.31 341.553C3181.63 344.479 3230.93 384.502 3237.24 419.395C3248.89 483.754 3193.06 519.096 3187.86 535.201Z" fill="#FF9742"/>
<path d="M2695.8 1355.53L3375.4 1427.4L3383.26 1353.1L2703.44 1281.21C2681.91 1278.93 2660.22 1283.57 2641.5 1294.46L2615.67 1309.49L2637.63 1329.45C2653.77 1344.1 2674.12 1353.24 2695.8 1355.53Z" fill="#D6E8FF"/>
<path d="M2615.67 1309.49L3379.34 1390.25L3383.26 1353.1L2703.44 1281.21C2681.91 1278.93 2660.22 1283.57 2641.5 1294.46L2615.67 1309.49Z" fill="#AED3FF"/>
<path d="M3387.69 1491.56L3408.16 1297.87C3408.72 1292.73 3404.95 1288.07 3399.81 1287.53L3376.25 1285.04C3371.1 1284.49 3366.46 1288.26 3365.91 1293.4L3345.43 1487.1C3344.9 1492.24 3348.66 1496.9 3353.8 1497.43L3377.34 1499.93C3382.5 1500.46 3387.14 1496.71 3387.69 1491.56Z" fill="#233862"/>
<path d="M3375.73 1402.55L3377.87 1382.41C3378.56 1375.79 3384.55 1370.94 3391.18 1371.64L3488.49 1381.93C3495.12 1382.63 3499.96 1388.62 3499.27 1395.25L3497.13 1415.39C3496.44 1422.02 3490.45 1426.86 3483.82 1426.17L3386.5 1415.87C3379.88 1415.17 3375.04 1409.18 3375.73 1402.55Z" fill="#233862"/>
<path d="M3505.5 1442.18L3513.25 1368.74C3513.86 1363.11 3509.73 1358.01 3504.09 1357.41L3493.86 1356.33C3488.22 1355.73 3483.13 1359.86 3482.53 1365.49L3474.76 1438.93C3474.17 1444.56 3478.29 1449.66 3483.92 1450.25L3494.17 1451.34C3499.8 1451.94 3504.9 1447.82 3505.5 1442.18Z" fill="#233862"/>
<path d="M3435.09 1312.33C3435.09 1312.33 3423.44 1322.38 3412 1347.67C3402.74 1368.18 3396.33 1419.65 3418.22 1421.98C3440.1 1424.28 3459.95 1428.01 3464.88 1416.31C3468.13 1408.52 3471.9 1394.14 3473.34 1386.69C3474.02 1383.16 3477.29 1380.75 3480.88 1381.13C3480.88 1381.13 3498.93 1341.56 3485.12 1306.9C3481.14 1296.88 3435.09 1312.33 3435.09 1312.33Z" fill="#FFB17C"/>
<path d="M3447.95 1269.11C3426.85 1265.3 3394.83 1267.31 3398.18 1277.6C3401.54 1287.88 3415.55 1330.98 3415.55 1330.98C3439.92 1334.64 3477.68 1328.39 3495.77 1314.73C3487.54 1267.71 3447.95 1269.11 3447.95 1269.11Z" fill="#B5443B"/>
<path d="M2917.94 685.261C2917.94 685.261 2658.57 527.416 2432.9 612.501C2432.9 612.501 2283.13 994.815 2558.96 1233.06C2558.96 1233.06 2928.26 1130.09 2917.94 685.261Z" fill="white"/>
<path d="M2563.44 1202.62C2563.44 1202.62 2898.4 1109.23 2889.03 705.78C2889.03 705.78 2790.5 645.819 2665.47 624.439C2597.34 612.765 2521.33 612.567 2449.12 639.794C2449.12 639.794 2313.28 986.531 2563.44 1202.62Z" fill="#31508C"/>
<path d="M2563.44 1202.62C2563.44 1202.62 2509.42 903.234 2665.47 624.439C2597.34 612.765 2521.33 612.567 2449.12 639.794C2449.12 639.794 2313.28 986.531 2563.44 1202.62Z" fill="#233862"/>
<path d="M3240.34 664.281C3240.34 664.281 3140.58 718.94 3071.08 728.691C3071.08 728.691 3177.5 632.343 3204.87 626.966C3226.43 622.731 3240.34 664.281 3240.34 664.281Z" fill="#699EEF"/>
<path d="M3071.08 728.691L3077.56 682.263C3077.56 682.263 3076.66 670.56 3073.46 669.449C3069.31 668.008 3042.45 676.905 3039.96 687.932C3037.49 698.962 3071.08 728.691 3071.08 728.691Z" fill="#699EEF"/>
<path d="M3084.15 774.747C3084.15 774.747 3097.71 749.072 3070.91 729.874C3070.91 729.874 3055.58 756.086 3084.15 774.747Z" fill="#699EEF"/>
<path d="M3037.57 787.879C3037.57 787.879 3037.71 733.485 3070.91 729.874C3070.91 729.874 3067.9 745.711 3062.36 759.793C3056.82 773.874 3037.57 787.879 3037.57 787.879Z" fill="#699EEF"/>
<path d="M3079.32 732.559C3081.17 726.515 3076.46 720.604 3070.16 721.08C3066.63 721.344 3063.55 723.812 3062.5 727.188C3060.63 733.232 3065.34 739.145 3071.66 738.669C3075.17 738.403 3078.27 735.935 3079.32 732.559Z" fill="#699EEF"/>
</g>
<defs>
<clipPath id="clip0_146_16340">
<rect width="4519" height="2832" fill="white"/>
</clipPath>
</defs>
</svg>
