<svg width="4531" height="2832" viewBox="0 0 4531 2832" fill="none" xmlns="http://www.w3.org/2000/svg">
<g clip-path="url(#clip0_148_17278)">
<rect width="4531" height="2832" fill="white"/>
<path fill-rule="evenodd" clip-rule="evenodd" d="M142 0H4389.53V2832H142V0Z" fill="white"/>
<path d="M4389.53 2832H142V-1.14441e-05H4389.53V2832Z" fill="white"/>
<path d="M3677.9 800.169C3612.53 915.352 3437.29 989.399 3303.76 1032.94C3120.11 1093.54 2841.72 1126.12 2738.3 965.194C2663.73 849.01 2841.09 651.478 3069.72 512.517L3069.75 512.504C3151.79 462.609 3243.93 418.233 3335.65 389.021C3600.58 304.728 3798.01 588.541 3677.9 800.169Z" fill="#FBEBDB"/>
<path d="M2704.95 421.865H3128.96C3140.63 421.865 3150.17 431.409 3150.17 443.071V658.184C3150.17 669.849 3140.63 679.39 3128.96 679.39H3093.11L3110.43 752.502L3001.76 679.39H2704.95C2693.28 679.39 2683.74 669.849 2683.74 658.184V443.071C2683.74 431.409 2693.28 421.865 2704.95 421.865Z" fill="#F0A34F"/>
<path d="M2729.23 536.278H3103.8C3108.9 536.278 3113.08 532.103 3113.08 527C3113.08 521.898 3108.9 517.722 3103.8 517.722H2729.23C2724.12 517.722 2719.94 521.898 2719.94 527C2719.94 532.103 2724.12 536.278 2729.23 536.278Z" fill="#FFBA77"/>
<path d="M3103.8 559.249H2729.23C2724.12 559.249 2719.94 563.424 2719.94 568.526C2719.94 573.628 2724.12 577.805 2729.23 577.805H3103.8C3108.9 577.805 3113.08 573.628 3113.08 568.526C3113.08 563.424 3108.9 559.249 3103.8 559.249Z" fill="#FFBA77"/>
<path d="M3103.8 600.775H2729.23C2724.12 600.775 2719.94 604.951 2719.94 610.053C2719.94 615.154 2724.12 619.329 2729.23 619.329H3103.8C3108.9 619.329 3113.08 615.154 3113.08 610.053C3113.08 604.951 3108.9 600.775 3103.8 600.775Z" fill="#FFBA77"/>
<path d="M2933.29 471.78H3092.31C3098.38 471.78 3103.35 466.81 3103.35 460.734C3103.35 454.662 3098.38 449.69 3092.31 449.69H2933.29C2927.22 449.69 2922.25 454.662 2922.25 460.734C2922.25 466.81 2927.22 471.78 2933.29 471.78Z" fill="#FFBA77"/>
<path d="M2796.64 471.78H2892.32C2897.12 471.78 2901.05 467.851 2901.05 463.05V458.42C2901.05 453.62 2897.12 449.69 2892.32 449.69H2796.64C2791.84 449.69 2787.92 453.62 2787.92 458.42V463.05C2787.92 467.851 2791.84 471.78 2796.64 471.78Z" fill="#FFBA77"/>
<path d="M3439.67 498.3C3423.94 488.676 3398.82 500.178 3398.82 500.178C3407.52 487.972 3439.19 491.962 3439.19 491.962C3376.08 478.533 3362.9 518.886 3361.83 522.664C3316.04 481.349 3242.75 569.42 3242.75 569.42L3347.92 708.848C3347.92 708.848 3357.52 686.665 3370.2 693.591C3389.96 704.386 3428.17 660.699 3415.96 603.222C3414.64 597.008 3413.05 591.341 3411.28 586.126C3415.4 587.924 3420.06 589.372 3424.41 589.372C3435.9 589.372 3453.28 560.032 3455.63 550.174C3457.96 540.316 3455.39 507.923 3439.67 498.3Z" fill="#233862"/>
<path d="M3449.14 977.217C3453.93 900.541 3416.73 817.511 3386.35 793.725C3381.56 789.963 3376.93 787.547 3372.63 786.665C3371.74 786.427 3370.79 785.91 3369.8 785.117C3361.25 778.232 3349.71 750.811 3347.85 708.753C3347.67 704.586 3347.57 700.296 3347.58 695.854C3347.58 695.854 3347.6 695.854 3347.58 695.841L3343.38 696.671L3339.34 697.464H3339.33L3272.49 710.703C3272.87 715.495 3274.14 737.821 3274.14 754.033C3274.2 771.55 3273.14 788.151 3269.17 790.24C3269.06 790.25 3268.07 790.331 3267.02 790.434C3264.67 790.669 3261.19 791.04 3260.95 791.084C3260.95 791.084 3235.14 826.974 3216.18 873.475C3216.18 873.488 3216.18 873.514 3216.18 873.526L3216.17 873.538C3206.51 897.236 3198.68 923.664 3196.99 949.44C3195.95 965.446 3197.42 979.554 3199.95 993.258V993.272C3203.72 1013.51 3210.06 1034.75 3213.83 1058.17C3245.37 1050.81 3275.67 1042.2 3303.76 1032.94C3349.37 1018.07 3399.84 999.633 3449.14 977.217Z" fill="#FFB17C"/>
<path d="M3272.49 710.705C3272.49 710.705 3274.1 733.014 3274.14 754.03C3313.82 752.914 3334.79 716.724 3343.37 696.668L3272.49 710.705Z" fill="#E8935B"/>
<path d="M3350.68 688.949C3350.68 688.949 3371.47 656.104 3376.47 628.016C3380.02 607.964 3369.81 533.637 3295.13 544.34C3295.13 544.34 3273.44 546.479 3253.05 560.252C3236.84 571.203 3213.43 594.849 3239.6 659.709L3246.39 681.619L3350.68 688.949Z" fill="#233862"/>
<path d="M3259.24 730.604C3259.24 730.604 3353.09 732.154 3353.15 673.69C3353.22 615.225 3365.37 576.052 3305.46 572.592C3245.54 569.132 3233.88 591.427 3229.11 610.935C3224.33 630.444 3234.83 728.695 3259.24 730.604Z" fill="#FFB17C"/>
<path d="M3262.72 571.161C3262.72 571.161 3288.42 639.748 3327.85 649.889C3367.28 660.03 3384.38 649.464 3384.38 649.464C3384.38 649.464 3374.17 610.474 3367.9 568.525C3367.9 568.525 3282.1 538.513 3262.72 571.161Z" fill="#233862"/>
<path d="M3269.08 576.727C3269.08 576.727 3249.89 592.039 3245.22 606.929C3240.53 621.817 3238.44 652.463 3229.5 651.42C3229.5 651.42 3210.15 604.803 3231.9 578.429C3254.97 550.464 3269.08 576.727 3269.08 576.727Z" fill="#233862"/>
<path d="M3493.98 954.22C3478.36 962.025 3463.03 969.347 3447.98 976.243C3439.2 980.271 3430.54 984.147 3421.99 987.871C3420.87 988.364 3419.73 988.841 3418.63 989.32C3407.69 949.827 3398.48 917.409 3398.48 917.409L3391.56 887.369L3377.57 826.811V826.797L3367.9 784.904C3367.9 784.904 3368.57 784.967 3369.8 785.117C3372.88 785.468 3379.5 786.275 3387.78 787.583C3402.86 789.986 3423.49 794.064 3438.55 800.131C3438.66 800.182 3438.78 800.22 3438.89 800.281C3439.17 800.383 3439.43 800.496 3439.7 800.608C3447.32 803.794 3453.36 807.505 3456.35 811.783C3456.36 811.797 3456.38 811.81 3456.38 811.823C3456.38 811.834 3456.39 811.848 3456.4 811.861C3456.42 811.861 3456.42 811.872 3456.42 811.885C3456.84 812.502 3457.2 813.131 3457.5 813.772C3470.2 841.711 3482.9 897.45 3493.98 954.22Z" fill="#FFB17C"/>
<path d="M3265.52 579.045C3265.52 579.045 3283.83 650.87 3333.58 673.873C3333.58 673.873 3283.83 629.745 3279.59 582.33C3275.38 534.917 3265.52 579.045 3265.52 579.045Z" fill="#233862"/>
<path d="M3136.82 948.455C3135.45 954.673 3134.13 961.14 3132.91 967.887C3129.69 985.607 3127.08 1005.19 3125.28 1026.76C3125.28 1026.76 3046.56 977.601 3029.08 952.004C3029.08 949.89 3030.38 926.898 3028.15 911.256C3027.33 905.505 3026.05 900.747 3024.03 898.381C3023.09 897.261 3022.01 896.078 3020.85 894.856C3020.84 894.844 3020.85 894.844 3020.85 894.844C3017.03 890.906 3012.28 886.69 3007.91 883.392C3003.32 879.932 2999.14 877.478 2996.86 877.427C2996.75 877.415 2996.65 877.415 2996.54 877.427C2996.4 877.439 2996.23 877.478 2996.06 877.541C2990.62 879.353 2973.19 903.315 2978.66 921.802C2984.28 940.892 3008.06 966.718 3008.06 966.718C3008.06 966.718 3048.01 1035.97 3095.9 1078.34C3124.64 1075.3 3153.3 1070.81 3181.28 1065.23C3188.49 1045.64 3195.01 1019.24 3199.95 993.272V993.258C3207.6 953.127 3212.8 909.153 3216.16 873.538L3216.18 873.526V873.461C3217.95 854.699 3219.24 838.264 3220.09 825.93C3220.79 815.912 3221.22 808.613 3221.42 804.988C3221.53 803.303 3221.56 802.422 3221.56 802.422C3221.56 802.422 3220.34 802.901 3218.18 804.132C3205.52 811.28 3160.24 843.498 3136.82 948.455Z" fill="#FFB17C"/>
<path d="M3303.76 1032.94C3365.23 1012.89 3435.54 986.38 3499.9 952.371C3487.44 898.575 3471.53 840.102 3457.75 813.873C3457.4 813.194 3456.96 812.526 3456.42 811.885C3456.42 811.872 3456.42 811.861 3456.41 811.861C3456.39 811.848 3456.38 811.834 3456.38 811.823C3456.38 811.81 3456.36 811.797 3456.35 811.783C3455.27 810.463 3453.87 809.204 3452.19 807.997C3452.31 807.82 3452.4 807.719 3452.4 807.719C3448.51 804.889 3443.88 802.422 3438.89 800.281C3438.78 800.22 3438.67 800.182 3438.55 800.131C3416.44 790.68 3387.79 787.547 3387.79 787.547C3387.79 787.547 3387.79 787.558 3387.78 787.584C3387.71 787.923 3387.19 790.202 3386.35 793.725C3384.55 801.264 3381.25 814.503 3377.57 826.797V826.811C3373.72 839.648 3369.45 851.452 3365.99 854.61C3357.52 862.35 3235.01 875.023 3232.19 860.954C3229.5 847.502 3264.45 795.053 3267.02 790.434C3256.86 791.378 3237.98 794.117 3230.14 795.45C3216.22 797.84 3207.71 803.794 3206.91 804.713C3190.43 817.209 3151.65 855.567 3136.5 948.004C3136.5 948.004 3136.61 948.166 3136.82 948.455C3139.53 951.968 3157.75 974.884 3182.67 982.032C3183.37 982.247 3184.1 982.422 3184.8 982.599C3183.46 1005.08 3179.31 1037.15 3175.39 1066.38C3220.75 1057.6 3264.43 1045.92 3303.76 1032.94Z" fill="#80BCCC"/>
<path d="M3063.28 900.722L3019.84 913.742C3018.4 914.175 3016.89 913.356 3016.46 911.914L2991.63 829.074C2991.2 827.631 2992.01 826.115 2993.45 825.681L3036.89 812.66C3038.34 812.228 3039.85 813.046 3040.29 814.488L3065.11 897.331C3065.55 898.771 3064.73 900.289 3063.28 900.722Z" fill="#F0A34F"/>
<path d="M3052 904.105L3012.59 915.916C3010.05 916.682 3007.34 915.231 3006.58 912.674L2982.96 833.873C2982.2 831.314 2983.65 828.621 2986.2 827.855L3025.61 816.044C3028.17 815.276 3030.86 816.729 3031.62 819.285L3055.24 898.088C3056 900.646 3054.56 903.338 3052 904.105Z" fill="#D86712"/>
<path d="M3418.14 990.751C3414.02 979.92 3409.22 970.774 3406.03 971.512C3403.03 972.203 3393.05 986.107 3384.28 1004.38C3395.51 1000.04 3406.82 995.495 3418.14 990.751Z" fill="#5E9AA8"/>
<path d="M2992.8 880.265C2992.8 880.265 3006.51 867.825 3017.71 879.59C3028.91 891.351 3013.46 912.373 3002.17 917.378C2990.88 922.388 2987.12 925.222 2987.12 925.222L2992.8 880.265Z" fill="#FFB17C"/>
<path d="M3277.57 695.901C3277.57 695.901 3275.96 702.789 3258.81 701.727C3258.81 701.727 3244.43 700.84 3244.86 693.266C3244.86 693.266 3258.82 687.88 3277.57 695.901Z" fill="white"/>
<path d="M2214.64 538.869L2359.32 586.177L2272.66 501.695L2263.85 522.336L2226.62 522.517L2214.64 538.869Z" fill="#CA5E00"/>
<path d="M2359.32 586.177L2247.03 500.742L2127.06 473.335L2359.32 586.177Z" fill="#F0A34F"/>
<path d="M2272.66 501.695L2359.32 586.177L2301.56 467.823L2272.66 501.695Z" fill="#F0A34F"/>
<path d="M1056.46 2450.08L3519.96 2448.28C3519.96 2448.28 3879.95 1933.77 3697.42 1529.82C3595.99 1305.36 3279.17 1168.66 2861.58 1269.87C2553.86 1344.46 2322.34 1086.08 2055.47 1046.45C2049.24 1045.53 2042.98 1044.72 2036.72 1044.04C1905.21 1029.78 1764.6 1071.07 1601.81 1232.63C1483.88 1349.67 1439.59 1721.62 1192.4 1701.41C723.835 1663.12 627.985 2316.66 1056.46 2450.08Z" fill="#FBEBDB"/>
<path d="M2559.34 1766.12L2578.44 1874.3L2631.15 2173.12L2678.29 2440.24C2678.99 2444.29 2682.6 2447.24 2686.81 2447.24C2690.53 2447.24 2693.41 2444.07 2692.91 2440.49L2652.26 2137.66L2608.8 1813.77L2602.24 1764.9L2559.34 1766.12Z" fill="#A0795E"/>
<path d="M1564.65 2447.24C1568.87 2447.24 1572.47 2444.29 1573.19 2440.24L1615.06 2202.9L1675.29 1861.57L1692.12 1766.12L1649.22 1764.9L1641.79 1820.31L1589.53 2209.68L1558.55 2440.49C1558.09 2444.07 1560.93 2447.24 1564.65 2447.24Z" fill="#A0795E"/>
<path d="M1888.19 1855.24C1884.76 1770.93 1877.37 1697.6 1868.52 1646.45C1854.43 1564.94 1841.73 1518.04 1841.59 1517.54C1839.74 1510.36 1812.91 1481.36 1753.27 1482.25C1693.62 1483.15 1699.27 1521.19 1699.27 1521.19C1699.27 1522.48 1699.44 1523.67 1699.71 1524.58C1700.28 1526.53 1755.03 1725.07 1752.66 1981.41C1752.62 1985.01 1752.22 1991.22 1752.48 1995.37C1752.48 1995.39 1890.69 1998.94 1890.72 1995.37C1895.55 1972.97 1893.2 1910.89 1888.19 1855.24Z" fill="#D1A585"/>
<path d="M1905.56 1980.15C1905.52 1983.72 1903.63 1986.58 1901.34 1986.58H1901.28C1898.98 1986.52 1897.15 1983.66 1897.12 1980.15H1778.67C1778.63 1983.72 1776.75 1986.58 1774.45 1986.58H1774.4C1772.06 1986.52 1770.19 1983.56 1770.22 1979.95C1770.91 1906.57 1766.72 1838.05 1760.39 1777.58C1744.65 1626.77 1715.54 1525.97 1715.13 1524.58C1714.87 1523.67 1714.7 1522.48 1714.7 1521.2C1714.7 1521.2 1709.04 1483.15 1768.69 1482.26C1828.34 1481.35 1855.16 1510.38 1857.03 1517.54C1857.12 1517.91 1864.32 1544.47 1873.86 1592.22C1877.03 1608.04 1880.44 1626.18 1883.95 1646.45C1892.79 1697.6 1900.18 1770.93 1903.61 1855.23C1908.62 1910.89 1910.37 1957.75 1905.56 1980.15Z" fill="#E4BC9E"/>
<path d="M1905.56 1980.15C1905.52 1983.72 1903.64 1986.58 1901.34 1986.58H1901.28C1898.98 1986.52 1897.15 1983.66 1897.12 1980.15H1778.67C1778.63 1983.72 1776.75 1986.58 1774.45 1986.58H1774.4C1772.06 1986.52 1770.19 1983.56 1770.22 1979.95C1770.91 1906.57 1766.72 1838.05 1760.39 1777.58C1779.99 1681.87 1855.67 1608.68 1873.86 1592.22C1877.03 1608.04 1880.44 1626.18 1883.96 1646.45C1892.79 1697.6 1900.18 1770.93 1903.61 1855.23C1908.62 1910.89 1910.37 1957.75 1905.56 1980.15Z" fill="#DFB697"/>
<path d="M1812.64 1970.65C1799.42 1970.65 1790.07 1971.26 1786.79 1974.63C1786.77 1974.64 1786.76 1974.64 1786.76 1974.65C1786.7 1971.27 1786.52 1964.96 1786.19 1953.06C1785.81 1939.04 1785.13 1917.17 1784.17 1892.48C1782.45 1849.31 1779.51 1789.91 1775.11 1752.14C1769.98 1708.28 1739.37 1529.86 1739.2 1529.29C1739.02 1528.66 1738.92 1527.81 1738.92 1526.99C1738.9 1526.79 1737.71 1518.09 1744.2 1510.48C1750.63 1502.91 1762.14 1498.95 1778.38 1498.71C1779.06 1498.69 1779.72 1498.69 1780.39 1498.69C1822.58 1498.69 1841.93 1518.89 1843.38 1524.44C1843.7 1525.7 1877.64 1663.4 1883.54 1741.54C1884.1 1748.79 1885.3 1761.09 1886.84 1776.67C1890.18 1810.61 1894.77 1857.08 1896.97 1896.22C1900.17 1953.53 1896.5 1966.31 1892.86 1966.95C1868.37 1971.24 1843.77 1970.96 1824.01 1970.75C1819.97 1970.69 1816.16 1970.65 1812.64 1970.65ZM1786.19 1978.92L1786.52 1978.69C1786.62 1978.62 1786.69 1978.56 1786.73 1978.1L1786.8 1978.08C1786.77 1977.06 1787.08 1976.25 1787.75 1975.58C1791.51 1971.74 1805.84 1971.89 1823.99 1972.11C1843.82 1972.33 1868.48 1972.6 1893.09 1968.3C1905.8 1966.06 1897.24 1868.14 1888.19 1776.54C1886.66 1760.97 1885.44 1748.66 1884.9 1741.43L1884.22 1741.48L1884.9 1741.43C1879.01 1663.52 1845.01 1525.16 1844.68 1524.07C1843.18 1518.24 1822.73 1496.68 1778.36 1497.35C1761.68 1497.6 1749.83 1501.72 1743.14 1509.61C1736.27 1517.71 1737.5 1526.7 1737.56 1527.09C1737.56 1527.95 1737.67 1528.91 1737.9 1529.68C1738.08 1530.44 1768.75 1709.4 1773.75 1752.3C1781.99 1822.89 1785.3 1969.61 1785.44 1977.77C1785.44 1977.87 1785.44 1977.97 1785.44 1978.07L1785.45 1978.48L1786.19 1978.92Z" fill="#D1A585"/>
<path d="M1761.47 1986.58H2225.85C2225.85 1986.58 2215.05 1942.81 1946.1 1949.32C1755.78 1953.94 1761.47 1986.58 1761.47 1986.58Z" fill="#E4BC9E"/>
<path d="M1723.67 2443.73C1777.51 2171.12 1763.68 2003.85 1763.61 2001.74C1763.47 1997.54 1771.2 1993.73 1775.36 1993.6C1779.58 1993.52 1798.16 1992.35 1800.31 1995.95C1803.13 2000.65 1813.97 2206.77 1733.72 2443.73H1723.67Z" fill="#D1A585"/>
<path d="M2157.27 2443.73C2103.43 2171.12 2117.27 2003.85 2117.33 2001.74C2117.47 1997.54 2109.74 1993.73 2105.58 1993.6C2101.36 1993.52 2082.78 1992.35 2080.63 1995.95C2077.81 2000.65 2066.97 2206.77 2147.22 2443.73H2157.27Z" fill="#D1A585"/>
<path d="M2243.2 2443.73C2189.35 2171.12 2203.2 2003.85 2203.26 2001.74C2203.4 1997.54 2195.67 1993.73 2191.5 1993.6C2187.29 1993.52 2168.71 1992.35 2166.56 1995.95C2163.74 2000.65 2152.89 2206.77 2233.14 2443.73H2243.2Z" fill="#A0795E"/>
<path d="M1810.18 2443.73C1864.02 2171.12 1850.17 2003.85 1850.12 2001.74C1849.98 1997.54 1857.71 1993.73 1861.87 1993.6C1866.09 1993.52 1884.66 1992.35 1886.82 1995.95C1889.63 2000.65 1900.48 2206.77 1820.23 2443.73H1810.18Z" fill="#A0795E"/>
<path d="M2226.14 2000.54H1761.74C1756.52 2000.54 1752.24 1996.26 1752.24 1991.04V1984.78C1752.24 1979.54 1756.52 1975.26 1761.74 1975.26H2226.14C2231.36 1975.26 2235.65 1979.54 2235.65 1984.78V1991.04C2235.65 1996.26 2231.36 2000.54 2226.14 2000.54Z" fill="#D1A585"/>
<path d="M2209.83 1581.12L2364.18 1547.67L2373.27 1569.83C2373.27 1569.83 2202.94 1671.19 2186.99 1666.24C2171.03 1661.27 2209.83 1581.12 2209.83 1581.12Z" fill="#FFB17C"/>
<path d="M2069.47 2279.34C2065.61 2283.77 2065.13 2288.71 2067.04 2294.01C2067.04 2294.02 2067.05 2294.06 2067.07 2294.08C2070.61 2303.86 2082.3 2314.78 2095.88 2325.68C2097.62 2327.08 2099.16 2328.36 2100.51 2329.53C2100.85 2329.84 2101.2 2330.16 2101.54 2330.47C2101.81 2330.71 2102.08 2330.96 2102.33 2331.19C2115.01 2342.86 2110.24 2345.53 2132.99 2369.22C2158.93 2396.21 2176.78 2396.71 2181.86 2394.24C2186.17 2392.15 2177.43 2377.83 2167.76 2361.75C2167.28 2360.97 2166.83 2360.17 2166.35 2359.4C2165.06 2357.26 2163.77 2355.09 2162.49 2352.94C2151.15 2333.57 2154.07 2324.48 2156.76 2295.66C2158.94 2272.24 2193.19 2164.82 2193.19 2164.82L2143.48 2156.26C2143.48 2156.26 2128.5 2241.8 2112.02 2254.97C2103.2 2261.99 2093.32 2262.09 2084.85 2267.29C2084.24 2267.65 2083.66 2268.02 2083.08 2268.4C2078.27 2271.59 2073.35 2274.89 2069.47 2279.34Z" fill="#FFB17C"/>
<path d="M2069.47 2279.34C2065.61 2283.77 2065.13 2288.71 2067.04 2294.01C2067.04 2294.02 2067.05 2294.06 2067.07 2294.08C2071.4 2303.85 2082.8 2314.71 2095.92 2325.58C2097.63 2327.01 2099.15 2328.31 2100.51 2329.53C2100.85 2329.84 2101.2 2330.16 2101.54 2330.47C2101.81 2330.71 2102.08 2330.96 2102.33 2331.19C2115.01 2342.86 2110.24 2345.53 2132.99 2369.22C2158.93 2396.21 2176.78 2396.71 2181.86 2394.24C2186.17 2392.15 2177.43 2377.83 2167.76 2361.75C2162.71 2359.89 2139.25 2350.36 2121.52 2327.66C2105.89 2307.74 2095.48 2282.13 2084.85 2267.29C2084.24 2267.65 2083.66 2268.02 2083.08 2268.4C2078.27 2271.59 2073.35 2274.89 2069.47 2279.34Z" fill="#1C4689"/>
<path d="M2470.31 2248.28C2473.38 2263.63 2495.25 2261.07 2519.68 2255.09C2544.12 2249.12 2538.32 2256.23 2573.1 2252.37C2607.88 2248.52 2618.41 2235.55 2619.47 2230.38C2620.42 2225.8 2603.23 2224.17 2584.8 2222.06C2582.49 2221.79 2580.15 2221.51 2577.83 2221.22C2557.02 2218.6 2541.78 2205.18 2522.87 2194.15C2504.97 2183.7 2478.26 2141.13 2478.26 2141.13L2430.56 2144.91C2430.56 2144.91 2455.59 2182.93 2465.26 2199.46C2470.95 2209.19 2470.65 2222.04 2469.94 2231.97C2469.58 2237.37 2469.22 2242.87 2470.31 2248.28Z" fill="#FFB17C"/>
<path d="M2519.68 2255.09C2544.12 2249.12 2538.32 2256.23 2573.1 2252.37C2607.88 2248.52 2618.41 2235.55 2619.47 2230.38C2620.42 2225.8 2603.23 2224.17 2584.8 2222.06L2584.63 2222.41C2584.63 2222.41 2563.77 2237.2 2534.83 2237.89C2511.23 2238.46 2486.24 2231.7 2469.94 2231.97C2469.58 2237.37 2469.22 2242.87 2470.31 2248.28C2473.39 2263.63 2495.25 2261.07 2519.68 2255.09Z" fill="#1C4689"/>
<path d="M2364.18 1547.67C2364.18 1547.67 2375.55 1519.84 2388.05 1518.69C2400.55 1517.56 2440.33 1511.31 2443.16 1516.99C2446 1522.67 2443.16 1543.13 2434.65 1550.52C2426.12 1557.9 2373.27 1569.83 2373.27 1569.83L2364.18 1547.67Z" fill="#FFB17C"/>
<path d="M2287.53 1943.28L2184.74 2219.93C2184.74 2219.93 2168.95 2221.46 2153.8 2217.1C2139.87 2213.1 2123.91 2202.55 2123.91 2202.55C2123.91 2202.55 2149.41 1936.89 2196.16 1881.64C2242.9 1826.39 2287.53 1943.28 2287.53 1943.28Z" fill="#153460"/>
<path d="M1880.95 1831.34C1880.95 1831.34 2176.33 1731.46 2242.19 1752.71C2308.07 1773.97 2505.85 2167.51 2505.85 2167.51C2505.85 2167.51 2501.39 2173.45 2489.21 2178.02C2477.87 2182.27 2450.45 2182 2450.45 2182C2450.45 2182 2271.95 2028.99 2250.7 1984.35C2229.45 1939.74 2220.95 1897.23 2199.7 1901.48C2178.45 1905.72 1925.58 2005.61 1868.21 1946.11C1810.84 1886.59 1825.84 1809.29 1825.84 1809.29L1880.95 1831.34Z" fill="#1C4689"/>
<path d="M2061.46 1366.68C2066.17 1356.94 2071.46 1339.64 2074.03 1308.8C2073.64 1311.86 2068.31 1350.76 2053.36 1372.77C1991.94 1413.11 1874.2 1547.79 1876.52 1573.3C1876.52 1573.3 1835.05 1502.96 1834.34 1502.53C1834.34 1502.53 1757.85 1405.25 1848.5 1349.52C1894.59 1321.19 1894.36 1284.84 1892.44 1253.27C1890.5 1221.68 1904.99 1085.75 1997.31 1121.32C1997.31 1121.32 2012.12 1114.74 2018.76 1115.73C2018.76 1115.73 2013.34 1116.76 2010.59 1119.61C2021.28 1118.97 2036.58 1119.77 2049.35 1127.02C2083.19 1146.26 2113.48 1318.8 2061.46 1366.68Z" fill="#153460"/>
<path d="M2049.72 1374.78C2050.03 1374.92 2020.07 1390.48 1997.53 1384.32C1976.32 1378.53 1962.48 1351.04 1962.76 1350.98C1971.74 1349.19 1974.33 1336.85 1974.14 1283.83L1978.21 1284.63L2046.45 1298.14C2046.45 1298.14 2044.89 1319.62 2044.85 1339.86C2044.81 1356.85 2045.84 1372.97 2049.72 1374.78Z" fill="#FFB17C"/>
<path d="M2046.45 1298.14C2046.45 1298.14 2044.89 1319.62 2044.85 1339.86C2006.67 1338.78 1986.48 1303.94 1978.21 1284.63L2046.45 1298.14Z" fill="#ED975D"/>
<path d="M1971.16 1277.19C1971.16 1277.19 1951.14 1245.57 1946.34 1218.52C1942.91 1199.21 1952.74 1127.64 2024.65 1137.95C2024.65 1137.95 2045.53 1140.01 2065.17 1153.27C2080.79 1163.82 2103.31 1186.59 2078.12 1249.04L2071.57 1270.14L1971.16 1277.19Z" fill="#153460"/>
<path d="M2059.21 1317.3C2059.21 1317.3 1968.85 1318.79 1968.78 1262.5C1968.72 1206.21 1957.01 1168.49 2014.71 1165.15C2072.4 1161.82 2083.63 1183.29 2088.22 1202.08C2092.81 1220.86 2082.71 1315.46 2059.21 1317.3Z" fill="#FFB17C"/>
<path d="M2055.87 1163.78C2055.87 1163.78 2031.12 1229.82 1993.16 1239.58C1955.19 1249.35 1938.71 1239.17 1938.71 1239.17C1938.71 1239.17 1945.45 1198.76 1951.49 1158.37C1951.49 1158.37 2037.21 1132.34 2055.87 1163.78Z" fill="#153460"/>
<path d="M2049.74 1169.14C2049.74 1169.14 2068.21 1183.88 2072.72 1198.22C2077.22 1212.55 2079.24 1242.06 2087.84 1241.06C2087.84 1241.06 2106.48 1196.17 2085.53 1170.78C2063.33 1143.85 2049.74 1169.14 2049.74 1169.14Z" fill="#153460"/>
<path d="M1848.5 1617.91C1839.6 1580.54 1869.91 1508.01 1901.57 1447.96C1930.28 1393.54 1960.09 1349.39 1962.76 1350.98C2038.49 1395.93 2045.35 1358.56 2045.35 1358.56V1358.56C2045.38 1358.57 2114.14 1367.69 2133.63 1401.23C2157.78 1442.83 2183.89 1559.1 2209.83 1581.12C2205.83 1593.3 2207.55 1599.8 2211.77 1614.89C2212.67 1618.13 2213.66 1621.21 2214.77 1624.12C2218.67 1634.74 2223.56 1643.37 2227.78 1650.86C2214.61 1658.86 2189.15 1674.09 2170.39 1663.15C2141.81 1646.41 2119.51 1595.46 2106.95 1575.19C2106.91 1575.1 2106.87 1575.03 2106.81 1574.96C2079.53 1729.43 2116.64 1764.61 2097.85 1780.89C2078.01 1798.09 2049.68 1772.7 1987.34 1799.72C1946.46 1817.46 1889.72 1843.11 1851.53 1847.57C1831.5 1849.92 1816.55 1846.44 1811.68 1832.9C1797.5 1793.59 1865.51 1689.16 1848.5 1617.91Z" fill="#F99746"/>
<path d="M2039.12 1283.18C2039.12 1283.18 2040.8 1290.33 2058.59 1289.23C2058.59 1289.23 2073.52 1288.3 2073.07 1280.45C2073.07 1280.45 2058.59 1274.86 2039.12 1283.18Z" fill="white"/>
<path d="M1811.68 1832.9C1816.55 1846.44 1831.5 1849.92 1851.53 1847.57C1877.97 1836.04 1992.17 1791.81 1990.88 1761.82C1988.98 1717.42 1968.93 1716.01 1983.09 1661.22C1994.48 1617.23 1888.95 1535.43 1872.12 1517.65C1840.47 1577.69 1839.6 1580.54 1848.5 1617.91C1865.51 1689.16 1797.5 1793.59 1811.68 1832.9Z" fill="#ED7C2A"/>
<path d="M2001.16 1660.16C2001.16 1660.16 2020.29 1645.28 2038.35 1648.83C2056.4 1652.37 2065.27 1664.76 2064.56 1670.43C2063.85 1676.11 2054.28 1692.04 2040.48 1693.45C2026.66 1694.88 1987.34 1684.96 1987.34 1684.96L2001.16 1660.16Z" fill="#FFB17C"/>
<path d="M1798.76 1672.81C1819.02 1644.36 1840.12 1629.32 1854 1621.76C1850.8 1613.53 1939.19 1505.17 1939.19 1488.37C1939.19 1471.37 1962.76 1350.97 1962.76 1350.97C1962.76 1350.97 1889.12 1355.52 1863.62 1391.08C1831.74 1435.56 1765.51 1606.72 1798.76 1672.81Z" fill="#F99746"/>
<path d="M1854 1621.76L2001.16 1660.16L1987.34 1684.96C1987.34 1684.96 1808.25 1683.71 1798.76 1672.81C1789.28 1661.9 1854 1621.76 1854 1621.76Z" fill="#FFB17C"/>
<path d="M2106.95 1575.19C2119.51 1595.46 2141.81 1646.41 2170.39 1663.15C2189.15 1674.09 2214.61 1658.86 2227.78 1650.86C2223.56 1643.37 2218.67 1634.74 2214.77 1624.12C2204.25 1626.53 2191.41 1629.6 2183.14 1632.1C2167.02 1636.98 2106.95 1575.19 2106.95 1575.19Z" fill="#ED7C2A"/>
<path d="M2768.02 1766.12L2787.12 1874.3L2839.83 2173.12L2886.97 2440.24C2887.68 2444.29 2891.29 2447.24 2895.51 2447.24C2899.21 2447.24 2902.09 2444.07 2901.59 2440.49L2860.96 2137.66L2817.48 1813.77L2810.92 1764.9L2768.02 1766.12Z" fill="#C69C7E"/>
<path d="M2787.12 1874.3C2784.62 1827.82 2817.48 1813.77 2817.48 1813.77L2810.92 1764.9L2768.02 1766.12L2787.12 1874.3Z" fill="#A0795E"/>
<path d="M1324.16 2447.24C1328.38 2447.24 1331.99 2444.29 1332.71 2440.24L1374.57 2202.9L1434.8 1861.57L1451.63 1766.12L1408.74 1764.9L1401.3 1820.31L1349.04 2209.68L1318.07 2440.49C1317.59 2444.07 1320.45 2447.24 1324.16 2447.24Z" fill="#C69C7E"/>
<path d="M1401.3 1820.31C1429.09 1832.57 1434.8 1861.57 1434.8 1861.57L1451.63 1766.12L1408.74 1764.9L1401.3 1820.31Z" fill="#A0795E"/>
<path d="M2251.44 1728.64H2078.53C2078.53 1721.03 2084.71 1714.86 2092.32 1714.86H2251.44V1728.64Z" fill="#B1493F"/>
<path d="M2250.93 1540.33H2518.24L2454.12 1728.64H2185.09L2250.93 1540.33Z" fill="#B1493F"/>
<path d="M2522.18 1540.33L2458.05 1728.64H2189.03L2254.88 1540.33H2522.18Z" fill="#C65446"/>
<path d="M2378.06 1632.75C2376.4 1639.94 2369.22 1645.77 2362.03 1645.77C2354.84 1645.77 2350.35 1639.94 2352.01 1632.75C2353.66 1625.55 2360.84 1619.72 2368.05 1619.72C2375.24 1619.72 2379.73 1625.55 2378.06 1632.75Z" fill="#F9DDBF"/>
<path d="M2522.18 1540.33L2458.05 1728.64H2332.91L2482.81 1540.33H2522.18Z" fill="#B1493F"/>
<path d="M1297.4 992.291H1730.41C1742.31 992.291 1752.06 1002.03 1752.06 1013.94V1233.61C1752.06 1245.52 1742.31 1255.27 1730.41 1255.27H1693.79L1711.46 1329.92L1600.5 1255.27H1297.4C1285.49 1255.27 1275.75 1245.52 1275.75 1233.61V1013.94C1275.75 1002.03 1285.49 992.291 1297.4 992.291Z" fill="#EFD6BC"/>
<path d="M1322.2 1090.18H1704.71C1709.92 1090.18 1714.18 1094.44 1714.18 1099.65C1714.18 1104.86 1709.92 1109.12 1704.71 1109.12H1322.2C1316.99 1109.12 1312.72 1104.86 1312.72 1099.65C1312.72 1094.44 1316.99 1090.18 1322.2 1090.18Z" fill="#DDB897"/>
<path d="M1322.2 1132.58H1704.71C1709.92 1132.58 1714.18 1136.84 1714.18 1142.06C1714.18 1147.26 1709.92 1151.53 1704.71 1151.53H1322.2C1316.99 1151.53 1312.72 1147.26 1312.72 1142.06C1312.72 1136.84 1316.99 1132.58 1322.2 1132.58Z" fill="#DDB897"/>
<path d="M1322.2 1174.99H1704.71C1709.92 1174.99 1714.18 1179.25 1714.18 1184.46C1714.18 1189.67 1709.92 1193.93 1704.71 1193.93H1322.2C1316.99 1193.93 1312.72 1189.67 1312.72 1184.46C1312.72 1179.25 1316.99 1174.99 1322.2 1174.99Z" fill="#DDB897"/>
<path d="M1692.97 1043.26H1530.59C1524.39 1043.26 1519.31 1038.19 1519.31 1031.98C1519.31 1025.78 1524.39 1020.71 1530.59 1020.71H1692.97C1699.17 1020.71 1704.26 1025.78 1704.26 1031.98C1704.26 1038.19 1699.17 1043.26 1692.97 1043.26Z" fill="#DDB897"/>
<path d="M1488.75 1043.26H1391.04C1386.14 1043.26 1382.13 1039.25 1382.13 1034.35V1029.62C1382.13 1024.72 1386.14 1020.71 1391.04 1020.71H1488.75C1493.65 1020.71 1497.66 1024.72 1497.66 1029.62V1034.35C1497.66 1039.25 1493.65 1043.26 1488.75 1043.26Z" fill="#DDB897"/>
<path d="M1278.45 1803.59H2936.08C2953.7 1803.59 2968.1 1789.19 2968.1 1771.59V1760.65C2968.1 1743.04 2953.7 1728.64 2936.08 1728.64H1278.45C1260.85 1728.64 1246.45 1743.04 1246.45 1760.65V1771.59C1246.45 1789.19 1260.85 1803.59 1278.45 1803.59Z" fill="#C69C7E"/>
<path d="M2950.74 2190.33C2950.74 2190.33 2992.02 2142.15 2953.29 2111.55C2953.29 2111.55 2925 2094.43 2901.92 2095.82C2901.92 2095.82 2934.61 2150.65 2924.03 2156.1C2913.46 2161.55 2892.01 2092.38 2892.01 2092.38C2892.01 2092.38 2827.61 2086.14 2806.9 2096.09C2806.9 2096.09 2861.95 2141.15 2850.35 2143.82C2838.76 2146.51 2779.31 2102.29 2779.31 2102.29C2779.31 2102.29 2719.37 2112.49 2722.56 2149.06C2725.76 2185.62 2746.42 2196.91 2755.49 2195.93C2764.57 2194.97 2817.66 2174.69 2818.81 2182.14C2819.97 2189.58 2788.01 2213.87 2765.63 2215.02C2765.63 2215.02 2807.88 2261.62 2835.97 2248.17C2864.04 2234.72 2866.45 2213.41 2883.95 2205.41C2901.45 2197.41 2916.4 2197.42 2909.17 2205.59C2901.95 2213.75 2870.26 2221.66 2860.25 2239.38C2850.24 2257.09 2841.26 2269.03 2870.32 2264.65C2899.37 2260.29 2946.6 2239.02 2948.67 2214.68C2950.74 2190.33 2950.74 2190.33 2950.74 2190.33Z" fill="#82B377"/>
<path d="M2752.01 2150.04C2752.01 2150.04 2914.79 2143.77 2950.74 2190.33C2950.74 2190.33 2958.69 2214.14 2983.16 2235.82L2986.97 2246.22C2986.97 2246.22 2958.76 2216.48 2948.67 2214.68C2948.67 2214.68 2964.46 2156.99 2752.01 2150.04Z" fill="#82B377"/>
<path d="M2983.16 2235.82C2983.16 2235.82 3018.1 2261.66 3020.52 2307.84L3014.18 2308.41C3014.18 2308.41 3003.02 2260.67 2982.85 2242C2962.69 2223.32 2983.16 2235.82 2983.16 2235.82Z" fill="#82B377"/>
<path d="M3095.1 2129.75C3095.1 2129.75 3029.42 2092.96 3060.07 2043.05C3060.07 2043.05 3084.59 2012.39 3110.85 2004.52C3110.85 2004.52 3096.84 2078.96 3110.85 2080.7C3124.86 2082.45 3120.48 1996.63 3120.48 1996.63C3120.48 1996.63 3189.66 1963.36 3216.8 1965.97C3216.8 1965.97 3173.9 2038.67 3187.91 2036.92C3201.92 2035.16 3250.09 1961.6 3250.09 1961.6C3250.09 1961.6 3321.01 1948.47 3332.39 1990.5C3343.78 2032.54 3325.38 2053.55 3314.88 2056.19C3304.37 2058.81 3236.95 2057.93 3238.71 2066.69C3240.45 2075.45 3285.98 2089.46 3311.38 2081.58C3311.38 2081.58 3283.36 2150.76 3246.58 2147.27C3209.81 2143.77 3198.42 2121 3175.66 2119.24C3152.89 2117.49 3136.26 2123.62 3147.64 2129.75C3159.02 2135.88 3197.55 2131.76 3215.94 2147.39C3234.32 2163.03 3249.21 2172.65 3215.06 2179.66C3180.91 2186.67 3119.6 2182.3 3107.36 2156.02C3095.1 2129.75 3095.1 2129.75 3095.1 2129.75Z" fill="#A8D19E"/>
<path d="M3300 2003.64C3300 2003.64 3116.11 2063.18 3095.1 2129.75C3095.1 2129.75 3095.97 2159.53 3077.58 2193.68V2206.81C3077.58 2206.81 3096.84 2162.15 3107.36 2156.02C3107.36 2156.02 3066.2 2098.22 3300 2003.64Z" fill="#82B377"/>
<path d="M3077.58 2193.68C3077.58 2193.68 3049.22 2236.74 3065.39 2289.18L3072.68 2287.21C3072.68 2287.21 3065.6 2229.46 3080.44 2200.42C3095.28 2171.38 3077.58 2193.68 3077.58 2193.68Z" fill="#82B377"/>
<path d="M2990.61 2079.03C2990.61 2079.03 3077.19 2030.53 3036.78 1964.73C3036.78 1964.73 3004.45 1924.33 2969.84 1913.94C2969.84 1913.94 2988.3 2012.07 2969.84 2014.37C2951.36 2016.68 2957.14 1903.56 2957.14 1903.56C2957.14 1903.56 2865.94 1859.68 2830.16 1863.14C2830.16 1863.14 2886.73 1958.97 2868.25 1956.66C2849.79 1954.35 2786.3 1857.38 2786.3 1857.38C2786.3 1857.38 2692.8 1840.06 2677.8 1895.47C2662.8 1950.88 2687.04 1978.59 2700.88 1982.05C2714.73 1985.52 2803.62 1984.35 2801.31 1995.91C2799 2007.45 2738.97 2025.91 2705.5 2015.53C2705.5 2015.53 2742.44 2106.73 2790.92 2102.11C2839.39 2097.49 2854.4 2067.47 2884.42 2065.17C2914.42 2062.86 2936.35 2070.94 2921.36 2079.03C2906.35 2087.1 2855.56 2081.68 2831.32 2102.28C2807.07 2122.88 2787.45 2135.58 2832.47 2144.83C2877.49 2154.06 2958.28 2148.28 2974.45 2113.65C2990.61 2079.03 2990.61 2079.03 2990.61 2079.03Z" fill="#A8D19E"/>
<path d="M2720.51 1912.79C2720.51 1912.79 2962.9 1991.29 2990.61 2079.03C2990.61 2079.03 2989.46 2118.27 3013.7 2163.29V2180.61C3013.7 2180.61 2988.3 2121.73 2974.45 2113.65C2974.45 2113.65 3028.71 2037.45 2720.51 1912.79Z" fill="#82B377"/>
<path d="M3013.7 2163.29C3013.7 2163.29 3051.08 2220.06 3029.77 2289.18L3020.14 2286.59C3020.14 2286.59 3029.49 2210.48 3009.92 2172.19C2990.37 2133.9 3013.7 2163.29 3013.7 2163.29Z" fill="#82B377"/>
<path d="M2993.52 2439.03C2899.87 2439.03 2823.95 2363.11 2823.95 2269.44H3163.11C3163.11 2363.11 3087.18 2439.03 2993.52 2439.03Z" fill="#F99746"/>
<path d="M2951.8 2437.74C2958.69 2438.61 2965.73 2439.03 2972.87 2439.03C3066.52 2439.03 3142.44 2363.11 3142.44 2269.44H3100.31C3100.31 2355.97 3035.52 2427.36 2951.8 2437.74Z" fill="#FFB872"/>
<path d="M2821.6 2447.67H3165.45C3165.45 2436.11 3156.08 2426.74 3144.52 2426.74H2842.52C2830.97 2426.74 2821.6 2436.11 2821.6 2447.67Z" fill="#F99746"/>
<path d="M2820.1 2274.63H3168.68V2269.44H2820.1V2274.63Z" fill="#D86712"/>
<path d="M3924.63 2454.42H606.908C602.928 2454.42 599.672 2451.15 599.672 2447.17C599.672 2443.2 602.928 2439.94 606.908 2439.94H3924.63C3928.6 2439.94 3931.86 2443.2 3931.86 2447.17C3931.86 2451.15 3928.6 2454.42 3924.63 2454.42Z" fill="#2D3452"/>
<path d="M2456.08 1346.66L2311.4 1393.97L2398.08 1309.49L2406.87 1330.13L2444.12 1330.31L2456.08 1346.66Z" fill="#CA5E00"/>
<path d="M2311.4 1393.97L2423.69 1308.53L2543.67 1281.13L2311.4 1393.97Z" fill="#F0A34F"/>
<path d="M2398.08 1309.49L2311.4 1393.97L2369.18 1275.61L2398.08 1309.49Z" fill="#F0A34F"/>
</g>
<defs>
<clipPath id="clip0_148_17278">
<rect width="4531" height="2832" fill="white"/>
</clipPath>
</defs>
</svg>
