<svg width="4248" height="2832" viewBox="0 0 4248 2832" fill="none" xmlns="http://www.w3.org/2000/svg">
<g clip-path="url(#clip0_148_17091)">
<path d="M0 2832H4248V0.000340462H0V2832Z" fill="white"/>
<path d="M708.807 2619.23C708.807 2619.23 315.459 2196.9 642.286 1739.67C932.27 1333.99 1270.36 1361.71 1518.42 1526.35C1624.07 1596.46 1928.66 1534.99 2187.9 1122.18C2541.45 559.235 3766.97 900.661 3543.53 1766.77C3435.39 2185.91 3872.62 2201.14 3649.84 2620.12L708.807 2619.23" fill="#EBF3FA"/>
<path d="M1287.01 2615.52C1287.01 2615.52 1385.29 2440.86 1608.65 2454.01C1832.01 2467.18 1892.31 2291.65 2129.83 2317.98C2367.37 2344.32 2411.25 2494.5 2573.61 2496.2C2735.98 2497.89 3024.45 2476.99 2967.98 2623.48L1287.01 2615.52" fill="#A8D29F"/>
<path d="M1310.16 1715.23C1299.23 1722.62 1284.9 1713.13 1287.27 1700.16C1296.13 1651.37 1312.88 1611.42 1337.69 1581.35C1351.67 1564.41 1368.2 1550.6 1387.33 1540.13C1460.62 1499.97 1538.77 1523.66 1579.38 1541.71C1591.1 1546.91 1591.1 1563.55 1579.39 1568.8C1545.49 1584.02 1487.27 1610.9 1440.06 1636.33C1429.99 1641.74 1420.18 1647.2 1410.68 1652.61C1368.85 1676.5 1333.18 1699.67 1310.16 1715.23ZM1086.82 1317.6C1030.34 1336.79 983.841 1371.62 948.621 1421.14C947.159 1423.18 945.316 1424.78 943.254 1425.91C938.018 1428.79 931.378 1428.6 926.186 1424.91C918.946 1419.75 917.249 1409.71 922.396 1402.46C971.628 1333.29 1034.1 1301.32 1077.83 1286.68C1090.38 1282.49 1102.12 1279.43 1112.62 1277.2C1141.95 1271 1161.72 1271.28 1162.83 1271.3C1171.73 1271.48 1178.78 1278.83 1178.6 1287.71C1178.42 1296.57 1171.1 1303.64 1162.23 1303.48H1162C1160.17 1303.48 1147.75 1303.6 1129.15 1306.81C1117.2 1308.87 1102.71 1312.19 1086.82 1317.6M1296.92 1197.23C1346.15 1128.04 1408.62 1096.05 1452.35 1081.43C1499.88 1065.51 1535.85 1066.04 1537.37 1066.06C1546.26 1066.23 1553.3 1073.58 1553.13 1082.48C1552.96 1091.34 1545.62 1098.39 1536.76 1098.24H1536.39C1532.65 1098.24 1501.43 1098.73 1461.34 1112.35C1404.86 1131.54 1358.37 1166.37 1323.15 1215.89C1321.69 1217.93 1319.84 1219.53 1317.78 1220.65C1312.55 1223.54 1305.9 1223.37 1300.71 1219.66C1293.47 1214.52 1291.78 1204.46 1296.92 1197.23M1628.63 956.225L1501.72 724.68C1501.72 724.68 1312.41 780.627 1069.77 913.617C1045.05 927.154 1020.68 941.173 996.945 955.375C820.207 1061.01 678.1 1176.04 678.1 1176.04L804.995 1407.59C1001.9 1766.9 1397.35 1939.93 1537.88 1855.5L1574.83 1835.24C1586.43 1828.88 1597.73 1820.38 1608.65 1809.93C1737.9 1685.96 1810.23 1287.6 1628.63 956.225" fill="#6BB7BF"/>
<path d="M869.733 1509.95C847.346 1478.97 826.36 1446.16 807.227 1411.64C826.36 1446.16 847.346 1478.97 869.733 1509.95ZM935.507 1427.89C935.519 1427.89 935.528 1427.89 935.54 1427.89C935.528 1427.89 935.519 1427.89 935.507 1427.89ZM935.47 1427.89C932.539 1427.88 929.584 1427.09 926.949 1425.42C929.584 1427.09 932.539 1427.88 935.47 1427.89ZM926.881 1425.37C926.863 1425.36 926.843 1425.35 926.824 1425.35C926.843 1425.35 926.863 1425.36 926.881 1425.37ZM926.414 1425.06C926.385 1425.05 926.356 1425.02 926.327 1425.01C926.356 1425.02 926.385 1425.05 926.414 1425.06ZM926.302 1424.99C926.264 1424.96 926.224 1424.94 926.186 1424.91C926.224 1424.94 926.264 1424.96 926.302 1424.99ZM806.73 1410.75C806.15 1409.68 805.572 1408.64 804.995 1407.59L678.1 1176.04L804.995 1407.59C805.572 1408.64 806.15 1409.68 806.73 1410.75Z" fill="#CDE1E6"/>
<path d="M1447.69 1876.58H1447.7H1447.69ZM1443.82 1876.55C1287.42 1874.42 1038.25 1743.15 869.732 1509.95C1038.23 1743.12 1287.41 1874.4 1443.82 1876.55ZM1301.91 1717.82C1301.91 1717.82 1301.92 1717.82 1301.92 1717.82C1301.92 1717.82 1301.91 1717.82 1301.91 1717.82ZM1301.87 1717.82C1293.48 1717.81 1285.9 1710.41 1287.15 1700.97C1285.9 1710.4 1293.49 1717.81 1301.87 1717.82ZM1287.15 1700.96C1287.16 1700.83 1287.18 1700.72 1287.2 1700.59C1287.18 1700.72 1287.16 1700.83 1287.15 1700.96Z" fill="#BFD9E3"/>
<path d="M1447.69 1876.58C1446.4 1876.58 1445.13 1876.58 1443.82 1876.55C1287.41 1874.4 1038.23 1743.12 869.733 1509.95C847.346 1478.97 826.36 1446.16 807.227 1411.64C807.058 1411.34 806.899 1411.04 806.73 1410.75C806.15 1409.68 805.572 1408.64 804.995 1407.59L678.1 1176.04C678.1 1176.04 820.207 1061.01 996.945 955.375C1019.5 1073.68 1060.72 1181.02 1112.62 1277.19V1277.2C1102.12 1279.43 1090.38 1282.49 1077.83 1286.68C1034.1 1301.32 971.628 1333.29 922.396 1402.46C920.386 1405.3 919.42 1408.55 919.42 1411.78C919.42 1416.81 921.773 1421.76 926.186 1424.91C926.224 1424.94 926.264 1424.96 926.302 1424.99C926.31 1424.99 926.319 1425.01 926.327 1425.01C926.356 1425.02 926.385 1425.05 926.414 1425.06C926.55 1425.16 926.687 1425.25 926.824 1425.35C926.843 1425.35 926.863 1425.36 926.881 1425.37C926.904 1425.39 926.926 1425.4 926.949 1425.42C929.584 1427.09 932.539 1427.88 935.47 1427.89C935.483 1427.89 935.494 1427.89 935.507 1427.89C935.519 1427.89 935.528 1427.89 935.54 1427.89C938.222 1427.89 940.882 1427.21 943.254 1425.91C945.316 1424.78 947.159 1423.18 948.621 1421.14C983.841 1371.62 1030.34 1336.79 1086.82 1317.6C1102.71 1312.19 1117.2 1308.87 1129.15 1306.81C1190.02 1412.57 1263.37 1504.16 1337.69 1581.35C1312.88 1611.42 1296.13 1651.37 1287.27 1700.16C1287.25 1700.3 1287.22 1700.45 1287.2 1700.59C1287.18 1700.72 1287.16 1700.83 1287.15 1700.96L1287.15 1700.97C1285.9 1710.41 1293.48 1717.81 1301.87 1717.82C1301.88 1717.82 1301.89 1717.82 1301.91 1717.82C1301.91 1717.82 1301.92 1717.82 1301.92 1717.82C1304.68 1717.82 1307.52 1717.01 1310.16 1715.23C1333.18 1699.67 1368.85 1676.5 1410.68 1652.61L1410.7 1652.63C1482.99 1719.05 1552.6 1771.56 1608.65 1809.93C1597.73 1820.38 1586.43 1828.88 1574.83 1835.24L1537.88 1855.5C1514.28 1869.67 1483.51 1876.58 1447.7 1876.58H1447.69" fill="#66AFBA"/>
<path d="M3304.48 1737.62C3296.76 1742.01 3286.95 1739.34 3282.53 1731.67C3282.46 1731.53 3278.31 1724.42 3269.88 1713.73C3261.47 1703.04 3248.8 1688.74 3231.68 1674.21C3186.2 1635.62 3132.43 1613.63 3071.84 1608.83C3069.35 1608.63 3067.03 1607.88 3064.99 1606.68C3059.83 1603.66 3056.58 1597.89 3057.07 1591.53C3057.78 1582.66 3065.53 1576.05 3074.39 1576.76C3159.04 1583.46 3218.57 1620.61 3253.59 1650.62C3291.66 1683.21 3309.7 1714.34 3310.44 1715.65C3314.86 1723.36 3312.18 1733.2 3304.48 1737.62ZM2958.26 1936.85C2885.69 1964.13 2821.79 1963.81 2769.55 1933.22C2759.06 1927.06 2749.66 1920.12 2741.26 1912.62C2691.99 1868.64 2676.85 1805.33 2672.25 1767.64C2670.69 1754.91 2684.96 1746.37 2695.48 1753.7C2713.61 1766.35 2739.71 1784.27 2767.59 1802.51C2786.56 1814.9 2806.34 1827.45 2825 1838.58C2878.02 1870.15 2928.54 1895.05 2959.44 1909.46C2971.38 1915.05 2970.63 1932.2 2958.26 1936.85ZM2688.57 1375.64C2689.28 1366.79 2697.03 1360.18 2705.88 1360.88C2790.53 1367.57 2850.05 1404.74 2885.09 1434.73C2895.14 1443.34 2903.79 1451.87 2911.1 1459.73C2931.49 1481.72 2941.39 1498.82 2941.94 1499.77C2946.36 1507.49 2943.68 1517.31 2935.98 1521.73C2928.26 1526.14 2918.45 1523.47 2914.03 1515.79C2913.94 1515.64 2909.79 1508.55 2901.38 1497.86C2899.26 1495.15 2896.87 1492.21 2894.19 1489.11C2886.28 1479.92 2875.97 1469.2 2863.17 1458.34C2817.7 1419.74 2763.93 1397.75 2703.34 1392.96C2700.85 1392.76 2698.53 1392 2696.49 1390.81C2691.33 1387.78 2688.08 1382 2688.57 1375.64ZM3201.01 1236.15C3176.7 1221.91 3152.14 1208.22 3127.77 1195.13C2946.34 1097.78 2774.64 1034.97 2774.64 1034.97L2641.19 1262.77C2434.08 1616.32 2488.79 2044.48 2633.42 2121.66L2669.8 2142.96C2681.21 2149.66 2694.29 2154.98 2708.88 2158.98C2881.63 2206.18 3260.57 2063.57 3451.57 1737.52L3585.03 1509.71C3585.03 1509.71 3439.76 1376.01 3201.01 1236.15" fill="#F99746"/>
<path d="M3127.77 1195.13C3037.86 1275.26 2966.94 1365.77 2911.11 1459.71L2911.1 1459.73C2903.79 1451.87 2895.14 1443.34 2885.09 1434.73C2850.05 1404.74 2790.53 1367.57 2705.88 1360.88C2697.03 1360.18 2689.28 1366.79 2688.57 1375.64C2688.08 1382 2691.33 1387.78 2696.49 1390.81C2698.53 1392 2700.85 1392.76 2703.34 1392.96C2763.93 1397.75 2817.7 1419.74 2863.17 1458.34C2875.97 1469.2 2886.28 1479.92 2894.19 1489.11C2835.96 1593.42 2795.55 1701.01 2767.59 1802.51C2739.71 1784.27 2713.61 1766.35 2695.48 1753.7C2684.96 1746.37 2670.69 1754.91 2672.25 1767.64C2676.85 1805.33 2691.99 1868.64 2741.26 1912.62C2722 2007.05 2712.94 2092.17 2708.88 2158.98C2694.29 2154.98 2681.21 2149.66 2669.8 2142.96L2633.42 2121.66C2488.79 2044.48 2434.08 1616.32 2641.19 1262.77L2774.64 1034.97C2774.64 1034.97 2946.34 1097.78 3127.77 1195.13" fill="#F48D3B"/>
<path d="M2726.75 623.635C2724.26 625.051 2721.07 624.201 2719.64 621.709C2719.61 621.666 2718.27 619.358 2715.55 615.889C2712.81 612.434 2708.71 607.789 2703.17 603.088C2688.43 590.585 2671.01 583.463 2651.37 581.905C2650.57 581.848 2649.82 581.594 2649.17 581.211C2647.49 580.234 2646.43 578.365 2646.59 576.298C2646.82 573.423 2649.34 571.285 2652.21 571.512C2679.62 573.692 2698.91 585.728 2710.27 595.442C2722.6 606.005 2728.45 616.087 2728.69 616.512C2730.12 619.018 2729.25 622.204 2726.75 623.635V623.635ZM2614.59 688.19C2599.86 708.538 2562.51 699.419 2546.24 688.473C2518.78 669.98 2511.52 642.156 2521.91 633.363C2559.7 601.418 2630.18 666.596 2614.59 688.19ZM2527.21 506.361C2527.43 503.487 2529.94 501.349 2532.81 501.575C2560.24 503.742 2579.53 515.778 2590.87 525.506C2594.13 528.295 2596.93 531.057 2599.29 533.605C2605.91 540.728 2609.11 546.264 2609.29 546.576C2610.72 549.068 2609.86 552.254 2607.35 553.684C2604.86 555.114 2601.69 554.251 2600.24 551.758C2600.21 551.716 2598.87 549.422 2596.15 545.953C2595.47 545.075 2594.69 544.126 2593.81 543.121C2591.25 540.147 2587.91 536.664 2583.77 533.152C2569.03 520.649 2551.62 513.512 2531.99 511.969C2531.17 511.898 2530.42 511.657 2529.77 511.275C2528.1 510.284 2527.04 508.415 2527.21 506.361V506.361ZM2693.23 461.163C2685.36 456.547 2677.4 452.115 2669.5 447.867C2610.72 416.332 2555.09 395.984 2555.09 395.984L2511.84 469.786C2444.74 584.326 2462.47 723.052 2509.34 748.059L2521.12 754.969C2524.81 757.135 2529.06 758.863 2533.78 760.151C2589.75 775.444 2712.53 729.24 2774.41 623.606L2817.66 549.79C2817.66 549.79 2770.59 506.475 2693.23 461.163" fill="#EBF3FA"/>
<path d="M2139.39 1389.34C2125.33 1605.21 2110.19 1877.69 2122.84 1914.55C2139.39 1962.77 2115.25 2511.01 2115.25 2511.01L2043.91 2506.66C2043.91 2506.66 1947.82 2028.89 1958.3 1958.1C1963.55 1922.6 1963.52 1890.05 1962.22 1866.4C1960.91 1842.85 1958.3 1828.16 1958.3 1828.16C1893.25 1609.04 1872.93 1441.23 1868.87 1328.18C1864.8 1215.06 1877.05 1156.74 1877.05 1156.74L2158.41 1119.12C2158.41 1119.12 2149.08 1240.87 2139.39 1389.34" fill="#FFB27D"/>
<path d="M2259.09 1110.31C2259.09 1110.31 2337.08 1376.2 2252.69 1825.58C2246.7 1857.52 2244.96 1885.19 2258.7 1955.41C2272.47 2025.62 2198.6 2507.34 2198.6 2507.34L2129.65 2507.41C2129.65 2507.41 2113.41 2013 2092.32 1919.52C2061.8 1784.19 2019.97 1126.58 2019.97 1126.58L2259.09 1110.31Z" fill="#FFB27D"/>
<path d="M2139.39 1389.34C2125.33 1605.21 2110.58 1877.56 2122.84 1914.55C2143.57 1976.99 2115.25 2511.01 2115.25 2511.01L2109.92 2506.66C2116.17 2253.52 2113.3 1901.33 2061.21 1770.89C2059.88 1747.36 1977.5 1635.44 1977.5 1635.44C1912.45 1416.33 1872.93 1441.23 1868.87 1328.18H2139.39V1389.34" fill="#ED985F"/>
<path d="M2071.68 224.436C2071.68 224.436 2048.37 211.72 2002.72 231.502C1957.05 251.297 1826.81 387.347 1828.34 426.91C1829.85 466.487 1877.05 499.975 1863.34 534.979C1849.65 569.982 1807.47 589.566 1828.32 629.539C1868.04 705.663 1788.15 679.708 1841.24 781.872C1855.64 809.584 2309.49 762.247 2325.67 742.352C2371.47 685.967 2291.04 640.995 2294.85 601.687C2298.65 562.378 2236.54 519.643 2247.19 487.684C2257.85 455.711 2311.21 419.065 2189.83 276.233C2189.83 276.233 2133.98 206.991 2071.68 224.436" fill="#2C3A64"/>
<path d="M2018.86 487.684C2018.86 487.684 2020.94 574.556 1998 584.978C1975.08 595.4 1953.53 596.787 1953.53 596.787C1953.53 596.787 2084.88 670.462 2189.83 596.787C2189.83 596.787 2148.13 587.753 2140.48 573.862C2132.84 559.957 2133.53 487.684 2133.53 487.684H2018.86Z" fill="#FFB27D"/>
<path d="M2018.35 514.843C2018.35 514.843 2041.52 567.363 2078.96 569.218C2116.4 571.073 2133.98 521.173 2133.98 521.173L2018.35 514.843Z" fill="#ED985F"/>
<path d="M2075.36 549.068C2043.57 549.068 1979.29 498.064 1979.29 445.219V380.734C1979.29 327.889 2022.52 284.644 2075.36 284.644C2128.21 284.644 2171.45 327.889 2171.45 380.734V445.219C2171.45 498.064 2110.59 549.068 2075.36 549.068Z" fill="#FFB27D"/>
<path d="M1920.01 599.025C1920.01 599.025 2103.07 576.312 2249.19 601.687C2249.19 601.687 2259.99 782.127 2235.5 971.815C2231.66 1001.49 2294.85 1156.74 2294.85 1156.74C2281.88 1180 1977.5 1241.22 1877.05 1156.74C1877.05 1156.74 1869.43 1164.21 1939.45 983.992C1959.05 933.526 1840.67 610.749 1920.01 599.025" fill="#FFB27D"/>
<path d="M2434.12 1631.63C2393.45 1655.39 2351.27 1673.32 2309.18 1686.67C2100.76 1752.81 1895.3 1706.97 1895.3 1706.97C1895.3 1706.97 1868.87 1661.31 1856.49 1424.55C1844.13 1187.91 1959.23 684.141 1959.23 684.141L2251.09 655.905C2251.09 655.905 2286.85 795.353 2274.29 869.07C2261.75 942.787 2250.31 992.39 2264.03 1030.38C2365.63 1311.99 2434.12 1631.63 2434.12 1631.63Z" fill="#F99746"/>
<path d="M2139.39 2619.2H2016.09C2008.11 2593.11 2018.39 2571.12 2027.51 2558.07C2036.65 2545.02 2044.62 2509.62 2044.62 2509.62C2068.41 2491.14 2098.63 2498.29 2110.6 2502.24C2113.93 2503.36 2115.84 2504.21 2115.84 2504.21L2115.86 2504.22V2504.24C2116.25 2505.16 2129.18 2534.95 2133.69 2558.07C2137.38 2577.12 2138.84 2605.47 2139.26 2615.52C2139.35 2617.86 2139.39 2619.2 2139.39 2619.2" fill="#2C3A64"/>
<path d="M2397.58 894.827C2397.58 894.827 2365.91 931.303 2320.33 954.327C2295.26 967.001 2266 975.582 2235.48 971.801C2149.49 961.153 1901.4 961.153 1901.4 961.153C1901.4 961.153 1886.72 957.528 1867.28 950.547C1831.76 937.817 1780.41 913.929 1773.54 880.483L1773.55 880.469C1774.53 877.665 1866.95 616.484 1902.35 600.129C1937.92 583.689 1966.14 594.593 1966.14 594.593C1966.14 594.593 2064.19 633.731 2174.66 592.724C2174.66 592.724 2256.32 587.938 2280.01 623.451C2303.58 658.78 2396.49 892.08 2397.57 894.813L2397.58 894.827Z" fill="#F99746"/>
<path d="M2434.12 1631.63C2393.45 1655.39 2351.27 1673.32 2309.18 1686.67C2204.56 1483.81 2264.03 1030.38 2264.03 1030.38C2365.63 1311.99 2434.12 1631.63 2434.12 1631.63Z" fill="#ED7D2B"/>
<path d="M2128.86 2162.83L2115.86 2504.22V2504.24L2115.36 2517.12L2110.11 2516.56L2044.62 2509.62L1973.58 2162.83C1973.58 2162.83 2016.3 2134.9 2070.83 2141.69C2089.21 2143.98 2108.95 2150.22 2128.86 2162.83" fill="#2C3A64"/>
<path d="M2268.7 2162.81C2268.7 2162.81 2192.29 2112.87 2113.41 2162.81L2126.92 2517.11L2197.67 2509.62L2268.7 2162.81Z" fill="#2C3A64"/>
<path d="M2163.92 662.306C2162.81 664.118 2160.46 664.684 2158.66 663.58C2158.63 663.566 2156.95 662.56 2153.96 661.286C2150.97 660.026 2146.7 658.482 2141.46 657.42C2127.54 654.574 2113.79 656.146 2100.59 662.079C2100.05 662.334 2099.47 662.433 2098.92 662.419C2097.49 662.376 2096.15 661.541 2095.52 660.167C2094.66 658.228 2095.52 655.962 2097.45 655.098C2115.89 646.786 2132.58 647.735 2143.33 649.972C2155.01 652.422 2162.34 656.854 2162.66 657.038C2164.45 658.142 2165.02 660.507 2163.92 662.306ZM2114.47 743.584C2102.45 757.602 2089.07 764.852 2074.65 764.456C2071.76 764.371 2069 764.003 2066.38 763.394C2051.06 759.854 2040.64 748.37 2035.36 741.035C2033.57 738.557 2035.58 735.131 2038.61 735.456C2043.85 736.023 2051.36 736.773 2059.26 737.382C2064.64 737.807 2070.22 738.147 2075.39 738.331C2090.07 738.855 2103.47 738.26 2111.58 737.736C2114.71 737.523 2116.52 741.191 2114.47 743.584V743.584ZM1993.85 657.321C1992.99 655.395 1993.84 653.116 1995.77 652.252C2014.22 643.954 2030.9 644.889 2041.66 647.14C2044.73 647.777 2047.52 648.57 2049.94 649.377C2056.73 651.629 2060.75 654.064 2060.97 654.206C2062.79 655.296 2063.35 657.661 2062.25 659.474C2061.14 661.272 2058.79 661.838 2056.98 660.748C2056.95 660.72 2055.27 659.714 2052.29 658.454C2051.53 658.128 2050.69 657.789 2049.79 657.449C2047.08 656.429 2043.7 655.381 2039.78 654.574C2025.86 651.728 2012.12 653.3 1998.92 659.247C1998.37 659.488 1997.81 659.587 1997.24 659.573C1995.82 659.53 1994.48 658.709 1993.85 657.321V657.321ZM2084.86 569.473C2078.15 569.289 2071.45 569.232 2064.87 569.303C2015.83 569.77 1972.78 576.326 1972.78 576.326L1971.03 639.182C1968.3 736.731 2028.79 819.85 2067.83 819.397L2077.87 819.68C2081.01 819.765 2084.35 819.382 2087.86 818.533C2129.34 808.592 2192.11 735.4 2194.63 645.441L2196.39 582.585C2196.39 582.585 2150.73 571.313 2084.86 569.473Z" fill="#EBF3FA"/>
<path d="M2064.87 569.303C2055.27 596.334 2050.83 623.351 2049.94 649.363V649.377C2047.52 648.57 2044.73 647.777 2041.66 647.14C2030.9 644.889 2014.22 643.954 1995.77 652.252C1993.84 653.116 1992.99 655.395 1993.85 657.321C1994.48 658.709 1995.82 659.53 1997.24 659.573C1997.81 659.587 1998.37 659.488 1998.92 659.247C2012.12 653.3 2025.86 651.728 2039.78 654.574C2043.7 655.381 2047.08 656.429 2049.79 657.449C2049.57 685.896 2053.47 712.984 2059.26 737.382C2051.36 736.773 2043.85 736.023 2038.61 735.456C2035.58 735.13 2033.57 738.557 2035.36 741.035C2040.64 748.37 2051.06 759.854 2066.38 763.394C2073.19 785.314 2081.05 804.132 2087.86 818.533C2084.35 819.382 2081.01 819.765 2077.87 819.68L2067.83 819.397C2028.79 819.85 1968.3 736.731 1971.03 639.182L1972.78 576.326C1972.78 576.326 2015.83 569.77 2064.87 569.303" fill="#D0DFEA"/>
<path d="M2227.86 735.442C2227.86 735.442 2216.07 700.665 2221.07 680.133C2226.07 659.601 2198.74 604.122 2195.75 605.227C2192.76 606.346 2192.69 670.674 2189.83 686.519C2187.41 699.872 2179.45 712.871 2189.83 742.352L2227.86 735.442" fill="#FFB27D"/>
<path d="M1936.05 735.442C1936.05 735.442 1947.85 700.665 1942.85 680.133C1937.85 659.601 1965.18 604.122 1968.17 605.227C1971.14 606.346 1971.23 670.674 1974.09 686.519C1976.5 699.872 1984.47 712.871 1974.09 742.352L1936.05 735.442" fill="#FFB27D"/>
<path d="M1867.28 950.547C1831.76 937.817 1780.41 913.929 1773.54 880.483L1773.55 880.469C1775.58 878.954 1905.48 782.17 1936.05 781.887C1958.09 781.66 1901.35 889.277 1867.28 950.547Z" fill="#ED7D2B"/>
<path d="M1974.09 742.352C1974.09 742.352 1926.14 1020.54 1886.55 1042.81C1846.95 1065.09 1821.25 1067.78 1821.25 1067.78C1821.25 1067.78 1765.21 991.186 1809.44 929.717C1853.66 868.249 1936.06 735.442 1936.06 735.442L1974.09 742.352" fill="#FFB27D"/>
<path d="M2397.58 894.827C2397.58 894.827 2365.91 931.303 2320.33 954.327C2282.05 900.944 2231.98 795.849 2252.13 796.67C2279.66 797.76 2395.76 893.312 2397.57 894.813L2397.58 894.827" fill="#ED7D2B"/>
<path d="M2189.83 742.352C2189.83 742.352 2237.76 1020.54 2277.37 1042.81C2316.97 1065.09 2342.67 1067.78 2342.67 1067.78C2342.67 1067.78 2398.7 991.186 2354.48 929.717C2310.26 868.249 2227.86 735.442 2227.86 735.442L2189.83 742.352" fill="#FFB27D"/>
<path d="M2032.4 306.692C2032.4 306.692 2053.48 366.064 2100.1 397.146C2146.71 428.213 2164.48 426.556 2164.48 426.556C2164.48 426.556 2145.75 397.698 2144.84 378.271C2144.84 378.271 2163.35 441.566 2202.19 426.57C2241.05 411.575 2155.45 261.479 2083.66 270.626C2011.87 279.788 2032.4 306.692 2032.4 306.692Z" fill="#2C3A64"/>
<path d="M2062.36 324.448C2062.36 324.448 1985.23 360.514 1979.29 411.291C1979.29 411.291 1931.96 378.837 1964.43 310.571C1984.44 268.502 2051.32 261.479 2062.82 279.787C2074.3 298.096 2062.36 324.448 2062.36 324.448" fill="#2C3A64"/>
<path d="M2139.27 2615.52H2070.73C2060.04 2590.1 2100.44 2566.34 2107.8 2536.62C2108.91 2532.12 2109.66 2525.29 2110.11 2516.56C2110.34 2512.25 2110.51 2507.45 2110.61 2502.24C2111.67 2448.56 2106.63 2351.27 2107.76 2270.91C2109.18 2169.94 2072.83 2143.09 2070.83 2141.69C2089.21 2143.98 2108.95 2150.22 2128.86 2162.83L2115.86 2504.22V2504.24C2116.26 2505.16 2129.18 2534.95 2133.69 2558.07C2137.38 2577.12 2138.84 2605.47 2139.27 2615.52" fill="#202D4C"/>
<path d="M2126.76 2506.46C2126.76 2506.46 2117.91 2545.03 2108.78 2558.07C2099.64 2571.12 2089.36 2593.11 2097.36 2619.2H2220.64C2220.64 2619.2 2219.51 2581.57 2214.94 2558.07C2210.38 2534.58 2198.59 2507.34 2198.59 2507.34C2198.59 2507.34 2157.13 2482.87 2126.76 2506.46" fill="#2C3A64"/>
<path d="M3433.52 2614.52H3267.72C3258.84 2606.98 3273.88 2589.86 3289.58 2588.72C3296.41 2588.19 3305.03 2589.62 3314.88 2591.7C3317.16 2561.4 3330.19 2425.18 3379.3 2430.65C3434.51 2436.78 3379.3 2490.64 3363.69 2522.53C3352.13 2546.15 3339.93 2580.02 3334.35 2596.01C3338.84 2596.99 3343.49 2597.94 3348.22 2598.81C3355.54 2576.34 3382.77 2500.76 3417.4 2505.16C3458.06 2510.31 3441.72 2540.62 3412.9 2558.61C3391.76 2571.84 3365.79 2590.64 3353.46 2599.72C3363.91 2601.43 3374.82 2602.58 3385.88 2602.32C3414.29 2601.65 3428.15 2610.01 3433.52 2614.52" fill="#A8D29F"/>
<path d="M923.751 2606.86C915.208 2593.45 889.505 2558.61 855.266 2563.23C817.964 2568.24 896.466 2592.84 920.5 2606.96C915.163 2607.04 910.572 2606.6 907.203 2605.41C891.136 2599.68 863.618 2610.67 854.821 2614.52H1007.78C1006.73 2610.85 1003.97 2604.89 996.846 2600.53C994.336 2599 989.286 2598.77 982.77 2599.28C991.865 2588.55 998.18 2554.29 972.861 2563.12C954.365 2569.56 954.414 2590.49 956.23 2602.86C952.295 2603.49 948.304 2604.09 944.362 2604.68C936.745 2565.85 909.81 2452.1 855.214 2449.07C799.865 2446 902.148 2567.04 936.205 2605.75C931.842 2606.28 927.639 2606.67 923.751 2606.86" fill="#A8D29F"/>
<path d="M1855.57 2439.56C1855.57 2439.56 1770.86 2062.21 1683.1 2088.54C1595.35 2114.87 1855.57 2439.56 1855.57 2439.56" fill="#A8D29F"/>
<path d="M1810.5 2439.56C1810.5 2439.56 1687.65 2272.18 1641.57 2300.7C1595.51 2329.22 1810.5 2439.56 1810.5 2439.56Z" fill="#A8D29F"/>
<path d="M2543.22 2517.12C2545.42 2517.89 2549.81 2297.81 2595.87 2328.87C2641.93 2359.93 2543.22 2517.12 2543.22 2517.12Z" fill="#A8D29F"/>
<path d="M2527.25 2507.41C2527.25 2507.41 2517.01 2381.66 2489.23 2388.48C2461.43 2395.32 2527.25 2507.41 2527.25 2507.41Z" fill="#A8D29F"/>
<path d="M2573.61 2508.06C2573.61 2508.06 2632.33 2413.84 2646.96 2433.37C2661.58 2452.89 2573.61 2508.06 2573.61 2508.06Z" fill="#A8D29F"/>
<path d="M3876.06 2623.48H503.324C501.217 2623.48 499.494 2621.75 499.494 2619.66V2618.34C499.494 2616.24 501.217 2614.52 503.324 2614.52H3876.06C3878.17 2614.52 3879.9 2616.24 3879.9 2618.34V2619.66C3879.9 2621.75 3878.17 2623.48 3876.06 2623.48Z" fill="#2E3552"/>
</g>
<defs>
<clipPath id="clip0_148_17091">
<rect width="4248" height="2832" fill="white"/>
</clipPath>
</defs>
</svg>
